<svg width="40" height="40" viewBox="0 0 40 40" fill="none" xmlns="http://www.w3.org/2000/svg">
<path d="M21.9332 33.7584C22.491 33.1908 22.491 32.2706 21.9332 31.703C21.3754 31.1355 20.4711 31.1355 19.9133 31.703L14.2 37.5164C13.6422 38.0839 13.6422 39.0041 14.2 39.5717C14.7578 40.1393 15.6621 40.1393 16.2199 39.5717L21.9332 33.7584Z" fill="#5C62F9"/>
<path d="M26.6346 32.737C22.6904 32.737 19.493 29.4835 19.493 25.4703C19.493 21.457 22.6904 18.2036 26.6346 18.2036C30.5788 18.2036 33.7762 21.457 33.7762 25.4703C33.7762 29.4835 30.5788 32.737 26.6346 32.737ZM26.6346 35.6436C32.1565 35.6436 36.6328 31.0889 36.6328 25.4703C36.6328 19.8517 32.1565 15.2969 26.6346 15.2969C21.1127 15.2969 16.6363 19.8517 16.6363 25.4703C16.6363 31.0889 21.1127 35.6436 26.6346 35.6436Z" fill="#5C62F9"/>
<circle cx="24.9552" cy="6.47081" r="6.47081" fill="#FFCC00"/>
<circle cx="9.66148" cy="13.5287" r="5.2943" fill="#35C89F"/>
<circle cx="5.52953" cy="28.2366" r="3.52953" fill="#F97F88"/>
</svg>
