<svg width="40" height="40" viewBox="0 0 40 40" fill="none" xmlns="http://www.w3.org/2000/svg">
<path d="M12.3438 25.873V11.8539C12.3438 11.3756 12.6439 10.9486 13.094 10.7866L30.1089 4.66361C30.8481 4.39761 31.6273 4.94535 31.6273 5.73093V31.996C31.6273 32.7816 30.8481 33.3293 30.1089 33.0633L13.094 26.9403C12.6439 26.7783 12.3438 26.3513 12.3438 25.873Z" fill="#35C89F"/>
<rect x="1" y="10.9219" width="10.209" height="15.8806" rx="1.13433" fill="#5C62F9"/>
<path d="M32.7612 24.8231C32.7612 25.2903 33.142 25.6751 33.605 25.6124C36.6514 25.2005 39 22.5896 39 19.4302C39 16.2708 36.6514 13.6599 33.605 13.248C33.142 13.1854 32.7612 13.5701 32.7612 14.0373L32.7612 24.8231Z" fill="#FFCC00"/>
<path d="M5.83649 35.125L3.8109 29.4533C3.54707 28.7146 4.09472 27.9375 4.87915 27.9375H7.80684C8.43332 27.9375 8.94117 28.4454 8.94117 29.0718V34.7435C8.94117 35.3699 8.43332 35.8778 7.80685 35.8778H6.90474C6.42535 35.8778 5.99772 35.5764 5.83649 35.125Z" fill="#5C62F9"/>
</svg>
