<svg width="172" height="152" viewBox="0 0 172 152" fill="none" xmlns="http://www.w3.org/2000/svg">
<path d="M91.3199 151.827C91.7766 152.137 92.3985 152.019 92.7091 151.562L97.7697 144.12C98.0803 143.663 97.9618 143.041 97.5051 142.731C97.0484 142.42 96.4264 142.539 96.1158 142.995L91.6175 149.611L85.002 145.112C84.5453 144.802 83.9233 144.92 83.6128 145.377C83.3022 145.834 83.4207 146.456 83.8774 146.766L91.3199 151.827ZM98.6018 122.016L99.4658 121.512L98.6018 122.016ZM78.6055 120.768L79.5259 120.377L78.6055 120.768ZM92.4789 101.789L91.7804 102.504L91.7805 102.504L92.4789 101.789ZM83.3074 107.499L83.6496 106.559H83.6496L83.3074 107.499ZM74.9931 95.8824C74.9281 95.334 74.4309 94.942 73.8824 95.0069C73.334 95.0719 72.942 95.5691 73.0069 96.1176L74.9931 95.8824ZM92.8645 150.813C90.8841 140.417 90.8963 133.138 91.8015 128.388L89.8369 128.013C88.8682 133.096 88.892 140.647 90.8998 151.187L92.8645 150.813ZM91.8015 128.388C92.5763 124.322 93.9636 122.305 95.1047 121.609C95.6425 121.281 96.1067 121.251 96.4917 121.375C96.8965 121.505 97.3484 121.851 97.7379 122.519L99.4658 121.512C98.8948 120.533 98.0915 119.789 97.1044 119.471C96.0975 119.147 95.0331 119.31 94.0634 119.902C92.1893 121.045 90.6458 123.768 89.8369 128.013L91.8015 128.388ZM97.7379 122.519C98.0369 123.033 98.0569 123.482 97.9139 123.901C97.7587 124.356 97.3778 124.864 96.7223 125.358C95.4076 126.35 93.2327 127.098 90.777 127.201L90.8614 129.2C93.6181 129.083 96.2135 128.247 97.9265 126.955C98.7848 126.308 99.4822 125.499 99.8069 124.546C100.144 123.558 100.046 122.507 99.4658 121.512L97.7379 122.519ZM90.777 127.201C86.5185 127.381 81.757 125.628 79.5259 120.377L77.6851 121.159C80.3291 127.382 86.0179 129.404 90.8614 129.2L90.777 127.201ZM79.5259 120.377C77.4739 115.546 79.1774 110.837 82.1245 107.334L80.594 106.047C77.3558 109.896 75.237 115.396 77.6851 121.159L79.5259 120.377ZM82.1245 107.334C83.9009 105.222 86.0754 103.623 87.993 102.783C88.9536 102.362 89.8036 102.152 90.4777 102.132C91.1522 102.113 91.5534 102.283 91.7804 102.504L93.1774 101.073C92.4357 100.349 91.429 100.104 90.4199 100.133C89.4103 100.163 88.3012 100.464 87.1905 100.951C84.9654 101.926 82.5488 103.723 80.594 106.047L82.1245 107.334ZM91.7805 102.504C92.4606 103.168 92.5654 103.759 92.4557 104.243C92.332 104.787 91.8836 105.417 91.0445 105.97C89.3738 107.073 86.5276 107.607 83.6496 106.559L82.9653 108.439C86.416 109.695 89.9274 109.104 92.1461 107.64C93.2517 106.91 94.131 105.896 94.406 104.686C94.6948 103.414 94.2691 102.139 93.1774 101.073L91.7805 102.504ZM83.6496 106.559C82.9739 106.313 82.3548 106.055 81.787 105.786L80.9315 107.594C81.5595 107.891 82.2361 108.173 82.9653 108.439L83.6496 106.559ZM81.787 105.786C79.0551 104.494 77.4993 102.953 76.5564 101.323C75.6014 99.6722 75.2256 97.8463 74.9931 95.8824L73.0069 96.1176C73.2494 98.165 73.6639 100.317 74.8251 102.325C75.9984 104.353 77.8848 106.152 80.9315 107.594L81.787 105.786Z" fill="#FFEDA6"/>
<path d="M128.245 0.557831C130.346 1.29649 132.395 2.14068 134.409 3.0498C136.424 3.95893 138.402 4.94111 140.344 5.98214C144.249 8.05798 148.021 10.3808 151.635 12.9366C155.281 15.4888 158.695 18.3613 161.839 21.5205C163.421 23.1222 164.892 24.8322 166.24 26.6384C167.615 28.4652 168.8 30.429 169.778 32.499C170.785 34.6116 171.47 36.865 171.811 39.1835C172.138 41.5372 172.04 43.9311 171.521 46.2495C171.002 48.543 170.129 50.7404 168.935 52.7615C167.765 54.7532 166.369 56.6007 164.775 58.267C163.201 59.9128 161.492 61.4213 159.665 62.7761C157.867 64.1224 155.985 65.3506 154.03 66.4532C150.139 68.6311 146.069 70.4644 141.864 71.9323C137.689 73.3958 133.434 74.6154 129.12 75.5851C126.973 76.0721 124.814 76.5124 122.644 76.9061C120.476 77.2917 118.304 77.6448 116.127 77.9472C107.412 79.1647 98.6413 79.7532 89.8744 79.944C85.495 80.0353 81.0975 80.0191 76.708 79.8648C72.3185 79.7106 67.925 79.4143 63.5477 78.9476C61.3579 78.7163 59.1723 78.4484 56.9906 78.1257C54.809 77.8031 52.6333 77.448 50.4658 77.0279C46.1196 76.2064 41.8199 75.1517 37.5852 73.8683C33.3194 72.5857 29.1495 70.9989 25.1071 69.1197C23.0824 68.168 21.0819 67.129 19.1538 65.9865C17.2053 64.8396 15.3238 63.5807 13.5185 62.216C12.6169 61.524 11.7273 60.8138 10.872 60.0528C10.0166 59.2918 9.1794 58.5105 8.37839 57.6826C6.75157 56.0221 5.29636 54.1993 4.03519 52.242C2.74707 50.2463 1.73163 48.0846 1.0163 45.8152C0.276047 43.4977 -0.0643311 41.0692 0.0100098 38.6356C0.0522919 37.4062 0.20726 36.1834 0.472916 34.9828C0.741638 33.7986 1.10646 32.6387 1.56372 31.5148C2.01216 30.4048 2.54507 29.3315 3.1577 28.3044C3.75531 27.2866 4.41608 26.3079 5.13608 25.3741C5.8414 24.4475 6.5952 23.5595 7.39423 22.7137C7.78467 22.2855 8.19926 21.8857 8.60179 21.4758C8.80304 21.2729 9.01839 21.0801 9.22771 20.8833C9.43701 20.6864 9.64633 20.4896 9.86168 20.3009L10.5037 19.7306L11.1598 19.1807C11.5945 18.8073 12.0473 18.4644 12.4921 18.1072C13.3958 17.4172 14.3035 16.7435 15.2454 16.1124C18.9848 13.5595 22.9717 11.4775 27.0553 9.68764C31.1358 7.91832 35.3254 6.41621 39.5978 5.19071C48.1064 2.76797 56.8307 1.19514 65.6448 0.494919C70.0383 0.123558 74.4499 -0.026619 78.8534 0.00382233C83.257 0.0342636 87.6384 0.206757 92.0259 0.553764C94.2196 0.710022 96.4093 0.959633 98.599 1.20518L101.874 1.65568C102.419 1.72467 102.962 1.82208 103.506 1.9134L105.138 2.19141C105.681 2.28679 106.225 2.36796 106.766 2.47754L108.388 2.81035C109.469 3.0356 110.554 3.23447 111.623 3.51451C112.691 3.79455 113.77 4.03199 114.843 4.31203L118.029 5.22723C122.26 6.51967 126.404 8.08755 130.434 9.92101C134.44 11.811 138.313 13.9759 142.025 16.4006C142.295 16.5739 142.486 16.8484 142.556 17.1637C142.625 17.479 142.568 17.8092 142.396 18.0818C142.224 18.3544 141.952 18.547 141.639 18.6172C141.327 18.6875 140.999 18.6295 140.729 18.4562L140.709 18.442C137.068 16.1469 133.275 14.106 129.358 12.3338C125.412 10.6215 121.361 9.16882 117.23 7.98506L114.118 7.14493C113.074 6.88721 112.021 6.66196 110.974 6.41845C109.928 6.17493 108.869 5.9801 107.815 5.77312L106.231 5.46872C105.701 5.36929 105.168 5.29827 104.637 5.21101L103.041 4.9614C102.509 4.8782 101.98 4.78892 101.445 4.73006L98.2388 4.32421C96.0933 4.12128 93.9499 3.89602 91.7985 3.77223C87.4928 3.49355 83.1765 3.37043 78.8494 3.4029C74.5425 3.4313 70.2355 3.63221 65.9507 4.03604C57.3852 4.80759 48.9156 6.42664 40.6644 8.86983C36.5641 10.095 32.5466 11.5863 28.6372 13.3343C24.7572 15.0514 21.039 17.1181 17.5276 19.5094C16.6562 20.104 15.8169 20.727 14.9877 21.3764C14.5852 21.7072 14.1666 22.0258 13.7802 22.3687L13.1764 22.8761L12.5968 23.3996C11.828 24.0997 11.0833 24.8201 10.3829 25.5791C9.67966 26.3247 9.01657 27.1077 8.3965 27.9249C7.77892 28.7264 7.21288 29.5669 6.70189 30.4413C6.1935 31.2977 5.74884 32.1911 5.37157 33.1139C4.99893 34.0223 4.69943 34.9595 4.47597 35.9163C4.26138 36.863 4.13405 37.8276 4.09558 38.7979C4.05881 39.7737 4.1073 40.7509 4.24048 41.7181C4.37654 42.6974 4.59192 43.6639 4.88451 44.6078C5.48688 46.5303 6.34322 48.3623 7.43044 50.0544C9.61008 53.5043 12.5948 56.4853 15.9095 59.0463C17.5862 60.3269 19.3333 61.5112 21.1423 62.5935C22.959 63.6758 24.83 64.6742 26.7554 65.5887C30.6195 67.4152 34.6078 68.9613 38.6901 70.2155C42.7911 71.4862 46.9564 72.5354 51.1682 73.3589C53.2754 73.781 55.3946 74.1422 57.526 74.4689C59.6573 74.7957 61.7927 75.0777 63.9341 75.3111C68.2189 75.7961 72.5279 76.1046 76.8429 76.2933C81.1579 76.482 85.4809 76.5165 89.812 76.4536C98.4662 76.3176 107.12 75.79 115.678 74.6496C117.817 74.3655 119.949 74.0408 122.074 73.6694C124.199 73.298 126.312 72.878 128.416 72.4153C132.615 71.4988 136.757 70.3381 140.823 68.9391C144.867 67.5594 148.784 65.828 152.531 63.7644C153.462 63.2489 154.368 62.695 155.266 62.1308C156.163 61.5667 157.033 60.964 157.882 60.3308C159.576 59.0888 161.163 57.7046 162.626 56.1931C164.07 54.703 165.338 53.0488 166.403 51.2639C167.454 49.5112 168.227 47.6036 168.694 45.6103C169.15 43.6346 169.248 41.5921 168.984 39.5812C168.698 37.5422 168.109 35.5582 167.237 33.6963C166.352 31.7911 165.277 29.9818 164.029 28.2963C162.768 26.5792 161.392 24.9518 159.909 23.426C156.897 20.3616 153.622 17.5713 150.123 15.0876C146.618 12.5689 142.959 10.276 139.167 8.22248C137.271 7.1916 135.346 6.22363 133.391 5.31856C131.437 4.41755 129.454 3.58148 127.446 2.86108C127.143 2.75344 126.896 2.5292 126.758 2.23769C126.62 1.94617 126.602 1.61127 126.709 1.30664C126.816 1.00202 127.038 0.752632 127.327 0.613342C127.616 0.474052 127.948 0.456268 128.251 0.563911L128.245 0.557831Z" fill="#FFEDA6"/>
<path d="M22.7771 30.0469C22.4959 29.4141 22.3552 28.6699 22.3552 27.8145C22.3552 26.959 22.49 26.2031 22.7595 25.5469C23.0408 24.8789 23.4216 24.3047 23.9021 23.8242C24.9216 22.8281 26.199 22.3301 27.7341 22.3301C29.3396 22.3301 30.6638 22.6992 31.7068 23.4375C32.8787 24.2812 33.4646 25.4883 33.4646 27.0586C33.4646 29.0039 33.0134 30.4395 32.1111 31.3652C31.2205 32.291 29.8259 32.7539 27.9275 32.7539C25.2908 32.7539 23.574 31.8516 22.7771 30.0469ZM23.7966 27.4629C23.7966 30.2285 25.1912 31.6113 27.9802 31.6113C29.3513 31.6113 30.4646 31.2012 31.3201 30.3809C32.1755 29.5723 32.6033 28.5117 32.6033 27.1992C32.6033 25.9688 32.0935 25.0312 31.074 24.3867C30.2068 23.8242 29.1111 23.543 27.7869 23.543C26.7322 23.543 25.8005 23.9238 24.992 24.6855C24.1951 25.4473 23.7966 26.373 23.7966 27.4629ZM34.9538 30.6621C34.9538 30.4746 34.9362 30.2168 34.9011 29.8887C34.8777 29.5488 34.8542 29.1797 34.8308 28.7812C34.8073 28.3828 34.7956 27.9785 34.7956 27.5684C34.7956 27.1582 34.8308 26.7832 34.9011 26.4434C35.0534 25.6816 35.3698 25.3008 35.8503 25.3008C36.1784 25.3945 36.3952 25.5117 36.5007 25.6523C36.6179 25.793 36.6765 25.9688 36.6765 26.1797C36.6765 26.3789 36.6237 26.6309 36.5183 26.9355C36.1316 27.9551 35.9382 28.875 35.9382 29.6953C35.9382 29.9648 35.9558 30.252 35.9909 30.5566C36.1784 31.3418 36.823 31.7344 37.9245 31.7344C38.4987 31.7344 39.0437 31.6348 39.5593 31.4355C40.5437 31.0723 41.2116 30.6445 41.5632 30.1523C41.6687 29.6133 41.7214 29.1445 41.7214 28.7461C41.7214 28.3359 41.7038 27.9727 41.6687 27.6562C41.6452 27.3398 41.6101 26.9941 41.5632 26.6191C41.528 26.2324 41.5046 25.8105 41.4929 25.3535C41.6452 25.2832 41.7917 25.248 41.9323 25.248C42.0847 25.248 42.237 25.3242 42.3894 25.4766C42.5534 25.6289 42.6882 25.916 42.7937 26.3379C42.9109 26.7598 42.987 27.2578 43.0222 27.832C43.0573 28.3945 43.0749 28.9805 43.0749 29.5898C43.0866 30.1992 43.0925 30.791 43.0925 31.3652C43.0925 31.9277 43.1159 32.4141 43.1628 32.8242C43.0222 32.9531 42.8874 33.0176 42.7585 33.0176C42.2898 33.0176 41.9441 32.5488 41.7214 31.6113C41.5691 31.7402 41.3112 31.8984 40.948 32.0859C40.1745 32.5078 39.2605 32.7891 38.2058 32.9297C38.0066 32.9531 37.7839 32.9648 37.5378 32.9648C37.2917 32.9648 36.9812 32.918 36.6062 32.8242C36.2429 32.7305 35.8972 32.5137 35.5691 32.1738C35.2409 31.834 35.0359 31.3301 34.9538 30.6621ZM53.3532 26.584C52.861 26.2324 52.2282 26.0566 51.4548 26.0566C50.7282 26.0566 50.0544 26.1914 49.4333 26.4609C48.2614 26.9531 47.4587 27.5859 47.0251 28.3594C46.8376 28.7109 46.7438 29.0859 46.7438 29.4844C46.7438 29.5547 46.7438 29.7539 46.7438 30.082C46.7438 30.3984 46.8024 30.832 46.9196 31.3828C47.0368 31.9219 47.0954 32.4727 47.0954 33.0352C46.8493 33.0469 46.6501 33.0762 46.4977 33.123C46.3454 33.1699 46.2165 33.1934 46.111 33.1934C46.0055 33.1934 45.9118 33.1465 45.8298 33.0527C45.7595 32.959 45.6774 32.7773 45.5837 32.5078C45.572 32.4375 45.5485 32.2383 45.5134 31.9102C45.4782 31.582 45.4313 31.1836 45.3727 30.7148C45.3259 30.2461 45.2673 29.7363 45.197 29.1855C45.1384 28.623 45.0798 28.0723 45.0212 27.5332C44.8923 26.3613 44.7927 25.5 44.7223 24.9492C44.7223 24.668 44.9274 24.5273 45.3376 24.5273C45.5837 24.5273 45.777 24.6328 45.9177 24.8438C46.0583 25.043 46.1696 25.2773 46.2516 25.5469C46.3337 25.8047 46.3864 26.0625 46.4098 26.3203C46.445 26.5781 46.4743 26.7598 46.4977 26.8652C48.0446 25.4824 49.9665 24.791 52.2634 24.791C52.5212 24.791 52.7907 24.7969 53.072 24.8086C53.1423 24.7969 53.2302 24.791 53.3356 24.791C53.4411 24.791 53.5466 24.8613 53.652 25.002C53.7809 25.166 53.8454 25.3652 53.8454 25.5996C53.8454 26.1855 53.6813 26.5137 53.3532 26.584ZM64.5406 22.5586C65.1852 21.9375 66.3512 21.627 68.0387 21.627C69.0934 21.627 69.9781 21.7324 70.693 21.9434C71.4078 22.1543 71.941 22.377 72.2926 22.6113C72.6559 22.8457 72.8375 23.1035 72.8375 23.3848C72.8375 24.0293 72.0875 24.668 70.5875 25.3008C70.3648 25.4062 69.7789 25.623 68.8297 25.9512C67.8922 26.2676 67.2594 26.4844 66.9312 26.6016C66.2164 26.8711 65.7418 27.082 65.5074 27.2344C65.5074 27.293 65.5309 27.3457 65.5777 27.3926C65.6246 27.4277 65.7359 27.498 65.9117 27.6035C66.0875 27.6973 66.3512 27.8379 66.7027 28.0254C67.0543 28.2012 67.5406 28.459 68.1617 28.7988C70.0133 29.8066 71.9176 30.8848 73.8746 32.0332C73.9684 32.1035 74.0914 32.2031 74.2437 32.332C74.3961 32.4492 74.4723 32.584 74.4723 32.7363C74.4723 32.877 74.4254 32.9766 74.3316 33.0352C74.2379 33.0938 74.1266 33.1348 73.9977 33.1582C73.8687 33.1934 73.734 33.2109 73.5934 33.2109H73.2418C73.0074 33.2109 72.5152 32.959 71.7652 32.4551C71.027 31.9512 70.3824 31.5117 69.8316 31.1367C69.2926 30.7617 68.7418 30.3984 68.1793 30.0469C66.8551 29.1914 65.8062 28.6348 65.0328 28.377V32.4023C65.0328 32.6367 64.8336 32.7539 64.4352 32.7539H64.2418C63.9957 32.7539 63.8141 32.6309 63.6969 32.3848C63.5328 32.0098 63.4508 31.3184 63.4508 30.3105L63.5035 26.7773C63.5035 25.043 63.4273 23.5195 63.275 22.207C63.5562 21.7266 63.902 21.7441 64.3121 22.2598C64.4059 22.377 64.482 22.4766 64.5406 22.5586ZM70.482 22.7695L69.3395 22.752C66.691 22.752 65.1676 23.0566 64.7691 23.666C64.652 23.8301 64.5934 24.041 64.5934 24.2988C64.5934 24.5449 64.6051 24.7617 64.6285 24.9492C64.6871 25.4297 64.8219 25.7754 65.0328 25.9863C65.068 25.998 65.1266 26.0039 65.2086 26.0039C65.3023 26.0039 65.4664 25.9805 65.7008 25.9336C65.9469 25.8867 66.2691 25.8047 66.6676 25.6875C67.0777 25.5586 67.5113 25.4062 67.9684 25.2305C68.4254 25.0547 68.8648 24.873 69.2867 24.6855C70.6109 24.0879 71.273 23.6016 71.273 23.2266C71.273 23.0156 71.0094 22.8633 70.482 22.7695ZM79.899 31.7695C80.9302 31.7695 82.483 31.3008 84.5572 30.3633C84.6861 30.3633 84.7916 30.4102 84.8736 30.5039C84.9556 30.5859 84.9966 30.6855 84.9966 30.8027C84.5279 31.5996 83.6314 32.2207 82.3072 32.666C80.983 33.1113 79.7466 33.1875 78.5982 32.8945C77.2974 32.5547 76.5064 31.8223 76.2252 30.6973C76.2017 30.4746 76.19 30.1758 76.19 29.8008C76.19 29.4258 76.2837 28.9336 76.4712 28.3242C76.6705 27.7031 77.0045 27.1172 77.4732 26.5664C77.942 26.0156 78.4927 25.582 79.1255 25.2656C79.7584 24.9492 80.4322 24.791 81.147 24.791C81.8267 24.791 82.5884 25.0254 83.4322 25.4941C83.8306 25.7168 84.147 25.9688 84.3814 26.25C84.6158 26.5312 84.733 26.8184 84.733 27.1113C84.733 27.1934 84.7271 27.2754 84.7154 27.3574C84.692 28.0723 84.3462 28.5234 83.6783 28.7109C83.3853 28.793 83.0455 28.834 82.6587 28.834L80.1275 28.7285C79.2837 28.7285 78.6392 28.9102 78.1939 29.2734C77.9361 29.4727 77.7545 29.7715 77.649 30.1699C77.942 31.2363 78.692 31.7695 79.899 31.7695ZM83.0279 26.3379C82.7701 26.1504 82.5005 26.0156 82.2193 25.9336C81.938 25.8516 81.7037 25.8105 81.5162 25.8105C81.3287 25.8105 81.024 25.875 80.6021 26.0039C80.1802 26.1211 79.8052 26.2559 79.4771 26.4082C78.6685 26.7832 78.2642 27.1758 78.2642 27.5859C79.2017 27.668 79.9048 27.709 80.3736 27.709C81.6744 27.709 82.5533 27.5977 83.0103 27.375C83.2916 27.2578 83.4322 27.1113 83.4322 26.9355C83.4322 26.7246 83.2974 26.5254 83.0279 26.3379ZM93.6929 31.1543C94.1734 30.9551 94.6421 30.7734 95.0991 30.6094C95.5562 30.4453 95.9898 30.3633 96.3999 30.3633C96.8218 30.3633 97.0327 30.4922 97.0327 30.75C97.0327 30.8086 97.0152 30.9023 96.98 31.0312C96.9566 31.1484 96.7984 31.2949 96.5054 31.4707C96.2241 31.6348 95.8726 31.793 95.4507 31.9453C95.0405 32.0977 94.5894 32.2383 94.0972 32.3672C93.605 32.4961 93.1245 32.6074 92.6558 32.7012C91.6831 32.9004 90.9917 33 90.5816 33C90.1714 33 89.7261 32.9531 89.2456 32.8594C88.7769 32.7656 88.3374 32.6133 87.9273 32.4023C86.978 31.9102 86.5034 31.1836 86.5034 30.2227C86.5034 30.1523 86.5034 30.0117 86.5034 29.8008C86.5034 29.5898 86.5913 29.291 86.7671 28.9043C86.9429 28.5059 87.2066 28.1133 87.5581 27.7266C87.9097 27.3281 88.3198 26.9648 88.7886 26.6367C89.773 25.9336 90.8042 25.4766 91.8823 25.2656C92.2573 25.1836 92.5679 25.1426 92.814 25.1426C93.0718 25.1426 93.2827 25.1484 93.4468 25.1602C93.6109 25.1602 93.7808 25.1719 93.9566 25.1953C94.1323 25.207 94.2847 25.248 94.4136 25.3184C94.7183 25.4707 94.8706 25.7695 94.8706 26.2148C94.8706 26.4961 94.6714 26.7715 94.273 27.041C94.1675 27.1113 94.0737 27.1758 93.9917 27.2344C93.9331 26.9648 93.8569 26.7363 93.7632 26.5488C93.6694 26.3613 93.4644 26.2676 93.148 26.2676C91.7652 26.5605 90.5757 27 89.5796 27.5859C88.4546 28.2539 87.8921 28.957 87.8921 29.6953C87.8921 29.7773 87.898 29.8652 87.9097 29.959C87.9097 30.709 88.1968 31.2422 88.771 31.5586C89.2046 31.793 89.7612 31.9102 90.4409 31.9102C91.1323 31.9102 91.73 31.834 92.2339 31.6816C92.7378 31.5176 93.2241 31.3418 93.6929 31.1543ZM107.153 26.584C106.661 26.2324 106.028 26.0566 105.254 26.0566C104.528 26.0566 103.854 26.1914 103.233 26.4609C102.061 26.9531 101.258 27.5859 100.825 28.3594C100.637 28.7109 100.543 29.0859 100.543 29.4844C100.543 29.5547 100.543 29.7539 100.543 30.082C100.543 30.3984 100.602 30.832 100.719 31.3828C100.836 31.9219 100.895 32.4727 100.895 33.0352C100.649 33.0469 100.45 33.0762 100.297 33.123C100.145 33.1699 100.016 33.1934 99.9106 33.1934C99.8052 33.1934 99.7114 33.1465 99.6294 33.0527C99.5591 32.959 99.477 32.7773 99.3833 32.5078C99.3716 32.4375 99.3481 32.2383 99.313 31.9102C99.2778 31.582 99.2309 31.1836 99.1723 30.7148C99.1255 30.2461 99.0669 29.7363 98.9966 29.1855C98.938 28.623 98.8794 28.0723 98.8208 27.5332C98.6919 26.3613 98.5923 25.5 98.5219 24.9492C98.5219 24.668 98.727 24.5273 99.1372 24.5273C99.3833 24.5273 99.5766 24.6328 99.7173 24.8438C99.8579 25.043 99.9692 25.2773 100.051 25.5469C100.133 25.8047 100.186 26.0625 100.209 26.3203C100.245 26.5781 100.274 26.7598 100.297 26.8652C101.844 25.4824 103.766 24.791 106.063 24.791C106.321 24.791 106.59 24.7969 106.872 24.8086C106.942 24.7969 107.03 24.791 107.135 24.791C107.241 24.791 107.346 24.8613 107.452 25.002C107.581 25.166 107.645 25.3652 107.645 25.5996C107.645 26.1855 107.481 26.5137 107.153 26.584ZM108.906 30.6621C108.906 30.4746 108.888 30.2168 108.853 29.8887C108.83 29.5488 108.806 29.1797 108.783 28.7812C108.759 28.3828 108.747 27.9785 108.747 27.5684C108.747 27.1582 108.783 26.7832 108.853 26.4434C109.005 25.6816 109.322 25.3008 109.802 25.3008C110.13 25.3945 110.347 25.5117 110.453 25.6523C110.57 25.793 110.628 25.9688 110.628 26.1797C110.628 26.3789 110.576 26.6309 110.47 26.9355C110.083 27.9551 109.89 28.875 109.89 29.6953C109.89 29.9648 109.908 30.252 109.943 30.5566C110.13 31.3418 110.775 31.7344 111.876 31.7344C112.451 31.7344 112.996 31.6348 113.511 31.4355C114.496 31.0723 115.164 30.6445 115.515 30.1523C115.621 29.6133 115.673 29.1445 115.673 28.7461C115.673 28.3359 115.656 27.9727 115.621 27.6562C115.597 27.3398 115.562 26.9941 115.515 26.6191C115.48 26.2324 115.456 25.8105 115.445 25.3535C115.597 25.2832 115.744 25.248 115.884 25.248C116.037 25.248 116.189 25.3242 116.341 25.4766C116.505 25.6289 116.64 25.916 116.746 26.3379C116.863 26.7598 116.939 27.2578 116.974 27.832C117.009 28.3945 117.027 28.9805 117.027 29.5898C117.039 30.1992 117.044 30.791 117.044 31.3652C117.044 31.9277 117.068 32.4141 117.115 32.8242C116.974 32.9531 116.839 33.0176 116.71 33.0176C116.242 33.0176 115.896 32.5488 115.673 31.6113C115.521 31.7402 115.263 31.8984 114.9 32.0859C114.126 32.5078 113.212 32.7891 112.158 32.9297C111.958 32.9531 111.736 32.9648 111.49 32.9648C111.244 32.9648 110.933 32.918 110.558 32.8242C110.195 32.7305 109.849 32.5137 109.521 32.1738C109.193 31.834 108.988 31.3301 108.906 30.6621ZM120.256 24.7383C120.409 26.9297 120.537 29.4668 120.643 32.3496C120.573 32.7129 120.291 32.8945 119.799 32.8945C119.67 32.8945 119.536 32.8711 119.395 32.8242C119.266 32.7656 119.184 32.6895 119.149 32.5957V24.7383H120.256ZM118.621 22.3477C118.621 21.9375 118.862 21.7324 119.342 21.7324C119.659 21.7324 119.916 21.8027 120.116 21.9434C120.151 22.0723 120.168 22.2012 120.168 22.3301C120.168 22.4473 120.121 22.5645 120.028 22.6816C119.934 22.7988 119.793 22.8574 119.606 22.8574C119.418 22.8574 119.231 22.8164 119.043 22.7344C118.856 22.6406 118.715 22.5117 118.621 22.3477ZM124.593 31.3125L124.628 28.5C124.628 28.0547 124.587 27.6738 124.505 27.3574H121.781L121.745 26.1445H124.382V21.6094C124.417 21.5039 124.488 21.3984 124.593 21.293C124.757 21.1289 124.892 21.0469 124.997 21.0469C125.115 21.0469 125.214 21.0586 125.296 21.082C125.378 21.1055 125.466 21.1875 125.56 21.3281C125.747 22.1016 125.841 23.2676 125.841 24.8262C125.841 25.2129 125.859 25.5938 125.894 25.9688C126.269 25.9219 126.644 25.8984 127.019 25.8984C127.019 25.8984 127.324 25.8984 127.933 25.8984C128.156 25.8984 128.361 25.8867 128.548 25.8633L128.495 27.1289L125.929 27.0586L126.017 33.123C125.806 33.2168 125.624 33.2637 125.472 33.2637C124.886 33.2637 124.593 32.6133 124.593 31.3125ZM133.342 31.7695C134.373 31.7695 135.926 31.3008 138 30.3633C138.129 30.3633 138.235 30.4102 138.317 30.5039C138.399 30.5859 138.44 30.6855 138.44 30.8027C137.971 31.5996 137.075 32.2207 135.75 32.666C134.426 33.1113 133.19 33.1875 132.041 32.8945C130.741 32.5547 129.95 31.8223 129.668 30.6973C129.645 30.4746 129.633 30.1758 129.633 29.8008C129.633 29.4258 129.727 28.9336 129.914 28.3242C130.114 27.7031 130.448 27.1172 130.916 26.5664C131.385 26.0156 131.936 25.582 132.569 25.2656C133.201 24.9492 133.875 24.791 134.59 24.791C135.27 24.791 136.032 25.0254 136.875 25.4941C137.274 25.7168 137.59 25.9688 137.825 26.25C138.059 26.5312 138.176 26.8184 138.176 27.1113C138.176 27.1934 138.17 27.2754 138.159 27.3574C138.135 28.0723 137.789 28.5234 137.121 28.7109C136.828 28.793 136.489 28.834 136.102 28.834L133.571 28.7285C132.727 28.7285 132.082 28.9102 131.637 29.2734C131.379 29.4727 131.198 29.7715 131.092 30.1699C131.385 31.2363 132.135 31.7695 133.342 31.7695ZM136.471 26.3379C136.213 26.1504 135.944 26.0156 135.662 25.9336C135.381 25.8516 135.147 25.8105 134.959 25.8105C134.772 25.8105 134.467 25.875 134.045 26.0039C133.623 26.1211 133.248 26.2559 132.92 26.4082C132.112 26.7832 131.707 27.1758 131.707 27.5859C132.645 27.668 133.348 27.709 133.817 27.709C135.118 27.709 135.996 27.5977 136.453 27.375C136.735 27.2578 136.875 27.1113 136.875 26.9355C136.875 26.7246 136.741 26.5254 136.471 26.3379ZM148.665 26.584C148.173 26.2324 147.54 26.0566 146.767 26.0566C146.04 26.0566 145.366 26.1914 144.745 26.4609C143.574 26.9531 142.771 27.5859 142.337 28.3594C142.15 28.7109 142.056 29.0859 142.056 29.4844C142.056 29.5547 142.056 29.7539 142.056 30.082C142.056 30.3984 142.115 30.832 142.232 31.3828C142.349 31.9219 142.408 32.4727 142.408 33.0352C142.161 33.0469 141.962 33.0762 141.81 33.123C141.658 33.1699 141.529 33.1934 141.423 33.1934C141.318 33.1934 141.224 33.1465 141.142 33.0527C141.072 32.959 140.99 32.7773 140.896 32.5078C140.884 32.4375 140.861 32.2383 140.825 31.9102C140.79 31.582 140.743 31.1836 140.685 30.7148C140.638 30.2461 140.579 29.7363 140.509 29.1855C140.45 28.623 140.392 28.0723 140.333 27.5332C140.204 26.3613 140.105 25.5 140.034 24.9492C140.034 24.668 140.24 24.5273 140.65 24.5273C140.896 24.5273 141.089 24.6328 141.23 24.8438C141.37 25.043 141.482 25.2773 141.564 25.5469C141.646 25.8047 141.699 26.0625 141.722 26.3203C141.757 26.5781 141.786 26.7598 141.81 26.8652C143.357 25.4824 145.279 24.791 147.575 24.791C147.833 24.791 148.103 24.7969 148.384 24.8086C148.454 24.7969 148.542 24.791 148.648 24.791C148.753 24.791 148.859 24.8613 148.964 25.002C149.093 25.166 149.158 25.3652 149.158 25.5996C149.158 26.1855 148.993 26.5137 148.665 26.584ZM33.8274 55.1543C34.3079 54.9551 34.7766 54.7734 35.2337 54.6094C35.6907 54.4453 36.1243 54.3633 36.5345 54.3633C36.9563 54.3633 37.1673 54.4922 37.1673 54.75C37.1673 54.8086 37.1497 54.9023 37.1145 55.0312C37.0911 55.1484 36.9329 55.2949 36.6399 55.4707C36.3587 55.6348 36.0071 55.793 35.5852 55.9453C35.1751 56.0977 34.7239 56.2383 34.2317 56.3672C33.7395 56.4961 33.2591 56.6074 32.7903 56.7012C31.8177 56.9004 31.1263 57 30.7161 57C30.3059 57 29.8606 56.9531 29.3802 56.8594C28.9114 56.7656 28.472 56.6133 28.0618 56.4023C27.1126 55.9102 26.638 55.1836 26.638 54.2227C26.638 54.1523 26.638 54.0117 26.638 53.8008C26.638 53.5898 26.7259 53.291 26.9016 52.9043C27.0774 52.5059 27.3411 52.1133 27.6927 51.7266C28.0442 51.3281 28.4544 50.9648 28.9231 50.6367C29.9075 49.9336 30.9388 49.4766 32.0169 49.2656C32.3919 49.1836 32.7024 49.1426 32.9485 49.1426C33.2063 49.1426 33.4173 49.1484 33.5813 49.1602C33.7454 49.1602 33.9153 49.1719 34.0911 49.1953C34.2669 49.207 34.4192 49.248 34.5481 49.3184C34.8528 49.4707 35.0052 49.7695 35.0052 50.2148C35.0052 50.4961 34.8059 50.7715 34.4075 51.041C34.302 51.1113 34.2083 51.1758 34.1263 51.2344C34.0677 50.9648 33.9915 50.7363 33.8977 50.5488C33.804 50.3613 33.5989 50.2676 33.2825 50.2676C31.8997 50.5605 30.7102 51 29.7141 51.5859C28.5891 52.2539 28.0266 52.957 28.0266 53.6953C28.0266 53.7773 28.0325 53.8652 28.0442 53.959C28.0442 54.709 28.3313 55.2422 28.9055 55.5586C29.3391 55.793 29.8958 55.9102 30.5755 55.9102C31.2669 55.9102 31.8645 55.834 32.3684 55.6816C32.8723 55.5176 33.3587 55.3418 33.8274 55.1543ZM45.5647 54.082C44.6858 55.4648 43.5139 56.3203 42.0491 56.6484C41.7092 56.7188 41.3987 56.7539 41.1174 56.7539C40.8479 56.7539 40.6194 56.7539 40.4319 56.7539C40.2561 56.7422 40.0569 56.7129 39.8342 56.666C39.6116 56.6191 39.4065 56.543 39.219 56.4375C38.7854 56.1914 38.5686 55.8457 38.5686 55.4004C38.5217 55.1895 38.4983 54.9551 38.4983 54.6973C38.4983 54.4277 38.5569 54.0762 38.6741 53.6426C38.7913 53.209 39.0022 52.7402 39.3069 52.2363C39.6233 51.7324 40.0041 51.2695 40.4495 50.8477C41.3752 49.957 42.3772 49.3828 43.4553 49.125C43.7717 49.0547 44.0588 49.0195 44.3166 49.0195C44.5862 49.0195 44.8264 49.0371 45.0373 49.0723C45.717 49.0723 46.1741 49.5352 46.4084 50.4609C46.5608 51.0469 46.6487 51.8672 46.6721 52.9219C46.7073 53.9648 46.7366 54.7734 46.76 55.3477C46.7952 55.9102 46.8713 56.4258 46.9885 56.8945H45.9514C45.9045 56.5781 45.8694 56.2969 45.8459 56.0508C45.8225 55.8047 45.7991 55.5762 45.7756 55.3652C45.717 54.873 45.6467 54.4453 45.5647 54.082ZM45.4944 51.3574C45.4944 50.6777 45.1604 50.3379 44.4924 50.3379C44.4104 50.3262 44.3284 50.3203 44.2463 50.3203C43.3909 50.3203 42.4885 50.7305 41.5393 51.5508C41.094 51.9258 40.7131 52.3477 40.3967 52.8164C39.928 53.4844 39.6936 54.082 39.6936 54.6094C39.6936 55.3008 40.092 55.7109 40.8889 55.8398C41.9436 55.8164 42.9514 55.3359 43.9123 54.3984C44.3225 53.9883 44.6623 53.543 44.9319 53.0625C45.3069 52.418 45.4944 51.8496 45.4944 51.3574ZM55.2102 53.1504C55.2102 51.7559 55.134 50.7305 54.9816 50.0742C55.0754 49.8984 54.9348 49.8105 54.5598 49.8105C54.1613 49.8105 53.6457 49.9102 53.0129 50.1094C52.3801 50.3086 51.8645 50.5078 51.466 50.707C50.5168 51.1641 49.9895 51.6094 49.884 52.043V56.8242H48.7063C48.5539 56.4258 48.4777 55.3066 48.4777 53.4668C48.4777 51.8262 48.507 50.6191 48.5656 49.8457C48.6359 49.0723 48.6887 48.6328 48.7238 48.5273C49.0285 48.3281 49.2746 48.2285 49.4621 48.2285C49.7551 48.2285 49.9016 48.5742 49.9016 49.2656C49.9016 49.5352 49.884 49.7988 49.8488 50.0566C49.8254 50.3027 49.8137 50.4727 49.8137 50.5664C51.7121 49.1719 53.1828 48.4746 54.2258 48.4746C55.4094 48.4746 56.0832 49.4297 56.2473 51.3398C56.3176 52.0078 56.3527 52.9336 56.3527 54.1172L56.3352 55.5059C56.3352 56.0215 56.3469 56.5195 56.3703 57C56.2531 57.0703 56.1594 57.1055 56.0891 57.1055C56.0539 57.0938 55.9777 57.0762 55.8605 57.0527C55.7434 57.0293 55.591 57.0117 55.4035 57C55.2863 56.5312 55.2219 56.0566 55.2102 55.5762C55.1984 55.084 55.1926 54.6328 55.1926 54.2227L55.2102 53.1504ZM73.9034 56.7539C73.798 56.9531 73.5226 57.0527 73.0773 57.0527C72.6437 57.0527 72.4269 56.8945 72.4269 56.5781C72.4269 55.1953 72.3976 54.2461 72.339 53.7305C72.2335 52.5938 72.0109 51.9844 71.671 51.9023C70.8273 51.7383 70.1359 51.6562 69.5968 51.6562C69.0695 51.6562 68.63 51.8203 68.2784 52.1484C67.9386 52.4648 67.6749 52.998 67.4874 53.748C67.3116 54.4863 67.1827 55.5293 67.1007 56.877H65.7472C65.7706 56.209 65.7823 55.5879 65.7823 55.0137C65.7823 54.4395 65.7706 53.7598 65.7472 52.9746C65.7238 52.1777 65.6945 51.3105 65.6593 50.373C65.6007 49.2949 65.5714 48.3867 65.5714 47.6484C65.5714 46.8984 65.6183 46.2129 65.712 45.5918C65.8292 45.3691 65.9991 45.2578 66.2218 45.2578C66.4913 45.2578 66.7023 45.3574 66.8546 45.5566C67.007 45.7441 67.089 45.9141 67.1007 46.0664L67.0128 48.9668C67.0128 50.0566 67.0655 50.8711 67.171 51.4102C68.2257 50.707 69.3155 50.3555 70.4405 50.3555C70.8038 50.3555 71.1905 50.3848 71.6007 50.4434C72.4796 50.9004 73.0538 51.3867 73.3234 51.9023C73.4523 52.1719 73.5343 52.459 73.5695 52.7637C73.6046 53.0684 73.628 53.4141 73.6398 53.8008C73.7101 55.1367 73.798 56.1211 73.9034 56.7539ZM78.6798 55.7695C79.711 55.7695 81.2638 55.3008 83.338 54.3633C83.4669 54.3633 83.5723 54.4102 83.6544 54.5039C83.7364 54.5859 83.7774 54.6855 83.7774 54.8027C83.3087 55.5996 82.4122 56.2207 81.088 56.666C79.7638 57.1113 78.5274 57.1875 77.379 56.8945C76.0782 56.5547 75.2872 55.8223 75.0059 54.6973C74.9825 54.4746 74.9708 54.1758 74.9708 53.8008C74.9708 53.4258 75.0645 52.9336 75.252 52.3242C75.4513 51.7031 75.7852 51.1172 76.254 50.5664C76.7227 50.0156 77.2735 49.582 77.9063 49.2656C78.5391 48.9492 79.213 48.791 79.9278 48.791C80.6075 48.791 81.3692 49.0254 82.213 49.4941C82.6114 49.7168 82.9278 49.9688 83.1622 50.25C83.3966 50.5312 83.5138 50.8184 83.5138 51.1113C83.5138 51.1934 83.5079 51.2754 83.4962 51.3574C83.4727 52.0723 83.127 52.5234 82.4591 52.7109C82.1661 52.793 81.8263 52.834 81.4395 52.834L78.9083 52.7285C78.0645 52.7285 77.42 52.9102 76.9747 53.2734C76.7169 53.4727 76.5352 53.7715 76.4298 54.1699C76.7227 55.2363 77.4727 55.7695 78.6798 55.7695ZM81.8087 50.3379C81.5509 50.1504 81.2813 50.0156 81.0001 49.9336C80.7188 49.8516 80.4845 49.8105 80.297 49.8105C80.1095 49.8105 79.8048 49.875 79.3829 50.0039C78.961 50.1211 78.586 50.2559 78.2579 50.4082C77.4493 50.7832 77.045 51.1758 77.045 51.5859C77.9825 51.668 78.6856 51.709 79.1544 51.709C80.4552 51.709 81.3341 51.5977 81.7911 51.375C82.0723 51.2578 82.213 51.1113 82.213 50.9355C82.213 50.7246 82.0782 50.5254 81.8087 50.3379ZM85.6885 50.1797C85.6651 49.5469 85.6416 48.9844 85.6182 48.4922C85.5948 47.9883 85.5772 47.6191 85.5655 47.3848C85.5655 47.1387 85.4717 46.5469 85.2842 45.6094C85.3897 45.4688 85.4893 45.334 85.5831 45.2051C85.6885 45.0762 85.835 45.0117 86.0225 45.0117C86.4327 45.0117 86.7491 46.7402 86.9717 50.1973C87.0889 52.2012 87.1475 54.2051 87.1475 56.209C87.1475 56.748 86.7725 57.0176 86.0225 57.0176L85.8819 57C85.8819 56.3906 85.8643 55.6113 85.8291 54.6621C85.794 53.7129 85.7647 52.8867 85.7413 52.1836C85.7295 51.4805 85.712 50.8125 85.6885 50.1797ZM90.4297 49.9512C92.0234 49.4004 93.4004 49.125 94.5605 49.125C96.0371 49.125 97.0215 49.5117 97.5137 50.2852C97.7363 50.6484 97.8477 51.041 97.8477 51.4629C97.8477 52.0488 97.6602 52.6523 97.2852 53.2734C96.9219 53.8945 96.4355 54.457 95.8262 54.9609C94.4082 56.1211 92.6855 56.8418 90.6582 57.123C90.6582 57.252 90.6582 57.457 90.6582 57.7383C90.6699 58.0312 90.6758 58.3535 90.6758 58.7051C90.6875 59.0566 90.6934 59.4316 90.6934 59.8301C90.7051 60.2285 90.7168 60.6094 90.7285 60.9727C90.7637 61.875 90.7871 62.3906 90.7988 62.5195C90.8223 62.6484 90.834 62.7539 90.834 62.8359C90.834 63.1289 90.7402 63.3457 90.5527 63.4863C90.3652 63.6387 90.1191 63.7148 89.8145 63.7148C89.7559 63.7148 89.6973 63.7148 89.6387 63.7148L89.3574 49.582C89.4629 49.4297 89.6035 49.3594 89.7793 49.3711C89.9551 49.3828 90.0957 49.4297 90.2012 49.5117C90.3066 49.5938 90.3828 49.7402 90.4297 49.9512ZM95.5625 50.5664C95.1758 50.3672 94.7598 50.2676 94.3145 50.2676C93.8809 50.2676 93.4473 50.3086 93.0137 50.3906C92.0293 50.5781 91.3027 50.9941 90.834 51.6387C90.623 51.9434 90.5176 52.3184 90.5176 52.7637C90.5176 52.8105 90.5176 52.8574 90.5176 52.9043V55.9453C92.9316 55.4062 94.6426 54.6562 95.6504 53.6953C96.2363 53.1445 96.5293 52.5762 96.5293 51.9902C96.5293 51.3691 96.207 50.8945 95.5625 50.5664ZM113.728 52.1484C113.471 53.0039 113.254 53.7949 113.078 54.5215C112.914 55.248 112.75 55.8516 112.586 56.332C112.328 57.0234 112.035 57.3691 111.707 57.3691C111.531 57.3691 111.332 57.2871 111.109 57.123C110.57 56.5488 109.809 55.2773 108.824 53.3086C107.863 51.3867 107.383 50.1855 107.383 49.7051C107.383 49.4941 107.447 49.3652 107.576 49.3184C107.705 49.2598 107.851 49.2539 108.016 49.3008C108.414 49.418 108.695 49.5996 108.859 49.8457C108.941 49.9629 109.041 50.168 109.158 50.4609L109.598 51.5508C110.09 52.7812 110.576 53.9062 111.057 54.9258C111.314 54.5273 111.56 54.0117 111.795 53.3789L112.34 51.8672C112.809 50.543 113.23 49.8691 113.605 49.8457C113.898 49.6582 114.777 50.6953 116.242 52.957C116.863 53.918 117.25 54.4922 117.402 54.6797C117.508 54.6797 117.631 54.3281 117.771 53.625C117.924 52.9219 118.053 52.3301 118.158 51.8496C118.275 51.3574 118.416 50.9004 118.58 50.4785C118.967 49.4941 119.412 49.002 119.916 49.002C120.08 49.002 120.191 49.0605 120.25 49.1777C120.32 49.2832 120.355 49.3711 120.355 49.4414C120.355 49.5117 120.355 49.5645 120.355 49.5996C120.215 49.998 120.068 50.4551 119.916 50.9707C119.764 51.4746 119.6 51.9961 119.424 52.5352C119.26 53.0625 119.09 53.5898 118.914 54.1172C118.75 54.6328 118.586 55.1016 118.422 55.5234C118.035 56.4375 117.713 56.9297 117.455 57C117.256 57.0938 116.934 56.8652 116.488 56.3145C116.289 56.0566 116.078 55.752 115.855 55.4004C115.633 55.0488 115.398 54.6855 115.152 54.3105C114.555 53.373 114.08 52.6523 113.728 52.1484ZM123.725 48.7383C123.878 50.9297 124.007 53.4668 124.112 56.3496C124.042 56.7129 123.761 56.8945 123.268 56.8945C123.14 56.8945 123.005 56.8711 122.864 56.8242C122.735 56.7656 122.653 56.6895 122.618 56.5957V48.7383H123.725ZM122.091 46.3477C122.091 45.9375 122.331 45.7324 122.811 45.7324C123.128 45.7324 123.386 45.8027 123.585 45.9434C123.62 46.0723 123.638 46.2012 123.638 46.3301C123.638 46.4473 123.591 46.5645 123.497 46.6816C123.403 46.7988 123.263 46.8574 123.075 46.8574C122.888 46.8574 122.7 46.8164 122.513 46.7344C122.325 46.6406 122.184 46.5117 122.091 46.3477ZM128.062 55.3125L128.098 52.5C128.098 52.0547 128.056 51.6738 127.974 51.3574H125.25L125.215 50.1445H127.851V45.6094C127.887 45.5039 127.957 45.3984 128.062 45.293C128.226 45.1289 128.361 45.0469 128.467 45.0469C128.584 45.0469 128.683 45.0586 128.765 45.082C128.848 45.1055 128.935 45.1875 129.029 45.3281C129.217 46.1016 129.31 47.2676 129.31 48.8262C129.31 49.2129 129.328 49.5938 129.363 49.9688C129.738 49.9219 130.113 49.8984 130.488 49.8984C130.488 49.8984 130.793 49.8984 131.402 49.8984C131.625 49.8984 131.83 49.8867 132.017 49.8633L131.965 51.1289L129.398 51.0586L129.486 57.123C129.275 57.2168 129.094 57.2637 128.941 57.2637C128.355 57.2637 128.062 56.6133 128.062 55.3125ZM141.487 56.7539C141.382 56.9531 141.106 57.0527 140.661 57.0527C140.227 57.0527 140.011 56.8945 140.011 56.5781C140.011 55.1953 139.981 54.2461 139.923 53.7305C139.817 52.5938 139.595 51.9844 139.255 51.9023C138.411 51.7383 137.72 51.6562 137.18 51.6562C136.653 51.6562 136.214 51.8203 135.862 52.1484C135.522 52.4648 135.259 52.998 135.071 53.748C134.895 54.4863 134.766 55.5293 134.684 56.877H133.331C133.354 56.209 133.366 55.5879 133.366 55.0137C133.366 54.4395 133.354 53.7598 133.331 52.9746C133.307 52.1777 133.278 51.3105 133.243 50.373C133.184 49.2949 133.155 48.3867 133.155 47.6484C133.155 46.8984 133.202 46.2129 133.296 45.5918C133.413 45.3691 133.583 45.2578 133.805 45.2578C134.075 45.2578 134.286 45.3574 134.438 45.5566C134.591 45.7441 134.673 45.9141 134.684 46.0664L134.596 48.9668C134.596 50.0566 134.649 50.8711 134.755 51.4102C135.809 50.707 136.899 50.3555 138.024 50.3555C138.388 50.3555 138.774 50.3848 139.184 50.4434C140.063 50.9004 140.638 51.3867 140.907 51.9023C141.036 52.1719 141.118 52.459 141.153 52.7637C141.188 53.0684 141.212 53.4141 141.223 53.8008C141.294 55.1367 141.382 56.1211 141.487 56.7539ZM143.556 54.7852C143.556 54.6094 143.633 54.4395 143.785 54.2754C143.949 54.1113 144.131 54.0293 144.33 54.0293C144.529 54.0293 144.681 54.0938 144.787 54.2227C144.892 54.3516 144.945 54.4922 144.945 54.6445C144.945 54.7852 144.886 54.9199 144.769 55.0488C144.664 55.166 144.564 55.2246 144.47 55.2246C144.377 55.2246 144.289 55.2246 144.207 55.2246C144.136 55.2246 144.008 55.1953 143.82 55.1367C143.644 55.0781 143.556 54.9609 143.556 54.7852ZM142.994 51.4102C142.83 51.3633 142.748 51.2754 142.748 51.1465C142.748 50.9707 142.836 50.8242 143.011 50.707C143.187 50.5898 143.328 50.5254 143.433 50.5137C143.797 50.5605 144.025 50.6543 144.119 50.7949C144.224 50.9238 144.277 51.0293 144.277 51.1113C144.277 51.3574 144.125 51.5156 143.82 51.5859C143.773 51.6094 143.685 51.6211 143.556 51.6211C143.439 51.6211 143.252 51.5508 142.994 51.4102Z" fill="#01082D"/>
</svg>
