<svg width="40" height="40" viewBox="0 0 40 40" fill="none" xmlns="http://www.w3.org/2000/svg">
<path d="M21.3517 30.9285C21.0107 30.96 18.3707 33.1615 13.4298 37.5331C13.1673 37.7655 12.8391 37.9195 12.486 37.976C12.1328 38.0324 11.77 37.9889 11.4424 37.8508C11.1148 37.7127 10.8368 37.486 10.6426 37.1988C10.4485 36.9116 10.3467 36.5764 10.3498 36.2345C10.3865 32.101 10.37 29.7437 10.3058 29.1645C10.2728 28.8617 10.3645 28.6745 10.3058 28.6395C6.13133 26.1212 3 21.8564 3 17.0089C3 9.27206 10.3883 3 19.5 3C28.6117 3 36 9.27205 36 17.0071C36 24.2119 29.5925 30.148 21.3517 30.9285Z" fill="#F97F88"/>
<circle cx="11" cy="16" r="2" fill="#FFCC00"/>
<circle cx="19" cy="16" r="2" fill="#FFCC00"/>
<circle cx="27" cy="16" r="2" fill="#FFCC00"/>
</svg>
