<svg width="81" height="80" viewBox="0 0 81 80" fill="none" xmlns="http://www.w3.org/2000/svg">
<rect width="56.6173" height="56.6173" rx="4.0304" transform="matrix(0.707716 0.706497 -0.707716 0.706497 40.0703 0)" fill="#5C62F9"/>
<path d="M37.44 34.624C38.8693 34.624 39.9787 35.1307 40.768 36.144C41.5573 37.1467 41.952 38.5653 41.952 40.4C41.952 42.2347 41.5573 43.6587 40.768 44.672C39.9787 45.6747 38.8693 46.176 37.44 46.176C36.0213 46.176 34.912 45.6747 34.112 44.672C33.3227 43.6693 32.928 42.2453 32.928 40.4C32.928 38.5547 33.3227 37.1307 34.112 36.128C34.912 35.1253 36.0213 34.624 37.44 34.624ZM35.104 43.824C35.6693 44.5493 36.448 44.912 37.44 44.912C38.432 44.912 39.2053 44.5493 39.76 43.824C40.3253 43.088 40.608 41.9467 40.608 40.4C40.608 38.8533 40.3253 37.7173 39.76 36.992C39.2053 36.256 38.432 35.888 37.44 35.888C36.448 35.888 35.6693 36.256 35.104 36.992C34.5493 37.7173 34.272 38.8533 34.272 40.4C34.272 41.9467 34.5493 43.088 35.104 43.824ZM46.8713 34.8H47.4793V46H46.1513V36.352L43.5753 37.392V36.08L46.8713 34.8Z" fill="white"/>
</svg>
