<svg width="71" height="72" viewBox="0 0 71 72" fill="none" xmlns="http://www.w3.org/2000/svg">
<ellipse cx="35.5" cy="35.5864" rx="35.5" ry="35.5864" fill="#35C89F"/>
<path d="M30.44 30.624C31.8693 30.624 32.9787 31.1307 33.768 32.144C34.5573 33.1467 34.952 34.5653 34.952 36.4C34.952 38.2347 34.5573 39.6587 33.768 40.672C32.9787 41.6747 31.8693 42.176 30.44 42.176C29.0213 42.176 27.912 41.6747 27.112 40.672C26.3227 39.6693 25.928 38.2453 25.928 36.4C25.928 34.5547 26.3227 33.1307 27.112 32.128C27.912 31.1253 29.0213 30.624 30.44 30.624ZM28.104 39.824C28.6693 40.5493 29.448 40.912 30.44 40.912C31.432 40.912 32.2053 40.5493 32.76 39.824C33.3253 39.088 33.608 37.9467 33.608 36.4C33.608 34.8533 33.3253 33.7173 32.76 32.992C32.2053 32.256 31.432 31.888 30.44 31.888C29.448 31.888 28.6693 32.256 28.104 32.992C27.5493 33.7173 27.272 34.8533 27.272 36.4C27.272 37.9467 27.5493 39.088 28.104 39.824ZM42.979 36.096C43.6083 36.2987 44.0937 36.64 44.435 37.12C44.787 37.6 44.963 38.1813 44.963 38.864C44.963 39.8773 44.595 40.6827 43.859 41.28C43.123 41.8773 42.1577 42.176 40.963 42.176C39.811 42.176 38.8297 41.888 38.019 41.312C37.219 40.736 36.739 39.8987 36.579 38.8H37.923C38.2323 40.208 39.2403 40.912 40.947 40.912C41.779 40.912 42.4297 40.72 42.899 40.336C43.379 39.952 43.619 39.4293 43.619 38.768C43.619 38.1707 43.4163 37.696 43.011 37.344C42.6163 36.9813 41.987 36.8 41.123 36.8H39.571V35.632H40.739C42.4137 35.632 43.251 35.056 43.251 33.904C43.251 33.2853 43.0217 32.7947 42.563 32.432C42.115 32.0693 41.5177 31.888 40.771 31.888C40.067 31.888 39.491 32.0427 39.043 32.352C38.595 32.6507 38.2803 33.152 38.099 33.856H36.755C36.9577 32.7573 37.4163 31.9467 38.131 31.424C38.8563 30.8907 39.747 30.624 40.803 30.624C41.891 30.624 42.7923 30.9173 43.507 31.504C44.2323 32.08 44.595 32.8267 44.595 33.744C44.595 34.288 44.4563 34.768 44.179 35.184C43.9017 35.6 43.5017 35.904 42.979 36.096Z" fill="white"/>
</svg>
