<svg width="59" height="74" viewBox="0 0 59 74" fill="none" xmlns="http://www.w3.org/2000/svg">
<path d="M0.735503 63.5841C-0.787569 66.2222 0.108448 69.6362 2.92678 70.792C21.4713 78.3976 43.2439 71.3115 53.5436 53.4719C63.8433 35.6323 59.0938 13.2336 43.2349 0.976317C40.8247 -0.8865 37.4201 0.0445457 35.897 2.68258L0.735503 63.5841Z" fill="#F97F88"/>
<path d="M31.44 31.624C32.8693 31.624 33.9787 32.1307 34.768 33.144C35.5573 34.1467 35.952 35.5653 35.952 37.4C35.952 39.2347 35.5573 40.6587 34.768 41.672C33.9787 42.6747 32.8693 43.176 31.44 43.176C30.0213 43.176 28.912 42.6747 28.112 41.672C27.3227 40.6693 26.928 39.2453 26.928 37.4C26.928 35.5547 27.3227 34.1307 28.112 33.128C28.912 32.1253 30.0213 31.624 31.44 31.624ZM29.104 40.824C29.6693 41.5493 30.448 41.912 31.44 41.912C32.432 41.912 33.2053 41.5493 33.76 40.824C34.3253 40.088 34.608 38.9467 34.608 37.4C34.608 35.8533 34.3253 34.7173 33.76 33.992C33.2053 33.256 32.432 32.888 31.44 32.888C30.448 32.888 29.6693 33.256 29.104 33.992C28.5493 34.7173 28.272 35.8533 28.272 37.4C28.272 38.9467 28.5493 40.088 29.104 40.824ZM46.395 39.064V40.312H44.747V43H43.419V40.312H37.419V39.064L42.763 31.8H44.747V39.064H46.395ZM38.891 39.048L43.419 39.064V33.048H43.291L38.891 39.048Z" fill="white"/>
</svg>
