<svg width="54" height="80" viewBox="0 0 54 80" fill="none" xmlns="http://www.w3.org/2000/svg">
<path d="M52.3304 43.0419L6.29574 79.0795C3.73606 81.0833 0.000269551 79.2527 0.000269447 75.9947L0.000251895 3.91947C0.000251791 0.66142 3.73605 -1.16912 6.29572 0.834679L52.3304 36.8723C54.3313 38.4386 54.3313 41.4755 52.3304 43.0419Z" fill="#5C62F9"/>
<path d="M14.9429 34.0927C16.3723 34.0927 17.4816 34.5994 18.2709 35.6127C19.0603 36.6154 19.4549 38.0341 19.4549 39.8687C19.4549 41.7034 19.0603 43.1274 18.2709 44.1407C17.4816 45.1434 16.3723 45.6448 14.9429 45.6448C13.5243 45.6448 12.4149 45.1434 11.6149 44.1407C10.8256 43.1381 10.4309 41.7141 10.4309 39.8687C10.4309 38.0234 10.8256 36.5994 11.6149 35.5967C12.4149 34.5941 13.5243 34.0927 14.9429 34.0927ZM12.6069 43.2927C13.1723 44.0181 13.9509 44.3807 14.9429 44.3807C15.9349 44.3807 16.7083 44.0181 17.2629 43.2927C17.8283 42.5567 18.1109 41.4154 18.1109 39.8687C18.1109 38.3221 17.8283 37.1861 17.2629 36.4607C16.7083 35.7247 15.9349 35.3567 14.9429 35.3567C13.9509 35.3567 13.1723 35.7247 12.6069 36.4607C12.0523 37.1861 11.7749 38.3221 11.7749 39.8687C11.7749 41.4154 12.0523 42.5567 12.6069 43.2927ZM25.7059 38.0767C26.7833 38.0767 27.6846 38.4127 28.4099 39.0847C29.1459 39.7567 29.5139 40.6474 29.5139 41.7567C29.5139 42.8874 29.1246 43.8207 28.3459 44.5567C27.5673 45.2821 26.5966 45.6448 25.4339 45.6448C24.3139 45.6448 23.3486 45.3407 22.5379 44.7327C21.7273 44.1247 21.2419 43.2661 21.0819 42.1567H22.4259C22.5859 42.8714 22.9379 43.4207 23.4819 43.8047C24.0259 44.1887 24.6766 44.3807 25.4339 44.3807C26.2233 44.3807 26.8739 44.1301 27.3859 43.6287C27.9086 43.1274 28.1699 42.5034 28.1699 41.7567C28.1699 40.9887 27.9139 40.3701 27.4019 39.9007C26.8899 39.4314 26.2393 39.1967 25.4499 39.1967C24.2446 39.1967 23.3593 39.6821 22.7939 40.6527H21.5139L22.8739 34.2687H28.9859V35.5327H23.8819L23.1459 39.0207C23.8286 38.3914 24.6819 38.0767 25.7059 38.0767Z" fill="white"/>
</svg>
