<svg width="80" height="80" viewBox="0 0 80 80" fill="none" xmlns="http://www.w3.org/2000/svg">
<path d="M43.0881 14.4967L79.1644 60.5314C81.1704 63.0911 79.3379 66.8269 76.0763 66.8269L3.92368 66.8269C0.662133 66.8269 -1.17038 63.0911 0.835578 60.5314L36.9119 14.4967C38.4799 12.4959 41.5201 12.4959 43.0881 14.4967Z" fill="#FFCC00"/>
<path d="M34.44 41.4521C35.8693 41.4521 36.9787 41.9588 37.768 42.9721C38.5573 43.9748 38.952 45.3935 38.952 47.2281C38.952 49.0628 38.5573 50.4868 37.768 51.5001C36.9787 52.5028 35.8693 53.0041 34.44 53.0041C33.0213 53.0041 31.912 52.5028 31.112 51.5001C30.3227 50.4975 29.928 49.0735 29.928 47.2281C29.928 45.3828 30.3227 43.9588 31.112 42.9561C31.912 41.9535 33.0213 41.4521 34.44 41.4521ZM32.104 50.6521C32.6693 51.3775 33.448 51.7401 34.44 51.7401C35.432 51.7401 36.2053 51.3775 36.76 50.6521C37.3253 49.9161 37.608 48.7748 37.608 47.2281C37.608 45.6815 37.3253 44.5455 36.76 43.8201C36.2053 43.0841 35.432 42.7161 34.44 42.7161C33.448 42.7161 32.6693 43.0841 32.104 43.8201C31.5493 44.5455 31.272 45.6815 31.272 47.2281C31.272 48.7748 31.5493 49.9161 32.104 50.6521ZM48.854 51.5481V52.8281H40.454V51.8681L43.702 49.0361C45.206 47.7241 46.166 46.8281 46.582 46.3481C47.0087 45.8681 47.222 45.3561 47.222 44.8121C47.222 44.1935 46.9927 43.6921 46.534 43.3081C46.0753 42.9135 45.462 42.7161 44.694 42.7161C43.926 42.7161 43.3073 42.9241 42.838 43.3401C42.3687 43.7455 42.054 44.3215 41.894 45.0681H40.55C40.71 43.9588 41.1687 43.0788 41.926 42.4281C42.6833 41.7775 43.6273 41.4521 44.758 41.4521C45.8887 41.4521 46.8007 41.7668 47.494 42.3961C48.198 43.0255 48.55 43.8148 48.55 44.7641C48.55 45.5321 48.294 46.2255 47.782 46.8441C47.2807 47.4521 46.2833 48.4015 44.79 49.6921L42.646 51.5481H48.854Z" fill="white"/>
</svg>
