<svg width="769" height="299" viewBox="0 0 769 299" fill="none" xmlns="http://www.w3.org/2000/svg">
<path d="M683.743 249.086L678.276 293.199C677.983 295.559 675.105 296.549 673.425 294.867L634.81 256.225C633.129 254.543 634.118 251.663 636.477 251.371L680.559 245.9C682.404 245.671 683.972 247.24 683.743 249.086Z" fill="#FFCC00"/>
<rect x="139.066" width="72.2079" height="72.1575" rx="3.60396" transform="rotate(90 139.066 0)" fill="#35C89F"/>
<mask id="mask0_4416_59150" style="mask-type:alpha" maskUnits="userSpaceOnUse" x="402" y="25" width="149" height="122">
<path d="M453.21 48.3561C464.58 49.5186 477.221 59.5713 483.308 50.047C487.102 44.1116 485.692 37.3231 477.476 32.5456C470.407 28.4349 453.474 25.7088 449.224 25.6411C440.037 25.495 417.924 26.8858 405.595 51.491C395.7 71.2394 410.937 88.5328 418.791 96.2602C432.938 110.181 463.463 114.46 472.819 113.716C490.177 112.334 507.781 118.653 513.56 124.879C519.58 131.365 522.643 136.994 522.753 141.767L550.207 146.221C540.647 125.012 529.013 110.943 515.302 104.013C506.997 99.8153 499.398 95.749 483.869 95.3996C471.479 95.1206 426.342 94.9751 425.941 70.1794C425.66 52.8041 441.84 47.1935 453.21 48.3561Z" fill="white"/>
</mask>
<g mask="url(#mask0_4416_59150)">
<path d="M453.21 48.3542C464.58 49.5167 477.221 59.5694 483.308 50.0451C487.102 44.1096 485.692 37.3212 477.476 32.5436C470.407 28.433 453.474 25.7068 449.224 25.6392C440.037 25.4931 417.924 26.8839 405.595 51.4891C395.7 71.2374 410.938 88.5308 418.791 96.2583C432.938 110.179 463.463 114.458 472.819 113.714C490.177 112.332 507.781 118.651 513.56 124.877C519.58 131.363 522.643 136.992 522.753 141.765L550.207 146.219C540.647 125.01 529.013 110.941 515.302 104.011C506.997 99.8133 499.399 95.7469 483.869 95.3976C471.479 95.1186 426.342 94.9732 425.941 70.1774C425.66 52.8021 441.84 47.1915 453.21 48.3542Z" fill="#353944"/>
<path fill-rule="evenodd" clip-rule="evenodd" d="M424.388 12.3186C432.371 16.2495 435.471 23.2311 433.686 33.2634C431.009 48.3116 455.656 24.1882 451.474 8.64909C448.687 -1.71024 439.658 -0.487082 424.388 12.3186Z" fill="#F9C78A"/>
<path fill-rule="evenodd" clip-rule="evenodd" d="M455.665 7.93217C461.06 15.5258 461.02 23.543 455.546 31.9842C447.335 44.646 478.174 34.3964 480.621 17.8931C482.253 6.89096 473.934 3.57053 455.665 7.93217Z" fill="#F9C78A"/>
<path fill-rule="evenodd" clip-rule="evenodd" d="M399.125 29.6029C408.049 29.7778 413.337 34.7621 414.989 44.5557C417.468 59.2463 432.897 27.1098 423.717 14.8702C417.597 6.71038 409.4 11.6213 399.125 29.6029Z" fill="#F9C78A"/>
<path fill-rule="evenodd" clip-rule="evenodd" d="M383.701 67.4024C391.124 61.2067 398.264 61.115 405.12 67.1274C415.404 76.1461 410.023 41.6402 395.614 39.1684C386.008 37.5205 382.037 46.9318 383.701 67.4024Z" fill="#F9C78A"/>
</g>
<path d="M0 179.854L80.5492 71.9863H130.708V187.517H162.279V222.294H130.708V263.26H90.581V222.294H0V179.854ZM90.581 114.426L35.9963 187.517H90.581V114.426Z" fill="#676B81"/>
<path d="M605.729 179.944L686.278 72.0762H736.437V187.607H768.007V222.384H736.437V263.35H696.309V222.384H605.729V179.944ZM696.309 114.516L641.725 187.607H696.309V114.516Z" fill="#676B81"/>
<path fill-rule="evenodd" clip-rule="evenodd" d="M189.423 266.368L232.436 231.287L258.734 278.714L189.423 266.368Z" fill="#353944"/>
<path fill-rule="evenodd" clip-rule="evenodd" d="M191.084 160.491L230.265 199.796L261.298 155.314L191.084 160.491Z" fill="#353944"/>
<path d="M229.837 262.319C214.185 242.973 214.646 206.305 219.93 187.531C223.899 173.43 234.791 157.062 262.531 151.522C284.193 147.197 324.946 154.292 346.742 157.062C368.538 159.832 422.037 133.979 445.814 124.746C469.591 115.513 504.267 116.437 536.96 133.979C569.654 151.522 570.645 201.381 570.645 231.85C570.645 262.319 553.165 292.279 512.258 297.623C477.948 302.105 382.408 292.788 324.946 294.635C267.485 296.482 243.828 279.611 229.837 262.319Z" fill="#F9C78A"/>
<mask id="mask1_4416_59150" style="mask-type:alpha" maskUnits="userSpaceOnUse" x="219" y="118" width="352" height="181">
<path d="M232.434 262.406C216.905 243.036 217.363 206.322 222.605 187.525C226.543 173.406 237.349 157.018 264.87 151.471C286.36 147.14 326.792 154.244 348.416 157.018C370.04 159.791 423.117 133.906 446.706 124.662C470.296 115.417 504.697 116.342 537.133 133.906C569.568 151.471 570.551 201.392 570.551 231.899C570.551 262.406 553.21 292.403 512.625 297.753C478.586 302.241 383.801 292.913 326.793 294.761C269.784 296.61 246.314 279.718 232.434 262.406Z" fill="#F9C78A"/>
</mask>
<g mask="url(#mask1_4416_59150)">
<path fill-rule="evenodd" clip-rule="evenodd" d="M440.586 273.774C447.118 273.363 450.253 279.445 448.398 289.037C446.794 297.331 440.908 301.24 432.862 301.175C426.512 301.123 417.098 300.579 407.603 299.888C391.703 298.731 380.163 298.258 372.983 298.47C362.098 298.792 380.502 282.521 389.234 279.746C399.952 276.339 410.894 267.438 416.775 265.569C434.173 260.038 428.404 274.541 440.586 273.774Z" fill="#353944"/>
<path fill-rule="evenodd" clip-rule="evenodd" d="M502.455 134.66C507.94 134.438 510.029 129.094 507.652 121.253C505.597 114.473 500.35 111.721 493.644 112.471C488.351 113.063 480.546 114.33 472.685 115.727C459.522 118.067 449.937 119.458 443.929 119.902C434.822 120.574 451.581 132.556 459.104 134.116C468.339 136.032 478.236 142.511 483.303 143.562C498.294 146.671 492.228 135.073 502.455 134.66Z" fill="#353944"/>
</g>
<path fill-rule="evenodd" clip-rule="evenodd" d="M290.05 250.761L285.738 291.307L286.591 291.397L290.902 250.85L290.05 250.761Z" fill="black"/>
<path d="M295.756 291.176L296.49 250.41L297.347 250.426L296.613 291.191L295.756 291.176Z" fill="black"/>
<path fill-rule="evenodd" clip-rule="evenodd" d="M302.928 250.682L305.776 291.357L306.63 291.298L303.783 250.623L302.928 250.682Z" fill="black"/>
<path fill-rule="evenodd" clip-rule="evenodd" d="M291.907 187.366L287.596 146.82L288.448 146.73L292.759 187.277L291.907 187.366Z" fill="black"/>
<path d="M297.614 146.951L298.348 187.717L299.204 187.701L298.471 146.936L297.614 146.951Z" fill="black"/>
<path fill-rule="evenodd" clip-rule="evenodd" d="M304.785 187.445L307.63 146.77L308.485 146.829L305.64 187.504L304.785 187.445Z" fill="black"/>
<path fill-rule="evenodd" clip-rule="evenodd" d="M281.371 213.316L274.727 216.945L274.721 209.678L281.371 213.316Z" fill="#FE9F30"/>
<path d="M266.565 237.191C266.144 229.364 260.628 223.296 254.243 223.638C247.859 223.981 243.024 230.604 243.445 238.431C243.866 246.258 249.383 252.326 255.767 251.984C262.151 251.641 266.986 245.018 266.565 237.191Z" fill="white"/>
<path fill-rule="evenodd" clip-rule="evenodd" d="M261.118 237.209C261.42 234.337 259.023 232.807 256.814 232.576C254.606 232.342 252.731 233.919 252.428 236.794C252.127 239.667 253.673 242.184 255.881 242.416C258.09 242.647 260.816 240.084 261.118 237.209Z" fill="#24A083"/>
<path d="M258.712 237.331C258.876 235.774 257.974 234.401 256.698 234.267C255.422 234.133 254.254 235.289 254.091 236.846C253.927 238.405 254.829 239.776 256.105 239.91C257.381 240.046 258.548 238.89 258.712 237.331Z" fill="#353944"/>
<path fill-rule="evenodd" clip-rule="evenodd" d="M241.358 250.639C240.741 244.358 240.662 239.58 241.119 236.303C241.576 233.027 242.984 228.281 245.343 222.067L257.097 223.285C255.601 229.366 254.604 234.193 254.106 237.766C253.358 243.126 255.018 253.753 250.925 257.685C248.196 260.306 245.007 257.958 241.358 250.639Z" fill="black"/>
<path fill-rule="evenodd" clip-rule="evenodd" d="M235.342 256.048C234.751 247.679 234.761 241.302 235.373 236.919C235.985 232.536 237.753 226.171 240.678 217.825L257.429 220.151C254.771 227.125 253.108 233.002 252.44 237.782C251.773 242.562 251.657 249.426 252.092 258.374C250.602 258.881 248.697 258.974 246.376 258.651C244.056 258.329 240.377 257.461 235.342 256.048Z" fill="#F9C78A"/>
<path d="M268.625 192.262C266.736 199.87 260.183 204.794 253.987 203.26C247.792 201.725 244.301 194.314 246.19 186.705C248.078 179.097 254.632 174.174 260.827 175.708C267.022 177.243 270.513 184.654 268.625 192.262Z" fill="white"/>
<path fill-rule="evenodd" clip-rule="evenodd" d="M263.849 188.992C264.15 186.12 261.753 184.591 259.545 184.359C257.336 184.125 255.461 185.703 255.159 188.577C254.857 191.45 256.403 193.967 258.612 194.199C260.821 194.431 263.546 191.867 263.849 188.992Z" fill="#24A083"/>
<path d="M261.441 189.115C261.604 187.558 260.703 186.185 259.426 186.051C258.15 185.916 256.983 187.072 256.82 188.629C256.656 190.188 257.558 191.559 258.834 191.693C260.11 191.829 261.277 190.673 261.441 189.115Z" fill="#353944"/>
<path fill-rule="evenodd" clip-rule="evenodd" d="M246.411 174.638C244.621 180.69 243.642 185.368 243.474 188.672C243.305 191.976 243.793 196.901 244.938 203.449L256.712 204.463C256.389 198.209 256.32 193.281 256.504 189.678C256.78 184.274 260.413 174.149 257.135 169.517C254.949 166.43 251.374 168.136 246.411 174.638Z" fill="black"/>
<path fill-rule="evenodd" clip-rule="evenodd" d="M241.522 168.201C239.363 176.31 238.17 182.575 237.944 186.994C237.718 191.414 238.254 197.998 239.553 206.745L256.442 207.608C255.147 200.259 254.623 194.175 254.869 189.355C255.115 184.535 256.296 177.771 258.411 169.065C257.044 168.287 255.19 167.838 252.85 167.719C250.51 167.599 246.734 167.76 241.522 168.201Z" fill="#F9C78A"/>
<path d="M291.199 223.562C295.792 219.333 294.992 217.149 291.199 213.379C295.073 209.649 296.452 207.501 292.126 203.196" stroke="black" stroke-width="0.927977" stroke-linecap="round"/>
<path d="M422.659 144.827C420.274 138.658 416.611 131.891 411.671 124.527C406.73 117.163 400.868 110.767 394.084 105.341C387.483 99.7989 380.299 96.1628 372.533 94.4328C364.95 92.587 357.14 94.2141 349.103 99.3142C340.335 104.878 335.102 112.168 333.402 121.186C331.702 130.203 332.094 139.686 334.576 149.635C337.124 159.286 340.91 168.663 345.932 177.769C350.838 186.692 355.662 193.874 360.405 199.315C363.506 202.981 367.088 206.598 371.151 210.165C375.398 213.617 379.777 216.471 384.29 218.729C388.802 220.987 393.399 222.168 398.079 222.271C402.942 222.258 407.69 220.653 412.323 217.457C418.666 212.92 423.218 207.983 425.977 202.647C428.802 197.012 430.491 191.203 431.044 185.218C431.48 179.051 430.928 172.743 429.39 166.293C427.918 159.544 425.873 152.903 423.256 146.369L422.659 144.827ZM457.648 130.306C463.745 145.131 467.301 160.801 468.318 177.313C469.218 193.644 466.02 209.374 458.723 224.505C454.552 231.249 449.377 237.222 443.199 242.423C437.021 247.624 430.296 251.763 423.025 254.841C415.753 257.919 408.092 259.58 400.042 259.822C392.109 260.247 384.243 258.965 376.444 255.975C359.421 249.364 345.304 240.269 334.093 228.688C323.065 216.992 314.038 203.002 307.014 186.717C302.043 175.274 298.318 163.169 295.838 150.402C293.541 137.519 293.7 124.87 296.315 112.454C298.397 102.426 302.105 93.5428 307.438 85.8047C312.655 77.8842 318.95 71.4565 326.323 66.5217C333.879 61.471 342.238 58.087 351.401 56.3697C360.746 54.5365 370.38 54.5686 380.304 56.466C390.228 58.3634 399.187 61.7687 407.183 66.6819C415.246 71.2967 422.387 76.8806 428.606 83.4338C434.825 89.9869 440.396 97.3352 445.319 105.479C450.126 113.44 454.236 121.716 457.648 130.306Z" fill="#676B81"/>
<path d="M387.133 243.646C391.581 254.749 387.132 283.378 383.426 295.08C371.38 299.978 353.775 298.345 346.362 295.08C349.451 288.276 353.589 275.486 356.555 265.689C359.52 255.892 355.319 236.027 352.848 227.318L375.087 220.787C377.249 223.781 382.685 232.543 387.133 243.646Z" fill="url(#paint0_linear_4416_59150)"/>
<path d="M416.843 188.486C417.238 176.871 403.918 154.219 396.471 144.92C383.525 144.705 365.006 150.546 359.172 156.102C364.376 161.182 374.61 171.405 380.715 179.239C386.82 187.073 389.634 206.538 390.278 215.291L413.325 213.412C414.334 209.943 416.449 200.101 416.843 188.486Z" fill="url(#paint1_linear_4416_59150)"/>
<path d="M526.239 258.161L548.234 249.26C552.537 247.518 555.09 243.062 554.416 238.472C553.794 234.244 550.568 230.869 546.37 230.055L521.882 225.306L518.876 245.975L526.239 258.161Z" fill="#EDB470"/>
<ellipse cx="5.22878" cy="7.5248" rx="5.22878" ry="7.5248" transform="matrix(-0.145407 -0.989048 -0.989728 0.145181 533.105 257.443)" fill="#EDB470"/>
<ellipse cx="5.22878" cy="7.90104" rx="5.22878" ry="7.90104" transform="matrix(-0.145407 -0.989048 -0.989728 0.145181 528.824 249.016)" fill="#EDB470"/>
<ellipse cx="5.22878" cy="7.5248" rx="5.22878" ry="7.5248" transform="matrix(-0.145407 -0.989048 -0.989728 0.145181 528.373 240.781)" fill="#EDB470"/>
<ellipse cx="4.86934" cy="7.75344" rx="4.86934" ry="7.75344" transform="matrix(0.0286681 -0.999233 -0.99902 -0.0516968 528.912 235.354)" fill="#EDB470"/>
<path d="M535.632 233.088C541.231 233.153 543.583 236.725 543.529 241.386C543.476 246.047 541.036 250.031 535.437 249.966C529.838 249.902 525.342 246.071 525.396 241.41C525.45 236.75 530.033 233.024 535.632 233.088Z" fill="#F97F88"/>
<path fill-rule="evenodd" clip-rule="evenodd" d="M524.299 256.44C525.079 256.192 525.453 255.197 525.135 254.219C524.816 253.24 523.925 252.647 523.145 252.895C522.365 253.143 521.108 254.286 521.427 255.265C521.745 256.244 523.519 256.688 524.299 256.44Z" fill="#F97F88"/>
<path fill-rule="evenodd" clip-rule="evenodd" d="M518.356 248.065C519.136 247.817 519.51 246.822 519.191 245.844C518.873 244.865 517.982 244.272 517.202 244.52C516.422 244.768 515.165 245.911 515.483 246.89C515.802 247.869 517.576 248.313 518.356 248.065Z" fill="#F97F88"/>
<path fill-rule="evenodd" clip-rule="evenodd" d="M518.219 238.975C518.999 238.727 519.373 237.733 519.055 236.754C518.736 235.775 517.845 235.183 517.065 235.431C516.285 235.679 515.028 236.821 515.346 237.8C515.665 238.779 517.439 239.223 518.219 238.975Z" fill="#F97F88"/>
<path fill-rule="evenodd" clip-rule="evenodd" d="M518.531 231.553C519.341 231.675 520.117 230.949 520.265 229.93C520.412 228.912 519.876 227.987 519.067 227.864C518.258 227.742 516.624 228.211 516.476 229.23C516.328 230.248 517.722 231.43 518.531 231.553Z" fill="#F97F88"/>
<path d="M520.692 149.068C529.647 152.17 535.513 154.362 541.979 157.214C546.801 159.341 549.497 164.485 548.731 169.697C548.166 173.537 545.819 176.988 542.125 178.189C535.247 180.426 527.533 180.909 516.335 181.922L513.329 161.254L520.692 149.068Z" fill="#EDB470"/>
<ellipse cx="5.22878" cy="7.5248" rx="5.22878" ry="7.5248" transform="matrix(-0.145407 0.989048 -0.989728 -0.145181 527.547 150.027)" fill="#EDB470"/>
<ellipse cx="5.22878" cy="7.90104" rx="5.22878" ry="7.90104" transform="matrix(-0.145407 0.989048 -0.989728 -0.145181 523.266 158.455)" fill="#EDB470"/>
<ellipse cx="5.22878" cy="7.5248" rx="5.22878" ry="7.5248" transform="matrix(-0.145407 0.989048 -0.989728 -0.145181 522.814 166.689)" fill="#EDB470"/>
<ellipse cx="4.86934" cy="7.75344" rx="4.86934" ry="7.75344" transform="matrix(0.0286681 0.999233 -0.99902 0.0516968 523.354 172.117)" fill="#EDB470"/>
<path d="M530.075 174.381C535.674 174.316 538.027 170.744 537.973 166.083C537.919 161.422 535.479 157.438 529.88 157.502C524.281 157.567 519.786 161.397 519.84 166.058C519.893 170.719 524.476 174.445 530.075 174.381Z" fill="#F97F88"/>
<path fill-rule="evenodd" clip-rule="evenodd" d="M518.743 151.025C519.523 151.273 519.897 152.267 519.578 153.246C519.259 154.225 518.369 154.817 517.589 154.569C516.809 154.321 515.551 153.179 515.87 152.2C516.188 151.221 517.962 150.777 518.743 151.025Z" fill="#F97F88"/>
<path fill-rule="evenodd" clip-rule="evenodd" d="M512.799 159.406C513.579 159.654 513.953 160.648 513.635 161.627C513.316 162.606 512.425 163.198 511.645 162.95C510.865 162.702 509.608 161.56 509.927 160.581C510.245 159.602 512.019 159.158 512.799 159.406Z" fill="#F97F88"/>
<path fill-rule="evenodd" clip-rule="evenodd" d="M512.662 168.494C513.442 168.742 513.817 169.736 513.498 170.715C513.179 171.694 512.289 172.286 511.509 172.038C510.729 171.79 509.471 170.647 509.79 169.669C510.108 168.69 511.882 168.246 512.662 168.494Z" fill="#F97F88"/>
<path fill-rule="evenodd" clip-rule="evenodd" d="M512.973 175.918C513.782 175.795 514.558 176.522 514.706 177.54C514.854 178.559 514.318 179.484 513.508 179.606C512.699 179.729 511.065 179.26 510.917 178.241C510.769 177.223 512.163 176.04 512.973 175.918Z" fill="#F97F88"/>
<path d="M369.532 197.914C375.092 199.109 374.166 215.233 377.873 225.416L355.087 234.674C349.707 230.692 334.314 227.999 338.948 218.22C340.802 214.308 345.368 217.025 348.216 218.22C346.633 215.035 340.801 207.827 344.644 203.886C347.516 200.94 352.239 206.275 355.087 209.858C353.504 207.071 351.289 200.78 355.087 197.914C358.884 195.047 362.365 201.497 363.631 205.081C363.971 202.273 364.008 196.726 369.532 197.914Z" fill="#D8AA71"/>
<path d="M413.692 234.401C418.788 231.876 413.919 216.475 415.005 205.694L390.64 202.319C386.406 207.5 372.149 213.893 379.048 222.233C381.808 225.569 385.565 221.813 388.031 219.956C387.282 223.432 383.404 231.85 388.099 234.727C391.608 236.877 394.872 230.545 396.75 226.372C395.903 229.462 395.305 236.104 399.691 237.95C404.078 239.796 405.864 232.688 406.208 228.904C407.229 231.542 408.631 236.909 413.692 234.401Z" fill="#DBAC72"/>
<path d="M279.702 191.816C279.702 191.473 279.424 191.196 279.081 191.196C278.739 191.196 278.461 191.473 278.461 191.816C278.461 192.158 278.739 192.436 279.081 192.436C279.424 192.436 279.702 192.158 279.702 191.816Z" fill="#D7831D"/>
<path d="M279.702 184.072C279.702 183.729 279.424 183.452 279.081 183.452C278.739 183.452 278.461 183.729 278.461 184.072C278.461 184.414 278.739 184.691 279.081 184.691C279.424 184.691 279.702 184.414 279.702 184.072Z" fill="#D7831D"/>
<path d="M284.659 187.788C284.659 187.446 284.381 187.168 284.038 187.168C283.696 187.168 283.418 187.446 283.418 187.788C283.418 188.131 283.696 188.408 284.038 188.408C284.381 188.408 284.659 188.131 284.659 187.788Z" fill="#D7831D"/>
<path d="M277.882 241.851C277.882 241.509 277.604 241.231 277.261 241.231C276.918 241.231 276.641 241.509 276.641 241.851C276.641 242.193 276.918 242.471 277.261 242.471C277.604 242.471 277.882 242.193 277.882 241.851Z" fill="#D7831D"/>
<path d="M277.882 234.107C277.882 233.764 277.604 233.487 277.261 233.487C276.918 233.487 276.641 233.764 276.641 234.107C276.641 234.449 276.918 234.727 277.261 234.727C277.604 234.727 277.882 234.449 277.882 234.107Z" fill="#D7831D"/>
<path d="M282.839 237.824C282.839 237.481 282.561 237.204 282.218 237.204C281.875 237.204 281.598 237.481 281.598 237.824C281.598 238.166 281.875 238.443 282.218 238.443C282.561 238.443 282.839 238.166 282.839 237.824Z" fill="#D7831D"/>
<g filter="url(#filter0_d_4416_59150)">
<path fill-rule="evenodd" clip-rule="evenodd" d="M223.68 179.334C225.936 179.136 227.476 175.66 227.12 171.571C226.763 167.482 223.718 161.067 222.124 161.067C220.529 161.067 218.594 168.199 218.951 172.289C219.307 176.378 221.425 179.532 223.68 179.334Z" fill="white"/>
<path fill-rule="evenodd" clip-rule="evenodd" d="M222.808 166.555C223.146 168.048 223.45 169.649 223.72 171.357C223.989 173.066 223.982 174.433 223.697 175.458C223.724 173.764 223.656 172.397 223.492 171.357C223.327 170.317 223.1 168.716 222.808 166.555Z" fill="#E2E2E2"/>
</g>
<g filter="url(#filter1_d_4416_59150)">
<path fill-rule="evenodd" clip-rule="evenodd" d="M226.376 180.452C228.394 181.479 231.542 179.348 233.407 175.691C235.273 172.035 236.09 164.981 234.738 164.137C233.386 163.292 227.964 168.315 226.099 171.972C224.234 175.628 224.358 179.425 226.376 180.452Z" fill="white"/>
<path fill-rule="evenodd" clip-rule="evenodd" d="M232.408 169.155C231.903 170.6 231.312 172.119 230.635 173.71C229.958 175.302 229.228 176.457 228.444 177.176C229.364 175.754 230.03 174.559 230.442 173.59C230.854 172.621 231.51 171.143 232.408 169.155Z" fill="#E2E2E2"/>
</g>
<g filter="url(#filter2_d_4416_59150)">
<path fill-rule="evenodd" clip-rule="evenodd" d="M225.546 181.966C226.133 184.153 229.824 185.065 233.79 184.005C237.756 182.944 243.546 178.832 243.269 177.262C242.992 175.692 235.63 175.025 231.664 176.086C227.698 177.147 224.959 179.779 225.546 181.966Z" fill="white"/>
<path fill-rule="evenodd" clip-rule="evenodd" d="M237.981 178.885C236.569 179.477 235.045 180.054 233.408 180.616C231.772 181.178 230.424 181.408 229.365 181.306C231.038 181.039 232.373 180.734 233.369 180.392C234.365 180.049 235.902 179.547 237.981 178.885Z" fill="#E2E2E2"/>
</g>
<g filter="url(#filter3_d_4416_59150)">
<path fill-rule="evenodd" clip-rule="evenodd" d="M225.04 183.18C223.84 185.101 225.69 188.422 229.171 190.598C232.652 192.774 239.609 194.204 240.568 192.931C241.528 191.657 236.995 185.82 233.514 183.644C230.033 181.467 226.239 181.26 225.04 183.18Z" fill="white"/>
<path fill-rule="evenodd" clip-rule="evenodd" d="M235.773 190.174C234.377 189.545 232.915 188.824 231.388 188.011C229.861 187.198 228.774 186.37 228.126 185.526C229.463 186.567 230.596 187.334 231.525 187.829C232.455 188.324 233.871 189.105 235.773 190.174Z" fill="#E2E2E2"/>
</g>
<g filter="url(#filter4_d_4416_59150)">
<path fill-rule="evenodd" clip-rule="evenodd" d="M223.089 179.902C221.664 181.661 217.921 180.994 214.729 178.412C211.537 175.83 207.921 169.719 208.812 168.397C209.704 167.076 216.701 169.46 219.892 172.042C223.084 174.624 224.515 178.143 223.089 179.902Z" fill="white"/>
<path fill-rule="evenodd" clip-rule="evenodd" d="M212.98 172.03C214.029 173.145 215.187 174.292 216.453 175.471C217.719 176.65 218.856 177.408 219.865 177.746C218.446 176.821 217.351 176 216.58 175.282C215.81 174.564 214.61 173.48 212.98 172.03Z" fill="#E2E2E2"/>
</g>
<g filter="url(#filter5_d_4416_59150)">
<path fill-rule="evenodd" clip-rule="evenodd" d="M221.027 181.428C220.908 183.688 217.487 185.348 213.387 185.135C209.287 184.922 202.769 182.103 202.713 180.51C202.657 178.917 209.72 176.734 213.82 176.948C217.92 177.161 221.147 179.167 221.027 181.428Z" fill="white"/>
<path fill-rule="evenodd" clip-rule="evenodd" d="M208.221 181.003C209.726 181.289 211.336 181.536 213.054 181.746C214.771 181.956 216.137 181.901 217.152 181.581C215.46 181.667 214.091 181.646 213.046 181.518C212 181.391 210.392 181.219 208.221 181.003Z" fill="#E2E2E2"/>
</g>
<g filter="url(#filter6_d_4416_59150)">
<path fill-rule="evenodd" clip-rule="evenodd" d="M223.897 182.863C226.134 182.51 228.469 185.51 229.113 189.564C229.756 193.618 228.354 200.578 226.807 200.964C225.26 201.349 221.656 194.897 221.013 190.843C220.369 186.789 221.66 183.217 223.897 182.863Z" fill="white"/>
<path fill-rule="evenodd" clip-rule="evenodd" d="M226.143 195.474C226.11 193.943 226.017 192.317 225.865 190.594C225.713 188.871 225.376 187.546 224.852 186.621C225.288 188.257 225.552 189.6 225.644 190.649C225.737 191.698 225.903 193.306 226.143 195.474Z" fill="#E2E2E2"/>
</g>
<g filter="url(#filter7_d_4416_59150)">
<path fill-rule="evenodd" clip-rule="evenodd" d="M223.571 183.167C224.996 184.927 223.565 188.448 220.375 191.033C217.185 193.617 210.455 195.883 209.347 194.736C208.239 193.59 212.027 187.244 215.216 184.659C218.406 182.075 222.147 181.407 223.571 183.167Z" fill="white"/>
<path fill-rule="evenodd" clip-rule="evenodd" d="M213.772 191.415C215.081 190.621 216.444 189.728 217.861 188.735C219.277 187.742 220.256 186.787 220.796 185.871C219.596 187.067 218.565 187.966 217.702 188.571C216.84 189.175 215.53 190.124 213.772 191.415Z" fill="#E2E2E2"/>
</g>
<path d="M224.176 185.305C226.441 185.305 228.276 183.462 228.276 181.189C228.276 178.915 226.441 177.072 224.176 177.072C221.912 177.072 220.076 178.915 220.076 181.189C220.076 183.462 221.912 185.305 224.176 185.305Z" fill="#FFD700"/>
<ellipse cx="709.75" cy="40.6476" rx="31.6313" ry="31.6534" fill="#F97F88"/>
<path d="M4.00586 249.01C4.00586 249.01 7.32574 239.103 17.4032 236.838C34.7051 232.95 48.4661 262.211 37.5381 267.088C26.6102 271.965 23.4257 240.18 48.3651 231.961C72.0423 224.159 91.1668 260.259 83.8815 267.088C76.5962 273.917 68.4794 258.826 73.8643 245.63C80.2383 230.011 113.864 231.961 113.864 262.391" stroke="#5C62F9" stroke-width="2" stroke-linecap="round"/>
<defs>
<filter id="filter0_d_4416_59150" x="217.779" y="160.389" width="10.5213" height="20.535" filterUnits="userSpaceOnUse" color-interpolation-filters="sRGB">
<feFlood flood-opacity="0" result="BackgroundImageFix"/>
<feColorMatrix in="SourceAlpha" type="matrix" values="0 0 0 0 0 0 0 0 0 0 0 0 0 0 0 0 0 0 127 0" result="hardAlpha"/>
<feOffset dy="0.451533"/>
<feGaussianBlur stdDeviation="0.564416"/>
<feColorMatrix type="matrix" values="0 0 0 0 0.834975 0 0 0 0 0.834975 0 0 0 0 0.834975 0 0 0 0.5 0"/>
<feBlend mode="normal" in2="BackgroundImageFix" result="effect1_dropShadow_4416_59150"/>
<feBlend mode="normal" in="SourceGraphic" in2="effect1_dropShadow_4416_59150" result="shape"/>
</filter>
<filter id="filter1_d_4416_59150" x="223.649" y="163.366" width="12.8885" height="18.9256" filterUnits="userSpaceOnUse" color-interpolation-filters="sRGB">
<feFlood flood-opacity="0" result="BackgroundImageFix"/>
<feColorMatrix in="SourceAlpha" type="matrix" values="0 0 0 0 0 0 0 0 0 0 0 0 0 0 0 0 0 0 127 0" result="hardAlpha"/>
<feOffset dy="0.451533"/>
<feGaussianBlur stdDeviation="0.564416"/>
<feColorMatrix type="matrix" values="0 0 0 0 0.785892 0 0 0 0 0.785892 0 0 0 0 0.785892 0 0 0 0.5 0"/>
<feBlend mode="normal" in2="BackgroundImageFix" result="effect1_dropShadow_4416_59150"/>
<feBlend mode="normal" in="SourceGraphic" in2="effect1_dropShadow_4416_59150" result="shape"/>
</filter>
<filter id="filter2_d_4416_59150" x="224.338" y="174.893" width="20.0682" height="11.1346" filterUnits="userSpaceOnUse" color-interpolation-filters="sRGB">
<feFlood flood-opacity="0" result="BackgroundImageFix"/>
<feColorMatrix in="SourceAlpha" type="matrix" values="0 0 0 0 0 0 0 0 0 0 0 0 0 0 0 0 0 0 127 0" result="hardAlpha"/>
<feOffset dy="0.451533"/>
<feGaussianBlur stdDeviation="0.564416"/>
<feColorMatrix type="matrix" values="0 0 0 0 0.785892 0 0 0 0 0.785892 0 0 0 0 0.785892 0 0 0 0.5 0"/>
<feBlend mode="normal" in2="BackgroundImageFix" result="effect1_dropShadow_4416_59150"/>
<feBlend mode="normal" in="SourceGraphic" in2="effect1_dropShadow_4416_59150" result="shape"/>
</filter>
<filter id="filter3_d_4416_59150" x="223.545" y="181.188" width="18.2831" height="13.8026" filterUnits="userSpaceOnUse" color-interpolation-filters="sRGB">
<feFlood flood-opacity="0" result="BackgroundImageFix"/>
<feColorMatrix in="SourceAlpha" type="matrix" values="0 0 0 0 0 0 0 0 0 0 0 0 0 0 0 0 0 0 127 0" result="hardAlpha"/>
<feOffset dy="0.451533"/>
<feGaussianBlur stdDeviation="0.564416"/>
<feColorMatrix type="matrix" values="0 0 0 0 0.785892 0 0 0 0 0.785892 0 0 0 0 0.785892 0 0 0 0.5 0"/>
<feBlend mode="normal" in2="BackgroundImageFix" result="effect1_dropShadow_4416_59150"/>
<feBlend mode="normal" in="SourceGraphic" in2="effect1_dropShadow_4416_59150" result="shape"/>
</filter>
<filter id="filter4_d_4416_59150" x="207.547" y="167.344" width="17.2225" height="15.1209" filterUnits="userSpaceOnUse" color-interpolation-filters="sRGB">
<feFlood flood-opacity="0" result="BackgroundImageFix"/>
<feColorMatrix in="SourceAlpha" type="matrix" values="0 0 0 0 0 0 0 0 0 0 0 0 0 0 0 0 0 0 127 0" result="hardAlpha"/>
<feOffset dy="0.451533"/>
<feGaussianBlur stdDeviation="0.564416"/>
<feColorMatrix type="matrix" values="0 0 0 0 0.838683 0 0 0 0 0.838683 0 0 0 0 0.838683 0 0 0 0.5 0"/>
<feBlend mode="normal" in2="BackgroundImageFix" result="effect1_dropShadow_4416_59150"/>
<feBlend mode="normal" in="SourceGraphic" in2="effect1_dropShadow_4416_59150" result="shape"/>
</filter>
<filter id="filter5_d_4416_59150" x="201.584" y="176.256" width="20.576" height="10.4784" filterUnits="userSpaceOnUse" color-interpolation-filters="sRGB">
<feFlood flood-opacity="0" result="BackgroundImageFix"/>
<feColorMatrix in="SourceAlpha" type="matrix" values="0 0 0 0 0 0 0 0 0 0 0 0 0 0 0 0 0 0 127 0" result="hardAlpha"/>
<feOffset dy="0.451533"/>
<feGaussianBlur stdDeviation="0.564416"/>
<feColorMatrix type="matrix" values="0 0 0 0 0.785892 0 0 0 0 0.785892 0 0 0 0 0.785892 0 0 0 0.5 0"/>
<feBlend mode="normal" in2="BackgroundImageFix" result="effect1_dropShadow_4416_59150"/>
<feBlend mode="normal" in="SourceGraphic" in2="effect1_dropShadow_4416_59150" result="shape"/>
</filter>
<filter id="filter6_d_4416_59150" x="219.719" y="182.159" width="10.6834" height="20.4022" filterUnits="userSpaceOnUse" color-interpolation-filters="sRGB">
<feFlood flood-opacity="0" result="BackgroundImageFix"/>
<feColorMatrix in="SourceAlpha" type="matrix" values="0 0 0 0 0 0 0 0 0 0 0 0 0 0 0 0 0 0 127 0" result="hardAlpha"/>
<feOffset dy="0.451533"/>
<feGaussianBlur stdDeviation="0.564416"/>
<feColorMatrix type="matrix" values="0 0 0 0 0.785892 0 0 0 0 0.785892 0 0 0 0 0.785892 0 0 0 0.5 0"/>
<feBlend mode="normal" in2="BackgroundImageFix" result="effect1_dropShadow_4416_59150"/>
<feBlend mode="normal" in="SourceGraphic" in2="effect1_dropShadow_4416_59150" result="shape"/>
</filter>
<filter id="filter7_d_4416_59150" x="208.022" y="181.506" width="17.2303" height="15.117" filterUnits="userSpaceOnUse" color-interpolation-filters="sRGB">
<feFlood flood-opacity="0" result="BackgroundImageFix"/>
<feColorMatrix in="SourceAlpha" type="matrix" values="0 0 0 0 0 0 0 0 0 0 0 0 0 0 0 0 0 0 127 0" result="hardAlpha"/>
<feOffset dy="0.451533"/>
<feGaussianBlur stdDeviation="0.564416"/>
<feColorMatrix type="matrix" values="0 0 0 0 0.914374 0 0 0 0 0.914374 0 0 0 0 0.914374 0 0 0 0.5 0"/>
<feBlend mode="normal" in2="BackgroundImageFix" result="effect1_dropShadow_4416_59150"/>
<feBlend mode="normal" in="SourceGraphic" in2="effect1_dropShadow_4416_59150" result="shape"/>
</filter>
<linearGradient id="paint0_linear_4416_59150" x1="366.122" y1="220.787" x2="366.122" y2="300.177" gradientUnits="userSpaceOnUse">
<stop stop-color="#D4A66D"/>
<stop offset="1" stop-color="#F9C78A"/>
</linearGradient>
<linearGradient id="paint1_linear_4416_59150" x1="404.929" y1="216.554" x2="378.014" y2="144.63" gradientUnits="userSpaceOnUse">
<stop stop-color="#D4A66D"/>
<stop offset="1" stop-color="#F9C78A"/>
</linearGradient>
</defs>
</svg>
