<svg width="45" height="110" viewBox="0 0 45 110" fill="none" xmlns="http://www.w3.org/2000/svg">
<path d="M22.8011 109.757C23.2191 110.118 23.8506 110.072 24.2116 109.654L30.0942 102.842C30.4552 102.424 30.409 101.793 29.991 101.432C29.5731 101.071 28.9416 101.117 28.5806 101.535L23.3516 107.59L17.297 102.361C16.8791 102 16.2476 102.046 15.8866 102.464C15.5256 102.882 15.5718 103.513 15.9898 103.874L22.8011 109.757ZM43.5037 54.1932L44.4124 53.7759L43.5037 54.1932ZM4.30378 49.1845L3.34759 49.4772L4.30378 49.1845ZM16.6927 24.3067L16.2905 25.2223L16.6927 24.3067ZM2 1C2 0.447716 1.55228 -2.41411e-08 0.999995 0C0.447711 2.41411e-08 -4.74497e-06 0.447716 -4.72083e-06 1L2 1ZM24.4521 108.927C22.4529 81.6019 26.2736 65.5293 31.0279 57.6306C33.4144 53.6658 35.9328 51.9191 37.9265 51.6181C39.8071 51.3341 41.5334 52.2991 42.5949 54.6106L44.4124 53.7759C43.068 50.8484 40.5841 49.1941 37.6279 49.6405C34.7848 50.0698 31.8399 52.4035 29.3144 56.5992C24.2448 65.0216 20.4468 81.5913 22.4574 109.073L24.4521 108.927ZM42.5949 54.6106C43.1272 55.7696 43.1091 56.8369 42.6913 57.8268C42.26 58.8486 41.3705 59.8575 40.0457 60.7686C37.3916 62.5941 33.2262 63.8613 28.6006 64.0454C19.3506 64.4136 8.80369 60.4667 5.25997 48.8918L3.34759 49.4772C7.25313 62.234 18.8971 66.4332 28.6802 66.0438C33.5711 65.8492 38.1329 64.5116 41.179 62.4165C42.7043 61.3674 43.9082 60.0871 44.5339 58.6045C45.1731 57.09 45.1756 55.4378 44.4124 53.7759L42.5949 54.6106ZM5.25997 48.8918C1.89567 37.9029 7.9579 27.849 15.8861 21.3022C19.8338 18.0423 24.1639 15.7278 27.8396 14.6611C29.6794 14.1273 31.3091 13.9194 32.6217 14.0307C33.9348 14.1421 34.8397 14.5616 35.3872 15.1903L36.8955 13.8769C35.8956 12.7287 34.424 12.1764 32.7907 12.0379C31.1567 11.8993 29.27 12.1636 27.2823 12.7404C23.3031 13.895 18.7347 16.3561 14.6126 19.76C6.40141 26.5405 -0.360351 37.3659 3.34759 49.4772L5.25997 48.8918ZM35.3872 15.1903C36.7291 16.7312 36.9146 18.1845 36.4549 19.4587C35.9692 20.8051 34.6939 22.1365 32.752 23.1736C28.8796 25.2418 22.7918 25.8937 17.0948 23.3912L16.2905 25.2223C22.5536 27.9735 29.285 27.2926 33.6942 24.9378C35.8932 23.7634 37.6244 22.1106 38.3363 20.1374C39.0742 18.0918 38.6484 15.8898 36.8955 13.8769L35.3872 15.1903ZM17.0948 23.3912C10.1625 20.3461 6.43823 16.7935 4.41687 13.0599C2.38474 9.30634 2 5.24001 2 1L-4.72083e-06 1C-4.76988e-06 5.33226 0.383115 9.80998 2.65808 14.0121C4.94382 18.2341 9.06584 22.0488 16.2905 25.2223L17.0948 23.3912Z" fill="#01082D"/>
</svg>
