<svg width="165" height="165" viewBox="0 0 165 165" fill="none" xmlns="http://www.w3.org/2000/svg">
<path d="M70.95 97.35L53.2125 79.6125C51.7 78.1 49.775 77.3437 47.4375 77.3437C45.1 77.3437 43.175 78.1 41.6625 79.6125C40.15 81.125 39.3937 83.05 39.3937 85.3875C39.3937 87.725 40.15 89.65 41.6625 91.1625L65.175 114.675C66.825 116.325 68.75 117.15 70.95 117.15C73.15 117.15 75.075 116.325 76.725 114.675L123.337 68.0625C124.85 66.55 125.606 64.625 125.606 62.2875C125.606 59.95 124.85 58.025 123.337 56.5125C121.825 55 119.9 54.2437 117.562 54.2437C115.225 54.2437 113.3 55 111.787 56.5125L70.95 97.35ZM82.5 165C71.0875 165 60.3625 162.833 50.325 158.499C40.2875 154.165 31.5562 148.288 24.1312 140.869C16.7063 133.444 10.8295 124.712 6.501 114.675C2.1725 104.637 0.0055 93.9125 0 82.5C0 71.0875 2.167 60.3625 6.501 50.325C10.835 40.2875 16.7117 31.5562 24.1312 24.1312C31.5562 16.7063 40.2875 10.8295 50.325 6.501C60.3625 2.1725 71.0875 0.0055 82.5 0C93.9125 0 104.637 2.167 114.675 6.501C124.712 10.835 133.444 16.7117 140.869 24.1312C148.294 31.5562 154.173 40.2875 158.507 50.325C162.841 60.3625 165.005 71.0875 165 82.5C165 93.9125 162.833 104.637 158.499 114.675C154.165 124.712 148.288 133.444 140.869 140.869C133.444 148.294 124.712 154.173 114.675 158.507C104.637 162.841 93.9125 165.005 82.5 165Z" fill="#36D7A8"/>
</svg>
