<svg width="37" height="40" viewBox="0 0 37 40" fill="none" xmlns="http://www.w3.org/2000/svg">
<path d="M35.9681 28.8946C34.4272 27.2388 31.544 24.7481 31.544 16.5891C31.544 10.3921 27.199 5.43134 21.3401 4.21427V2.55217C21.3401 1.14289 20.198 0 18.7896 0C17.3811 0 16.239 1.14289 16.239 2.55217V4.21427C10.3802 5.43134 6.03509 10.3921 6.03509 16.5891C6.03509 24.7481 3.15194 27.2388 1.61107 28.8946C1.13253 29.409 0.920384 30.0239 0.924372 30.6261C0.933145 31.934 1.9596 33.1782 3.48452 33.1782H34.0946C35.6195 33.1782 36.6468 31.934 36.6548 30.6261C36.6588 30.0239 36.4466 29.4082 35.9681 28.8946Z" fill="#F97F88"/>
<path d="M18.6488 39.9999C21.4658 39.9999 23.7508 37.7149 23.7508 34.8955H13.5469C13.5469 37.7149 15.8319 39.9999 18.6488 39.9999Z" fill="#FFCC00"/>
</svg>
