<svg width="40" height="40" viewBox="0 0 40 40" fill="none" xmlns="http://www.w3.org/2000/svg">
<path d="M21.9882 20.2158C21.9128 20.298 21.8731 20.3969 21.8747 20.498C21.8764 20.5992 21.9194 20.6973 21.9974 20.7779C22.0105 20.7911 22.0215 20.8055 22.0303 20.8208C23.4201 21.4746 26.1174 23.9422 28.584 26.372C32.0436 29.78 33.8432 34.4898 33.8432 39.346C33.8432 39.7073 33.5504 40.0001 33.1891 40.0001H7.74607C7.39256 40.0001 7.10598 39.7136 7.10598 39.36C7.10598 34.5002 8.95545 29.8029 12.4377 26.4129C14.9667 23.951 17.7078 21.4338 18.9748 20.7767C19.0532 20.6949 19.0963 20.5958 19.0979 20.4936C19.0963 20.3901 19.0533 20.2896 18.9748 20.2062C17.6448 19.5891 15.0327 17.2185 12.5968 14.8354C8.98349 11.3004 7.10547 6.39706 7.10547 1.34214C7.10547 1.15318 7.25865 1 7.44761 1L33.4992 1C33.6889 1 33.8427 1.1538 33.8427 1.34351C33.8427 6.40141 31.9709 11.3097 28.3606 14.8521C25.9296 17.2373 23.3216 19.607 21.9882 20.2158Z" fill="#5C62F9"/>
<path d="M19.6453 18.3634L15.597 14.9885C14.8273 14.3468 15.281 13.0938 16.2832 13.0938H24.6689C25.6892 13.0938 26.1322 14.3846 25.327 15.0112L20.9896 18.386C20.5919 18.6955 20.0323 18.686 19.6453 18.3634Z" fill="#FFCC00"/>
<path d="M19.6453 22.8271L15.597 26.2019C14.8273 26.8437 15.281 28.0967 16.2832 28.0967H24.6689C25.6892 28.0967 26.1322 26.8058 25.327 26.1793L20.9896 22.8044C20.5919 22.495 20.0323 22.5044 19.6453 22.8271Z" fill="#FFCC00"/>
</svg>
