<svg width="206" height="206" viewBox="0 0 206 206" fill="none" xmlns="http://www.w3.org/2000/svg">
<mask id="mask0_5009_104560" style="mask-type:alpha" maskUnits="userSpaceOnUse" x="0" y="0" width="206" height="206">
<rect width="206" height="206" fill="#D9D9D9"/>
</mask>
<g mask="url(#mask0_5009_104560)">
<path fill-rule="evenodd" clip-rule="evenodd" d="M151.153 0L122.575 25.1371C117.15 24.3552 111.525 24.0923 105.985 24.0923C93.8113 24.0923 80.9188 25.4009 69.3987 29.8734L37.8799 5.60444L40.1692 56.372C38.8618 59.0634 37.7044 61.9698 36.7151 65.1073C30.8279 83.7778 29.8992 93.6713 29.8992 108.466C29.8992 110.51 30.8509 123.414 28.4175 132.636C23.0834 152.85 8.28229 186.107 3.52493 208.953C2.36133 214.541 -6.25432 266.667 -0.179341 302.702C6.87939 344.572 51.4206 349.044 92.5793 349.52L95.2878 349.546C98.4409 349.57 101.569 349.575 104.652 349.576L108.091 349.576C143.171 349.557 211.125 348.682 219.428 308.024C219.456 307.917 219.484 307.806 219.509 307.69C222.127 295.949 226.167 282.099 230.368 247.944C232.509 230.54 232.509 229.597 231.581 209.214C230.652 188.831 215.344 140.634 241.474 132.069C259.784 126.067 270.416 143.487 272.484 157.394C273.089 161.47 272.919 165.925 272.673 170.29L272.584 171.827C272.569 172.082 272.554 172.337 272.539 172.591L272.454 174.108C271.968 183.156 272.07 191.187 279.424 193.754C286.807 196.332 293.583 192.44 296.257 181.108C298.558 171.357 296.532 150.321 295.371 145.244C292.861 134.265 284.975 108.411 255.355 101.768C232.545 96.6522 243.022 121.415 236.735 133.659L236.222 134.671C236.139 134.835 265.658 145.327 235.978 135.158C225.346 156.53 205.486 191.153 208.988 202.041C212.588 213.234 212.449 223.382 210.771 231.719L210.77 231.714L210.477 230.363C207.917 218.666 205.262 208.554 203.065 202.591L202.814 201.922C189.32 166.696 175.526 137.405 167.994 100.995C166.81 95.2725 165.783 89.2245 164.764 83.2127L164.254 80.2115C161.786 65.7366 159.213 51.8249 154.415 43.5744C154.171 43.1559 153.921 42.7461 153.665 42.3448L151.153 0Z" fill="#F9F6F3"/>
</g>
</svg>
