<svg width="22" height="21" viewBox="0 0 22 21" fill="none" xmlns="http://www.w3.org/2000/svg">
<path d="M10.1949 10.237L2.26843 14.2718C1.32042 14.7543 1.31602 16.1072 2.26088 16.5959L10.1875 20.6958C10.5571 20.887 10.9957 20.8906 11.3684 20.7056L19.6252 16.6057C20.5956 16.1238 20.5912 14.738 19.6178 14.2623L11.3609 10.2274C10.9923 10.0473 10.5605 10.0509 10.1949 10.237Z" fill="#F97F88"/>
<path fill-rule="evenodd" clip-rule="evenodd" d="M9.7688 11.6837C12.9864 12.5331 16.2937 10.6518 17.1558 7.4818C18.018 4.31177 16.1085 1.05336 12.8909 0.203955C9.67333 -0.645453 6.36604 1.23579 5.50389 4.40582C4.64174 7.57586 6.5512 10.8343 9.7688 11.6837ZM10.6786 8.43907C12.0775 8.80836 13.5154 7.99046 13.8903 6.61223C14.2651 5.234 13.4349 3.81734 12.036 3.44805C10.6371 3.07875 9.19922 3.89666 8.82438 5.27489C8.44954 6.65312 9.27972 8.06977 10.6786 8.43907Z" fill="#5C62F9"/>
<path d="M11.6469 15.1466L15.7717 9.93658C16.001 9.64689 15.7915 9.22409 15.4186 9.22409L7.16904 9.22409C6.79614 9.22409 6.58662 9.64689 6.81597 9.93658L10.9407 15.1466C11.12 15.373 11.4676 15.373 11.6469 15.1466Z" fill="#5C62F9"/>
</svg>
