<svg width="277" height="175" viewBox="0 0 277 175" fill="none" xmlns="http://www.w3.org/2000/svg">
<path d="M157.323 0.80188C159.901 1.86371 162.414 3.07722 164.886 4.38409C167.357 5.69096 169.784 7.10285 172.167 8.59933C176.957 11.5833 181.583 14.9223 186.017 18.5963C190.49 22.2652 194.678 26.3944 198.535 30.9357C200.476 33.2382 202.28 35.6963 203.934 38.2927C205.62 40.9188 207.075 43.7416 208.275 46.7173C209.51 49.7542 210.35 52.9935 210.768 56.3263C211.169 59.7097 211.049 63.1509 210.413 66.4837C209.776 69.7806 208.705 72.9393 207.24 75.8447C205.805 78.7077 204.092 81.3636 202.137 83.7588C200.206 86.1247 198.109 88.2931 195.868 90.2407C193.662 92.176 191.353 93.9415 188.955 95.5265C184.183 98.6573 179.189 101.293 174.031 103.403C168.909 105.506 163.689 107.26 158.397 108.654C155.764 109.354 153.115 109.987 150.452 110.553C147.793 111.107 145.129 111.614 142.458 112.049C131.767 113.799 121.008 114.645 110.253 114.919C104.88 115.051 99.4859 115.027 94.1011 114.806C88.7163 114.584 83.3266 114.158 77.9567 113.487C75.2705 113.155 72.5892 112.77 69.9129 112.306C67.2366 111.842 64.5676 111.331 61.9086 110.728C56.5769 109.547 51.3023 108.031 46.1074 106.186C40.8744 104.342 35.759 102.061 30.8 99.3596C28.3162 97.9915 25.8621 96.4979 23.4968 94.8556C21.1065 93.2069 18.7983 91.3972 16.5838 89.4355C15.4777 88.4408 14.3864 87.4198 13.3371 86.3259C12.2878 85.232 11.2608 84.1089 10.2781 82.9187C8.28244 80.5318 6.49726 77.9114 4.95014 75.0979C3.36994 72.229 2.12425 69.1215 1.24673 65.8594C0.338624 62.5279 -0.0789241 59.037 0.0122604 55.5387C0.0641455 53.7714 0.254252 52.0137 0.580129 50.2878C0.909785 48.5855 1.35733 46.9181 1.91827 45.3025C2.46839 43.7069 3.12215 42.164 3.87369 40.6876C4.6068 39.2245 5.41739 37.8176 6.30064 36.4753C7.1659 35.1433 8.09061 33.8667 9.07082 32.651C9.54979 32.0354 10.0584 31.4608 10.5522 30.8715C10.7991 30.5798 11.0632 30.3027 11.32 30.0197C11.5768 29.7368 11.8336 29.4538 12.0977 29.1825L12.8853 28.3628L13.6902 27.5722C14.2235 27.0355 14.779 26.5425 15.3246 26.0291C16.4332 25.0373 17.5467 24.0688 18.7022 23.1616C23.2894 19.4918 28.1804 16.4989 33.1899 13.926C38.1957 11.3826 43.3352 9.22331 48.5763 7.46165C59.0142 3.97896 69.7168 1.71801 80.5294 0.71145C85.919 0.177618 91.331 -0.0382615 96.733 0.00549525C102.135 0.049252 107.51 0.297213 112.892 0.79604C115.583 1.02066 118.27 1.37947 120.956 1.73244L124.973 2.38003C125.642 2.47921 126.308 2.61924 126.975 2.75051L128.977 3.15016C129.644 3.28726 130.311 3.40394 130.975 3.56146L132.965 4.03987C134.291 4.36367 135.621 4.64954 136.932 5.0521C138.243 5.45467 139.567 5.79598 140.883 6.19855L144.791 7.51415C149.982 9.37202 155.065 11.6259 160.009 14.2614C164.924 16.9782 169.674 20.0903 174.228 23.5758C174.56 23.8249 174.794 24.2195 174.879 24.6728C174.965 25.126 174.894 25.6008 174.684 25.9926C174.473 26.3845 174.139 26.6613 173.755 26.7623C173.372 26.8632 172.97 26.78 172.638 26.5308L172.613 26.5104C168.147 23.2111 163.495 20.2774 158.689 17.7299C153.849 15.2683 148.879 13.1802 143.811 11.4785L139.994 10.2708C138.712 9.90036 137.421 9.57657 136.137 9.22652C134.853 8.87646 133.555 8.5964 132.261 8.29886L130.318 7.86129C129.669 7.71835 129.014 7.61626 128.363 7.49083L126.405 7.13201C125.753 7.01241 125.104 6.88407 124.447 6.79947L120.514 6.21605C117.882 5.92434 115.253 5.60053 112.613 5.42258C107.331 5.02197 102.036 4.84499 96.7281 4.89167C91.4445 4.93251 86.161 5.2213 80.9046 5.80181C70.3969 6.9109 60.007 9.2383 49.8849 12.7504C44.8548 14.5116 39.9264 16.6553 35.1305 19.168C30.3708 21.6363 25.8094 24.6073 21.5019 28.0448C20.4329 28.8995 19.4033 29.7951 18.3861 30.7286C17.8923 31.2041 17.3788 31.6621 16.9048 32.155L16.1641 32.8843L15.453 33.6369C14.5099 34.6434 13.5964 35.6789 12.7372 36.7699C11.8745 37.8417 11.061 38.9674 10.3003 40.1421C9.54273 41.2942 8.84835 42.5024 8.22149 43.7593C7.59784 44.9905 7.05235 46.2746 6.58952 47.6012C6.1324 48.907 5.765 50.2542 5.49085 51.6297C5.22762 52.9906 5.0714 54.3772 5.02422 55.772C4.97912 57.1747 5.03859 58.5794 5.20198 59.9698C5.36888 61.3776 5.63311 62.7669 5.99203 64.1237C6.73098 66.8874 7.78149 69.5209 9.11524 71.9533C11.7891 76.9124 15.4505 81.1976 19.5169 84.879C21.5738 86.7199 23.717 88.4224 25.9361 89.9781C28.1648 91.5339 30.4601 92.9691 32.822 94.2838C37.5622 96.9093 42.4549 99.1319 47.4628 100.935C52.4937 102.761 57.6034 104.27 62.7703 105.453C65.3552 106.06 67.955 106.579 70.5696 107.049C73.1842 107.519 75.8038 107.924 78.4308 108.26C83.6871 108.957 88.9731 109.4 94.2665 109.672C99.5599 109.943 104.863 109.992 110.176 109.902C120.793 109.707 131.409 108.948 141.907 107.309C144.532 106.9 147.146 106.434 149.753 105.9C152.361 105.366 154.953 104.762 157.533 104.097C162.684 102.779 167.766 101.111 172.754 99.1C177.715 97.1166 182.52 94.6277 187.116 91.6613C188.259 90.9204 189.37 90.124 190.471 89.313C191.572 88.5021 192.639 87.6357 193.681 86.7256C195.759 84.9401 197.706 82.9503 199.5 80.7775C201.272 78.6355 202.827 76.2577 204.134 73.6919C205.423 71.1723 206.371 68.4302 206.944 65.5648C207.503 62.7247 207.624 59.7887 207.3 56.898C206.949 53.9668 206.227 51.1149 205.157 48.4384C204.071 45.6998 202.752 43.0989 201.221 40.676C199.675 38.2075 197.986 35.8683 196.167 33.6749C192.472 29.2698 188.455 25.2587 184.163 21.6884C179.863 18.0679 175.374 14.7718 170.722 11.8198C168.396 10.3379 166.035 8.94646 163.636 7.64543C161.239 6.35023 158.807 5.14838 156.343 4.1128C155.972 3.95807 155.669 3.63573 155.5 3.21667C155.33 2.79762 155.309 2.31619 155.439 1.8783C155.57 1.4404 155.843 1.08191 156.198 0.881681C156.553 0.681455 156.96 0.655889 157.331 0.810622L157.323 0.80188Z" fill="#FFEDA6"/>
<path d="M34.6903 40.082C35.2762 38.1836 35.9559 34.7148 36.7293 29.6758C37.4676 29.6758 37.8543 29.9043 37.8895 30.3613C37.9012 30.502 37.9071 30.6016 37.9071 30.6602C37.9188 30.7188 37.9012 30.9238 37.8543 31.2754C37.8075 31.6152 37.7371 32.0957 37.6434 32.7168C37.5614 33.3379 37.4559 34.0586 37.327 34.8789C37.1981 35.6992 37.0516 36.5547 36.8875 37.4453C36.4891 39.543 36.0789 41.3125 35.6571 42.7539C35.2352 43.0469 34.9071 43.0938 34.6727 42.8945C34.5672 42.7891 34.4735 42.6484 34.3914 42.4727C34.3094 42.2852 34.2157 42.0742 34.1102 41.8398C33.9578 41.6406 33.6766 41.1133 33.2664 40.2578C32.8563 39.4023 32.5223 38.7227 32.2645 38.2188C32.0184 37.7148 31.7782 37.2461 31.5438 36.8125C31.0047 35.8398 30.5536 35.2715 30.1903 35.1074C29.7684 35.7637 29.0184 37.5625 27.9403 40.5039C27.7528 41.0195 27.5828 41.5 27.4305 41.9453C27.2782 42.3789 27.1493 42.7305 27.0438 43L25.9539 42.9473L21.5594 32.7871C21.536 32.7285 21.5243 32.6699 21.5243 32.6113C21.5243 32.5527 21.5418 32.4941 21.577 32.4355C21.6239 32.377 21.7 32.3242 21.8055 32.2773C22.0047 32.207 22.2039 32.1719 22.4032 32.1719C22.6024 32.1719 22.743 32.2129 22.825 32.2949C22.9188 32.3652 22.9891 32.459 23.036 32.5762C23.0946 32.6934 23.1414 32.8223 23.1766 32.9629C23.2118 33.1035 23.2762 33.2852 23.37 33.5078C23.4754 33.7305 23.6219 34.0586 23.8094 34.4922C24.0086 34.9258 24.2196 35.3828 24.4422 35.8633C24.6649 36.3438 24.8875 36.8242 25.1102 37.3047C25.3328 37.7734 25.5438 38.207 25.743 38.6055C26.1649 39.4844 26.4286 39.9766 26.534 40.082C27.8934 36.7305 28.7313 34.7441 29.0477 34.123C29.3641 33.4902 29.5633 33.1035 29.6453 32.9629C29.7743 32.7637 29.8739 32.6641 29.9442 32.6641C30.4481 32.6641 31.2977 33.7891 32.493 36.0391C32.8211 36.6367 33.1258 37.2109 33.4071 37.7617C34.0985 39.0977 34.5262 39.8711 34.6903 40.082ZM42.8064 41.7695C43.8377 41.7695 45.3904 41.3008 47.4646 40.3633C47.5936 40.3633 47.699 40.4102 47.7811 40.5039C47.8631 40.5859 47.9041 40.6855 47.9041 40.8027C47.4353 41.5996 46.5389 42.2207 45.2146 42.666C43.8904 43.1113 42.6541 43.1875 41.5057 42.8945C40.2049 42.5547 39.4139 41.8223 39.1326 40.6973C39.1092 40.4746 39.0975 40.1758 39.0975 39.8008C39.0975 39.4258 39.1912 38.9336 39.3787 38.3242C39.5779 37.7031 39.9119 37.1172 40.3807 36.5664C40.8494 36.0156 41.4002 35.582 42.033 35.2656C42.6658 34.9492 43.3396 34.791 44.0545 34.791C44.7342 34.791 45.4959 35.0254 46.3396 35.4941C46.7381 35.7168 47.0545 35.9688 47.2889 36.25C47.5232 36.5312 47.6404 36.8184 47.6404 37.1113C47.6404 37.1934 47.6346 37.2754 47.6228 37.3574C47.5994 38.0723 47.2537 38.5234 46.5857 38.7109C46.2928 38.793 45.9529 38.834 45.5662 38.834L43.035 38.7285C42.1912 38.7285 41.5467 38.9102 41.1014 39.2734C40.8436 39.4727 40.6619 39.7715 40.5564 40.1699C40.8494 41.2363 41.5994 41.7695 42.8064 41.7695ZM45.9353 36.3379C45.6775 36.1504 45.408 36.0156 45.1268 35.9336C44.8455 35.8516 44.6111 35.8105 44.4236 35.8105C44.2361 35.8105 43.9314 35.875 43.5096 36.0039C43.0877 36.1211 42.7127 36.2559 42.3846 36.4082C41.576 36.7832 41.1717 37.1758 41.1717 37.5859C42.1092 37.668 42.8123 37.709 43.2811 37.709C44.5818 37.709 45.4607 37.5977 45.9178 37.375C46.199 37.2578 46.3396 37.1113 46.3396 36.9355C46.3396 36.7246 46.2049 36.5254 45.9353 36.3379ZM57.6853 39.6602C57.6853 38.2773 58.2829 37.1641 59.4782 36.3203C60.4275 35.6523 61.57 35.248 62.906 35.1074C62.9763 35.1074 63.1403 35.1074 63.3982 35.1074C63.656 35.1074 64.0017 35.1836 64.4353 35.3359C65.3962 35.6641 66.0525 36.2441 66.404 37.0762C66.5446 37.4043 66.615 37.6855 66.615 37.9199C66.615 38.1426 66.6091 38.3008 66.5974 38.3945C66.5974 39.8594 66.0407 41.0137 64.9275 41.8574C63.8962 42.6309 62.6071 43.0176 61.0603 43.0176C59.947 43.0176 59.1032 42.7598 58.529 42.2441C57.9665 41.7285 57.6853 40.8672 57.6853 39.6602ZM58.8982 40.082C58.8982 40.8086 59.0915 41.3008 59.4782 41.5586C59.7712 41.7461 60.2634 41.8398 60.9548 41.8398C61.6462 41.8398 62.2556 41.7871 62.7829 41.6816C63.3103 41.5762 63.779 41.3945 64.1892 41.1367C65.0681 40.5742 65.5075 39.7012 65.5075 38.5176C65.5075 37.8145 65.32 37.2402 64.945 36.7949C64.5349 36.3145 63.9958 36.0742 63.3278 36.0742C62.8708 36.1562 62.4079 36.2441 61.9392 36.3379C61.4821 36.4316 61.0485 36.6133 60.6384 36.8828C59.7478 37.457 59.1677 38.5234 58.8982 40.082ZM78.0007 37.1289C78.0593 37.1289 78.0886 37.2871 78.0886 37.6035C78.0886 37.9199 78.1003 38.1367 78.1237 38.2539L72.0944 38.9922L72.4108 42.8945L70.987 42.8242C70.987 41.7695 70.8698 40.5625 70.6354 39.2031L68.3503 40.082C68.1979 40.082 68.069 39.9941 67.9636 39.8184C67.7761 39.5137 67.6823 39.2383 67.6823 38.9922L70.3542 38.043C70.1198 36.0273 70.0026 34.3926 70.0026 33.1387C70.0026 31.873 70.1081 30.8887 70.319 30.1855C70.53 29.4824 70.8346 29.0137 71.2331 28.7793C71.6432 28.5332 72.0768 28.4102 72.5339 28.4102C72.9909 28.4102 73.4538 28.5098 73.9225 28.709C74.403 28.9082 74.86 29.1602 75.2936 29.4648C75.7272 29.7695 76.0964 30.1152 76.4011 30.502C76.7057 30.877 76.8581 31.2461 76.8581 31.6094C76.8581 31.8906 76.8288 32.0898 76.7702 32.207C76.3014 31.5508 75.7331 30.9648 75.0651 30.4492C74.2682 29.8398 73.5182 29.5352 72.8151 29.5352C72.1471 29.5352 71.7018 30.0098 71.4792 30.959C71.3737 31.4512 71.321 32.1484 71.321 33.0508C71.321 33.9414 71.3444 34.7617 71.3913 35.5117C71.4382 36.25 71.5788 36.9941 71.8132 37.7441C72.5397 37.7441 73.3542 37.6797 74.2565 37.5508C75.9909 37.2812 77.2389 37.1406 78.0007 37.1289ZM89.2282 37.1289C89.2868 37.1289 89.3161 37.2871 89.3161 37.6035C89.3161 37.9199 89.3278 38.1367 89.3512 38.2539L83.3219 38.9922L83.6383 42.8945L82.2145 42.8242C82.2145 41.7695 82.0973 40.5625 81.8629 39.2031L79.5778 40.082C79.4254 40.082 79.2965 39.9941 79.1911 39.8184C79.0036 39.5137 78.9098 39.2383 78.9098 38.9922L81.5817 38.043C81.3473 36.0273 81.2301 34.3926 81.2301 33.1387C81.2301 31.873 81.3356 30.8887 81.5465 30.1855C81.7575 29.4824 82.0621 29.0137 82.4606 28.7793C82.8707 28.5332 83.3043 28.4102 83.7614 28.4102C84.2184 28.4102 84.6813 28.5098 85.15 28.709C85.6305 28.9082 86.0875 29.1602 86.5211 29.4648C86.9547 29.7695 87.3239 30.1152 87.6286 30.502C87.9332 30.877 88.0856 31.2461 88.0856 31.6094C88.0856 31.8906 88.0563 32.0898 87.9977 32.207C87.5289 31.5508 86.9606 30.9648 86.2926 30.4492C85.4957 29.8398 84.7457 29.5352 84.0426 29.5352C83.3746 29.5352 82.9293 30.0098 82.7067 30.959C82.6012 31.4512 82.5485 32.1484 82.5485 33.0508C82.5485 33.9414 82.5719 34.7617 82.6188 35.5117C82.6657 36.25 82.8063 36.9941 83.0407 37.7441C83.7672 37.7441 84.5817 37.6797 85.484 37.5508C87.2184 37.2812 88.4664 37.1406 89.2282 37.1289ZM93.9518 41.7695C94.983 41.7695 96.5357 41.3008 98.61 40.3633C98.7389 40.3633 98.8443 40.4102 98.9264 40.5039C99.0084 40.5859 99.0494 40.6855 99.0494 40.8027C98.5807 41.5996 97.6842 42.2207 96.36 42.666C95.0357 43.1113 93.7994 43.1875 92.651 42.8945C91.3502 42.5547 90.5592 41.8223 90.2779 40.6973C90.2545 40.4746 90.2428 40.1758 90.2428 39.8008C90.2428 39.4258 90.3365 38.9336 90.524 38.3242C90.7232 37.7031 91.0572 37.1172 91.526 36.5664C91.9947 36.0156 92.5455 35.582 93.1783 35.2656C93.8111 34.9492 94.485 34.791 95.1998 34.791C95.8795 34.791 96.6412 35.0254 97.485 35.4941C97.8834 35.7168 98.1998 35.9688 98.4342 36.25C98.6685 36.5312 98.7857 36.8184 98.7857 37.1113C98.7857 37.1934 98.7799 37.2754 98.7682 37.3574C98.7447 38.0723 98.399 38.5234 97.731 38.7109C97.4381 38.793 97.0982 38.834 96.7115 38.834L94.1803 38.7285C93.3365 38.7285 92.692 38.9102 92.2467 39.2734C91.9889 39.4727 91.8072 39.7715 91.7018 40.1699C91.9947 41.2363 92.7447 41.7695 93.9518 41.7695ZM97.0807 36.3379C96.8228 36.1504 96.5533 36.0156 96.2721 35.9336C95.9908 35.8516 95.7564 35.8105 95.5689 35.8105C95.3814 35.8105 95.0768 35.875 94.6549 36.0039C94.233 36.1211 93.858 36.2559 93.5299 36.4082C92.7213 36.7832 92.317 37.1758 92.317 37.5859C93.2545 37.668 93.9576 37.709 94.4264 37.709C95.7271 37.709 96.606 37.5977 97.0631 37.375C97.3443 37.2578 97.485 37.1113 97.485 36.9355C97.485 36.7246 97.3502 36.5254 97.0807 36.3379ZM109.275 36.584C108.783 36.2324 108.15 36.0566 107.377 36.0566C106.65 36.0566 105.976 36.1914 105.355 36.4609C104.183 36.9531 103.38 37.5859 102.947 38.3594C102.759 38.7109 102.666 39.0859 102.666 39.4844C102.666 39.5547 102.666 39.7539 102.666 40.082C102.666 40.3984 102.724 40.832 102.841 41.3828C102.959 41.9219 103.017 42.4727 103.017 43.0352C102.771 43.0469 102.572 43.0762 102.419 43.123C102.267 43.1699 102.138 43.1934 102.033 43.1934C101.927 43.1934 101.834 43.1465 101.752 43.0527C101.681 42.959 101.599 42.7773 101.505 42.5078C101.494 42.4375 101.47 42.2383 101.435 41.9102C101.4 41.582 101.353 41.1836 101.294 40.7148C101.248 40.2461 101.189 39.7363 101.119 39.1855C101.06 38.623 101.002 38.0723 100.943 37.5332C100.814 36.3613 100.714 35.5 100.644 34.9492C100.644 34.668 100.849 34.5273 101.259 34.5273C101.505 34.5273 101.699 34.6328 101.839 34.8438C101.98 35.043 102.091 35.2773 102.173 35.5469C102.255 35.8047 102.308 36.0625 102.332 36.3203C102.367 36.5781 102.396 36.7598 102.419 36.8652C103.966 35.4824 105.888 34.791 108.185 34.791C108.443 34.791 108.712 34.7969 108.994 34.8086C109.064 34.7969 109.152 34.791 109.257 34.791C109.363 34.791 109.468 34.8613 109.574 35.002C109.703 35.166 109.767 35.3652 109.767 35.5996C109.767 36.1855 109.603 36.5137 109.275 36.584ZM121.517 41.3125L121.552 38.5C121.552 38.0547 121.511 37.6738 121.429 37.3574H118.705L118.669 36.1445H121.306V31.6094C121.341 31.5039 121.412 31.3984 121.517 31.293C121.681 31.1289 121.816 31.0469 121.921 31.0469C122.039 31.0469 122.138 31.0586 122.22 31.082C122.302 31.1055 122.39 31.1875 122.484 31.3281C122.671 32.1016 122.765 33.2676 122.765 34.8262C122.765 35.2129 122.783 35.5938 122.818 35.9688C123.193 35.9219 123.568 35.8984 123.943 35.8984C123.943 35.8984 124.248 35.8984 124.857 35.8984C125.08 35.8984 125.285 35.8867 125.472 35.8633L125.419 37.1289L122.853 37.0586L122.941 43.123C122.73 43.2168 122.548 43.2637 122.396 43.2637C121.81 43.2637 121.517 42.6133 121.517 41.3125ZM133.588 40.082C132.709 41.4648 131.538 42.3203 130.073 42.6484C129.733 42.7188 129.422 42.7539 129.141 42.7539C128.872 42.7539 128.643 42.7539 128.456 42.7539C128.28 42.7422 128.081 42.7129 127.858 42.666C127.635 42.6191 127.43 42.543 127.243 42.4375C126.809 42.1914 126.592 41.8457 126.592 41.4004C126.545 41.1895 126.522 40.9551 126.522 40.6973C126.522 40.4277 126.581 40.0762 126.698 39.6426C126.815 39.209 127.026 38.7402 127.331 38.2363C127.647 37.7324 128.028 37.2695 128.473 36.8477C129.399 35.957 130.401 35.3828 131.479 35.125C131.795 35.0547 132.082 35.0195 132.34 35.0195C132.61 35.0195 132.85 35.0371 133.061 35.0723C133.741 35.0723 134.198 35.5352 134.432 36.4609C134.584 37.0469 134.672 37.8672 134.696 38.9219C134.731 39.9648 134.76 40.7734 134.784 41.3477C134.819 41.9102 134.895 42.4258 135.012 42.8945H133.975C133.928 42.5781 133.893 42.2969 133.87 42.0508C133.846 41.8047 133.823 41.5762 133.799 41.3652C133.741 40.873 133.67 40.4453 133.588 40.082ZM133.518 37.3574C133.518 36.6777 133.184 36.3379 132.516 36.3379C132.434 36.3262 132.352 36.3203 132.27 36.3203C131.414 36.3203 130.512 36.7305 129.563 37.5508C129.118 37.9258 128.737 38.3477 128.42 38.8164C127.952 39.4844 127.717 40.082 127.717 40.6094C127.717 41.3008 128.116 41.7109 128.913 41.8398C129.967 41.8164 130.975 41.3359 131.936 40.3984C132.346 39.9883 132.686 39.543 132.956 39.0625C133.331 38.418 133.518 37.8496 133.518 37.3574ZM137.96 34.7383C138.113 36.9297 138.242 39.4668 138.347 42.3496C138.277 42.7129 137.996 42.8945 137.503 42.8945C137.374 42.8945 137.24 42.8711 137.099 42.8242C136.97 42.7656 136.888 42.6895 136.853 42.5957V34.7383H137.96ZM136.326 32.3477C136.326 31.9375 136.566 31.7324 137.046 31.7324C137.363 31.7324 137.621 31.8027 137.82 31.9434C137.855 32.0723 137.872 32.2012 137.872 32.3301C137.872 32.4473 137.826 32.5645 137.732 32.6816C137.638 32.7988 137.497 32.8574 137.31 32.8574C137.122 32.8574 136.935 32.8164 136.747 32.7344C136.56 32.6406 136.419 32.5117 136.326 32.3477ZM139.959 36.1797C139.936 35.5469 139.912 34.9844 139.889 34.4922C139.866 33.9883 139.848 33.6191 139.836 33.3848C139.836 33.1387 139.743 32.5469 139.555 31.6094C139.661 31.4688 139.76 31.334 139.854 31.2051C139.959 31.0762 140.106 31.0117 140.293 31.0117C140.703 31.0117 141.02 32.7402 141.243 36.1973C141.36 38.2012 141.418 40.2051 141.418 42.209C141.418 42.748 141.043 43.0176 140.293 43.0176L140.153 43C140.153 42.3906 140.135 41.6113 140.1 40.6621C140.065 39.7129 140.036 38.8867 140.012 38.1836C140 37.4805 139.983 36.8125 139.959 36.1797ZM143.452 39.6602C143.452 38.2773 144.05 37.1641 145.245 36.3203C146.195 35.6523 147.337 35.248 148.673 35.1074C148.743 35.1074 148.908 35.1074 149.165 35.1074C149.423 35.1074 149.769 35.1836 150.202 35.3359C151.163 35.6641 151.82 36.2441 152.171 37.0762C152.312 37.4043 152.382 37.6855 152.382 37.9199C152.382 38.1426 152.376 38.3008 152.365 38.3945C152.365 39.8594 151.808 41.0137 150.695 41.8574C149.663 42.6309 148.374 43.0176 146.827 43.0176C145.714 43.0176 144.87 42.7598 144.296 42.2441C143.734 41.7285 143.452 40.8672 143.452 39.6602ZM144.665 40.082C144.665 40.8086 144.859 41.3008 145.245 41.5586C145.538 41.7461 146.031 41.8398 146.722 41.8398C147.413 41.8398 148.023 41.7871 148.55 41.6816C149.077 41.5762 149.546 41.3945 149.956 41.1367C150.835 40.5742 151.275 39.7012 151.275 38.5176C151.275 37.8145 151.087 37.2402 150.712 36.7949C150.302 36.3145 149.763 36.0742 149.095 36.0742C148.638 36.1562 148.175 36.2441 147.706 36.3379C147.249 36.4316 146.816 36.6133 146.406 36.8828C145.515 37.457 144.935 38.5234 144.665 40.082ZM162.309 36.584C161.817 36.2324 161.184 36.0566 160.41 36.0566C159.684 36.0566 159.01 36.1914 158.389 36.4609C157.217 36.9531 156.414 37.5859 155.981 38.3594C155.793 38.7109 155.699 39.0859 155.699 39.4844C155.699 39.5547 155.699 39.7539 155.699 40.082C155.699 40.3984 155.758 40.832 155.875 41.3828C155.992 41.9219 156.051 42.4727 156.051 43.0352C155.805 43.0469 155.606 43.0762 155.453 43.123C155.301 43.1699 155.172 43.1934 155.067 43.1934C154.961 43.1934 154.867 43.1465 154.785 43.0527C154.715 42.959 154.633 42.7773 154.539 42.5078C154.528 42.4375 154.504 42.2383 154.469 41.9102C154.434 41.582 154.387 41.1836 154.328 40.7148C154.282 40.2461 154.223 39.7363 154.153 39.1855C154.094 38.623 154.035 38.0723 153.977 37.5332C153.848 36.3613 153.748 35.5 153.678 34.9492C153.678 34.668 153.883 34.5273 154.293 34.5273C154.539 34.5273 154.733 34.6328 154.873 34.8438C155.014 35.043 155.125 35.2773 155.207 35.5469C155.289 35.8047 155.342 36.0625 155.366 36.3203C155.401 36.5781 155.43 36.7598 155.453 36.8652C157 35.4824 158.922 34.791 161.219 34.791C161.477 34.791 161.746 34.7969 162.028 34.8086C162.098 34.7969 162.186 34.791 162.291 34.791C162.397 34.791 162.502 34.8613 162.608 35.002C162.737 35.166 162.801 35.3652 162.801 35.5996C162.801 36.1855 162.637 36.5137 162.309 36.584ZM167.736 41.7695C168.767 41.7695 170.32 41.3008 172.394 40.3633C172.523 40.3633 172.628 40.4102 172.71 40.5039C172.792 40.5859 172.833 40.6855 172.833 40.8027C172.365 41.5996 171.468 42.2207 170.144 42.666C168.82 43.1113 167.583 43.1875 166.435 42.8945C165.134 42.5547 164.343 41.8223 164.062 40.6973C164.038 40.4746 164.027 40.1758 164.027 39.8008C164.027 39.4258 164.12 38.9336 164.308 38.3242C164.507 37.7031 164.841 37.1172 165.31 36.5664C165.779 36.0156 166.329 35.582 166.962 35.2656C167.595 34.9492 168.269 34.791 168.984 34.791C169.663 34.791 170.425 35.0254 171.269 35.4941C171.667 35.7168 171.984 35.9688 172.218 36.25C172.452 36.5312 172.57 36.8184 172.57 37.1113C172.57 37.1934 172.564 37.2754 172.552 37.3574C172.529 38.0723 172.183 38.5234 171.515 38.7109C171.222 38.793 170.882 38.834 170.495 38.834L167.964 38.7285C167.12 38.7285 166.476 38.9102 166.031 39.2734C165.773 39.4727 165.591 39.7715 165.486 40.1699C165.779 41.2363 166.529 41.7695 167.736 41.7695ZM170.865 36.3379C170.607 36.1504 170.337 36.0156 170.056 35.9336C169.775 35.8516 169.54 35.8105 169.353 35.8105C169.165 35.8105 168.861 35.875 168.439 36.0039C168.017 36.1211 167.642 36.2559 167.314 36.4082C166.505 36.7832 166.101 37.1758 166.101 37.5859C167.038 37.668 167.741 37.709 168.21 37.709C169.511 37.709 170.39 37.5977 170.847 37.375C171.128 37.2578 171.269 37.1113 171.269 36.9355C171.269 36.7246 171.134 36.5254 170.865 36.3379ZM182.742 28.8848C182.742 30.0098 182.707 31.1113 182.637 32.1895C182.578 33.2559 182.52 34.3047 182.461 35.3359C182.414 36.3555 182.391 37.4453 182.391 38.6055C182.391 39.7539 182.473 40.9727 182.637 42.2617C182.637 42.5312 182.584 42.7246 182.479 42.8418C182.385 42.959 182.221 43.0176 181.987 43.0176C181.436 43.0176 181.16 42.5605 181.16 41.6465V41.0664C179.496 42.3086 178.09 42.9297 176.942 42.9297C176.485 42.9297 176.016 42.8184 175.535 42.5957C175.067 42.373 174.621 41.9219 174.199 41.2422C174.141 40.9609 174.112 40.6738 174.112 40.3809C174.112 40.0879 174.164 39.7363 174.27 39.3262C174.387 38.9043 174.615 38.4707 174.955 38.0254C175.307 37.5801 175.729 37.1875 176.221 36.8477C177.299 36.1211 178.465 35.7578 179.719 35.7578C180.258 35.7578 180.774 35.8398 181.266 36.0039C181.266 35.793 181.278 35.4238 181.301 34.8965C181.336 34.3691 181.371 33.8125 181.406 33.2266C181.477 31.7031 181.524 30.8066 181.547 30.5371C181.57 30.2559 181.6 30.0215 181.635 29.834C181.682 29.6348 181.746 29.4648 181.828 29.3242C182.004 29.0312 182.309 28.8848 182.742 28.8848ZM175.395 40.2402C175.395 41.166 175.729 41.6289 176.397 41.6289C176.502 41.6289 176.619 41.6172 176.748 41.5938C177.229 41.5938 177.82 41.4531 178.524 41.1719C179.86 40.6445 180.674 40.1875 180.967 39.8008V37.4629C180.967 37.0527 180.633 36.8477 179.965 36.8477C179.883 36.8359 179.772 36.8301 179.631 36.8301C179.502 36.8301 179.297 36.8594 179.016 36.918C178.735 36.9766 178.418 37.082 178.067 37.2344C177.715 37.3867 177.369 37.5742 177.029 37.7969C176.315 38.2773 175.822 38.8398 175.553 39.4844C175.447 39.7305 175.395 39.9824 175.395 40.2402ZM21.7689 62.4648C23.058 62.4648 23.7025 62.793 23.7025 63.4492C23.7025 63.9414 23.3451 64.5156 22.6303 65.1719C21.5639 66.1445 20.1283 66.9238 18.3236 67.5098C18.2416 67.5098 18.1479 67.4277 18.0424 67.2637C17.9486 67.0996 17.8725 66.9766 17.8139 66.8945C17.767 66.8008 17.7318 66.7422 17.7084 66.7188C19.0561 66.2734 20.1635 65.7344 21.0307 65.1016C21.6166 64.6797 21.9096 64.334 21.9096 64.0645C21.9096 63.7949 21.5639 63.6602 20.8725 63.6602C20.1811 63.6602 19.1674 63.8242 17.8314 64.1523C17.2221 64.1289 16.6947 63.9121 16.2494 63.502C15.8627 63.1387 15.6693 62.7754 15.6693 62.4121C15.6693 62.0371 15.7748 61.6973 15.9857 61.3926C16.1967 61.0762 16.4779 60.7832 16.8295 60.5137C17.1811 60.2441 17.5912 59.998 18.06 59.7754C19.2084 59.2246 20.3979 58.9492 21.6283 58.9492C21.9916 58.9492 22.3432 58.9844 22.683 59.0547C22.9643 59.0547 23.1283 59.1777 23.1752 59.4238C23.2221 59.6699 23.2455 60.0742 23.2455 60.6367C22.5541 60.3203 21.7748 60.1621 20.9076 60.1621C19.8295 60.1621 18.9389 60.3789 18.2357 60.8125C17.5092 61.2344 17.1342 61.7852 17.1107 62.4648C17.1107 62.793 17.351 62.957 17.8314 62.957L19.1146 62.8164C20.2162 62.582 21.101 62.4648 21.7689 62.4648ZM25.7718 63.6602C25.7718 62.2773 26.3695 61.1641 27.5648 60.3203C28.514 59.6523 29.6566 59.248 30.9925 59.1074C31.0628 59.1074 31.2269 59.1074 31.4847 59.1074C31.7425 59.1074 32.0882 59.1836 32.5218 59.3359C33.4828 59.6641 34.139 60.2441 34.4906 61.0762C34.6312 61.4043 34.7015 61.6855 34.7015 61.9199C34.7015 62.1426 34.6957 62.3008 34.6839 62.3945C34.6839 63.8594 34.1273 65.0137 33.014 65.8574C31.9828 66.6309 30.6937 67.0176 29.1468 67.0176C28.0336 67.0176 27.1898 66.7598 26.6156 66.2441C26.0531 65.7285 25.7718 64.8672 25.7718 63.6602ZM26.9847 64.082C26.9847 64.8086 27.1781 65.3008 27.5648 65.5586C27.8578 65.7461 28.35 65.8398 29.0414 65.8398C29.7328 65.8398 30.3421 65.7871 30.8695 65.6816C31.3968 65.5762 31.8656 65.3945 32.2757 65.1367C33.1546 64.5742 33.5941 63.7012 33.5941 62.5176C33.5941 61.8145 33.4066 61.2402 33.0316 60.7949C32.6214 60.3145 32.0824 60.0742 31.4144 60.0742C30.9574 60.1562 30.4945 60.2441 30.0257 60.3379C29.5687 60.4316 29.1351 60.6133 28.725 60.8828C27.8343 61.457 27.2543 62.5234 26.9847 64.082ZM36.3138 60.1797C36.2903 59.5469 36.2669 58.9844 36.2435 58.4922C36.22 57.9883 36.2025 57.6191 36.1907 57.3848C36.1907 57.1387 36.097 56.5469 35.9095 55.6094C36.015 55.4688 36.1146 55.334 36.2083 55.2051C36.3138 55.0762 36.4603 55.0117 36.6478 55.0117C37.0579 55.0117 37.3743 56.7402 37.597 60.1973C37.7142 62.2012 37.7728 64.2051 37.7728 66.209C37.7728 66.748 37.3978 67.0176 36.6478 67.0176L36.5071 67C36.5071 66.3906 36.4896 65.6113 36.4544 64.6621C36.4193 63.7129 36.39 62.8867 36.3665 62.1836C36.3548 61.4805 36.3372 60.8125 36.3138 60.1797ZM39.2796 64.6621C39.2796 64.4746 39.262 64.2168 39.2268 63.8887C39.2034 63.5488 39.18 63.1797 39.1565 62.7812C39.1331 62.3828 39.1214 61.9785 39.1214 61.5684C39.1214 61.1582 39.1565 60.7832 39.2268 60.4434C39.3792 59.6816 39.6956 59.3008 40.1761 59.3008C40.5042 59.3945 40.721 59.5117 40.8264 59.6523C40.9436 59.793 41.0022 59.9688 41.0022 60.1797C41.0022 60.3789 40.9495 60.6309 40.844 60.9355C40.4573 61.9551 40.2639 62.875 40.2639 63.6953C40.2639 63.9648 40.2815 64.252 40.3167 64.5566C40.5042 65.3418 41.1487 65.7344 42.2503 65.7344C42.8245 65.7344 43.3694 65.6348 43.885 65.4355C44.8694 65.0723 45.5374 64.6445 45.8889 64.1523C45.9944 63.6133 46.0471 63.1445 46.0471 62.7461C46.0471 62.3359 46.0296 61.9727 45.9944 61.6562C45.971 61.3398 45.9358 60.9941 45.8889 60.6191C45.8538 60.2324 45.8304 59.8105 45.8186 59.3535C45.971 59.2832 46.1175 59.248 46.2581 59.248C46.4104 59.248 46.5628 59.3242 46.7151 59.4766C46.8792 59.6289 47.0139 59.916 47.1194 60.3379C47.2366 60.7598 47.3128 61.2578 47.3479 61.832C47.3831 62.3945 47.4007 62.9805 47.4007 63.5898C47.4124 64.1992 47.4182 64.791 47.4182 65.3652C47.4182 65.9277 47.4417 66.4141 47.4886 66.8242C47.3479 66.9531 47.2132 67.0176 47.0843 67.0176C46.6155 67.0176 46.2698 66.5488 46.0471 65.6113C45.8948 65.7402 45.637 65.8984 45.2737 66.0859C44.5003 66.5078 43.5862 66.7891 42.5315 66.9297C42.3323 66.9531 42.1096 66.9648 41.8636 66.9648C41.6175 66.9648 41.3069 66.918 40.9319 66.8242C40.5686 66.7305 40.2229 66.5137 39.8948 66.1738C39.5667 65.834 39.3616 65.3301 39.2796 64.6621ZM51.7024 65.3125L51.7375 62.5C51.7375 62.0547 51.6965 61.6738 51.6145 61.3574H48.8899L48.8547 60.1445H51.4914V55.6094C51.5266 55.5039 51.5969 55.3984 51.7024 55.293C51.8664 55.1289 52.0012 55.0469 52.1067 55.0469C52.2239 55.0469 52.3235 55.0586 52.4055 55.082C52.4875 55.1055 52.5754 55.1875 52.6692 55.3281C52.8567 56.1016 52.9504 57.2676 52.9504 58.8262C52.9504 59.2129 52.968 59.5938 53.0032 59.9688C53.3782 59.9219 53.7532 59.8984 54.1282 59.8984C54.1282 59.8984 54.4328 59.8984 55.0422 59.8984C55.2649 59.8984 55.47 59.8867 55.6575 59.8633L55.6047 61.1289L53.0383 61.0586L53.1262 67.123C52.9153 67.2168 52.7336 67.2637 52.5813 67.2637C51.9953 67.2637 51.7024 66.6133 51.7024 65.3125ZM58.4475 58.7383C58.5998 60.9297 58.7287 63.4668 58.8342 66.3496C58.7639 66.7129 58.4826 66.8945 57.9904 66.8945C57.8615 66.8945 57.7268 66.8711 57.5861 66.8242C57.4572 66.7656 57.3752 66.6895 57.34 66.5957V58.7383H58.4475ZM56.8127 56.3477C56.8127 55.9375 57.0529 55.7324 57.5334 55.7324C57.8498 55.7324 58.1076 55.8027 58.3068 55.9434C58.342 56.0723 58.3596 56.2012 58.3596 56.3301C58.3596 56.4473 58.3127 56.5645 58.2189 56.6816C58.1252 56.7988 57.9846 56.8574 57.7971 56.8574C57.6096 56.8574 57.4221 56.8164 57.2346 56.7344C57.0471 56.6406 56.9064 56.5117 56.8127 56.3477ZM60.5695 63.6602C60.5695 62.2773 61.1671 61.1641 62.3625 60.3203C63.3117 59.6523 64.4543 59.248 65.7902 59.1074C65.8605 59.1074 66.0246 59.1074 66.2824 59.1074C66.5402 59.1074 66.8859 59.1836 67.3195 59.3359C68.2804 59.6641 68.9367 60.2441 69.2882 61.0762C69.4289 61.4043 69.4992 61.6855 69.4992 61.9199C69.4992 62.1426 69.4933 62.3008 69.4816 62.3945C69.4816 63.8594 68.925 65.0137 67.8117 65.8574C66.7804 66.6309 65.4914 67.0176 63.9445 67.0176C62.8312 67.0176 61.9875 66.7598 61.4132 66.2441C60.8507 65.7285 60.5695 64.8672 60.5695 63.6602ZM61.7824 64.082C61.7824 64.8086 61.9757 65.3008 62.3625 65.5586C62.6554 65.7461 63.1476 65.8398 63.839 65.8398C64.5304 65.8398 65.1398 65.7871 65.6671 65.6816C66.1945 65.5762 66.6632 65.3945 67.0734 65.1367C67.9523 64.5742 68.3918 63.7012 68.3918 62.5176C68.3918 61.8145 68.2043 61.2402 67.8293 60.7949C67.4191 60.3145 66.88 60.0742 66.2121 60.0742C65.755 60.1562 65.2921 60.2441 64.8234 60.3379C64.3664 60.4316 63.9328 60.6133 63.5226 60.8828C62.632 61.457 62.0519 62.5234 61.7824 64.082ZM77.6505 63.1504C77.6505 61.7559 77.5743 60.7305 77.422 60.0742C77.5157 59.8984 77.3751 59.8105 77.0001 59.8105C76.6017 59.8105 76.0861 59.9102 75.4532 60.1094C74.8204 60.3086 74.3048 60.5078 73.9064 60.707C72.9571 61.1641 72.4298 61.6094 72.3243 62.043V66.8242H71.1466C70.9943 66.4258 70.9181 65.3066 70.9181 63.4668C70.9181 61.8262 70.9474 60.6191 71.006 59.8457C71.0763 59.0723 71.129 58.6328 71.1642 58.5273C71.4689 58.3281 71.715 58.2285 71.9025 58.2285C72.1954 58.2285 72.3419 58.5742 72.3419 59.2656C72.3419 59.5352 72.3243 59.7988 72.2892 60.0566C72.2657 60.3027 72.254 60.4727 72.254 60.5664C74.1525 59.1719 75.6232 58.4746 76.6661 58.4746C77.8497 58.4746 78.5236 59.4297 78.6876 61.3398C78.7579 62.0078 78.7931 62.9336 78.7931 64.1172L78.7755 65.5059C78.7755 66.0215 78.7872 66.5195 78.8107 67C78.6935 67.0703 78.5997 67.1055 78.5294 67.1055C78.4943 67.0938 78.4181 67.0762 78.3009 67.0527C78.1837 67.0293 78.0314 67.0117 77.8439 67C77.7267 66.5312 77.6622 66.0566 77.6505 65.5762C77.6388 65.084 77.6329 64.6328 77.6329 64.2227L77.6505 63.1504ZM86.3468 62.4648C87.6358 62.4648 88.2803 62.793 88.2803 63.4492C88.2803 63.9414 87.9229 64.5156 87.2081 65.1719C86.1417 66.1445 84.7061 66.9238 82.9014 67.5098C82.8194 67.5098 82.7257 67.4277 82.6202 67.2637C82.5264 67.0996 82.4503 66.9766 82.3917 66.8945C82.3448 66.8008 82.3096 66.7422 82.2862 66.7188C83.6339 66.2734 84.7413 65.7344 85.6085 65.1016C86.1944 64.6797 86.4874 64.334 86.4874 64.0645C86.4874 63.7949 86.1417 63.6602 85.4503 63.6602C84.7589 63.6602 83.7452 63.8242 82.4093 64.1523C81.7999 64.1289 81.2725 63.9121 80.8272 63.502C80.4405 63.1387 80.2471 62.7754 80.2471 62.4121C80.2471 62.0371 80.3526 61.6973 80.5636 61.3926C80.7745 61.0762 81.0557 60.7832 81.4073 60.5137C81.7589 60.2441 82.169 59.998 82.6378 59.7754C83.7862 59.2246 84.9757 58.9492 86.2061 58.9492C86.5694 58.9492 86.921 58.9844 87.2608 59.0547C87.5421 59.0547 87.7061 59.1777 87.753 59.4238C87.7999 59.6699 87.8233 60.0742 87.8233 60.6367C87.1319 60.3203 86.3526 60.1621 85.4854 60.1621C84.4073 60.1621 83.5167 60.3789 82.8136 60.8125C82.087 61.2344 81.712 61.7852 81.6886 62.4648C81.6886 62.793 81.9288 62.957 82.4093 62.957L83.6925 62.8164C84.794 62.582 85.6788 62.4648 86.3468 62.4648ZM107.747 61.1289C107.806 61.1289 107.835 61.2871 107.835 61.6035C107.835 61.9199 107.847 62.1367 107.87 62.2539L101.841 62.9922L102.157 66.8945L100.733 66.8242C100.733 65.7695 100.616 64.5625 100.382 63.2031L98.0967 64.082C97.9443 64.082 97.8154 63.9941 97.71 63.8184C97.5225 63.5137 97.4287 63.2383 97.4287 62.9922L100.101 62.043C99.8662 60.0273 99.749 58.3926 99.749 57.1387C99.749 55.873 99.8545 54.8887 100.065 54.1855C100.276 53.4824 100.581 53.0137 100.979 52.7793C101.39 52.5332 101.823 52.4102 102.28 52.4102C102.737 52.4102 103.2 52.5098 103.669 52.709C104.149 52.9082 104.606 53.1602 105.04 53.4648C105.474 53.7695 105.843 54.1152 106.147 54.502C106.452 54.877 106.604 55.2461 106.604 55.6094C106.604 55.8906 106.575 56.0898 106.517 56.207C106.048 55.5508 105.479 54.9648 104.812 54.4492C104.015 53.8398 103.265 53.5352 102.562 53.5352C101.894 53.5352 101.448 54.0098 101.226 54.959C101.12 55.4512 101.067 56.1484 101.067 57.0508C101.067 57.9414 101.091 58.7617 101.138 59.5117C101.185 60.25 101.325 60.9941 101.56 61.7441C102.286 61.7441 103.101 61.6797 104.003 61.5508C105.737 61.2812 106.985 61.1406 107.747 61.1289ZM109.324 63.6602C109.324 62.2773 109.922 61.1641 111.117 60.3203C112.066 59.6523 113.209 59.248 114.545 59.1074C114.615 59.1074 114.779 59.1074 115.037 59.1074C115.295 59.1074 115.641 59.1836 116.074 59.3359C117.035 59.6641 117.691 60.2441 118.043 61.0762C118.184 61.4043 118.254 61.6855 118.254 61.9199C118.254 62.1426 118.248 62.3008 118.236 62.3945C118.236 63.8594 117.68 65.0137 116.566 65.8574C115.535 66.6309 114.246 67.0176 112.699 67.0176C111.586 67.0176 110.742 66.7598 110.168 66.2441C109.605 65.7285 109.324 64.8672 109.324 63.6602ZM110.537 64.082C110.537 64.8086 110.73 65.3008 111.117 65.5586C111.41 65.7461 111.902 65.8398 112.594 65.8398C113.285 65.8398 113.894 65.7871 114.422 65.6816C114.949 65.5762 115.418 65.3945 115.828 65.1367C116.707 64.5742 117.146 63.7012 117.146 62.5176C117.146 61.8145 116.959 61.2402 116.584 60.7949C116.174 60.3145 115.635 60.0742 114.967 60.0742C114.51 60.1562 114.047 60.2441 113.578 60.3379C113.121 60.4316 112.687 60.6133 112.277 60.8828C111.387 61.457 110.807 62.5234 110.537 64.082ZM128.181 60.584C127.688 60.2324 127.056 60.0566 126.282 60.0566C125.556 60.0566 124.882 60.1914 124.261 60.4609C123.089 60.9531 122.286 61.5859 121.852 62.3594C121.665 62.7109 121.571 63.0859 121.571 63.4844C121.571 63.5547 121.571 63.7539 121.571 64.082C121.571 64.3984 121.63 64.832 121.747 65.3828C121.864 65.9219 121.923 66.4727 121.923 67.0352C121.677 67.0469 121.477 67.0762 121.325 67.123C121.173 67.1699 121.044 67.1934 120.938 67.1934C120.833 67.1934 120.739 67.1465 120.657 67.0527C120.587 66.959 120.505 66.7773 120.411 66.5078C120.399 66.4375 120.376 66.2383 120.341 65.9102C120.306 65.582 120.259 65.1836 120.2 64.7148C120.153 64.2461 120.095 63.7363 120.024 63.1855C119.966 62.623 119.907 62.0723 119.849 61.5332C119.72 60.3613 119.62 59.5 119.55 58.9492C119.55 58.668 119.755 58.5273 120.165 58.5273C120.411 58.5273 120.604 58.6328 120.745 58.8438C120.886 59.043 120.997 59.2773 121.079 59.5469C121.161 59.8047 121.214 60.0625 121.237 60.3203C121.272 60.5781 121.302 60.7598 121.325 60.8652C122.872 59.4824 124.794 58.791 127.091 58.791C127.349 58.791 127.618 58.7969 127.899 58.8086C127.97 58.7969 128.058 58.791 128.163 58.791C128.268 58.791 128.374 58.8613 128.479 59.002C128.608 59.166 128.673 59.3652 128.673 59.5996C128.673 60.1855 128.509 60.5137 128.181 60.584ZM144.677 64.082C143.798 65.4648 142.626 66.3203 141.161 66.6484C140.821 66.7188 140.511 66.7539 140.229 66.7539C139.96 66.7539 139.731 66.7539 139.544 66.7539C139.368 66.7422 139.169 66.7129 138.946 66.666C138.723 66.6191 138.518 66.543 138.331 66.4375C137.897 66.1914 137.681 65.8457 137.681 65.4004C137.634 65.1895 137.61 64.9551 137.61 64.6973C137.61 64.4277 137.669 64.0762 137.786 63.6426C137.903 63.209 138.114 62.7402 138.419 62.2363C138.735 61.7324 139.116 61.2695 139.561 60.8477C140.487 59.957 141.489 59.3828 142.567 59.125C142.884 59.0547 143.171 59.0195 143.429 59.0195C143.698 59.0195 143.938 59.0371 144.149 59.0723C144.829 59.0723 145.286 59.5352 145.52 60.4609C145.673 61.0469 145.761 61.8672 145.784 62.9219C145.819 63.9648 145.848 64.7734 145.872 65.3477C145.907 65.9102 145.983 66.4258 146.1 66.8945H145.063C145.016 66.5781 144.981 66.2969 144.958 66.0508C144.934 65.8047 144.911 65.5762 144.888 65.3652C144.829 64.873 144.759 64.4453 144.677 64.082ZM144.606 61.3574C144.606 60.6777 144.272 60.3379 143.604 60.3379C143.522 60.3262 143.44 60.3203 143.358 60.3203C142.503 60.3203 141.6 60.7305 140.651 61.5508C140.206 61.9258 139.825 62.3477 139.509 62.8164C139.04 63.4844 138.806 64.082 138.806 64.6094C138.806 65.3008 139.204 65.7109 140.001 65.8398C141.056 65.8164 142.063 65.3359 143.024 64.3984C143.434 63.9883 143.774 63.543 144.044 63.0625C144.419 62.418 144.606 61.8496 144.606 61.3574ZM154.322 63.1504C154.322 61.7559 154.246 60.7305 154.094 60.0742C154.187 59.8984 154.047 59.8105 153.672 59.8105C153.273 59.8105 152.758 59.9102 152.125 60.1094C151.492 60.3086 150.976 60.5078 150.578 60.707C149.629 61.1641 149.101 61.6094 148.996 62.043V66.8242H147.818C147.666 66.4258 147.59 65.3066 147.59 63.4668C147.59 61.8262 147.619 60.6191 147.678 59.8457C147.748 59.0723 147.801 58.6328 147.836 58.5273C148.14 58.3281 148.387 58.2285 148.574 58.2285C148.867 58.2285 149.013 58.5742 149.013 59.2656C149.013 59.5352 148.996 59.7988 148.961 60.0566C148.937 60.3027 148.926 60.4727 148.926 60.5664C150.824 59.1719 152.295 58.4746 153.338 58.4746C154.521 58.4746 155.195 59.4297 155.359 61.3398C155.43 62.0078 155.465 62.9336 155.465 64.1172L155.447 65.5059C155.447 66.0215 155.459 66.5195 155.482 67C155.365 67.0703 155.271 67.1055 155.201 67.1055C155.166 67.0938 155.09 67.0762 154.972 67.0527C154.855 67.0293 154.703 67.0117 154.515 67C154.398 66.5312 154.334 66.0566 154.322 65.5762C154.31 65.084 154.305 64.6328 154.305 64.2227L154.322 63.1504ZM160.716 73.627C160.469 74.1777 160.177 74.4531 159.837 74.4531C159.673 74.4531 159.55 74.377 159.468 74.2246C159.397 74.084 159.397 73.9141 159.468 73.7148C159.725 72.625 160.094 71.3828 160.575 69.9883C161.067 68.5938 161.395 67.6562 161.559 67.1758C161.149 66.7656 160.505 65.9453 159.626 64.7148C157.821 62.1836 156.919 60.7949 156.919 60.5488C156.919 60.5371 156.925 60.5254 156.936 60.5137L157.604 59.8457C158.53 60.7012 159.737 62.1543 161.225 64.2051C161.6 64.7207 161.899 65.1543 162.122 65.5059C162.368 65.0137 162.561 64.5918 162.702 64.2402C162.843 63.877 162.954 63.5898 163.036 63.3789C163.13 63.1562 163.253 62.8633 163.405 62.5C163.803 61.5273 164.354 60.291 165.057 58.791C165.163 58.7441 165.274 58.7207 165.391 58.7207C165.684 58.7207 165.895 58.7969 166.024 58.9492C166.071 59.0078 166.094 59.0781 166.094 59.1602C166.094 59.2305 166.083 59.3008 166.059 59.3711L160.716 73.627ZM176.544 66.7188C176.544 66.918 176.403 67.0176 176.122 67.0176C175.911 67.0176 175.659 66.918 175.366 66.7188C175.225 66.4023 175.155 65.6465 175.155 64.4512C175.155 63.2559 175.167 62.2715 175.19 61.498C175.214 60.7129 175.237 59.9922 175.26 59.3359C175.331 57.9062 175.366 57.1504 175.366 57.0684C175.706 56.8691 175.987 56.7695 176.21 56.7695C176.432 56.7695 176.544 56.8691 176.544 57.0684V66.7188ZM186.576 58.3691L185.011 58.334C184.601 58.334 184.127 58.375 183.588 58.457C183.564 58.9141 183.517 59.5059 183.447 60.2324C183.201 62.8105 183.078 64.4863 183.078 65.2598C183.078 66.0215 183.089 66.5605 183.113 66.877L181.461 67L182.005 58.3164L178.261 58.1055C178.168 58.1055 178.091 58.0293 178.033 57.877C177.986 57.7246 177.963 57.584 177.963 57.4551C177.963 57.3262 178.015 57.1855 178.121 57.0332C178.226 56.8809 178.349 56.8047 178.49 56.8047C179.345 56.8398 180.207 56.8984 181.074 56.9805C182.679 57.1211 184.045 57.1914 185.17 57.1914L186.259 57.1562C187.115 57.1328 187.964 57.0391 188.808 56.875C188.996 56.9102 189.113 57.2031 189.16 57.7539C189.172 57.8711 189.177 57.9648 189.177 58.0352C188.404 58.2578 187.537 58.3691 186.576 58.3691ZM69.9411 89.1543C70.4216 88.9551 70.8903 88.7734 71.3473 88.6094C71.8044 88.4453 72.238 88.3633 72.6481 88.3633C73.07 88.3633 73.2809 88.4922 73.2809 88.75C73.2809 88.8086 73.2634 88.9023 73.2282 89.0312C73.2048 89.1484 73.0466 89.2949 72.7536 89.4707C72.4723 89.6348 72.1208 89.793 71.6989 89.9453C71.2887 90.0977 70.8376 90.2383 70.3454 90.3672C69.8532 90.4961 69.3727 90.6074 68.904 90.7012C67.9313 90.9004 67.2399 91 66.8298 91C66.4196 91 65.9743 90.9531 65.4938 90.8594C65.0251 90.7656 64.5856 90.6133 64.1755 90.4023C63.2262 89.9102 62.7516 89.1836 62.7516 88.2227C62.7516 88.1523 62.7516 88.0117 62.7516 87.8008C62.7516 87.5898 62.8395 87.291 63.0153 86.9043C63.1911 86.5059 63.4548 86.1133 63.8063 85.7266C64.1579 85.3281 64.568 84.9648 65.0368 84.6367C66.0212 83.9336 67.0524 83.4766 68.1305 83.2656C68.5055 83.1836 68.8161 83.1426 69.0622 83.1426C69.32 83.1426 69.5309 83.1484 69.695 83.1602C69.8591 83.1602 70.029 83.1719 70.2048 83.1953C70.3805 83.207 70.5329 83.248 70.6618 83.3184C70.9665 83.4707 71.1188 83.7695 71.1188 84.2148C71.1188 84.4961 70.9196 84.7715 70.5212 85.041C70.4157 85.1113 70.322 85.1758 70.2399 85.2344C70.1813 84.9648 70.1052 84.7363 70.0114 84.5488C69.9177 84.3613 69.7126 84.2676 69.3962 84.2676C68.0134 84.5605 66.8239 85 65.8278 85.5859C64.7028 86.2539 64.1403 86.957 64.1403 87.6953C64.1403 87.7773 64.1462 87.8652 64.1579 87.959C64.1579 88.709 64.445 89.2422 65.0192 89.5586C65.4528 89.793 66.0095 89.9102 66.6891 89.9102C67.3805 89.9102 67.9782 89.834 68.4821 89.6816C68.986 89.5176 69.4723 89.3418 69.9411 89.1543ZM83.0319 90.7539C82.9264 90.9531 82.651 91.0527 82.2057 91.0527C81.7721 91.0527 81.5553 90.8945 81.5553 90.5781C81.5553 89.1953 81.526 88.2461 81.4674 87.7305C81.362 86.5938 81.1393 85.9844 80.7995 85.9023C79.9557 85.7383 79.2643 85.6562 78.7252 85.6562C78.1979 85.6562 77.7584 85.8203 77.4069 86.1484C77.067 86.4648 76.8034 86.998 76.6159 87.748C76.4401 88.4863 76.3112 89.5293 76.2291 90.877H74.8756C74.8991 90.209 74.9108 89.5879 74.9108 89.0137C74.9108 88.4395 74.8991 87.7598 74.8756 86.9746C74.8522 86.1777 74.8229 85.3105 74.7877 84.373C74.7291 83.2949 74.6998 82.3867 74.6998 81.6484C74.6998 80.8984 74.7467 80.2129 74.8405 79.5918C74.9577 79.3691 75.1276 79.2578 75.3502 79.2578C75.6198 79.2578 75.8307 79.3574 75.983 79.5566C76.1354 79.7441 76.2174 79.9141 76.2291 80.0664L76.1413 82.9668C76.1413 84.0566 76.194 84.8711 76.2995 85.4102C77.3541 84.707 78.444 84.3555 79.569 84.3555C79.9323 84.3555 80.319 84.3848 80.7291 84.4434C81.608 84.9004 82.1823 85.3867 82.4518 85.9023C82.5807 86.1719 82.6627 86.459 82.6979 86.7637C82.733 87.0684 82.7565 87.4141 82.7682 87.8008C82.8385 89.1367 82.9264 90.1211 83.0319 90.7539ZM91.1305 88.082C90.2516 89.4648 89.0797 90.3203 87.6148 90.6484C87.275 90.7188 86.9645 90.7539 86.6832 90.7539C86.4137 90.7539 86.1852 90.7539 85.9977 90.7539C85.8219 90.7422 85.6227 90.7129 85.4 90.666C85.1773 90.6191 84.9723 90.543 84.7848 90.4375C84.3512 90.1914 84.1344 89.8457 84.1344 89.4004C84.0875 89.1895 84.0641 88.9551 84.0641 88.6973C84.0641 88.4277 84.1227 88.0762 84.2398 87.6426C84.357 87.209 84.568 86.7402 84.8727 86.2363C85.1891 85.7324 85.5699 85.2695 86.0152 84.8477C86.941 83.957 87.943 83.3828 89.0211 83.125C89.3375 83.0547 89.6246 83.0195 89.8824 83.0195C90.152 83.0195 90.3922 83.0371 90.6031 83.0723C91.2828 83.0723 91.7398 83.5352 91.9742 84.4609C92.1266 85.0469 92.2145 85.8672 92.2379 86.9219C92.273 87.9648 92.3023 88.7734 92.3258 89.3477C92.3609 89.9102 92.4371 90.4258 92.5543 90.8945H91.5172C91.4703 90.5781 91.4352 90.2969 91.4117 90.0508C91.3883 89.8047 91.3648 89.5762 91.3414 89.3652C91.2828 88.873 91.2125 88.4453 91.1305 88.082ZM91.0602 85.3574C91.0602 84.6777 90.7262 84.3379 90.0582 84.3379C89.9762 84.3262 89.8941 84.3203 89.8121 84.3203C88.9566 84.3203 88.0543 84.7305 87.1051 85.5508C86.6598 85.9258 86.2789 86.3477 85.9625 86.8164C85.4938 87.4844 85.2594 88.082 85.2594 88.6094C85.2594 89.3008 85.6578 89.7109 86.4547 89.8398C87.5094 89.8164 88.5172 89.3359 89.4781 88.3984C89.8883 87.9883 90.2281 87.543 90.4977 87.0625C90.8727 86.418 91.0602 85.8496 91.0602 85.3574ZM94.2369 84.1797C94.2134 83.5469 94.19 82.9844 94.1666 82.4922C94.1431 81.9883 94.1255 81.6191 94.1138 81.3848C94.1138 81.1387 94.0201 80.5469 93.8326 79.6094C93.938 79.4688 94.0377 79.334 94.1314 79.2051C94.2369 79.0762 94.3834 79.0117 94.5709 79.0117C94.981 79.0117 95.2974 80.7402 95.5201 84.1973C95.6373 86.2012 95.6959 88.2051 95.6959 90.209C95.6959 90.748 95.3209 91.0176 94.5709 91.0176L94.4302 91C94.4302 90.3906 94.4127 89.6113 94.3775 88.6621C94.3423 87.7129 94.313 86.8867 94.2896 86.1836C94.2779 85.4805 94.2603 84.8125 94.2369 84.1797ZM97.6069 84.1797C97.5835 83.5469 97.5601 82.9844 97.5366 82.4922C97.5132 81.9883 97.4956 81.6191 97.4839 81.3848C97.4839 81.1387 97.3902 80.5469 97.2027 79.6094C97.3081 79.4688 97.4077 79.334 97.5015 79.2051C97.6069 79.0762 97.7534 79.0117 97.9409 79.0117C98.3511 79.0117 98.6675 80.7402 98.8902 84.1973C99.0073 86.2012 99.0659 88.2051 99.0659 90.209C99.0659 90.748 98.6909 91.0176 97.9409 91.0176L97.8003 91C97.8003 90.3906 97.7827 89.6113 97.7476 88.6621C97.7124 87.7129 97.6831 86.8867 97.6597 86.1836C97.648 85.4805 97.6304 84.8125 97.6069 84.1797ZM104.247 89.7695C105.278 89.7695 106.831 89.3008 108.905 88.3633C109.034 88.3633 109.139 88.4102 109.221 88.5039C109.303 88.5859 109.344 88.6855 109.344 88.8027C108.875 89.5996 107.979 90.2207 106.655 90.666C105.331 91.1113 104.094 91.1875 102.946 90.8945C101.645 90.5547 100.854 89.8223 100.573 88.6973C100.549 88.4746 100.538 88.1758 100.538 87.8008C100.538 87.4258 100.631 86.9336 100.819 86.3242C101.018 85.7031 101.352 85.1172 101.821 84.5664C102.29 84.0156 102.84 83.582 103.473 83.2656C104.106 82.9492 104.78 82.791 105.495 82.791C106.174 82.791 106.936 83.0254 107.78 83.4941C108.178 83.7168 108.495 83.9688 108.729 84.25C108.963 84.5312 109.081 84.8184 109.081 85.1113C109.081 85.1934 109.075 85.2754 109.063 85.3574C109.04 86.0723 108.694 86.5234 108.026 86.7109C107.733 86.793 107.393 86.834 107.006 86.834L104.475 86.7285C103.631 86.7285 102.987 86.9102 102.541 87.2734C102.284 87.4727 102.102 87.7715 101.997 88.1699C102.29 89.2363 103.04 89.7695 104.247 89.7695ZM107.375 84.3379C107.118 84.1504 106.848 84.0156 106.567 83.9336C106.286 83.8516 106.051 83.8105 105.864 83.8105C105.676 83.8105 105.372 83.875 104.95 84.0039C104.528 84.1211 104.153 84.2559 103.825 84.4082C103.016 84.7832 102.612 85.1758 102.612 85.5859C103.549 85.668 104.252 85.709 104.721 85.709C106.022 85.709 106.901 85.5977 107.358 85.375C107.639 85.2578 107.78 85.1113 107.78 84.9355C107.78 84.7246 107.645 84.5254 107.375 84.3379ZM117.794 87.1504C117.794 85.7559 117.718 84.7305 117.566 84.0742C117.66 83.8984 117.519 83.8105 117.144 83.8105C116.746 83.8105 116.23 83.9102 115.597 84.1094C114.964 84.3086 114.449 84.5078 114.05 84.707C113.101 85.1641 112.574 85.6094 112.468 86.043V90.8242H111.29C111.138 90.4258 111.062 89.3066 111.062 87.4668C111.062 85.8262 111.091 84.6191 111.15 83.8457C111.22 83.0723 111.273 82.6328 111.308 82.5273C111.613 82.3281 111.859 82.2285 112.046 82.2285C112.339 82.2285 112.486 82.5742 112.486 83.2656C112.486 83.5352 112.468 83.7988 112.433 84.0566C112.41 84.3027 112.398 84.4727 112.398 84.5664C114.296 83.1719 115.767 82.4746 116.81 82.4746C117.994 82.4746 118.667 83.4297 118.831 85.3398C118.902 86.0078 118.937 86.9336 118.937 88.1172L118.919 89.5059C118.919 90.0215 118.931 90.5195 118.955 91C118.837 91.0703 118.744 91.1055 118.673 91.1055C118.638 91.0938 118.562 91.0762 118.445 91.0527C118.328 91.0293 118.175 91.0117 117.988 91C117.871 90.5312 117.806 90.0566 117.794 89.5762C117.783 89.084 117.777 88.6328 117.777 88.2227L117.794 87.1504ZM125.559 98.5234L125.313 98.5059C124.961 98.5059 124.586 98.5293 124.188 98.5762H123.52C122.817 98.5762 122.266 98.4414 121.868 98.1719C121.657 98.0312 121.551 97.8203 121.551 97.5391L125.594 97.3457C126.836 97.3105 127.457 96.6426 127.457 95.3418C127.457 95.2949 127.457 95.2129 127.457 95.0957C127.457 94.9902 127.457 94.75 127.457 94.375L127.545 88.7148C127.545 88.5156 127.539 88.3516 127.528 88.2227C125.629 89.9922 123.801 90.877 122.043 90.877C121.891 90.877 121.739 90.8711 121.586 90.8594C120.801 90.8594 120.409 90.5137 120.409 89.8223C120.432 89.2832 120.59 88.6914 120.883 88.0469C121.176 87.3906 121.551 86.7637 122.008 86.166C122.477 85.5566 123.004 85.0117 123.59 84.5312C124.493 83.793 125.366 83.4238 126.209 83.4238C127.194 83.4238 128.002 83.9453 128.635 84.9883C128.823 87.7773 128.916 89.7578 128.916 90.9297C128.916 92.1016 128.899 93.0625 128.864 93.8125C128.829 94.5625 128.746 95.248 128.618 95.8691C128.5 96.4902 128.342 96.9824 128.143 97.3457C127.944 97.709 127.709 97.9727 127.44 98.1367C126.995 98.3945 126.368 98.5234 125.559 98.5234ZM126.614 84.707C126.473 84.6602 126.274 84.6367 126.016 84.6367C125.77 84.6367 125.448 84.7422 125.049 84.9531C124.651 85.1641 124.27 85.4395 123.907 85.7793C123.543 86.1074 123.204 86.4766 122.887 86.8867C122.114 87.8945 121.727 88.6973 121.727 89.2949C121.727 89.4824 121.78 89.623 121.885 89.7168C121.967 89.7637 122.067 89.7871 122.184 89.7871C122.313 89.7871 122.495 89.7695 122.729 89.7344C122.963 89.6875 123.28 89.582 123.678 89.418C124.088 89.2422 124.51 89.0195 124.944 88.75C125.377 88.4805 125.77 88.1816 126.121 87.8535C126.942 87.1035 127.352 86.3711 127.352 85.6562C127.352 85.2227 127.106 84.9062 126.614 84.707ZM133.886 89.7695C134.917 89.7695 136.47 89.3008 138.544 88.3633C138.673 88.3633 138.779 88.4102 138.861 88.5039C138.943 88.5859 138.984 88.6855 138.984 88.8027C138.515 89.5996 137.619 90.2207 136.294 90.666C134.97 91.1113 133.734 91.1875 132.585 90.8945C131.285 90.5547 130.494 89.8223 130.212 88.6973C130.189 88.4746 130.177 88.1758 130.177 87.8008C130.177 87.4258 130.271 86.9336 130.458 86.3242C130.658 85.7031 130.992 85.1172 131.46 84.5664C131.929 84.0156 132.48 83.582 133.113 83.2656C133.745 82.9492 134.419 82.791 135.134 82.791C135.814 82.791 136.576 83.0254 137.419 83.4941C137.818 83.7168 138.134 83.9688 138.369 84.25C138.603 84.5312 138.72 84.8184 138.72 85.1113C138.72 85.1934 138.714 85.2754 138.702 85.3574C138.679 86.0723 138.333 86.5234 137.665 86.7109C137.372 86.793 137.033 86.834 136.646 86.834L134.115 86.7285C133.271 86.7285 132.626 86.9102 132.181 87.2734C131.923 87.4727 131.742 87.7715 131.636 88.1699C131.929 89.2363 132.679 89.7695 133.886 89.7695ZM137.015 84.3379C136.757 84.1504 136.488 84.0156 136.206 83.9336C135.925 83.8516 135.691 83.8105 135.503 83.8105C135.316 83.8105 135.011 83.875 134.589 84.0039C134.167 84.1211 133.792 84.2559 133.464 84.4082C132.656 84.7832 132.251 85.1758 132.251 85.5859C133.189 85.668 133.892 85.709 134.361 85.709C135.661 85.709 136.54 85.5977 136.997 85.375C137.279 85.2578 137.419 85.1113 137.419 84.9355C137.419 84.7246 137.285 84.5254 137.015 84.3379ZM140.912 91.0176C140.643 90.9941 140.508 90.877 140.508 90.666C140.508 90.4082 140.655 90.168 140.948 89.9453C141.065 89.8633 141.153 89.8223 141.211 89.8223C141.282 89.8223 141.334 89.8281 141.369 89.8398C141.616 89.8398 141.78 89.8926 141.862 89.998C141.955 90.0918 142.002 90.2207 142.002 90.3848C142.002 90.5488 141.967 90.6719 141.897 90.7539C141.826 90.8359 141.739 90.8945 141.633 90.9297C141.457 90.9883 141.217 91.0176 140.912 91.0176Z" fill="#01082D"/>
<path d="M274.91 174.959C275.462 174.981 275.927 174.551 275.948 173.999L276.299 165.006C276.321 164.454 275.891 163.989 275.339 163.968C274.787 163.946 274.322 164.376 274.301 164.928L273.989 172.922L265.995 172.61C265.443 172.588 264.978 173.018 264.957 173.57C264.935 174.122 265.365 174.587 265.917 174.608L274.91 174.959ZM258.345 128.72L258.816 127.837L258.345 128.72ZM232.174 144.468L231.596 145.285L232.174 144.468ZM233.19 106.58L232.978 107.558V107.558L233.19 106.58ZM226.613 122.339L226.847 123.312L226.847 123.312L226.613 122.339ZM205.778 114.209C205.432 113.779 204.802 113.711 204.372 114.058C203.942 114.405 203.875 115.034 204.222 115.464L205.778 114.209ZM275.683 173.281C264.188 160.852 257.857 150.882 254.847 143.533L252.996 144.291C256.127 151.935 262.622 162.104 274.215 174.639L275.683 173.281ZM254.847 143.533C252.281 137.271 252.198 133.093 253.134 130.906C253.586 129.851 254.251 129.298 254.979 129.091C255.73 128.878 256.719 128.986 257.875 129.602L258.816 127.837C257.343 127.052 255.816 126.775 254.433 127.167C253.027 127.566 251.942 128.61 251.296 130.119C250.036 133.061 250.37 137.88 252.996 144.291L254.847 143.533ZM257.875 129.602C258.831 130.112 259.374 130.85 259.61 131.748C259.855 132.677 259.785 133.84 259.366 135.157C258.527 137.795 256.362 140.791 253.315 143.117L254.528 144.707C257.832 142.186 260.284 138.868 261.272 135.763C261.767 134.208 261.914 132.642 261.544 131.239C261.167 129.805 260.266 128.61 258.816 127.837L257.875 129.602ZM253.315 143.117C248.025 147.153 240.323 149.007 232.751 143.652L231.596 145.285C240.054 151.267 248.727 149.133 254.528 144.707L253.315 143.117ZM232.751 143.652C225.748 138.699 223.779 130.518 224.465 123.032L222.474 122.849C221.749 130.749 223.802 139.772 231.596 145.285L232.751 143.652ZM224.465 123.032C224.879 118.521 226.253 114.359 227.983 111.463C228.849 110.012 229.776 108.927 230.671 108.264C231.564 107.602 232.336 107.419 232.978 107.558L233.401 105.603C232.011 105.302 230.658 105.784 229.48 106.657C228.304 107.529 227.215 108.848 226.266 110.437C224.364 113.621 222.911 118.078 222.474 122.849L224.465 123.032ZM232.978 107.558C234.538 107.895 235.381 108.719 235.758 109.733C236.155 110.801 236.09 112.234 235.481 113.805C234.266 116.944 231.022 120.25 226.379 121.367L226.847 123.312C232.136 122.039 235.898 118.269 237.346 114.528C238.07 112.659 238.251 110.7 237.633 109.036C236.994 107.319 235.558 106.069 233.401 105.603L232.978 107.558ZM226.379 121.367C225.306 121.625 224.292 121.817 223.333 121.95L223.606 123.931C224.636 123.789 225.715 123.584 226.847 123.312L226.379 121.367ZM223.333 121.95C218.712 122.587 215.327 121.845 212.626 120.393C209.898 118.927 207.785 116.697 205.778 114.209L204.222 115.464C206.276 118.011 208.591 120.496 211.679 122.155C214.793 123.828 218.613 124.62 223.606 123.931L223.333 121.95Z" fill="#FFEDA6"/>
</svg>
