<svg width="24" height="24" viewBox="0 0 24 24" fill="none" xmlns="http://www.w3.org/2000/svg">
<rect x="6" y="7" width="11" height="11" fill="#35C89F"/>
<path fill-rule="evenodd" clip-rule="evenodd" d="M10.4633 2.44915C10.931 2.15534 11.4674 2 12.0143 2C12.5612 2 13.0976 2.15534 13.5653 2.44915L14.6668 3.14786C16.2121 4.12751 17.9721 4.34564 19.7403 4.56546C20.3118 4.63668 20.8839 4.70733 21.45 4.80434C21.45 4.80434 21.4624 5.83278 21.4494 6.29934L21.3364 10.3093C21.2391 13.7485 19.7646 17.0093 17.2351 19.3791C16.0418 20.4967 14.8073 21.5066 13.3891 22.3455C12.9711 22.5907 12.5025 22.7283 12.0226 22.7465C11.5427 22.7648 11.0656 22.6632 10.6314 22.4504C8.99362 21.6429 7.54343 20.6189 6.21923 19.3791C3.68978 17.0093 2.21526 13.7485 2.11848 10.3093L2.00601 6.31223C1.99249 5.83839 2.00601 4.80434 2.00601 4.80434C2.46561 4.74827 2.93387 4.70173 3.40591 4.65518C5.48927 4.44994 7.64184 4.23798 9.4078 3.1187L10.4638 2.44915H10.4633ZM10.6412 10.9727V7.04739H12.804V10.9727H16.589V13.2158H12.804V17.1411H10.6412V13.2158H6.85619V10.9727H10.6412Z" fill="#5C62F9"/>
</svg>
