<svg width="24" height="24" viewBox="0 0 24 24" fill="none" xmlns="http://www.w3.org/2000/svg">
<rect x="2" y="17.7144" width="20" height="2.85714" rx="1.42857" fill="#35C89F"/>
<path fill-rule="evenodd" clip-rule="evenodd" d="M3.42857 3.42871C2.63959 3.42871 2 4.0683 2 4.85728V14.8573C2 15.6463 2.63959 16.2859 3.42857 16.2859H20.5714C21.3604 16.2859 22 15.6463 22 14.8573V4.85728C22 4.0683 21.3604 3.42871 20.5714 3.42871H3.42857ZM5 7C5.55228 7 6 6.55228 6 6C6 5.44772 5.55228 5 5 5C4.44772 5 4 5.44772 4 6C4 6.55228 4.44772 7 5 7ZM9 6C9 6.55228 8.55228 7 8 7C7.44772 7 7 6.55228 7 6C7 5.44772 7.44772 5 8 5C8.55228 5 9 5.44772 9 6ZM11 7C11.5523 7 12 6.55228 12 6C12 5.44772 11.5523 5 11 5C10.4477 5 10 5.44772 10 6C10 6.55228 10.4477 7 11 7Z" fill="#5C62F9"/>
</svg>
