<svg width="24" height="24" viewBox="0 0 24 24" fill="none" xmlns="http://www.w3.org/2000/svg">
<path fill-rule="evenodd" clip-rule="evenodd" d="M6.5608 3.00072C7.98142 2.97818 9.40871 3.48438 10.5283 4.51927L12.2165 6.18274L13.3125 5.0996C14.4283 3.99632 15.8787 3.44388 17.3297 3.44257C18.7806 3.44127 20.232 3.9911 21.3497 5.09236C22.4318 6.15859 22.9831 7.56635 22.9996 8.98047C23.0161 10.3946 22.4979 11.815 21.4471 12.9005L12.9057 21.3276C12.6962 21.4974 12.4528 21.5883 12.2125 21.5959C11.9831 21.6031 11.7571 21.5336 11.5725 21.3854L2.63829 12.5582C1.54122 11.4261 0.998735 9.98865 1 8.56587C1.00128 7.13477 1.55279 5.71946 2.63961 4.64862C3.73184 3.57244 5.14302 3.02322 6.5608 3.00072Z" fill="#5C62F9"/>
<circle cx="7" cy="9" r="3" fill="#35C89F"/>
</svg>
