<svg width="24" height="24" viewBox="0 0 24 24" fill="none" xmlns="http://www.w3.org/2000/svg">
    <path d="M11.5497 13.9579L4.49609 10.9419V17.8726C4.49609 18.1498 4.60102 18.4187 4.80217 18.6095C8.61423 22.2249 15.4746 22.26 18.8964 18.5985C19.0695 18.4132 19.157 18.1655 19.157 17.9119V10.9419L12.4124 13.9512C12.1383 14.0735 11.8256 14.0759 11.5497 13.9579Z" fill="#5C62F9"/>
    <path d="M2.19359 7.4849L11.9459 3.48589C11.9811 3.47143 12.0189 3.47143 12.0541 3.48589L21.8064 7.4849C21.8535 7.5042 21.8752 7.52759 21.8897 7.55072C21.9076 7.57947 21.9224 7.62337 21.9224 7.67692C21.9224 7.73048 21.9076 7.77438 21.8897 7.80312C21.8752 7.82626 21.8535 7.84965 21.8064 7.86895L12.0541 11.868C12.0189 11.8824 11.9811 11.8824 11.9459 11.868L2.19359 7.86895C2.14653 7.84965 2.12475 7.82626 2.11031 7.80312C2.09237 7.77438 2.07759 7.73048 2.07759 7.67692C2.07759 7.62337 2.09237 7.57947 2.11031 7.55072C2.12475 7.52759 2.14653 7.5042 2.19359 7.4849Z" fill="#35C89F" stroke="#5C62F9" stroke-width="2.15518" stroke-linejoin="round"/>
    <path d="M21.3398 8.38086V13.1826" stroke="#5C62F9" stroke-width="1.61638" stroke-linecap="round"/>
</svg>
