<svg width="24" height="24" viewBox="0 0 24 24" fill="none" xmlns="http://www.w3.org/2000/svg">
<path fill-rule="evenodd" clip-rule="evenodd" d="M10.0104 17.4978C14.335 18.6245 18.7801 16.1291 19.9389 11.9242C21.0976 7.71934 18.5312 3.39723 14.2067 2.27054C9.88212 1.14384 5.437 3.63921 4.27824 7.8441C3.11947 12.049 5.68586 16.3711 10.0104 17.4978ZM11.2342 13.1939C13.1144 13.6838 15.047 12.5989 15.5508 10.7707C16.0546 8.94255 14.9388 7.06344 13.0586 6.57358C11.1785 6.08373 9.24586 7.16864 8.74206 8.99679C8.23827 10.8249 9.35405 12.7041 11.2342 13.1939Z" fill="#5C62F9"/>
<path d="M15.5508 10.7708C15.047 12.599 13.1144 13.6839 11.2342 13.194C9.35405 12.7042 8.23827 10.825 8.74206 8.99688C9.24586 7.16873 11.1785 6.08382 13.0586 6.57368C14.9388 7.06353 16.0546 8.94264 15.5508 10.7708Z" fill="#35C89F"/>
<path d="M12.5348 22.0911L18.0786 15.1803C18.3869 14.7961 18.1053 14.2353 17.6041 14.2353L6.51641 14.2353C6.01521 14.2353 5.73361 14.7961 6.04186 15.1803L11.5857 22.0911C11.8266 22.3915 12.2938 22.3915 12.5348 22.0911Z" fill="#5C62F9"/>
</svg>
