<svg width="24" height="24" viewBox="0 0 24 24" fill="none" xmlns="http://www.w3.org/2000/svg">
<rect x="2" y="2.31445" width="20" height="19.3247" rx="0.944444" fill="#5C62F9"/>
<path d="M9.5 4.50298C9.5 4.24218 9.71142 4.03076 9.97222 4.03076H14.0278C14.2886 4.03076 14.5 4.24218 14.5 4.50298V13.6206C14.5 13.8814 14.2886 14.0928 14.0278 14.0928H9.97222C9.71142 14.0928 9.5 13.8814 9.5 13.6206V4.50298Z" fill="#35C89F"/>
<path d="M15.332 4.50298C15.332 4.24218 15.5435 4.03076 15.8043 4.03076H19.8598C20.1206 4.03076 20.332 4.24218 20.332 4.50298V13.6206C20.332 13.8814 20.1206 14.0928 19.8598 14.0928H15.8043C15.5435 14.0928 15.332 13.8814 15.332 13.6206V4.50298Z" fill="white"/>
<path d="M3.66797 4.50298C3.66797 4.24218 3.87939 4.03076 4.14019 4.03076H8.19575C8.45655 4.03076 8.66797 4.24218 8.66797 4.50298V13.6206C8.66797 13.8814 8.45655 14.0928 8.19575 14.0928H4.14019C3.87939 14.0928 3.66797 13.8814 3.66797 13.6206V4.50298Z" fill="white"/>
</svg>
