<svg width="93" height="107" viewBox="0 0 93 107" fill="none" xmlns="http://www.w3.org/2000/svg">
<mask id="mask0_4976_62110" style="mask-type:alpha" maskUnits="userSpaceOnUse" x="0" y="0" width="93" height="107">
<rect x="0.101562" width="92.7036" height="107" fill="#FFCC00"/>
</mask>
<g mask="url(#mask0_4976_62110)">
<path fill-rule="evenodd" clip-rule="evenodd" d="M66.6651 2.22412L54.1904 13.958C51.8226 13.593 49.3673 13.4703 46.9487 13.4703C41.6349 13.4703 36.0072 14.0812 30.9785 16.1689L17.2202 4.84025L18.2195 28.5383C17.6488 29.7946 17.1436 31.1513 16.7117 32.6159C14.1419 41.3312 13.7366 45.9495 13.7366 52.8556C13.7366 53.8099 14.152 59.8333 13.0898 64.1379C10.7614 73.5739 4.30051 89.0983 2.22387 99.7624C1.71595 102.371 -2.04488 126.703 0.606914 143.524C3.68813 163.069 23.1309 165.157 41.0971 165.378L42.2794 165.39C43.6558 165.402 45.0211 165.404 46.3672 165.405L47.868 165.404C63.1808 165.396 92.8435 164.988 96.4678 146.008C96.4804 145.958 96.4923 145.906 96.5036 145.852C97.6461 140.372 99.4098 133.907 101.244 117.963C102.178 109.839 108.516 113.66 108.111 104.145C107.705 94.6304 115.664 110.229 127.07 106.231C135.063 103.429 139.704 111.561 140.606 118.052C140.871 119.955 140.796 122.035 140.689 124.073L140.65 124.79C140.643 124.909 140.637 125.028 140.63 125.146L140.593 125.854C140.381 130.078 140.426 133.827 143.636 135.025C146.858 136.228 149.816 134.412 150.984 129.122C151.988 124.57 151.104 114.751 150.597 112.381C149.501 107.256 146.059 95.1872 133.129 92.0864C123.172 89.6985 117.189 99.8158 114.445 105.531L114.221 106.003C129.527 108.564 114.149 106.156 114.114 106.231C109.473 116.207 114.837 112.881 116.366 117.963C117.937 123.188 93.4217 106.498 92.6893 110.39L92.6888 110.387L92.5606 109.756C91.4431 104.297 90.2843 99.5761 89.3255 96.7928L89.2158 96.4803C83.3254 80.0373 77.3043 66.3643 74.0165 49.3684C73.4997 46.6969 73.0516 43.8737 72.6065 41.0675L72.384 39.6665C71.3066 32.9097 70.1834 26.4158 68.089 22.5645C67.9828 22.3691 67.8736 22.1778 67.7616 21.9905L66.6651 2.22412Z" fill="#FFCC00"/>
</g>
</svg>
