<svg width="187" height="155" viewBox="0 0 187 155" fill="none" xmlns="http://www.w3.org/2000/svg">
<mask id="mask0_6672_60757" style="mask-type:alpha" maskUnits="userSpaceOnUse" x="11" y="0" width="176" height="123">
<rect x="11.5" width="175" height="123" fill="#D9D9D9"/>
</mask>
<g mask="url(#mask0_6672_60757)">
<path fill-rule="evenodd" clip-rule="evenodd" d="M30.3412 92.0354C30.3412 90.6361 13.456 74.8494 27.3254 62.0558C41.1947 49.2621 108.275 52.9211 117.275 60.5561C126.275 68.191 120.669 83.7441 114.354 87.96C108.038 92.1759 30.3412 93.4347 30.3412 92.0354Z" fill="#475447"/>
<path fill-rule="evenodd" clip-rule="evenodd" d="M34.0764 63.1367C28.9447 67.0463 26.7246 70.724 27.4161 74.1697C28.1077 77.6155 29.5024 79.9024 31.6005 81.0304H35.2206L34.0764 63.1367Z" fill="#293629"/>
<path fill-rule="evenodd" clip-rule="evenodd" d="M111.792 81.0304C114.514 74.43 116.019 68.8251 114.949 66.421C113.879 64.0169 110.557 63.6573 106.342 63.1367L111.792 81.0304Z" fill="#293629"/>
<path d="M100.051 32.563L98.4497 5.02468L83.0579 18.8219L100.051 32.563Z" fill="#FFC989" stroke="#35C89F" stroke-width="3.48863"/>
<path fill-rule="evenodd" clip-rule="evenodd" d="M171.305 94.1282C172.366 101.352 168.788 110.867 174.865 113.016C178.652 114.355 182.128 112.333 183.5 106.447C184.68 101.382 183.641 90.4545 183.046 87.8168C181.758 82.1138 177.713 68.6835 162.519 65.2327C150.325 62.4632 143.202 74.8105 140.175 80.9732C134.722 92.0751 136.94 111.665 138.736 117.321C142.069 127.814 141.257 139.765 138.736 144.391C136.11 149.21 133.51 152.058 130.934 152.934L132.601 170.656C142.694 161.154 148.602 151.58 150.325 141.932C151.368 136.089 152.445 130.704 150.325 121.047C148.633 113.343 141.996 85.4223 155.399 80.9732C164.792 77.8555 170.245 86.9044 171.305 94.1282Z" fill="#35C89F"/>
<path d="M168.146 68.2043C167.561 67.5307 171.247 71.3445 171.247 71.3445C175.916 72.9213 169.702 66.2871 162.895 64.3451L159.425 62.8962C158.794 63.4193 157.015 64.9168 156.619 63.8208C156.223 62.7248 155.722 62.9172 155.168 62.8962C155.441 63.4615 155.256 64.136 155.168 64.345C155.057 64.6063 154.243 66.892 153.023 65.7841C152.046 64.8978 151.623 65.3977 151.421 65.0281L151.421 67.0265C150.927 66.9837 149.758 66.9636 149.033 67.2257C148.307 67.4878 148.966 67.9873 149.386 68.2043L146.352 67.7517C146.568 67.969 146.932 68.5603 146.666 69.1872C146.401 69.8142 145.367 70.3205 144.883 70.4952L144.167 69.6477C144.188 70.0828 144.257 71.0313 144.37 71.3445C144.512 71.7359 142.968 70.3021 141.659 71.2178C140.35 72.1335 141.225 71.1531 141.468 72.393C141.663 73.3848 140.933 74.5042 140.543 74.9399L139.898 74.2881L139.836 72.9827C139.58 74.0393 139.236 76.105 139.755 76.4588C139.387 76.3837 138.764 76.2651 138.327 76.1832C138.519 76.3352 138.842 76.9265 138.601 78.0757C138.36 79.2248 137.298 78.2516 136.797 77.6213C137.083 78.0343 137.624 79.0039 137.504 79.5785C137.383 80.1531 137.368 81.4716 137.375 82.059L136.729 81.4072C136.545 81.8426 136.247 82.9091 136.53 83.692C136.813 84.4749 136.83 85.2799 136.804 85.5845L135.716 85.9777L136.564 88.3263C136.356 88.6964 136.123 89.1493 135.971 90.0894C135.819 91.0296 136.568 92.3078 136.89 92.6337C137.282 93.8128 136.378 95.1156 135.716 95.6505C135.716 95.6505 136.903 101.532 137.136 101.271C137.37 101.01 139.389 99.549 140.091 99.2217C138.398 95.4818 137.912 86.3022 141.979 80.7613C147.063 73.8353 158.724 70.2145 162.895 68.7074C166.232 67.5016 168.924 70.3572 168.146 68.2043Z" fill="#35C89F"/>
<path d="M40.8997 33.5709L41.2869 7.37698L56.7627 21.0689L40.8997 33.5709Z" fill="#FFC989" stroke="#35C89F" stroke-width="3.48863"/>
<path fill-rule="evenodd" clip-rule="evenodd" d="M75.3245 195.776C94.8663 195.776 135.822 195.737 137.646 169.7C138.454 158.152 131.969 123.71 128.182 113.637C120.816 94.0414 113.286 77.7471 109.174 57.4926C106.859 46.0844 105.645 32.3551 101.762 25.5497C96.5537 16.4231 85.6711 14.7119 75.3245 14.7119C60.3715 14.7119 43.4307 18.398 37.5113 37.5283C34.2976 47.9145 33.7907 53.4182 33.7907 61.6484C33.7907 62.7856 34.3101 69.9639 32.9818 75.0937C30.07 86.3389 21.9903 104.84 19.3933 117.548C18.7581 120.657 14.055 149.654 17.3712 169.7C21.6483 195.554 51.1356 195.776 75.3245 195.776Z" fill="#E2E2E2"/>
<mask id="mask1_6672_60757" style="mask-type:alpha" maskUnits="userSpaceOnUse" x="16" y="14" width="122" height="182">
<path fill-rule="evenodd" clip-rule="evenodd" d="M75.3235 195.895C94.8654 195.895 135.821 195.857 137.645 169.819C138.453 158.272 131.968 123.83 128.181 113.756C120.815 94.1606 113.285 77.8662 109.173 57.6117C106.858 46.2035 105.644 32.4742 101.761 25.6688C96.5527 16.5423 85.6701 14.8311 75.3235 14.8311C60.3705 14.8311 43.4297 18.5171 37.5103 37.6474C34.2966 48.0336 33.7897 53.5373 33.7897 61.7675C33.7897 62.9048 34.3092 70.083 32.9808 75.2129C30.0139 86.0159 21.9893 104.959 19.3924 117.668C18.7572 120.776 14.054 149.773 17.3703 169.819C21.6474 195.673 51.1346 195.895 75.3235 195.895Z" fill="#E2E2E2"/>
</mask>
<g mask="url(#mask1_6672_60757)">
<path fill-rule="evenodd" clip-rule="evenodd" d="M75.6488 181.041C85.7829 181.041 103.592 177.285 109.041 165.004C112.524 157.156 105.725 143.307 105.725 132.952C105.725 106.393 90.7724 92.3564 74.1616 92.3564C57.5509 92.3564 45.5724 106.393 45.5724 132.952C45.5724 142.002 40.6688 155.174 43.3875 162.403C48.6473 176.39 64.6982 181.041 75.6488 181.041Z" fill="#E9E9E9"/>
<path d="M109.421 88.2103C111.282 86.0396 115.752 83.1712 116.011 82.2021C121.244 96.1566 128.802 114.375 129.771 119.027C128.156 117.541 122.213 112.514 122.213 108.948C122.213 104.491 118.53 100.614 114.654 97.5133C110.778 94.4123 107.095 90.9237 109.421 88.2103Z" fill="#35C89F"/>
<path d="M24.7244 116.12C24.5693 110.383 22.5061 106.593 22.3123 105.495C17.0029 121.882 15.9934 134.532 16.5843 162.441C18.91 161.407 24.7244 155.541 24.7244 149.649C24.7244 142.284 22.011 142.09 20.8481 130.268C20.5416 127.152 24.9182 123.291 24.7244 116.12Z" fill="#35C89F"/>
<path d="M108.185 65.0697C109.115 61.9687 109.477 59.8368 109.348 59.0615L114.581 77.0861C112.836 76.8923 112.604 76.117 109.348 75.3418C105.278 74.3727 107.022 68.946 108.185 65.0697Z" fill="#35C89F"/>
<path d="M37.7098 69.4116C36.7795 66.3106 34.0274 64.954 33.8336 64.1787C34.042 70.9337 33.0229 74.841 31.1461 81.0336C32.8904 80.8398 33.2909 80.459 36.547 79.6837C40.617 78.7146 38.8727 73.2879 37.7098 69.4116Z" fill="#35C89F"/>
<path d="M31.1204 91.1179C30.1901 87.8618 30.216 85.1097 30.3452 84.1406L24.7246 100.227C25.306 100.938 27.0504 102.359 29.3761 102.359C32.2833 102.359 32.2833 95.1879 31.1204 91.1179Z" fill="#D2D0D0"/>
<path d="M34.6087 109.918C33.6784 108.057 31.8953 106.817 31.12 106.429C30.2802 105.847 28.3291 104.762 27.2438 105.072C25.8871 105.46 25.4995 106.429 25.6933 108.173C25.8871 109.918 28.019 116.313 28.6005 117.476C29.1819 118.639 33.6396 117.67 36.7406 117.089C39.8416 116.507 35.7715 112.243 34.6087 109.918Z" fill="#D2D0D0"/>
<path d="M129.577 125.81C129.888 123.949 128.221 120.06 126.864 118.833C126.606 118.445 124.887 118.6 123.957 118.445C122.794 118.251 122.794 121.74 124.538 126.392C126.283 131.043 124.732 132.787 126.864 133.95C128.996 135.113 129.19 128.136 129.577 125.81Z" fill="#D2D0D0"/>
<path d="M71.2415 51.4305C69.691 51.9934 67.8821 51.4305 67.3652 50.4922C68.3989 51.2428 69.4326 51.6239 71.2415 51.4305Z" fill="#CACACA"/>
</g>
<path fill-rule="evenodd" clip-rule="evenodd" d="M88.6183 45.8269L108.06 44.1154L108.096 44.5229L88.6538 46.2345L88.6183 45.8269Z" fill="black"/>
<path d="M108.32 48.9033H88.8037V49.3124H108.32V48.9033Z" fill="black"/>
<path fill-rule="evenodd" clip-rule="evenodd" d="M88.8389 51.9824L108.281 53.6939L108.245 54.1015L88.8034 52.39L88.8389 51.9824Z" fill="black"/>
<path fill-rule="evenodd" clip-rule="evenodd" d="M70.8046 45.1608L68.9503 42.0516L72.4261 41.9188L70.8046 45.1608Z" fill="#E18989"/>
<path fill-rule="evenodd" clip-rule="evenodd" d="M52.1014 46.3005L32.6597 44.589L32.6242 44.9966L52.066 46.7081L52.1014 46.3005Z" fill="black"/>
<path d="M32.8082 49.3779H52.3242V49.787H32.8082V49.3779Z" fill="black"/>
<path fill-rule="evenodd" clip-rule="evenodd" d="M52.25 52.4551L32.8083 54.1666L32.8437 54.5742L52.2854 52.8626L52.25 52.4551Z" fill="black"/>
<path d="M74.725 49.7155C71.1108 50.3699 68.523 50.1031 66.1973 47.7773" stroke="black" stroke-width="0.387625" stroke-linecap="round"/>
<path d="M59.7985 38.0876C63.0933 38.0876 66.8682 36.0923 66.3085 32.5586C65.7488 29.0248 62.0045 26.6813 57.9454 27.3242C53.8863 27.9671 51.0494 31.353 51.6091 34.8867C52.024 37.5061 55.8788 38.0876 59.7985 38.0876Z" fill="white"/>
<path d="M60.8332 33.9048C60.9336 34.5387 60.8577 35.2394 60.5608 35.8067C60.2681 36.3659 59.7578 36.8035 58.9578 36.9302C58.1432 37.0592 57.2706 36.8429 56.5748 36.43C55.8737 36.014 55.3934 35.4247 55.3013 34.8431C55.208 34.254 55.4313 33.6567 55.8976 33.1647C56.3641 32.6724 57.0664 32.296 57.8962 32.1645C58.7276 32.0329 59.4156 32.1742 59.9144 32.4882C60.4113 32.8011 60.7365 33.2947 60.8332 33.9048Z" fill="#462222" stroke="#130909" stroke-width="0.446848"/>
<path d="M58.5422 35.7472C59.4906 35.597 60.1597 34.8459 60.0368 34.0696C59.9138 33.2934 59.0453 32.7858 58.097 32.936C57.1487 33.0862 56.4796 33.8373 56.6025 34.6136C56.7255 35.3898 57.5939 35.8974 58.5422 35.7472Z" fill="black"/>
<path d="M58.4112 34.5431L58.3947 33.2902C59.1673 33.1409 59.5903 33.1871 60.3272 33.4654L60.3437 34.7183C59.5493 34.9139 59.1275 34.871 58.4112 34.5431Z" fill="url(#paint0_linear_6672_60757)"/>
<circle cx="57.2194" cy="35.1413" r="0.523104" fill="white"/>
<path d="M59.342 32.8676C61.4978 33.1218 65.882 35.3303 66.9385 36.3006L67.891 31.534L64.0878 27.3775L56.5022 25.507L47.5647 34.4323C50.6296 33.818 57.1863 32.6133 59.342 32.8676Z" fill="#E2E2E2"/>
<path d="M81.3124 37.892C78.0176 37.892 73.5546 35.9029 74.1143 32.3691C74.674 28.8354 78.4183 26.4918 82.4774 27.1348C86.5366 27.7777 89.3734 31.1635 88.8137 34.6973C88.3989 37.3167 85.232 37.892 81.3124 37.892Z" fill="white"/>
<path d="M83.8878 33.7153C83.9882 34.3493 83.9124 35.05 83.6155 35.6173C83.3228 36.1764 82.8125 36.6141 82.0124 36.7408C81.1979 36.8698 80.3253 36.6535 79.6295 36.2406C78.9284 35.8245 78.4481 35.2353 78.356 34.6536C78.2627 34.0646 78.486 33.4672 78.9523 32.9752C79.4188 32.483 80.121 32.1065 80.9509 31.9751C81.7823 31.8434 82.4702 31.9847 82.9691 32.2988C83.466 32.6116 83.7912 33.1053 83.8878 33.7153Z" fill="#462222" stroke="#130909" stroke-width="0.446848"/>
<path d="M81.5969 35.5577C82.5453 35.4075 83.2144 34.6565 83.0914 33.8802C82.9685 33.1039 82.1 32.5964 81.1517 32.7466C80.2034 32.8968 79.5342 33.6478 79.6572 34.4241C79.7801 35.2004 80.6486 35.7079 81.5969 35.5577Z" fill="black"/>
<path d="M81.4649 34.3537L81.4484 33.1008C82.2211 32.9515 82.644 32.9976 83.3809 33.2759L83.3974 34.5288C82.603 34.7245 82.1812 34.6815 81.4649 34.3537Z" fill="url(#paint1_linear_6672_60757)"/>
<circle cx="80.2751" cy="34.9518" r="0.523104" fill="white"/>
<path d="M81.0708 32.672C78.914 32.9165 74.5198 35.1051 73.4589 36.0706L72.528 31.2998L76.3499 27.1605L83.9439 25.3244L92.8409 34.29C89.7789 33.6619 83.2277 32.4275 81.0708 32.672Z" fill="#E2E2E2"/>
<path d="M59.4112 31.1113C61.7369 31.1113 64.6441 33.1787 65.807 34.2123C65.1057 33.6955 62.9611 32.5455 59.9926 32.0804C57.0241 31.6152 53.0706 32.5326 51.4648 33.0495C53.1446 32.4034 57.0854 31.1113 59.4112 31.1113Z" fill="#CACACA"/>
<path d="M80.9238 30.7236C78.5981 30.7236 75.6909 32.791 74.528 33.8246C75.2293 33.3078 77.3739 32.1578 80.3424 31.6927C83.3108 31.2275 87.2644 32.1449 88.8701 32.6618C87.1904 32.0157 83.2496 30.7236 80.9238 30.7236Z" fill="#CACACA"/>
<path d="M65.2248 36.7314C63.722 38.2484 62.7709 38.4895 60.9609 38.2819C62.8673 38.1824 63.7871 37.8141 65.2248 36.7314Z" fill="#CACACA"/>
<path d="M75.6912 36.5371C77.194 38.0541 78.1451 38.2952 79.9551 38.0876C78.0488 37.9881 77.1289 37.6197 75.6912 36.5371Z" fill="#CACACA"/>
<path d="M54.823 26.4587C53.9074 26.5428 51.8884 28.1289 50.8383 29.0027C50.5859 29.2128 50.7165 29.6108 51.0442 29.6325C52.1327 29.7047 53.9694 29.8012 54.9206 29.7071C57.6616 29.436 61.0415 29.7953 63.7418 30.3296C66.4422 30.864 66.3986 29.6071 65.6699 28.644C64.9411 27.6809 56.4072 26.3132 54.823 26.4587Z" fill="url(#paint2_linear_6672_60757)"/>
<path d="M63.7604 28.5431C63.7601 28.5377 63.7585 28.5304 63.7558 28.5214L63.4937 27.291L64.0193 28.5729L64.0605 27.6893L64.4586 29.0574L64.3419 27.7772C64.429 27.8317 64.7117 28.7089 64.7499 28.9724C64.9342 29.3091 64.6236 26.3106 64.5661 26.304C64.5146 26.2981 62.6698 26.4857 62.4093 26.5003C62.4014 26.4975 62.3945 26.4966 62.3887 26.4977C62.3699 26.5014 62.3786 26.5021 62.4093 26.5003C62.6353 26.5825 63.6772 28.2623 63.7558 28.5214L63.7604 28.5431Z" fill="#E2E2E2"/>
<path d="M62.6464 29.0638L66.2318 30.4371C66.2361 30.5777 65.7654 30.8622 63.8481 30.8758C61.9308 30.8893 56.8851 30.8565 54.167 30.5837L53.3169 29.6508L54.755 30.032L54.1077 29.3121L55.6922 30.0048L55.0369 29.0212L56.8376 29.9715L56.0782 28.991L58.2954 29.9291L57.3277 28.9546L60.7001 30.1758L59.5225 29.1547L62.6785 30.1182L61.2927 29.1032L64.6699 30.4825L62.6464 29.0638Z" fill="#E2E2E2"/>
<path d="M85.76 26.5618C86.6743 26.6597 88.6691 28.2761 89.7059 29.1657C89.9552 29.3796 89.8185 29.7755 89.4906 29.7923C88.4011 29.8481 86.5632 29.9168 85.6135 29.8084C82.8769 29.496 79.492 29.8043 76.7839 30.2978C74.0757 30.7914 74.1383 29.5353 74.8815 28.5833C75.6247 27.6313 84.1782 26.3924 85.76 26.5618Z" fill="url(#paint3_linear_6672_60757)"/>
<path d="M76.7915 28.5112C76.7919 28.5057 76.7936 28.4985 76.7964 28.4895L77.0771 27.2632L76.5323 28.5371L76.5043 27.653L76.0857 29.0149L76.2217 27.7366C76.1338 27.7897 75.8379 28.6626 75.7956 28.9255C75.6064 29.2594 75.9621 26.2659 76.0198 26.2602C76.0713 26.255 77.9131 26.4705 78.1733 26.489C78.1812 26.4863 78.1881 26.4854 78.1939 26.4867C78.2127 26.4906 78.204 26.4912 78.1733 26.489C77.9461 26.5678 76.8789 28.2317 76.7964 28.4895L76.7915 28.5112Z" fill="#E2E2E2"/>
<path d="M77.8985 29.0487L74.2927 30.3677C74.2863 30.5082 74.7527 30.7998 76.6696 30.8423C78.5864 30.8848 83.6321 30.9281 86.354 30.6964L87.218 29.7763L85.7743 30.1358L86.4324 29.4258L84.8377 30.0945L85.5078 29.1209L83.6929 30.0439L84.467 29.0749L82.2359 29.9795L83.2182 29.0198L79.8278 30.1899L81.0207 29.1867L77.8504 30.1025L79.2514 29.1085L75.8538 30.4367L77.8985 29.0487Z" fill="#E2E2E2"/>
<path d="M70.2641 18.9858C70.2606 19.0003 70.2543 19.0017 70.2453 18.9909L63.2988 20.8522C60.1376 21.6506 54.0571 21.5843 48.483 26.0557C42.9089 30.5271 37.6863 38.8809 36.9766 43.7382C36.3314 43.472 35.0411 44.2173 35.0411 43.7382C35.0411 43.1393 36.0089 41.5424 36.2024 41.1432C36.396 40.744 35.4282 40.3447 35.0411 40.3447C34.654 40.3447 36.5895 37.1509 36.9766 36.9513C37.2863 36.7916 37.6217 36.0863 37.7508 35.7536L36.9766 34.5559C37.8153 33.6243 39.4927 31.6016 39.4927 30.9628C39.4927 30.1643 38.7185 29.3659 38.3314 29.3659C38.0217 29.3659 39.7508 28.7005 40.654 28.3678C41.0411 27.8355 41.8152 26.5712 41.8152 25.7728C41.8152 24.9743 41.0411 25.4401 40.654 25.7728C40.9765 25.1739 41.9314 24.0561 43.1701 24.3755C44.7184 24.7747 44.7184 22.3793 45.4926 21.9801C46.112 21.6607 45.4926 20.5162 45.1055 19.9839H48.0087C48.6281 19.9839 48.7829 19.3185 48.7829 18.9858L47.2345 17.9878H49.7506C50.8474 17.9878 53.0409 17.868 53.0409 17.3889C53.0409 16.9098 51.6216 16.2578 50.9119 15.9916C49.7891 14.3148 53.7947 15.0347 55.0535 16.4763C54.7951 15.9488 54.4663 15.1942 54.3957 14.7939C54.5893 15.1932 55.3247 15.9916 56.7183 15.9916C58.1118 15.9916 58.4602 15.4593 58.4602 15.1932L57.3025 13.0042C57.3012 13.0018 57.3 12.9996 57.2989 12.9974L57.3025 13.0042C57.3833 13.1458 57.9875 13.6093 59.815 14.3947C61.6731 15.1932 62.9117 14.7274 63.2988 14.3947L60.3956 13.3966C61.1698 13.2635 62.9892 13.0772 64.073 13.3966C65.1569 13.716 66.073 14.1951 66.3956 14.3947C66.5246 13.9955 66.7052 12.9575 66.3956 11.9993C66.0859 11.0411 66.6536 9.87007 66.9762 9.4043C66.7827 9.73699 66.7052 10.9214 67.9439 12.9974C69.1153 14.9605 70.0884 18.8039 70.2453 18.9909L70.2641 18.9858Z" fill="#E2E2E2"/>
<path d="M67.1641 14.908C67.4854 14.0756 68.4367 12.3692 69.6708 12.2027C70.9049 12.0362 71.4706 12.6883 71.5991 13.0351C70.9564 13.0351 69.6708 13.16 69.6708 13.6594C69.6708 14.1588 72.499 12.8964 73.9131 12.2027L73.5274 13.6594C74.2987 13.9369 75.8414 14.2005 75.8414 13.0351C75.8414 11.8697 76.8698 11.1622 77.384 10.9541C77.3197 11.5784 77.2297 12.8686 77.384 13.0351C77.5768 13.2432 79.1194 15.1161 79.8908 13.6594C80.5078 12.494 80.7906 11.3703 80.8549 10.9541L81.819 14.2837C82.269 14.0756 83.3617 13.6594 84.133 13.6594C84.9043 13.6594 84.4544 14.3531 84.133 14.6999L86.8326 13.2432C86.704 13.5207 86.5626 14.2005 87.0254 14.6999C87.4882 15.1993 88.6323 15.3242 89.1465 15.3242L89.5322 14.2837C89.6607 14.6999 89.9178 15.6155 89.9178 15.9485C89.9178 16.3647 90.882 14.4918 92.4246 14.908C93.9673 15.3242 92.8103 14.6999 93.0031 15.9485C93.1574 16.9474 94.2244 17.752 94.7386 18.0295L95.1242 17.1971L94.7386 15.9485C95.3387 16.8552 96.3645 18.6808 95.996 19.1902C96.3172 18.9943 96.8624 18.6711 97.2453 18.4457C97.1168 18.6538 97.0139 19.3197 97.631 20.3186C98.248 21.3175 98.9165 20.0411 99.1736 19.2781C99.0451 19.7637 98.8651 20.8597 99.1736 21.3591C99.4822 21.8585 99.9449 23.0933 100.138 23.6482L100.523 22.8158C100.845 23.1626 101.488 24.0644 101.488 24.8968C101.488 25.7292 101.745 26.4922 101.873 26.7697H103.03V29.2669C103.352 29.5444 103.724 29.8912 104.187 30.7236C104.65 31.556 104.38 33.0127 104.187 33.4289C104.22 34.6708 104.346 35.2321 105.151 35.5099C105.151 35.5099 104.496 42.1275 104.187 41.961C103.879 41.7945 104.187 40.7818 103.416 40.7124C103.737 36.6198 101.074 27.8214 95.3667 23.9924C88.2321 19.2061 76.0342 19.7638 71.5991 19.7638C68.0511 19.7638 67.1641 17.1971 67.1641 14.908Z" fill="#E2E2E2"/>
<path d="M16.7847 169.481C11.7126 149.456 14.4779 118.399 31.2577 80.8057C44.6788 91.8988 48.2365 100.029 65.7998 109.053L64.1923 176.293C44.4851 179.174 34.2465 177.027 16.7847 169.481Z" fill="#475447"/>
<path d="M137.386 164.797C137.386 144.53 134.904 110.198 114.271 74.4635C106.874 88.516 95.8553 98.4046 84.3622 107.156L89.9797 175.953C109.854 176.8 120.842 174.107 137.386 164.797Z" fill="#475447"/>
<path d="M28.2002 88.7334C32.3248 93.6841 41.7904 104.204 46.656 106.68C51.5216 109.155 55.2547 111.149 56.5131 111.837" stroke="#293629" stroke-width="0.413611"/>
<path d="M117.442 83.5234C108.416 96.5025 103.377 101.467 91.6211 108.892" stroke="#293629" stroke-width="0.413611"/>
<circle cx="60.9899" cy="112.555" r="2.06806" fill="#17191E"/>
<path d="M58.5089 117.312C58.3435 114.83 59.8187 111.659 60.577 110.487C61.4485 110.434 62.0246 110.694 62.4382 111.108C61.8867 112.418 60.4115 115.327 59.7498 116.485C58.9225 117.932 61.8178 119.587 62.4382 121.862C62.9346 123.682 60.4391 132.96 59.1293 137.372C59.6119 133.718 60.6597 125.874 60.9906 123.723C61.4042 121.034 58.7157 120.414 58.5089 117.312Z" fill="#293629"/>
<circle cx="88.7038" cy="111.876" r="2.06806" fill="#17191E"/>
<path d="M91.3928 116.639C92.3592 114.347 90.0831 110.986 89.3248 109.814C88.4532 109.761 87.8771 109.807 87.2567 110.428C87.8082 111.737 90.0958 114.539 89.674 115.805C89.0536 117.666 87.4635 118.83 87.4635 121.188C87.4635 123.456 89.4626 132.287 90.7724 136.699C91.7421 132.349 88.3185 125.143 88.9112 123.05C89.674 120.354 90.0876 119.734 91.3928 116.639Z" fill="#293629"/>
</g>
<path fill-rule="evenodd" clip-rule="evenodd" d="M11.724 138.792C11.3272 135.379 10.756 132.99 9.5 129.639L25.1181 130.877C24.6978 133.36 24.8474 134.94 26.2255 138.095C27.4787 139.286 28.7949 140.715 28.6994 141.325C28.4561 142.88 27.9577 143.903 27.3781 144.623C27.691 145.076 27.93 145.482 28.0186 145.723C28.0827 145.898 28.1935 146.14 28.3259 146.429C29.1041 148.127 30.6318 151.461 27.8691 152.475C25.7771 153.243 24.5939 151.091 23.8997 149.151C23.6237 149.931 23.1167 150.563 22.438 150.812C21.6275 151.11 20.8067 150.682 20.132 149.938C20.0435 150.577 19.7604 151.052 19.2647 151.234C18.5357 151.502 17.5425 151.063 16.7989 150.165C16.6278 150.864 16.2864 151.365 15.7862 151.549C14.5176 152.014 12.7083 150.265 11.7451 147.642C11.2115 146.189 11.0494 144.772 11.2266 143.718C11.1721 143.472 11.1241 143.243 11.0826 143.037C10.7713 141.495 11.0093 140.04 11.724 138.792Z" fill="#E2E2E2"/>
<path d="M9.5 129.639L9.50854 129.531L9.3393 129.518L9.39888 129.677L9.5 129.639ZM11.724 138.792L11.8178 138.845L11.8354 138.814L11.8313 138.779L11.724 138.792ZM25.1181 130.877L25.2246 130.895L25.2443 130.779L25.1267 130.77L25.1181 130.877ZM26.2255 138.095L26.1265 138.138L26.1352 138.158L26.1511 138.173L26.2255 138.095ZM28.6994 141.325L28.8061 141.342L28.8061 141.342L28.6994 141.325ZM27.3781 144.623L27.294 144.555L27.2435 144.618L27.2893 144.684L27.3781 144.623ZM28.0186 145.723L28.1199 145.686L28.1199 145.686L28.0186 145.723ZM28.3259 146.429L28.4241 146.384L28.4241 146.384L28.3259 146.429ZM27.8691 152.475L27.8319 152.374L27.8319 152.374L27.8691 152.475ZM23.8997 149.151L24.0014 149.114L23.8991 148.829L23.7979 149.115L23.8997 149.151ZM22.438 150.812L22.4008 150.711L22.4008 150.711L22.438 150.812ZM20.132 149.938L20.212 149.866L20.0568 149.694L20.0251 149.923L20.132 149.938ZM19.2647 151.234L19.2275 151.133L19.2275 151.133L19.2647 151.234ZM16.7989 150.165L16.8821 150.096L16.7451 149.93L16.694 150.139L16.7989 150.165ZM15.7862 151.549L15.8235 151.65L15.8235 151.65L15.7862 151.549ZM11.7451 147.642L11.6437 147.679L11.6437 147.679L11.7451 147.642ZM11.2266 143.718L11.3331 143.736L11.3366 143.715L11.332 143.695L11.2266 143.718ZM11.0826 143.037L10.9768 143.059L10.9768 143.059L11.0826 143.037ZM9.39888 129.677C10.6518 133.02 11.2209 135.4 11.6168 138.804L11.8313 138.779C11.4334 135.358 10.8601 132.96 9.60112 129.601L9.39888 129.677ZM25.1267 130.77L9.50854 129.531L9.49146 129.746L25.1096 130.985L25.1267 130.77ZM26.3244 138.051C25.6372 136.478 25.2595 135.305 25.1043 134.219C24.9493 133.134 25.0155 132.131 25.2246 130.895L25.0117 130.859C24.8005 132.107 24.7312 133.135 24.8905 134.249C25.0496 135.363 25.4356 136.556 26.1265 138.138L26.3244 138.051ZM26.1511 138.173C26.7764 138.767 27.4149 139.419 27.8844 139.996C28.1194 140.285 28.3094 140.552 28.4345 140.782C28.5623 141.017 28.6107 141.193 28.5927 141.308L28.8061 141.342C28.8358 141.151 28.7554 140.92 28.6242 140.679C28.4901 140.432 28.2908 140.153 28.052 139.859C27.5739 139.272 26.9277 138.613 26.2999 138.016L26.1511 138.173ZM28.5927 141.308C28.3519 142.847 27.8601 143.852 27.294 144.555L27.4622 144.69C28.0553 143.954 28.5603 142.912 28.8061 141.342L28.5927 141.308ZM28.1199 145.686C28.0263 145.431 27.78 145.015 27.467 144.561L27.2893 144.684C27.6019 145.137 27.8338 145.533 27.9172 145.76L28.1199 145.686ZM28.4241 146.384C28.2908 146.093 28.1823 145.856 28.1199 145.686L27.9172 145.76C27.9832 145.94 28.0961 146.186 28.2278 146.474L28.4241 146.384ZM27.9064 152.576C28.62 152.314 29.0659 151.898 29.3126 151.388C29.5578 150.881 29.6009 150.294 29.5326 149.696C29.3965 148.503 28.8117 147.229 28.4241 146.384L28.2278 146.474C28.6184 147.326 29.1865 148.568 29.318 149.72C29.3836 150.295 29.3393 150.837 29.1182 151.294C28.8988 151.748 28.4996 152.128 27.8319 152.374L27.9064 152.576ZM23.798 149.187C24.1462 150.16 24.6215 151.201 25.2816 151.903C25.6128 152.254 25.9941 152.525 26.4331 152.656C26.8736 152.787 27.3637 152.776 27.9064 152.576L27.8319 152.374C27.3285 152.558 26.8863 152.566 26.4948 152.449C26.1019 152.332 25.7518 152.087 25.4389 151.755C24.8108 151.087 24.3474 150.082 24.0014 149.114L23.798 149.187ZM22.4752 150.913C23.1938 150.649 23.7188 149.987 24.0015 149.187L23.7979 149.115C23.5287 149.876 23.0397 150.476 22.4008 150.711L22.4752 150.913ZM20.052 150.011C20.7364 150.765 21.6014 151.234 22.4752 150.913L22.4008 150.711C21.6536 150.985 20.877 150.599 20.212 149.866L20.052 150.011ZM19.3019 151.336C19.8499 151.134 20.1475 150.613 20.239 149.953L20.0251 149.923C19.9394 150.541 19.671 150.97 19.2275 151.133L19.3019 151.336ZM16.7157 150.234C17.0966 150.694 17.5439 151.039 17.9941 151.236C18.4437 151.432 18.9039 151.482 19.3019 151.336L19.2275 151.133C18.8965 151.254 18.4956 151.219 18.0804 151.038C17.6659 150.857 17.2448 150.534 16.8821 150.096L16.7157 150.234ZM15.8235 151.65C16.372 151.449 16.7287 150.907 16.9038 150.19L16.694 150.139C16.527 150.822 16.2008 151.281 15.749 151.447L15.8235 151.65ZM11.6437 147.679C12.1297 149.003 12.8307 150.111 13.5761 150.831C14.3155 151.546 15.1283 151.905 15.8235 151.65L15.749 151.447C15.1756 151.658 14.4495 151.375 13.7262 150.676C13.009 149.983 12.3237 148.904 11.8464 147.605L11.6437 147.679ZM11.1201 143.7C10.939 144.777 11.1055 146.213 11.6437 147.679L11.8464 147.605C11.3175 146.164 11.1598 144.767 11.3331 143.736L11.1201 143.7ZM10.9768 143.059C11.0184 143.265 11.0665 143.495 11.1212 143.742L11.332 143.695C11.2777 143.45 11.2299 143.221 11.1885 143.016L10.9768 143.059ZM11.6303 138.738C10.902 140.01 10.6605 141.492 10.9768 143.059L11.1885 143.016C10.8821 141.498 11.1166 140.07 11.8178 138.845L11.6303 138.738Z" fill="#B1B1B1"/>
<path d="M24.6939 150.905C23.9666 149.223 23.6299 148.325 23.001 146.705" stroke="#B1B1B1" stroke-width="0.215981"/>
<path d="M27.3822 144.696L25.501 140.205" stroke="#B1B1B1" stroke-width="0.215981"/>
<path d="M4.79663 106.068C12.6427 95.6628 18.3718 88.9932 28 82.5L36.5 105L22 116L26 134.5C18.6299 136.247 17.5695 137.811 10 136L3.14089 119.881C1.19533 115.309 1.80501 110.035 4.79663 106.068Z" fill="#475447"/>
<path d="M28.5 111.5L23.2595 115.243C22.2088 115.994 21.7561 117.332 22.1359 118.567L23.5 123" stroke="#293629" stroke-width="0.5"/>
<path d="M124.4 122C124.4 123.085 124.07 124.063 123.541 124.768C123.013 125.473 122.29 125.9 121.5 125.9C120.71 125.9 119.987 125.473 119.459 124.768C118.93 124.063 118.6 123.085 118.6 122C118.6 120.915 118.93 119.937 119.459 119.232C119.987 118.527 120.71 118.1 121.5 118.1C122.29 118.1 123.013 118.527 123.541 119.232C124.07 119.937 124.4 120.915 124.4 122Z" fill="#E2E2E2" stroke="#B1B1B1" stroke-width="0.2"/>
<path d="M129.4 122C129.4 123.085 129.07 124.063 128.541 124.768C128.013 125.473 127.29 125.9 126.5 125.9C125.71 125.9 124.987 125.473 124.459 124.768C123.93 124.063 123.6 123.085 123.6 122C123.6 120.915 123.93 119.937 124.459 119.232C124.987 118.527 125.71 118.1 126.5 118.1C127.29 118.1 128.013 118.527 128.541 119.232C129.07 119.937 129.4 120.915 129.4 122Z" fill="#E2E2E2" stroke="#B1B1B1" stroke-width="0.2"/>
<path d="M134.4 122C134.4 123.085 134.07 124.063 133.541 124.768C133.013 125.473 132.29 125.9 131.5 125.9C130.71 125.9 129.987 125.473 129.459 124.768C128.93 124.063 128.6 123.085 128.6 122C128.6 120.915 128.93 119.937 129.459 119.232C129.987 118.527 130.71 118.1 131.5 118.1C132.29 118.1 133.013 118.527 133.541 119.232C134.07 119.937 134.4 120.915 134.4 122Z" fill="#E2E2E2" stroke="#B1B1B1" stroke-width="0.2"/>
<defs>
<linearGradient id="paint0_linear_6672_60757" x1="59.4348" y1="33.2229" x2="59.2899" y2="34.8217" gradientUnits="userSpaceOnUse">
<stop stop-color="white"/>
<stop offset="1" stop-color="#C4C4C4" stop-opacity="0"/>
</linearGradient>
<linearGradient id="paint1_linear_6672_60757" x1="82.4885" y1="33.0335" x2="82.3436" y2="34.6323" gradientUnits="userSpaceOnUse">
<stop stop-color="white"/>
<stop offset="1" stop-color="#C4C4C4" stop-opacity="0"/>
</linearGradient>
<linearGradient id="paint2_linear_6672_60757" x1="57.6414" y1="27.4239" x2="52.1119" y2="28.6893" gradientUnits="userSpaceOnUse">
<stop stop-color="#C8C8C8"/>
<stop offset="1" stop-color="#CECECE"/>
</linearGradient>
<linearGradient id="paint3_linear_6672_60757" x1="82.9274" y1="27.4844" x2="88.4373" y2="28.8331" gradientUnits="userSpaceOnUse">
<stop stop-color="#C8C8C8"/>
<stop offset="1" stop-color="#CECECE"/>
</linearGradient>
</defs>
</svg>
