<svg width="24" height="24" viewBox="0 0 24 24" fill="currentColor" xmlns="http://www.w3.org/2000/svg">
<path d="M6.5 12C6.5 11.4477 6.94772 11 7.5 11H16.5C17.0523 11 17.5 11.4477 17.5 12C17.5 12.5523 17.0523 13 16.5 13H7.5C6.94771 13 6.5 12.5523 6.5 12Z" />
<path d="M24 12C24 13.66 23.6848 15.22 23.0544 16.68C22.424 18.14 21.5692 19.41 20.49 20.49C19.41 21.57 18.14 22.4248 16.68 23.0544C15.22 23.684 13.66 23.9992 12 24C10.34 24 8.78 23.6848 7.32 23.0544C5.86 22.424 4.59 21.5692 3.51 20.49C2.43 19.41 1.5752 18.14 0.9456 16.68C0.316 15.22 0.000799548 13.66 -5.24537e-07 12C-5.97098e-07 10.34 0.315199 8.78 0.945599 7.32C1.576 5.86 2.4308 4.59 3.51 3.51C4.59 2.43 5.86 1.5748 7.32 0.944402C8.78 0.314003 10.34 -0.000797724 12 1.38281e-06C13.66 1.31025e-06 15.22 0.315202 16.68 0.945602C18.14 1.576 19.41 2.4308 20.49 3.51C21.57 4.59 22.4252 5.86 23.0556 7.32C23.686 8.78 24.0008 10.34 24 12ZM21.6 12C21.6 9.34 20.6652 7.0748 18.7956 5.2044C16.926 3.334 14.6608 2.3992 12 2.4C9.34 2.4 7.0748 3.3348 5.2044 5.2044C3.334 7.074 2.3992 9.3392 2.4 12C2.4 14.66 3.3348 16.9252 5.2044 18.7956C7.074 20.666 9.3392 21.6008 12 21.6C14.66 21.6 16.9252 20.6652 18.7956 18.7956C20.666 16.926 21.6008 14.6608 21.6 12Z" />
</svg>
