<svg width="24" height="25" viewBox="0 0 24 25" fill="currentColor" xmlns="http://www.w3.org/2000/svg">
<path  d="M6.5 12.5C6.5 11.9477 6.94772 11.5 7.5 11.5H16.5C17.0523 11.5 17.5 11.9477 17.5 12.5C17.5 13.0523 17.0523 13.5 16.5 13.5H7.5C6.94771 13.5 6.5 13.0523 6.5 12.5Z" />
<path d="M12 18C11.4477 18 11 17.5523 11 17L11 8C11 7.44772 11.4477 7 12 7C12.5523 7 13 7.44772 13 8L13 17C13 17.5523 12.5523 18 12 18Z" />
<path  d="M24 12.5C24 14.16 23.6848 15.72 23.0544 17.18C22.424 18.64 21.5692 19.91 20.49 20.99C19.41 22.07 18.14 22.9248 16.68 23.5544C15.22 24.184 13.66 24.4992 12 24.5C10.34 24.5 8.78 24.1848 7.32 23.5544C5.86 22.924 4.59 22.0692 3.51 20.99C2.43 19.91 1.5752 18.64 0.9456 17.18C0.316 15.72 0.000799548 14.16 -5.24537e-07 12.5C-5.97098e-07 10.84 0.315199 9.28 0.945599 7.82C1.576 6.36 2.4308 5.09 3.51 4.01C4.59 2.93 5.86 2.0748 7.32 1.4444C8.78 0.814003 10.34 0.499202 12 0.500001C13.66 0.500001 15.22 0.815202 16.68 1.4456C18.14 2.076 19.41 2.9308 20.49 4.01C21.57 5.09 22.4252 6.36 23.0556 7.82C23.686 9.28 24.0008 10.84 24 12.5ZM21.6 12.5C21.6 9.84 20.6652 7.5748 18.7956 5.7044C16.926 3.834 14.6608 2.8992 12 2.9C9.34 2.9 7.0748 3.8348 5.2044 5.7044C3.334 7.574 2.3992 9.8392 2.4 12.5C2.4 15.16 3.3348 17.4252 5.2044 19.2956C7.074 21.166 9.3392 22.1008 12 22.1C14.66 22.1 16.9252 21.1652 18.7956 19.2956C20.666 17.426 21.6008 15.1608 21.6 12.5Z" />
</svg>
