<svg width="20" height="21" viewBox="0 0 20 21" fill="currentColor" xmlns="http://www.w3.org/2000/svg">
<path fill-rule="evenodd" clip-rule="evenodd" d="M10 13.1203C9.86667 13.1203 9.75 13.0703 9.65 12.9703L6.85 10.1703C6.68333 10.0036 6.64167 9.82031 6.725 9.62031C6.80833 9.42031 6.96667 9.32031 7.2 9.32031L9 9.32031V7.32031H11V9.32031L12.8 9.32031C13.0333 9.32031 13.1917 9.42031 13.275 9.62031C13.3583 9.82031 13.3167 10.0036 13.15 10.1703L10.35 12.9703C10.25 13.0703 10.1333 13.1203 10 13.1203ZM6.1 19.5323C7.31667 20.0576 8.61667 20.3203 10 20.3203C11.3833 20.321 12.6833 20.0586 13.9 19.5333C15.1167 19.008 16.175 18.2953 17.075 17.3953C17.9743 16.4953 18.6867 15.437 19.212 14.2203C19.7373 13.0036 20 11.7036 20 10.3203C20.0007 8.93698 19.7383 7.63698 19.213 6.42031C18.6877 5.20365 17.975 4.14531 17.075 3.24531C16.175 2.34598 15.1167 1.63365 13.9 1.10831C12.6833 0.582979 11.3833 0.320312 10 0.320312C8.61667 0.320979 7.31667 0.583646 6.1 1.10831C4.88333 1.63298 3.825 2.34531 2.925 3.24531C2.02567 4.14531 1.31333 5.20365 0.788 6.42031C0.262667 7.63698 0 8.93698 0 10.3203C0.000666667 11.7036 0.263333 13.0036 0.788 14.2203C1.31267 15.437 2.025 16.4953 2.925 17.3953C3.825 18.2946 4.88333 19.007 6.1 19.5323ZM15.663 15.9833C14.1043 17.5413 12.2167 18.3203 10 18.3203C7.78267 18.321 5.895 17.542 4.337 15.9833C2.779 14.4246 2 12.537 2 10.3203C1.99933 8.10298 2.77833 6.21531 4.337 4.65731C5.89567 3.09931 7.78333 2.32031 10 2.32031C12.2173 2.31965 14.105 3.09865 15.663 4.65731C17.221 6.21598 18 8.10364 18 10.3203C18.0007 12.5376 17.2217 14.4253 15.663 15.9833Z" />
</svg>
