<svg width="14" height="16" viewBox="0 0 14 16" fill="#282A32" xmlns="http://www.w3.org/2000/svg">
<path d="M8.6705 1.9205C9.10983 1.48116 9.10983 0.768845 8.6705 0.329505C8.23116 -0.109835 7.51885 -0.109835 7.07951 0.329505L0.329508 7.0795C-0.0963936 7.50541 -0.111297 8.19119 0.295702 8.63519L6.4832 15.3852C6.90304 15.8432 7.61469 15.8741 8.07269 15.4543C8.5307 15.0345 8.56164 14.3228 8.1418 13.8648L2.68215 7.90883L8.6705 1.9205Z"/>
<path d="M13.6705 1.9205C14.1098 1.48116 14.1098 0.768845 13.6705 0.329505C13.2312 -0.109835 12.5188 -0.109835 12.0795 0.329505L5.32951 7.0795C4.90361 7.50541 4.8887 8.19119 5.2957 8.63519L11.4832 15.3852C11.903 15.8432 12.6147 15.8741 13.0727 15.4543C13.5307 15.0345 13.5616 14.3228 13.1418 13.8648L7.68215 7.90883L13.6705 1.9205Z"/>
</svg>
