<svg width="20" height="20" viewBox="0 0 20 20" fill="currentColor" xmlns="http://www.w3.org/2000/svg">
<path d="M7.35 10.35C7.25 10.25 7.2 10.1333 7.2 10C7.2 9.86667 7.25 9.75 7.35 9.65L10.15 6.85C10.3167 6.68333 10.5 6.64167 10.7 6.725C10.9 6.80833 11 6.96667 11 7.2L11 12.8C11 13.0333 10.9 13.1917 10.7 13.275C10.5 13.3583 10.3167 13.3167 10.15 13.15L7.35 10.35ZM2.8213e-06 10C2.76083e-06 11.3833 0.262669 12.6833 0.788003 13.9C1.31334 15.1167 2.02567 16.175 2.925 17.075C3.825 17.975 4.88334 18.6873 6.1 19.212C7.31667 19.7367 8.61667 19.9993 10 20C11.3833 20 12.6833 19.7373 13.9 19.212C15.1167 18.6867 16.175 17.9743 17.075 17.075C17.975 16.175 18.6873 15.1167 19.212 13.9C19.7367 12.6833 19.9993 11.3833 20 10C20 8.61667 19.7373 7.31667 19.212 6.1C18.6867 4.88334 17.9743 3.825 17.075 2.925C16.175 2.025 15.1167 1.31234 13.9 0.787003C12.6833 0.261669 11.3833 -0.000664659 10 1.94707e-06C8.61667 1.8866e-06 7.31667 0.262669 6.1 0.788002C4.88334 1.31334 3.825 2.02567 2.925 2.925C2.025 3.825 1.31234 4.88333 0.787004 6.1C0.26167 7.31667 -0.000663785 8.61667 2.8213e-06 10ZM2 10C2 7.78333 2.779 5.89567 4.337 4.337C5.895 2.77833 7.78267 1.99933 10 2C12.2167 2 14.1043 2.779 15.663 4.337C17.2217 5.895 18.0007 7.78267 18 10C18 12.2167 17.221 14.1043 15.663 15.663C14.105 17.2217 12.2173 18.0007 10 18C7.78333 18 5.89567 17.221 4.337 15.663C2.77834 14.105 1.99934 12.2173 2 10Z"/>
</svg>
