<svg width="37" height="37" viewBox="0 0 37 37" fill="none" xmlns="http://www.w3.org/2000/svg">
<path opacity="0.1" fill-rule="evenodd" clip-rule="evenodd" d="M18.5 36C28.165 36 36 28.165 36 18.5C36 8.83502 28.165 1 18.5 1C8.83502 1 1 8.83502 1 18.5C1 28.165 8.83502 36 18.5 36Z" stroke="currentColor" stroke-width="1.5"/>
<path d="M18.539 15.1603C20.374 15.1603 21.8886 16.6749 21.8886 18.5099C21.8886 20.374 20.374 21.8594 18.539 21.8594C16.6749 21.8594 15.1894 20.374 15.1894 18.5099C15.1894 16.6749 16.6749 15.1603 18.539 15.1603ZM18.539 20.6944C19.7332 20.6944 20.6944 19.7332 20.6944 18.5099C20.6944 17.3156 19.7332 16.3545 18.539 16.3545C17.3156 16.3545 16.3545 17.3156 16.3545 18.5099C16.3545 19.7332 17.3448 20.6944 18.539 20.6944ZM22.7915 15.0438C22.7915 15.4807 22.442 15.8302 22.0051 15.8302C21.5682 15.8302 21.2186 15.4807 21.2186 15.0438C21.2186 14.6069 21.5682 14.2573 22.0051 14.2573C22.442 14.2573 22.7915 14.6069 22.7915 15.0438ZM25.0051 15.8302C25.0634 16.9079 25.0634 20.141 25.0051 21.2186C24.9469 22.2672 24.7139 23.1701 23.9566 23.9566C23.1993 24.7139 22.2672 24.9469 21.2186 25.0051C20.141 25.0634 16.9079 25.0634 15.8302 25.0051C14.7816 24.9469 13.8787 24.7139 13.0923 23.9566C12.335 23.1701 12.1019 22.2672 12.0437 21.2186C11.9854 20.141 11.9854 16.9079 12.0437 15.8302C12.1019 14.7816 12.335 13.8496 13.0923 13.0923C13.8787 12.335 14.7816 12.1019 15.8302 12.0437C16.9079 11.9854 20.141 11.9854 21.2186 12.0437C22.2672 12.1019 23.1993 12.335 23.9566 13.0923C24.7139 13.8496 24.9469 14.7816 25.0051 15.8302ZM23.607 22.3546C23.9566 21.5099 23.8692 19.471 23.8692 18.5099C23.8692 17.5778 23.9566 15.5389 23.607 14.6651C23.374 14.1117 22.9371 13.6457 22.3837 13.4418C21.5099 13.0923 19.471 13.1796 18.539 13.1796C17.5778 13.1796 15.5389 13.0923 14.6942 13.4418C14.1117 13.6748 13.6748 14.1117 13.4418 14.6651C13.0923 15.5389 13.1796 17.5778 13.1796 18.5099C13.1796 19.471 13.0923 21.5099 13.4418 22.3546C13.6748 22.9371 14.1117 23.374 14.6942 23.607C15.5389 23.9566 17.5778 23.8692 18.539 23.8692C19.471 23.8692 21.5099 23.9566 22.3837 23.607C22.9371 23.374 23.4032 22.9371 23.607 22.3546Z" fill="currentColor"/>
</svg>
