<svg width="130" height="130" viewBox="0 0 130 130" fill="none" xmlns="http://www.w3.org/2000/svg">
<mask id="mask0_3269_37767" style="mask-type:alpha" maskUnits="userSpaceOnUse" x="0" y="0" width="130" height="130">
<rect width="130" height="130" fill="#D9D9D9"/>
</mask>
<g mask="url(#mask0_3269_37767)">
<path d="M111.217 30.8452L96.9533 3.23897C95.0354 -0.473176 89.733 -0.490559 87.7907 3.20893L73.2971 30.8158C72.5219 32.2924 72.5073 34.0524 73.2579 35.5417L87.7512 64.2982C89.6669 68.0993 95.1 68.0819 96.9914 64.2686L111.255 35.5115C111.985 34.0386 111.971 32.3059 111.217 30.8452Z" fill="#5C62F9"/>
<circle cx="60.2575" cy="42.0514" r="19.1901" fill="#FFCC00"/>
<path d="M51.0078 54.7527C51.0078 54.3597 51.3265 54.041 51.7195 54.041H68.8008C69.1939 54.041 69.5125 54.3597 69.5125 54.7527V63.2934C69.5125 68.4033 65.3701 72.5457 60.2602 72.5457V72.5457C55.1502 72.5457 51.0078 68.4033 51.0078 63.2934V54.7527Z" fill="#FFCC00"/>
<circle cx="60.2593" cy="42.0513" r="12.3365" fill="#F97F88"/>
<rect x="58.5439" y="11.2129" width="3.4268" height="8.56701" rx="1.7134" fill="#FFCC00"/>
<rect x="74.9668" y="13.6719" width="3.4268" height="8.56701" rx="1.7134" transform="rotate(30 74.9668 13.6719)" fill="#FFCC00"/>
<rect width="3.4268" height="8.56701" rx="1.7134" transform="matrix(-0.866025 0.5 0.5 0.866025 45.752 13.6719)" fill="#FFCC00"/>
<path d="M17.1787 109.488V76.1959C17.1787 72.326 21.2771 69.8304 24.7152 71.6067L53.1252 86.2852C54.8416 87.172 55.9196 88.9425 55.9196 90.8744V124.64C55.9196 128.54 51.7641 131.033 48.3234 129.198L19.9134 114.046C18.2301 113.149 17.1787 111.396 17.1787 109.488Z" fill="#5C62F9"/>
<path d="M99.1826 109.488V76.1959C99.1826 72.326 95.0842 69.8304 91.6461 71.6067L63.2361 86.2852C61.5198 87.172 60.4417 88.9425 60.4417 90.8744V124.64C60.4417 128.54 64.5972 131.033 68.038 129.198L96.448 114.046C98.1312 113.149 99.1826 111.396 99.1826 109.488Z" fill="#5C62F9"/>
</g>
</svg>
