<svg width="263" height="301" viewBox="0 0 263 301" fill="none" xmlns="http://www.w3.org/2000/svg">
<mask id="mask0_3269_36089" style="mask-type:alpha" maskUnits="userSpaceOnUse" x="0" y="0" width="263" height="301">
<rect width="263" height="301" rx="6.22222" fill="#E6E6EA"/>
</mask>
<g mask="url(#mask0_3269_36089)">
<path fill-rule="evenodd" clip-rule="evenodd" d="M187.247 6.26172L152.155 39.2701C145.494 38.2433 138.587 37.8981 131.783 37.8981C116.835 37.8981 101.004 39.6166 86.8578 45.4896L48.1545 13.6211L50.9655 80.2858C49.3601 83.8199 47.9389 87.6364 46.7241 91.7564C39.4949 116.273 38.3546 129.265 38.3546 148.692C38.3546 151.377 39.5232 168.321 36.5352 180.43C29.9852 206.975 11.8102 250.646 5.96847 280.645C4.53964 287.983 -6.0399 356.432 1.41984 403.75C10.0876 458.731 64.7816 464.604 115.322 465.229L118.648 465.262C122.52 465.294 126.361 465.301 130.147 465.302L134.369 465.302C177.445 465.277 260.889 464.129 271.085 410.739C271.12 410.598 271.154 410.452 271.185 410.3C274.399 394.883 279.361 376.696 284.519 331.846C287.148 308.992 304.977 319.739 303.837 292.974C302.697 266.208 325.085 310.089 357.171 298.842C379.655 290.961 392.711 313.835 395.249 332.096C395.993 337.449 395.784 343.299 395.482 349.031L395.372 351.049C395.354 351.384 395.336 351.719 395.318 352.052L395.213 354.044C394.616 365.926 394.742 376.471 403.771 379.842C412.838 383.227 421.159 378.117 424.442 363.236C427.268 350.432 424.78 322.809 423.354 316.142C420.272 301.725 410.588 267.775 374.216 259.052C346.206 252.334 329.375 280.795 321.656 296.874L321.025 298.202C364.084 305.406 320.824 298.631 320.726 298.842C307.671 326.906 322.759 317.549 327.059 331.846C331.48 346.544 262.516 299.593 260.456 310.54L260.454 310.534L260.093 308.759C256.95 293.4 253.69 280.121 250.993 272.291L250.684 271.412C234.114 225.157 217.176 186.693 207.927 138.882C206.473 131.367 205.213 123.426 203.961 115.531L203.335 111.59C200.304 92.5828 197.144 74.3149 191.253 63.4808C190.954 62.9313 190.647 62.3932 190.332 61.8662L187.247 6.26172Z" fill="white" fill-opacity="0.29"/>
</g>
</svg>
