<svg width="23" height="78" viewBox="0 0 23 78" fill="none" xmlns="http://www.w3.org/2000/svg">
<path d="M14.8538 77.7282C15.2559 78.1067 15.8888 78.0876 16.2673 77.6854L22.4359 71.1319C22.8145 70.7298 22.7953 70.0969 22.3932 69.7183C21.991 69.3398 21.3581 69.359 20.9796 69.7611L15.4964 75.5864L9.67107 70.1032C9.26892 69.7247 8.63604 69.7438 8.2575 70.146C7.87897 70.5481 7.89811 71.181 8.30027 71.5595L14.8538 77.7282ZM2.14255 40.6059L1.17091 40.3694H1.17091L2.14255 40.6059ZM21.8026 34.4435L22.7933 34.5795L21.8026 34.4435ZM3.57984 12.7583L4.46937 13.2152L3.57984 12.7583ZM14.048 18.1508L14.6578 18.9434L14.6578 18.9434L14.048 18.1508ZM21.6741 0.915806C21.6276 0.365482 21.1438 -0.0429486 20.5935 0.00355065C20.0432 0.0500498 19.6347 0.53387 19.6812 1.08419L21.6741 0.915806ZM16.5387 76.9698C16.1091 62.7689 14.395 52.9619 12.2835 46.6178L10.3859 47.2494C12.4143 53.3438 14.1134 62.9403 14.5396 77.0302L16.5387 76.9698ZM12.2835 46.6178C11.3909 43.9359 10.4191 41.8482 9.42614 40.3018C8.44261 38.7701 7.39176 37.6971 6.30818 37.1534C5.17367 36.5841 3.98877 36.6013 2.99997 37.2948C2.07946 37.9403 1.48918 39.0617 1.17091 40.3694L3.11419 40.8423C3.37358 39.7765 3.78376 39.1879 4.14835 38.9322C4.44465 38.7244 4.82949 38.649 5.4112 38.9409C6.04385 39.2584 6.85571 40.0003 7.74323 41.3825C8.6213 42.7499 9.52894 44.6748 10.3859 47.2494L12.2835 46.6178ZM1.17091 40.3694C0.521036 43.0396 1.77839 45.2424 3.82894 46.5724C5.84479 47.88 8.6694 48.4011 11.5023 47.9195L11.1671 45.9478C8.74917 46.3589 6.4491 45.8881 4.91729 44.8945C3.42017 43.9234 2.70686 42.516 3.11419 40.8423L1.17091 40.3694ZM11.5023 47.9195C16.5377 47.0634 21.6301 43.0493 22.7933 34.5795L20.8119 34.3074C19.7617 41.9538 15.3006 45.245 11.1671 45.9478L11.5023 47.9195ZM22.7933 34.5795C23.8656 26.7723 20.621 20.236 16.527 15.9601L15.0824 17.3433C18.8568 21.2853 21.7829 27.238 20.8119 34.3074L22.7933 34.5795ZM16.527 15.9601C14.0639 13.3876 11.2433 11.5786 8.7742 10.7999C7.54317 10.4116 6.33122 10.2582 5.26906 10.4578C4.17455 10.6634 3.22902 11.2526 2.69032 12.3014L4.46937 13.2152C4.67877 12.8075 5.04209 12.5354 5.63837 12.4234C6.26699 12.3053 7.12778 12.3777 8.17262 12.7073C10.2553 13.3641 12.799 14.9584 15.0824 17.3433L16.527 15.9601ZM2.69032 12.3014C1.88803 13.8634 1.80513 15.4335 2.3084 16.816C2.80513 18.1805 3.84118 19.2787 5.13537 19.9953C7.7287 21.4312 11.459 21.4046 14.6578 18.9434L13.4382 17.3583C10.8556 19.3453 7.98362 19.2862 6.10414 18.2456C5.16192 17.7239 4.49392 16.9729 4.18775 16.1318C3.88813 15.3088 3.90347 14.3169 4.46937 13.2152L2.69032 12.3014ZM14.6578 18.9434C15.3256 18.4296 15.9364 17.907 16.4942 17.376L15.1153 15.9274C14.6109 16.4075 14.0536 16.8847 13.4382 17.3583L14.6578 18.9434ZM16.4942 17.376C21.9646 12.1688 22.1343 6.36186 21.6741 0.915806L19.6812 1.08419C20.126 6.3483 19.9114 11.362 15.1152 15.9274L16.4942 17.376Z" fill="#01082D"/>
</svg>
