<svg width="271" height="81" viewBox="0 0 271 81" fill="none" xmlns="http://www.w3.org/2000/svg">
<path d="M269.698 57.4504C270.109 57.0818 270.144 56.4496 269.775 56.0383L263.768 49.3365C263.399 48.9252 262.767 48.8907 262.356 49.2593C261.944 49.6279 261.91 50.2601 262.279 50.6714L267.618 56.6286L261.661 61.9682C261.25 62.3369 261.215 62.9691 261.584 63.3803C261.952 63.7916 262.585 63.8262 262.996 63.4575L269.698 57.4504ZM154.39 1.50748L154.114 0.546354V0.546354L154.39 1.50748ZM133.74 79.3595L133.893 80.3476L133.74 79.3595ZM66.0109 5.7486L66.539 6.59783V6.59783L66.0109 5.7486ZM82.518 47.6606L83.3625 48.1962L82.518 47.6606ZM-0.847796 68.5934C-1.39596 68.5261 -1.89492 68.9158 -1.96227 69.464C-2.02961 70.0122 -1.63982 70.5111 -1.09166 70.5785L-0.847796 68.5934ZM269.085 55.7073C224.329 53.2607 193.792 45.9754 174.335 37.4786L173.534 39.3115C193.283 47.9357 224.077 55.2499 268.976 57.7043L269.085 55.7073ZM174.335 37.4786C157.84 30.2752 149.488 22.2822 147.001 15.7953C145.772 12.5908 145.984 9.79508 147.272 7.56929C148.572 5.32266 151.059 3.50499 154.666 2.4686L154.114 0.546354C150.163 1.6814 147.171 3.75152 145.541 6.56737C143.899 9.40406 143.728 12.8455 145.133 16.5112C147.914 23.7646 156.893 32.044 173.534 39.3115L174.335 37.4786ZM154.666 2.4686C157.856 1.55232 160.715 2.0198 163.203 3.52123C165.718 5.03899 167.91 7.64999 169.628 11.095C173.066 17.99 174.485 27.99 172.946 38.2466L174.924 38.5435C176.511 27.9674 175.075 17.5367 171.417 10.2025C169.587 6.53299 167.171 3.57985 164.236 1.80885C161.274 0.0215258 157.841 -0.524358 154.114 0.546354L154.666 2.4686ZM172.946 38.2466C170.263 56.1164 158.663 74.4802 133.587 78.3713L133.893 80.3476C160.042 76.2902 172.145 57.0512 174.924 38.5435L172.946 38.2466ZM133.587 78.3713C110.346 81.9775 90.9922 69.5577 78.3187 53.7839L76.7596 55.0366C89.6929 71.1337 109.693 84.1028 133.893 80.3476L133.587 78.3713ZM78.3187 53.7839C70.723 44.3301 65.5913 33.7429 63.5049 24.8519C62.461 20.4034 62.1922 16.4337 62.718 13.2667C63.2433 10.1023 64.5392 7.84122 66.539 6.59783L65.4829 4.89937C62.8349 6.54581 61.3287 9.42353 60.745 12.9391C60.1618 16.452 60.477 20.7032 61.5578 25.3089C63.7208 34.5262 69.001 45.38 76.7596 55.0366L78.3187 53.7839ZM66.539 6.59783C70.5412 4.10934 74.2453 4.03523 77.3811 5.52892C80.5684 7.04709 83.3106 10.2553 85.1482 14.5877C88.8216 23.2482 88.7109 36.0295 81.6736 47.125L83.3625 48.1962C90.7567 36.5379 90.9158 23.0636 86.9894 13.8068C85.0272 9.18057 82.0021 5.51467 78.2412 3.72329C74.4289 1.90742 70.004 2.08832 65.4829 4.89937L66.539 6.59783ZM81.6736 47.125C80.1315 49.5563 78.4954 51.7611 76.7804 53.7589L78.298 55.0616C80.0774 52.9887 81.7705 50.7063 83.3625 48.1962L81.6736 47.125ZM76.7804 53.7589C65.4005 67.0156 50.4305 71.2845 36.0478 71.9536C21.6133 72.6252 7.96884 69.6765 -0.847796 68.5934L-1.09166 70.5785C7.49181 71.6329 21.4811 74.6335 36.1407 73.9515C50.8521 73.267 66.4365 68.8793 78.298 55.0616L76.7804 53.7589Z" fill="#01082D"/>
</svg>
