<svg width="24" height="24" viewBox="0 0 24 24" fill="none" xmlns="http://www.w3.org/2000/svg">
<rect y="0.953125" width="24" height="23.0466" rx="1.33333" fill="#FFCC00"/>
<rect x="1.99219" width="6" height="5.76165" rx="0.666667" fill="#5C62F9"/>
<rect x="9" width="6" height="5.76165" rx="0.666667" fill="#5C62F9"/>
<rect x="16.0078" width="6" height="5.76165" rx="0.666667" fill="#5C62F9"/>
<path d="M9 10.6667C9 10.2985 9.29848 10 9.66667 10H14.3333C14.7015 10 15 10.2985 15 10.6667V21.3333C15 21.7015 14.7015 22 14.3333 22H9.66667C9.29848 22 9 21.7015 9 21.3333V10.6667Z" fill="white"/>
<path d="M16 10.6667C16 10.2985 16.2985 10 16.6667 10H21.3333C21.7015 10 22 10.2985 22 10.6667V21.3333C22 21.7015 21.7015 22 21.3333 22H16.6667C16.2985 22 16 21.7015 16 21.3333V10.6667Z" fill="white"/>
<path d="M2 10.6667C2 10.2985 2.29848 10 2.66667 10H7.33333C7.70152 10 8 10.2985 8 10.6667V21.3333C8 21.7015 7.70152 22 7.33333 22H2.66667C2.29848 22 2 21.7015 2 21.3333V10.6667Z" fill="white"/>
</svg>
