<svg width="1109" height="1269" viewBox="0 0 1109 1269" fill="none" xmlns="http://www.w3.org/2000/svg">
<mask id="mask0_3322_30168" style="mask-type:alpha" maskUnits="userSpaceOnUse" x="0" y="0" width="1109" height="1269">
<rect width="1108.79" height="1269" rx="26.2326" fill="#E6E6EA"/>
</mask>
<g mask="url(#mask0_3322_30168)">
<path fill-rule="evenodd" clip-rule="evenodd" d="M789.438 26.3945L641.489 165.556C613.408 161.227 584.289 159.772 555.604 159.772C492.583 159.772 425.84 167.017 366.201 191.777L203.03 57.4213L214.881 338.476C208.113 353.376 202.121 369.466 196.999 386.836C166.522 490.197 161.714 544.969 161.714 626.874C161.714 638.192 166.641 709.628 154.043 760.68C126.429 872.59 49.8045 1056.71 25.1759 1183.18C19.1521 1214.12 -25.4507 1502.69 5.99914 1702.18C42.5418 1933.98 273.129 1958.74 486.206 1961.37L500.227 1961.52C516.55 1961.65 532.743 1961.68 548.708 1961.68L566.506 1961.68C748.113 1961.58 1099.91 1956.74 1142.89 1731.65C1143.04 1731.06 1143.18 1730.44 1143.32 1729.8C1156.87 1664.8 1177.78 1588.13 1199.53 1399.04C1210.61 1302.69 1285.78 1348 1280.97 1235.16C1276.17 1122.32 1370.56 1307.31 1505.83 1259.9C1600.62 1226.67 1655.66 1323.11 1666.36 1400.1C1669.5 1422.66 1668.62 1447.32 1667.34 1471.49L1666.88 1480C1666.81 1481.41 1666.73 1482.82 1666.65 1484.23L1666.21 1492.63C1663.69 1542.72 1664.22 1587.18 1702.29 1601.39C1740.51 1615.66 1775.6 1594.12 1789.44 1531.38C1801.35 1477.4 1790.86 1360.94 1784.85 1332.83C1771.86 1272.05 1731.03 1128.92 1577.69 1092.14C1459.6 1063.82 1388.64 1183.81 1356.1 1251.6L1353.44 1257.2C1534.97 1287.57 1352.59 1259.01 1352.18 1259.9C1297.14 1378.21 1360.75 1338.76 1378.88 1399.04C1397.51 1461.01 1106.77 1263.06 1098.08 1309.22L1098.07 1309.19L1096.55 1301.71C1083.3 1236.96 1069.56 1180.97 1058.19 1147.96L1056.88 1144.26C987.025 949.244 915.615 787.085 876.623 585.517C870.494 553.833 865.179 520.351 859.901 487.069L857.262 470.454C844.484 390.32 831.163 313.303 806.325 267.627C805.065 265.311 803.77 263.042 802.441 260.82L789.438 26.3945Z" fill="#F5F1EC"/>
</g>
</svg>
