<svg width="283" height="170" viewBox="0 0 283 170" fill="none" xmlns="http://www.w3.org/2000/svg">
<mask id="mask0_3912_27625" style="mask-type:alpha" maskUnits="userSpaceOnUse" x="0" y="0" width="283" height="170">
<path d="M0 0H283V170H8.00001C3.58173 170 0 166.418 0 162V0Z" fill="#D9D9D9"/>
</mask>
<g mask="url(#mask0_3912_27625)">
<g filter="url(#filter0_i_3912_27625)">
<path d="M53.6973 147.696C48.9533 167.363 48.5476 177.825 49.4449 180.807C50.8807 182 52.8781 181.304 53.6973 180.807C55.0367 171.016 58.5193 151.022 57.6766 147.696C56.8339 144.37 57.7677 134.743 58.8471 130.555L56.6623 126.262C57.7859 130.094 55.4919 142.288 53.6973 147.696Z" fill="#B98553"/>
</g>
<path d="M39.6528 122.671C38.1705 122.274 31.1416 121.933 27.8125 121.813C28.2102 123.91 35.2993 124.223 38.7941 124.117L37.2576 125.473C32.0877 124.641 28.8067 126.723 27.8125 127.868C28.8971 126.639 31.7894 126.904 33.0999 127.19H38.7941L42.5902 129.405H38.7941L33.5971 132.026L34.772 138.127L36.2182 133.879L41.0537 133.562C41.3098 134.406 41.8401 135.957 41.9124 135.415C41.9847 134.873 42.7258 132.207 43.0874 130.941C43.5995 132.011 44.6239 134.267 44.6239 134.737C44.6239 135.207 43.2681 138.217 42.5902 139.663L46.4767 134.15L49.7306 135.415L46.4767 136.952L53.4815 138.127C50.77 138.524 49.8511 141.757 49.7306 143.324H50.8604L49.7306 146.894L52.0353 144.002V146.894L54.5209 145.267L57.5036 148.521L56.8709 144.002C57.3409 145.303 60.8628 146.472 62.565 146.894L59.9439 144.002H62.565C62.9627 141.615 60.9833 139.543 59.9439 138.805C61.0737 138.805 63.5773 138.669 64.5535 138.127C65.5296 137.584 61.8872 136.937 59.9439 136.681L62.0679 136.183L59.1757 134.557V132.613L62.565 134.557L63.3333 136.681L64.5535 135.415L67.0842 141.109L67.5813 138.805L70.338 141.109L67.5813 135.415L74.0438 136.681L77.1168 134.557L74.0438 133.201C75.5261 131.14 73.4262 128.335 72.1909 127.19C74.1071 126.106 72.9893 123.153 72.1909 121.813L71.0159 118.333L74.7217 119.191L71.513 116.028C72.8869 114.979 78.5328 118.664 81.1841 120.638C79.738 116.155 72.9893 115.094 69.7957 115.124V113L65.2314 116.028L64.5535 113C62.9266 114.229 60.8026 117.64 59.9439 119.191L55.1084 120.638C56.2653 119.698 55.1988 117.685 54.5209 116.796C52.6409 116.652 46.537 117.76 43.72 118.333L45.7537 121.813L38.7941 120.638L39.6528 122.671Z" fill="#3DAC93"/>
<path d="M61.7967 124.2C60.8929 122.257 61.4081 117.649 67.988 115.082C69.0274 115.986 68.8144 121.722 66.4515 122.539C64.8325 123.098 63.8974 123.691 63.0841 123.999L65.4121 123.578C67.6717 123.081 69.0274 122.087 73.5466 122.945C74.8424 123.192 75.8213 123.985 76.6197 124.346C74.0889 125.205 68.5123 126.732 66.4515 125.973C64.3908 125.214 61.616 124.392 61.1641 124.346L61.9196 124.21C61.879 124.208 61.8381 124.204 61.7967 124.2Z" fill="#6DFFDD"/>
<path d="M55.1501 116.752C57.2109 117.475 60.4228 121.964 61.7936 123.982L61.3866 124.796L59.127 123.711C57.6357 122.529 55.4872 120.34 55.1501 119.328C54.6985 117.972 50.9473 114.628 51.6704 113.859C51.7296 113.977 51.8036 114.113 51.8919 114.263C52.5379 115.138 54.2557 116.246 55.1501 116.752Z" fill="#328C77"/>
<g filter="url(#filter1_i_3912_27625)">
<path d="M56.5728 169.361C55.6895 167.337 55.5347 157.617 55.386 149.221C55.2959 144.13 56.0977 139.074 57.0458 134.071C57.6975 130.632 57.8214 128.211 57.6786 126.57C57.4948 124.457 55.8755 122.81 54.527 121.172C57.7437 126.36 54.2523 138.211 52.5115 144.928C51.1189 150.301 51.753 170.761 53.4696 181.465H58.8433C58.8433 181.465 58.5286 177.564 57.9952 174.911C57.5793 172.843 56.5728 169.361 56.5728 169.361Z" fill="#C2976E"/>
</g>
<path d="M69.4357 137.352C70.5547 138.209 75.6632 141.481 76.8924 143.272C77.7919 144.583 79.3258 145.869 79.7395 146.571C81.3666 148.902 81.2307 151.226 81.2307 152.401C77.7962 148.062 79.3439 151.076 75.6722 146.951C72.0005 142.826 68.8245 138.047 69.4357 137.352Z" fill="#6DFFDD"/>
<path d="M84.1255 142.646C82.5684 143.522 75.3432 141.599 69.8899 137.223L69.6662 136.061C69.7983 136.08 69.9428 136.107 70.0986 136.142C70.6724 136.232 71.6433 136.266 72.8276 135.506C74.1347 134.667 78.2292 136.216 80.4543 137.361C81.1948 137.742 81.7596 138.371 82.1628 139.099L84.1255 142.646Z" fill="#6DFFDD"/>
<path d="M47.7735 117.859C49.4538 118.159 53.01 118.918 53.7916 119.561C54.7685 120.365 69.2667 128.874 70.5563 137.289C68.0943 135.193 63.952 130.812 62.467 129.82C61.8363 129.398 55.6673 125.612 52.8928 121.31C52.5489 120.819 49.3105 119.088 47.7344 118.285L47.7539 118.072L47.7735 117.859Z" fill="#5AD8BB"/>
<path d="M48.0156 117.744C49.9589 116.178 54.3696 113.099 56.4665 113.316C58.5634 113.532 62.1607 113.406 63.6972 113.316C62.4017 113.617 59.4763 114.464 58.1386 115.44C56.8009 116.416 52.7608 116.66 50.9079 116.66L48.0156 117.744Z" fill="#6DFFDD"/>
<path d="M43.2692 120.774C44.0646 120.629 46.5833 118.695 47.7432 117.746C46.9841 118.867 40.3769 126.107 37.1682 129.586C36.2493 130.46 34.2036 132.614 33.3721 134.241C32.5405 135.868 28.7775 140.854 27 143.144C27.1726 142.781 27.3666 142.382 27.5791 141.952C28.1029 140.706 28.6401 138.923 28.5367 137.269C28.3921 134.955 30.8264 131.484 32.0617 130.038C33.2969 129.059 35.9572 126.748 36.7164 125.338C37.6654 123.576 42.275 120.955 43.2692 120.774Z" fill="#6DFFDD"/>
<path d="M52.2211 144.098C52.4923 145.74 52.655 149.638 51.1365 152.097C49.6181 154.555 47.7923 156.977 47.0692 157.881C45.5347 159.101 42.5896 161.743 42.0148 163.354C41.9778 163.514 41.9454 163.664 41.9174 163.801C41.119 162.566 40.0012 158.496 41.9174 152.097C43.8335 145.697 49.5849 144.098 52.2211 144.098Z" fill="#5AD8BB"/>
<path d="M62.2998 155.578C59.0158 154.975 52.2943 151.99 51.6797 144.867V143.195C51.689 143.203 51.6984 143.21 51.7079 143.218C52.1603 143.569 53.8524 144.353 57.2835 144.867C60.7904 145.393 62.5408 149.244 62.9777 151.104L62.2998 155.578Z" fill="#6DFFDD"/>
<path d="M47.1131 142.154C44.7993 140.997 44.9138 137.875 45.2603 136.459C46.375 136.399 49.0021 136.577 50.5929 137.77C52.5813 139.261 52.7621 141.295 51.9487 143.103C51.3009 143.268 49.427 143.311 47.1131 142.154Z" fill="#6DFFDD"/>
<path d="M51.2699 142.743L52.6256 143.557C51.9779 143.738 50.1491 144.298 50.0045 145.093C49.8599 145.889 44.3706 147.835 41.644 148.709C39.2639 149.251 33.7264 150.083 30.6172 149.07C30.8401 149.005 31.0735 148.938 31.3166 148.869C32.1608 148.433 33.2899 147.403 33.871 146.811C36.6277 144.641 37.8931 144.144 41.644 142.743C44.6447 141.623 49.4622 142.005 51.2699 142.743Z" fill="#3DAC93"/>
<path d="M52.5393 143.36C53.0447 143.457 53.8359 143.4 54.3445 142.652C55.1127 141.522 57.7338 140.618 62.1626 142.968C63.187 143.586 65.2809 144.984 65.4617 145.635C64.4855 146.683 62.1626 146.855 61.1232 146.81C57.3271 148.328 53.6364 145.092 52.2656 143.285C52.3501 143.309 52.4416 143.334 52.5393 143.36Z" fill="#5AD8BB"/>
<path d="M58.3024 128.365C58.6457 129.757 59.1773 133.1 58.5576 135.332C57.9379 137.564 57.1332 139.788 56.8083 140.621C56.0406 141.788 54.6011 144.287 54.4425 145.717C54.4387 145.858 54.4363 145.989 54.4352 146.11C53.8268 145.108 52.7133 141.691 53.1268 136.037C53.5402 130.384 56.7494 128.567 58.3024 128.365Z" fill="#6DFFDD"/>
<path d="M70.5245 139.083C67.6266 138.92 59.4192 135.308 58.0743 129.099L57.8828 127.625C57.8915 127.63 57.9003 127.636 57.9091 127.641C58.3383 127.9 59.8858 128.403 62.9017 128.472C65.9828 128.543 67.9317 131.741 68.521 133.332L70.5245 139.083Z" fill="#328C77"/>
<path d="M54.657 127.197C52.9397 125.855 48.1947 125.75 48.1947 125.75C48.1947 125.75 52.521 124.92 54.1608 125.345C55.8402 125.781 58.2783 125.985 58.0012 127.603C57.6381 127.795 55.9985 128.244 54.657 127.197Z" fill="#5AD8BB"/>
<path d="M57.4171 128.006L58.1891 127.905C57.8277 128.111 57.1059 128.695 57.1096 129.39C57.1134 130.086 54.0973 132.181 52.5888 133.141C51.2473 133.79 48.0782 134.93 46.1335 134.296C46.2599 134.222 46.3912 134.145 46.527 134.066C46.9749 133.624 47.5224 132.655 47.7976 132.103C49.1791 130.025 49.8689 129.5 51.9219 128.008C53.5643 126.814 56.2697 127.509 57.4171 128.006Z" fill="#5AD8BB"/>
<path d="M56.8104 127.413C57.2195 127.467 58.2236 126.517 59.5396 126.517C60.5571 126.517 63.1939 125.912 67.1573 127.408C68.075 127.803 69.9524 128.702 70.1211 129.133C69.267 129.85 67.2058 130.003 66.2819 129.99C62.9287 131.067 58.023 128.592 56.7828 127.408C56.7918 127.41 56.801 127.411 56.8104 127.413Z" fill="#3DAC93"/>
<path d="M47.7382 117.883C47.7382 121.453 46.6988 129.524 42.5412 133.248C41.7596 134.838 40.3047 138.007 40.0143 139.388C39.9829 139.61 39.9652 139.77 39.9652 139.846C39.8146 138.867 39.6037 136.421 39.9652 134.468C40.4171 132.028 43.9872 124.752 44.8006 123.261C45.4514 122.068 47.0302 119.178 47.7382 117.883Z" fill="#328C77"/>
<path d="M47.7484 118.149L47.4264 117.959C46.3927 117.783 43.766 119.619 42.3706 118.782C41.1052 118.022 41.8433 115.934 42.3706 114.985C42.9057 113.431 44.823 113.283 45.7148 113.404C46.5885 113.69 48.7968 115.256 47.7484 118.149Z" fill="#328C77"/>
<path d="M181.209 35.4531L179.654 8.70663L164.706 22.1071L181.209 35.4531Z" fill="#FFB3B9" stroke="#675047" stroke-width="4.07304"/>
<mask id="mask1_3912_27625" style="mask-type:alpha" maskUnits="userSpaceOnUse" x="210" y="61" width="58" height="116">
<path d="M254.173 93.1075C255.317 100.948 251.459 111.276 258.013 113.608C262.097 115.061 265.846 112.867 267.325 106.478C268.598 100.98 267.477 89.1202 266.835 86.2574C265.446 80.0674 261.084 65.4906 244.698 61.7453C231.546 58.7393 223.865 72.1407 220.6 78.8295C214.719 90.8792 217.111 112.141 219.048 118.28C222.642 129.669 221.767 142.64 219.048 147.661C216.216 152.892 213.412 155.982 210.635 156.934L212.432 176.168C223.317 165.855 229.688 155.464 231.546 144.993C232.672 138.65 233.833 132.806 231.546 122.324C229.722 113.962 222.564 83.6584 237.019 78.8295C247.148 75.4456 253.03 85.267 254.173 93.1075Z" fill="white"/>
</mask>
<g mask="url(#mask1_3912_27625)">
<path d="M254.173 93.1075C255.317 100.948 251.459 111.276 258.013 113.608C262.097 115.061 265.846 112.867 267.325 106.478C268.598 100.98 267.477 89.1202 266.835 86.2574C265.446 80.0674 261.084 65.4906 244.698 61.7453C231.546 58.7393 223.865 72.1407 220.6 78.8295C214.719 90.8792 217.111 112.141 219.048 118.28C222.642 129.669 221.767 142.64 219.048 147.661C216.216 152.892 213.412 155.982 210.635 156.934L212.432 176.168C223.317 165.855 229.688 155.464 231.546 144.993C232.672 138.65 233.833 132.806 231.546 122.324C229.722 113.962 222.564 83.6584 237.019 78.8295C247.148 75.4456 253.03 85.267 254.173 93.1075Z" fill="#CABDAA"/>
<path fill-rule="evenodd" clip-rule="evenodd" d="M266.38 78.0401C268.427 77.4797 271.683 74.8349 271.937 73.3974C272.117 72.3796 270.631 72.5782 268.825 73.8132L259.972 79.8686C259.349 80.2948 259.205 80.8296 259.778 80.583C261.587 79.8038 264.019 78.7897 265.519 78.2979C265.803 78.2049 266.091 78.1191 266.38 78.0401Z" fill="#675047"/>
<path fill-rule="evenodd" clip-rule="evenodd" d="M267.053 81.728C268.978 81.4677 272.428 79.1375 272.968 77.6103C273.35 76.5289 271.998 76.4902 270.137 77.5293L261.009 82.6238C260.366 82.9824 260.121 83.542 260.68 83.371C262.445 82.8308 264.809 82.141 266.238 81.8617C266.509 81.8088 266.781 81.7647 267.053 81.728Z" fill="#675047"/>
<path fill-rule="evenodd" clip-rule="evenodd" d="M268.111 84.8782C269.838 84.9638 273.394 83.0624 274.239 81.4831C274.838 80.3649 273.68 80.0605 271.815 80.8458L262.67 84.6961C262.027 84.9672 261.676 85.5367 262.201 85.4563C263.859 85.2024 266.072 84.8995 267.375 84.868C267.621 84.8621 267.868 84.8661 268.111 84.8782Z" fill="#675047"/>
<path fill-rule="evenodd" clip-rule="evenodd" d="M244.486 59.5854C245.128 57.5629 244.678 53.3916 243.609 52.3974C242.852 51.6934 242.211 53.0488 242.267 55.2357L242.539 65.9579C242.558 66.7127 242.929 67.1246 243.033 66.5097C243.363 64.567 243.833 61.9743 244.235 60.4479C244.311 60.1591 244.396 59.8705 244.486 59.5854Z" fill="#675047"/>
<path fill-rule="evenodd" clip-rule="evenodd" d="M247.948 61.0248C248.775 59.2672 248.694 55.1049 247.706 53.8215C247.006 52.9128 246.238 54.0268 246.099 56.1542L245.415 66.585C245.367 67.3192 245.704 67.829 245.864 67.2671C246.37 65.492 247.075 63.1323 247.617 61.781C247.72 61.5253 247.831 61.2725 247.948 61.0248Z" fill="#675047"/>
<path fill-rule="evenodd" clip-rule="evenodd" d="M251.167 61.8482C252.178 60.4451 252.514 56.4264 251.648 54.8588C251.034 53.7489 250.149 54.5555 249.795 56.5479L248.058 66.3164C247.936 67.0041 248.223 67.6076 248.441 67.1234C249.129 65.5937 250.077 63.5717 250.759 62.4607C250.888 62.2505 251.025 62.046 251.167 61.8482Z" fill="#675047"/>
<path fill-rule="evenodd" clip-rule="evenodd" d="M270.729 98.6726C272.659 99.4083 276.85 99.537 277.963 98.8152C278.752 98.3041 277.483 97.6461 275.307 97.4373L264.638 96.4134C263.887 96.3413 263.435 96.5837 264.032 96.7363C265.92 97.2182 268.436 97.8855 269.903 98.3765C270.18 98.4694 270.457 98.5689 270.729 98.6726Z" fill="#675047"/>
<path fill-rule="evenodd" clip-rule="evenodd" d="M268.89 101.216C270.535 102.066 274.674 102.483 276.065 101.857C277.049 101.414 276.035 100.685 273.941 100.331L263.675 98.5923C262.952 98.4699 262.406 98.6745 262.945 98.8646C264.646 99.4652 266.903 100.29 268.179 100.87C268.421 100.98 268.658 101.096 268.89 101.216Z" fill="#675047"/>
<path fill-rule="evenodd" clip-rule="evenodd" d="M267.691 103.641C268.963 104.593 272.91 105.321 274.568 104.823C275.742 104.471 275.046 103.685 273.112 103.178L263.628 100.692C262.96 100.517 262.327 100.672 262.782 100.898C264.217 101.613 266.111 102.589 267.132 103.25C267.325 103.375 267.512 103.507 267.691 103.641Z" fill="#675047"/>
<path fill-rule="evenodd" clip-rule="evenodd" d="M267.068 106.027C269.001 106.941 273.417 107.752 274.702 107.364C275.612 107.089 274.368 106.348 272.097 105.814L260.961 103.193C260.177 103.008 259.662 103.125 260.271 103.348C262.197 104.052 264.76 105.011 266.239 105.651C266.518 105.772 266.796 105.898 267.068 106.027Z" fill="#675047"/>
<path fill-rule="evenodd" clip-rule="evenodd" d="M264.744 107.749C266.358 108.706 270.675 109.739 272.239 109.474C273.347 109.286 272.383 108.532 270.22 107.895L259.617 104.771C258.87 104.551 258.262 104.622 258.804 104.865C260.514 105.632 262.779 106.673 264.043 107.352C264.282 107.481 264.516 107.614 264.744 107.749Z" fill="#675047"/>
<path fill-rule="evenodd" clip-rule="evenodd" d="M262.773 109.234C265.521 110.584 268.385 111.708 270.213 111.591C271.508 111.508 270.889 110.762 268.918 110.03L259.254 106.44C258.573 106.188 257.88 106.205 258.328 106.463C259.74 107.276 260.983 108.354 262.773 109.234Z" fill="#675047"/>
<path fill-rule="evenodd" clip-rule="evenodd" d="M260.066 110.816C262.257 111.9 267.233 113.369 268.665 113.304C269.68 113.258 268.265 112.441 265.703 111.593L253.142 107.435C252.29 107.153 251.768 106.839 252.177 107.362C252.21 107.404 252.251 107.439 252.298 107.467C254.374 108.68 257.469 109.591 259.126 110.364C259.443 110.512 259.757 110.664 260.066 110.816Z" fill="#675047"/>
<path fill-rule="evenodd" clip-rule="evenodd" d="M257.5 111.736C259.335 112.794 264.205 114.419 265.954 114.504C267.193 114.564 266.092 113.789 263.649 112.881L251.673 108.426C250.83 108.113 250.15 108.055 250.763 108.348C252.701 109.274 255.269 110.52 256.704 111.292C256.976 111.438 257.242 111.587 257.5 111.736Z" fill="#675047"/>
<path fill-rule="evenodd" clip-rule="evenodd" d="M255.326 112.536C258.443 114.116 261.685 115.541 263.734 115.792C265.184 115.969 264.472 115.266 262.241 114.319L251.307 109.674C250.538 109.347 249.761 109.23 250.269 109.517C251.874 110.424 253.295 111.507 255.326 112.536Z" fill="#675047"/>
<path fill-rule="evenodd" clip-rule="evenodd" d="M258.653 71.9322C260.292 70.6919 262.639 67.2143 262.638 65.8869C262.638 64.947 261.417 65.6688 260.081 67.3984L253.533 75.8786C253.072 76.4755 253.03 76.988 253.476 76.5638C254.883 75.2237 256.778 73.4512 257.967 72.4727C258.192 72.2875 258.422 72.107 258.653 71.9322Z" fill="#675047"/>
<path fill-rule="evenodd" clip-rule="evenodd" d="M259.769 74.8464C261.35 73.9087 263.906 70.6294 264.133 69.1187C264.294 68.049 263.15 68.5176 261.739 70.0998L254.816 77.8577C254.329 78.4038 254.206 78.9748 254.65 78.6208C256.055 77.5024 257.942 76.0332 259.103 75.2633C259.323 75.1176 259.546 74.9786 259.769 74.8464Z" fill="#675047"/>
<path fill-rule="evenodd" clip-rule="evenodd" d="M261.128 77.1563C262.594 76.5889 265.304 73.638 265.78 71.9695C266.117 70.7881 265.097 70.9567 263.645 72.3225L256.523 79.019C256.021 79.4904 255.812 80.1091 256.241 79.8454C257.598 79.0123 259.415 77.9313 260.507 77.4208C260.714 77.3242 260.922 77.2363 261.128 77.1563Z" fill="#675047"/>
<path fill-rule="evenodd" clip-rule="evenodd" d="M235.163 62.7467C235.012 60.697 233.368 56.8371 232.254 56.1162C231.465 55.6057 231.407 57.0229 232.133 59.084L235.694 69.1892C235.944 69.9006 236.352 70.2142 236.237 69.6099C235.877 67.7005 235.419 65.146 235.244 63.6161C235.211 63.3266 235.184 63.0356 235.163 62.7467Z" fill="#675047"/>
<path fill-rule="evenodd" clip-rule="evenodd" d="M238.215 63.3941C238.288 61.557 236.924 57.6291 235.779 56.6176C234.969 55.9013 234.74 57.1158 235.301 59.1609L238.052 69.1879C238.246 69.8938 238.658 70.3072 238.603 69.7416C238.427 67.9545 238.219 65.572 238.204 64.1791C238.201 63.9156 238.205 63.653 238.215 63.3941Z" fill="#675047"/>
<path fill-rule="evenodd" clip-rule="evenodd" d="M240.893 63.5078C241.214 61.9688 240.209 58.0905 239.067 56.7844C238.258 55.8595 237.846 56.8071 238.203 58.7687L239.954 68.3863C240.078 69.0633 240.483 69.5757 240.495 69.0717C240.533 67.4796 240.613 65.3669 240.778 64.1729C240.809 63.947 240.848 63.7247 240.893 63.5078Z" fill="#675047"/>
<path fill-rule="evenodd" clip-rule="evenodd" d="M269.589 88.6C271.644 88.6125 275.623 87.3129 276.43 86.2848C277.002 85.5568 275.593 85.3908 273.481 85.9372L263.125 88.6163C262.396 88.8049 262.051 89.1768 262.662 89.1128C264.594 88.9104 267.177 88.6632 268.716 88.6114C269.007 88.6016 269.299 88.5982 269.589 88.6Z" fill="#675047"/>
<path fill-rule="evenodd" clip-rule="evenodd" d="M268.701 91.5188C270.527 91.7314 274.551 90.7097 275.65 89.6747C276.428 88.9419 275.236 88.6258 273.153 89.0128L262.939 90.9103C262.22 91.0439 261.775 91.4131 262.343 91.403C264.138 91.371 266.53 91.3536 267.92 91.4466C268.182 91.4642 268.444 91.4888 268.701 91.5188Z" fill="#675047"/>
<path fill-rule="evenodd" clip-rule="evenodd" d="M268.375 94.1147C269.884 94.5457 273.83 93.8693 275.222 92.8598C276.208 92.145 275.297 91.6702 273.313 91.8655L263.587 92.8229C262.902 92.8903 262.359 93.2447 262.86 93.2955C264.444 93.4562 266.544 93.6979 267.721 93.9508C267.944 93.9986 268.162 94.054 268.375 94.1147Z" fill="#675047"/>
<path fill-rule="evenodd" clip-rule="evenodd" d="M253.941 62.7978C255.362 61.2212 256.675 57.2367 256.113 55.8897C255.715 54.9359 254.571 55.9053 253.718 57.9197L249.535 67.796C249.24 68.4912 249.408 69.0193 249.757 68.5025C250.859 66.8696 252.359 64.703 253.356 63.4793C253.545 63.2478 253.741 63.02 253.941 62.7978Z" fill="#675047"/>
<path fill-rule="evenodd" clip-rule="evenodd" d="M256.499 65.5389C257.979 64.2805 259.625 60.4567 259.255 58.8795C258.993 57.7628 257.834 58.4601 256.828 60.3397L251.895 69.5556C251.548 70.2043 251.643 70.8076 252.021 70.3622C253.215 68.9547 254.833 67.0976 255.885 66.0911C256.084 65.9006 256.29 65.7163 256.499 65.5389Z" fill="#675047"/>
<path fill-rule="evenodd" clip-rule="evenodd" d="M259.09 67.6193C260.59 66.7591 262.557 63.2387 262.416 61.4532C262.316 60.1889 261.177 60.5578 260.031 62.2256L254.412 70.4031C254.017 70.9788 254.029 71.6473 254.428 71.2964C255.686 70.1876 257.385 68.7381 258.465 68.0082C258.669 67.8701 258.879 67.7406 259.09 67.6193Z" fill="#675047"/>
<path fill-rule="evenodd" clip-rule="evenodd" d="M225.816 65.6389C225.264 63.5899 222.633 60.3218 221.197 60.0619C220.18 59.8779 220.372 61.3648 221.599 63.1756L227.617 72.0541C228.04 72.6791 228.575 72.8259 228.33 72.252C227.559 70.4389 226.555 68.0025 226.07 66.5004C225.978 66.2163 225.893 65.9277 225.816 65.6389Z" fill="#675047"/>
<path fill-rule="evenodd" clip-rule="evenodd" d="M229.506 64.9819C229.254 63.0556 226.939 59.5958 225.414 59.0492C224.334 58.6621 224.29 60.0139 225.321 61.88L230.376 71.0293C230.732 71.6734 231.291 71.9207 231.122 71.3614C230.59 69.5942 229.91 67.2268 229.637 65.7967C229.585 65.5262 229.542 65.2534 229.506 64.9819Z" fill="#675047"/>
<path fill-rule="evenodd" clip-rule="evenodd" d="M232.661 63.9369C232.754 62.2104 230.868 58.6459 229.292 57.7943C228.176 57.1912 227.867 58.3478 228.644 60.2162L232.456 69.3767C232.724 70.0216 233.292 70.3743 233.214 69.8492C232.967 68.1902 232.674 65.9763 232.648 64.6732C232.643 64.4266 232.648 64.1803 232.661 63.9369Z" fill="#675047"/>
</g>
<path d="M122.562 34.916L124.758 9.61033L138.771 23.9286L122.562 34.916Z" fill="#FFB3B9" stroke="#675047" stroke-width="4.07304"/>
<mask id="mask2_3912_27625" style="mask-type:alpha" maskUnits="userSpaceOnUse" x="96" y="18" width="124" height="184">
<path d="M156.629 201.806C176.432 201.806 217.936 201.767 219.784 175.378C220.604 163.675 214.032 128.768 210.194 118.558C202.729 98.6978 195.099 82.1834 190.932 61.6553C188.585 50.0931 187.356 36.1783 183.42 29.281C178.142 20.0312 167.114 18.2969 156.629 18.2969C141.476 18.2969 124.308 22.0327 118.309 41.4214C115.053 51.9479 114.539 57.5259 114.539 65.8673C114.539 67.0199 115.065 74.2951 113.719 79.4942C110.768 90.8913 102.581 109.642 99.9488 122.522C99.3051 125.673 94.539 155.062 97.8996 175.378C102.234 201.582 132.116 201.806 156.629 201.806Z" fill="white"/>
</mask>
<g mask="url(#mask2_3912_27625)">
<path d="M156.629 201.806C176.432 201.806 217.936 201.767 219.784 175.378C220.604 163.675 214.032 128.768 210.194 118.558C202.729 98.6978 195.099 82.1834 190.932 61.6553C188.585 50.0931 187.356 36.1783 183.42 29.281C178.142 20.0312 167.114 18.2969 156.629 18.2969C141.476 18.2969 124.308 22.0327 118.309 41.4214C115.053 51.9479 114.539 57.5259 114.539 65.8673C114.539 67.0199 115.065 74.2951 113.719 79.4942C110.768 90.8913 102.581 109.642 99.9488 122.522C99.3051 125.673 94.539 155.062 97.8996 175.378C102.234 201.582 132.116 201.806 156.629 201.806Z" fill="#CABDAA"/>
<path fill-rule="evenodd" clip-rule="evenodd" d="M141.768 17.3057C141.482 14.8766 139.029 10.7088 137.434 10.1718C136.305 9.79148 136.276 11.5194 137.372 13.7901L142.747 24.9235C143.125 25.7072 143.71 25.964 143.528 25.2687C142.952 23.0717 142.215 20.1251 141.913 18.3308C141.856 17.9913 141.808 17.6481 141.768 17.3057Z" fill="#675047"/>
<path fill-rule="evenodd" clip-rule="evenodd" d="M146.087 17.1747C146.122 14.9357 144.061 10.6022 142.413 9.72331C141.247 9.10101 140.97 10.6352 141.833 12.9361L146.066 24.217C146.364 25.0112 146.959 25.3869 146.861 24.7207C146.549 22.6161 146.171 19.8024 146.099 18.1258C146.085 17.8086 146.082 17.4903 146.087 17.1747Z" fill="#675047"/>
<path fill-rule="evenodd" clip-rule="evenodd" d="M149.859 16.5115C150.255 14.5581 148.701 10.1771 147.047 8.9419C145.875 8.06729 145.329 9.33441 145.902 11.5954L148.714 22.6808C148.912 23.4611 149.501 23.9585 149.5 23.3466C149.496 21.4133 149.532 18.8394 149.721 17.3489C149.757 17.0669 149.804 16.7868 149.859 16.5115Z" fill="#675047"/>
<path fill-rule="evenodd" clip-rule="evenodd" d="M192.52 62.4123C194.879 61.7664 198.633 58.7178 198.926 57.0609C199.133 55.8877 197.42 56.1166 195.339 57.5402L185.135 64.5199C184.416 65.0112 184.25 65.6277 184.91 65.3434C186.996 64.4452 189.799 63.2763 191.528 62.7095C191.856 62.6023 192.188 62.5034 192.52 62.4123Z" fill="#675047"/>
<path fill-rule="evenodd" clip-rule="evenodd" d="M193.296 66.6632C195.515 66.3631 199.491 63.6772 200.114 61.9169C200.555 60.6704 198.996 60.6258 196.85 61.8235L186.329 67.6957C185.589 68.1091 185.306 68.7541 185.95 68.557C187.985 67.9344 190.71 67.1393 192.357 66.8173C192.669 66.7563 192.983 66.7055 193.296 66.6632Z" fill="#675047"/>
<path fill-rule="evenodd" clip-rule="evenodd" d="M194.516 70.2943C196.506 70.393 200.605 68.2013 201.579 66.3809C202.269 65.092 200.934 64.7412 198.785 65.6464L188.244 70.0844C187.502 70.3968 187.099 71.0534 187.704 70.9607C189.615 70.6679 192.165 70.3188 193.667 70.2825C193.951 70.2757 194.235 70.2804 194.516 70.2943Z" fill="#675047"/>
<path fill-rule="evenodd" clip-rule="evenodd" d="M113.427 68.5828C110.994 68.3357 106.788 65.9494 106.225 64.3637C105.827 63.2409 107.554 63.1835 109.842 64.2435L121.06 69.4407C121.85 69.8066 122.116 70.387 121.417 70.2158C119.212 69.6748 116.254 68.9853 114.455 68.712C114.114 68.6603 113.77 68.6177 113.427 68.5828Z" fill="#675047"/>
<path fill-rule="evenodd" clip-rule="evenodd" d="M113.365 72.9034C111.127 72.9742 106.761 70.9825 105.856 69.3492C105.216 68.1928 106.745 67.8912 109.059 68.7178L120.406 72.7703C121.205 73.0556 121.59 73.6451 120.923 73.5571C118.813 73.2793 115.994 72.9456 114.316 72.9002C113.999 72.8916 113.681 72.8934 113.365 72.9034Z" fill="#675047"/>
<path fill-rule="evenodd" clip-rule="evenodd" d="M112.762 76.6862C110.815 77.1125 106.41 75.6285 105.149 73.9941C104.256 72.8368 105.514 72.2703 107.784 72.8077L118.912 75.4427C119.696 75.6282 120.203 76.209 119.591 76.2175C117.658 76.2447 115.085 76.3218 113.597 76.5343C113.316 76.5745 113.037 76.6261 112.762 76.6862Z" fill="#675047"/>
<path fill-rule="evenodd" clip-rule="evenodd" d="M162.982 16.5947C163.268 14.1656 165.721 9.99788 167.316 9.46082C168.445 9.08055 168.474 10.8084 167.378 13.0792L162.003 24.2125C161.625 24.9963 161.04 25.2531 161.222 24.5577C161.798 22.3608 162.535 19.4142 162.837 17.6198C162.894 17.2804 162.942 16.9371 162.982 16.5947Z" fill="#675047"/>
<path fill-rule="evenodd" clip-rule="evenodd" d="M158.663 16.4637C158.628 14.2247 160.689 9.89125 162.337 9.01237C163.503 8.39007 163.78 9.92428 162.917 12.2251L158.684 23.5061C158.386 24.3002 157.791 24.6759 157.889 24.0098C158.201 21.9052 158.579 19.0915 158.651 17.4148C158.665 17.0976 158.668 16.7793 158.663 16.4637Z" fill="#675047"/>
<path fill-rule="evenodd" clip-rule="evenodd" d="M154.891 15.8006C154.495 13.8472 156.049 9.46618 157.703 8.23096C158.875 7.35635 159.421 8.62348 158.848 10.8844L156.036 21.9698C155.838 22.7502 155.249 23.2475 155.25 22.6356C155.254 20.7024 155.218 18.1284 155.029 16.6379C154.993 16.3559 154.946 16.0759 154.891 15.8006Z" fill="#675047"/>
<path fill-rule="evenodd" clip-rule="evenodd" d="M197.588 81.1159C199.932 80.4193 204.73 81.027 205.853 82.2798C206.648 83.1668 205.073 83.8766 202.553 83.7662L190.202 83.2245C189.333 83.1864 188.866 82.7508 189.577 82.6437C191.823 82.3053 194.821 81.8183 196.588 81.3871C196.923 81.3055 197.257 81.2141 197.588 81.1159Z" fill="#675047"/>
<path fill-rule="evenodd" clip-rule="evenodd" d="M196.002 77.0962C198.046 76.1797 202.841 76.3618 204.299 77.5283C205.331 78.3543 204.031 79.2148 201.576 79.3303L189.541 79.8965C188.693 79.9364 188.113 79.5376 188.764 79.3651C190.821 78.8201 193.555 78.0567 195.124 77.4608C195.421 77.3481 195.714 77.2254 196.002 77.0962Z" fill="#675047"/>
<path fill-rule="evenodd" clip-rule="evenodd" d="M195.122 73.3682C196.76 72.2337 201.399 71.9312 203.187 72.9633C204.453 73.694 203.505 74.6964 201.201 75.0624L189.906 76.8568C189.111 76.9831 188.422 76.6387 188.984 76.3981C190.762 75.638 193.112 74.5883 194.407 73.8262C194.652 73.682 194.891 73.5282 195.122 73.3682Z" fill="#675047"/>
<path fill-rule="evenodd" clip-rule="evenodd" d="M111.522 87.8631C109.094 87.5636 104.463 88.9558 103.563 90.377C102.925 91.3833 104.596 91.8229 107.062 91.2976L119.154 88.7221C120.005 88.5408 120.394 88.034 119.675 88.0458C117.404 88.0833 114.367 88.0985 112.552 87.9654C112.209 87.9402 111.864 87.9053 111.522 87.8631Z" fill="#675047"/>
<path fill-rule="evenodd" clip-rule="evenodd" d="M112.421 83.6367C110.255 83.0705 105.555 84.0426 104.31 85.434C103.429 86.4193 104.853 87.053 107.293 86.7612L119.257 85.3305C120.099 85.2298 120.605 84.7406 119.935 84.678C117.817 84.4804 114.993 84.1795 113.348 83.8511C113.036 83.7889 112.726 83.7165 112.421 83.6367Z" fill="#675047"/>
<path fill-rule="evenodd" clip-rule="evenodd" d="M112.673 79.8144C110.87 78.9663 106.245 79.4346 104.652 80.748C103.524 81.678 104.625 82.5099 106.958 82.4901L118.394 82.393C119.199 82.3862 119.822 81.9325 119.227 81.7882C117.348 81.3324 114.857 80.6856 113.454 80.148C113.188 80.0463 112.928 79.934 112.673 79.8144Z" fill="#675047"/>
</g>
<path d="M195.637 79.1602C204.349 102.117 205.931 102.737 210.565 118.503C213.231 127.571 220.078 157.611 220.078 169.653C220.078 169.653 179.379 183.321 153.857 182.669C130.303 182.067 96.5587 171.866 96.5587 171.866C94.2565 151.235 98.8362 124.031 99.156 122.478C100.929 113.869 105.568 99.489 113.072 79.3384L151.399 95.7198C153.168 96.4758 155.169 96.4754 156.937 95.7187L195.637 79.1602Z" fill="#0E2F4E"/>
<path fill-rule="evenodd" clip-rule="evenodd" d="M167.181 49.4874L186.883 47.7528L186.919 48.1658L167.217 49.9005L167.181 49.4874Z" fill="black"/>
<path d="M187.144 52.6055H167.367V53.0201H187.144V52.6055Z" fill="black"/>
<path fill-rule="evenodd" clip-rule="evenodd" d="M167.406 55.7266L187.108 57.4612L187.072 57.8743L167.37 56.1396L167.406 55.7266Z" fill="black"/>
<path fill-rule="evenodd" clip-rule="evenodd" d="M152.55 49.0338L150.624 45.911L154.144 45.7238L152.55 49.0338Z" fill="#FFB3B9"/>
<path d="M140.768 42.5941C144.881 41.9781 147.756 38.7332 147.189 35.3465C146.622 31.9598 142.827 29.7137 138.714 30.3298C134.6 30.9459 131.725 34.1908 132.293 37.5775C132.86 40.9642 136.654 43.2102 140.768 42.5941Z" fill="white"/>
<path d="M138.537 40.4564C139.363 40.3263 139.909 39.8671 140.217 39.2815C140.523 38.702 140.593 38.0053 140.495 37.3874C140.394 36.7518 140.048 36.2265 139.518 35.895C138.99 35.5645 138.289 35.4335 137.485 35.56C136.68 35.6867 135.985 36.0513 135.513 36.5459C135.041 37.0406 134.787 37.6733 134.891 38.3243C134.996 38.9806 135.519 39.5757 136.19 39.9713C136.865 40.3692 137.72 40.5848 138.537 40.4564Z" fill="url(#paint0_linear_3912_27625)" stroke="#6C7957" stroke-width="0.326566"/>
<path fill-rule="evenodd" clip-rule="evenodd" d="M138.015 39.4426C138.959 39.289 139.625 38.5204 139.502 37.7261C139.38 36.9317 138.516 36.4123 137.572 36.566C136.628 36.7197 135.962 37.4882 136.085 38.2826C136.207 39.077 137.071 39.5963 138.015 39.4426Z" fill="#1C2907"/>
<path d="M163.783 42.0696C159.659 41.5215 156.725 38.3245 157.229 34.929C157.734 31.5334 161.486 29.2251 165.611 29.7732C169.735 30.3213 172.669 33.5183 172.164 36.9138C171.66 40.3094 167.907 42.6177 163.783 42.0696Z" fill="white"/>
<path d="M162.266 39.8606C161.437 39.745 160.884 39.2953 160.565 38.7153C160.25 38.1411 160.167 37.4458 160.255 36.8262C160.345 36.189 160.681 35.6577 161.205 35.317C161.728 34.9774 162.426 34.8342 163.232 34.9466C164.039 35.0592 164.741 35.4116 165.221 35.8979C165.702 36.3844 165.966 37.0125 165.874 37.6652C165.781 38.3232 165.268 38.9273 164.604 39.3346C163.936 39.7442 163.085 39.9748 162.266 39.8606Z" fill="url(#paint1_linear_3912_27625)" stroke="#6C7957" stroke-width="0.326566"/>
<path fill-rule="evenodd" clip-rule="evenodd" d="M162.778 38.8355C161.832 38.6983 161.153 37.9415 161.261 37.1451C161.37 36.3488 162.225 35.8144 163.171 35.9516C164.117 36.0888 164.796 36.8456 164.688 37.642C164.579 38.4383 163.724 38.9727 162.778 38.8355Z" fill="#1C2907"/>
<path fill-rule="evenodd" clip-rule="evenodd" d="M172.727 26.7242C168.984 26.0877 166.123 25.8465 164.144 26.0006C162.165 26.1546 159.272 26.8437 155.467 28.0678L156.162 37.0162C159.346 35.8803 162.018 35.2283 164.176 35.0603C166.335 34.8923 169.417 35.0964 173.423 35.6726C173.681 34.9045 173.762 33.9004 173.666 32.6606C173.569 31.4207 173.256 29.4419 172.727 26.7242Z" fill="#CABDAA"/>
<path fill-rule="evenodd" clip-rule="evenodd" d="M132.394 27.9458C136.135 27.2984 138.995 27.0489 140.975 27.1972C142.955 27.3456 145.849 28.0263 149.659 29.2393L148.989 38.1897C145.802 37.063 143.128 36.4188 140.969 36.257C138.81 36.0953 135.729 36.3083 131.725 36.8961C131.464 36.1288 131.38 35.125 131.473 33.8849C131.566 32.6447 131.873 30.665 132.394 27.9458Z" fill="#CABDAA"/>
<path fill-rule="evenodd" clip-rule="evenodd" d="M135.975 51.1476L116.273 49.4129L116.237 49.826L135.939 51.5606L135.975 51.1476Z" fill="black"/>
<path d="M116.426 54.2656H136.203V54.6803H116.426V54.2656Z" fill="black"/>
<path fill-rule="evenodd" clip-rule="evenodd" d="M136.125 57.3867L116.423 59.1214L116.459 59.5344L136.161 57.7998L136.125 57.3867Z" fill="black"/>
<path d="M158.04 53.1071C157.41 55.099 153.846 55.9979 152.057 55.554C151.919 55.5197 151.917 55.3427 152.049 55.2891L157.841 52.9357C157.958 52.8884 158.078 52.9873 158.04 53.1071Z" fill="#1B242B"/>
<ellipse cx="164.573" cy="37.4779" rx="1.15108" ry="0.973989" fill="white" fill-opacity="0.4"/>
<ellipse cx="138.956" cy="37.9584" rx="1.15108" ry="0.973989" fill="white" fill-opacity="0.4"/>
<mask id="mask3_3912_27625" style="mask-type:alpha" maskUnits="userSpaceOnUse" x="129" y="34" width="20" height="15">
<path d="M130.373 35.5453C132.799 32.9474 145.281 33.9394 147.255 36.6315C149.229 39.3236 147.248 45.0528 144.668 46.7896C142.087 48.5264 135.651 48.3062 132.729 47.0977C129.807 45.8891 127.947 38.1433 130.373 35.5453Z" fill="white"/>
</mask>
<g mask="url(#mask3_3912_27625)">
<path opacity="0.2" d="M130.373 35.5453C132.799 32.9474 145.281 33.9394 147.255 36.6315C149.229 39.3236 147.248 45.0528 144.668 46.7896C142.087 48.5264 135.651 48.3062 132.729 47.0977C129.807 45.8891 127.947 38.1433 130.373 35.5453Z" fill="#BEF3FF"/>
<path opacity="0.49" d="M139.786 32.3138L137.148 33.9648L146.161 48.3656L148.799 46.7146L139.786 32.3138Z" fill="white"/>
<path opacity="0.49" d="M141.907 31.6005L141.188 32.0508L149.893 45.9606L150.612 45.5103L141.907 31.6005Z" fill="white"/>
</g>
<mask id="mask4_3912_27625" style="mask-type:alpha" maskUnits="userSpaceOnUse" x="157" y="32" width="20" height="16">
<path d="M157.926 35.3199C160.051 32.334 172.892 31.4364 175.288 33.9055C177.685 36.3745 176.541 42.6601 174.137 44.7897C171.734 46.9194 165.108 47.5915 161.945 46.7667C158.783 45.9419 155.8 38.3059 157.926 35.3199Z" fill="white"/>
</mask>
<g mask="url(#mask4_3912_27625)">
<path opacity="0.2" d="M174.358 32.6265C171.392 30.4734 158.935 33.7145 157.449 36.8187C155.964 39.9229 159.052 45.5159 162.009 46.7688C164.965 48.0216 171.46 46.547 174.195 44.7574C176.93 42.9678 177.324 34.7795 174.358 32.6265Z" fill="#BEF3FF"/>
<path opacity="0.487736" d="M166.762 29.9518L164.289 32.0117L175.151 45.0523L177.624 42.9924L166.762 29.9518Z" fill="white"/>
<path opacity="0.487736" d="M168.456 28.4616L167.781 29.0234L178.643 42.0641L179.317 41.5023L168.456 28.4616Z" fill="white"/>
</g>
<path fill-rule="evenodd" clip-rule="evenodd" d="M180.612 32.7576C181.163 32.9598 180.661 35.5507 180.501 36.0106C180.341 36.4705 179.589 36.4121 179.197 36.8186C178.935 37.0896 178.699 37.5155 178.488 38.0962C177.905 41.6186 177.111 44.0322 176.106 45.3368C175.102 46.6414 173.437 47.4218 171.112 47.6779C166.417 48.1699 163.287 48.1904 161.722 47.7395C159.375 47.0631 158.107 45.2471 157.088 43.3842C156.409 42.1423 155.62 40.3257 154.721 37.9345C154.346 37.1299 153.638 36.7098 152.596 36.6742C151.554 36.6385 150.829 37.0096 150.421 37.7873C149.357 41.6048 148.46 44.1401 147.73 45.3932C146.636 47.2729 145.777 47.45 144.328 48.0813C142.88 48.7126 137.85 49.6547 133.458 48.5037C130.53 47.7363 128.612 45.3547 127.704 41.3588C127.452 40.0542 127.151 39.1289 126.8 38.5828C126.275 37.7638 125.418 37.9397 125.166 37.3999C124.913 36.86 124.319 34.3407 124.685 34.1009C125.05 33.8611 133.749 32.2094 138.029 32.3558C140.882 32.4534 144.51 33.3115 148.913 34.9299C150.02 34.2339 151.278 33.91 152.689 33.9582C154.099 34.0065 155.304 34.255 156.303 34.7039C159.815 32.8316 163.4 31.7682 167.058 31.5138C172.545 31.1321 180.062 32.5555 180.612 32.7576ZM147.256 36.6284C145.277 34.0675 132.794 33.1037 130.373 35.5677C127.952 38.0316 129.825 45.3936 132.749 46.5467C135.673 47.6998 142.109 47.92 144.686 46.2744C147.264 44.6289 149.234 39.1894 147.256 36.6284ZM158.22 36.1134C156.382 38.777 158.587 44.2727 161.25 45.7773C163.912 47.282 170.326 46.7162 173.184 45.4076C176.042 44.099 177.517 36.6471 174.967 34.3168C172.416 31.9865 160.058 33.4498 158.22 36.1134Z" fill="#2A3741"/>
<path d="M178.821 33.9682C179.067 33.9766 179.273 33.7841 179.281 33.5382C179.29 33.2923 179.097 33.0861 178.851 33.0777C178.606 33.0693 178.399 33.2618 178.391 33.5077C178.383 33.7536 178.575 33.9598 178.821 33.9682Z" fill="#D8D8D8"/>
<path d="M178.876 35.644C179.122 35.6524 179.328 35.4599 179.336 35.214C179.345 34.9681 179.152 34.7619 178.906 34.7535C178.66 34.7451 178.454 34.9376 178.446 35.1835C178.437 35.4294 178.63 35.6356 178.876 35.644Z" fill="#D8D8D8"/>
<path d="M126.454 35.351C126.7 35.3594 126.906 35.1669 126.914 34.921C126.923 34.6751 126.73 34.469 126.484 34.4605C126.238 34.4521 126.032 34.6447 126.024 34.8905C126.015 35.1364 126.208 35.3426 126.454 35.351Z" fill="#D8D8D8"/>
<path d="M126.563 37.0307C126.809 37.0391 127.015 36.8466 127.024 36.6007C127.032 36.3548 126.84 36.1486 126.594 36.1402C126.348 36.1318 126.142 36.3243 126.133 36.5702C126.125 36.8161 126.317 37.0223 126.563 37.0307Z" fill="#D8D8D8"/>
<path d="M82.3499 68.5435C79.6793 67.6579 72.8637 68.1709 69.1328 69.5798C69.1328 72.7331 66.1361 79.5244 67.9165 81.1346C69.6969 82.7448 80.3426 80.9889 84.379 78.9091C84.8154 75.8229 85.0205 69.4291 82.3499 68.5435Z" fill="#CABDAA"/>
<path d="M83.738 67.8664C84.9426 71.0615 84.4755 74.196 82.6946 74.8675C80.9138 75.5389 79.5368 72.8941 78.3321 69.699C77.1275 66.5039 76.5513 63.9684 78.3321 63.2969C80.113 62.6255 82.5333 64.6713 83.738 67.8664Z" fill="#CABDAA"/>
<path d="M71.7244 67.4017C76.2956 69.3057 73.1556 70.3094 72.2944 71.5269C71.4331 72.7444 69.2028 72.6058 67.3128 71.2172C65.4228 69.8287 64.5888 67.7162 65.4501 66.4987C66.3113 65.2812 67.1532 65.4978 71.7244 67.4017Z" fill="#CABDAA"/>
<ellipse cx="1.19861" cy="1.70188" rx="1.19861" ry="1.70188" transform="matrix(0.646103 -0.76325 0.877017 0.48046 65.4844 67.4531)" fill="#FFB3B9"/>
<ellipse cx="2.70028" cy="4.77169" rx="2.70028" ry="4.77169" transform="matrix(0.41274 -0.910849 0.903301 0.429007 63 73.9922)" fill="#CABDAA"/>
<ellipse cx="1.19861" cy="1.70188" rx="1.19861" ry="1.70188" transform="matrix(0.646103 -0.76325 0.877017 0.48046 64.9531 71.9766)" fill="#FFB3B9"/>
<ellipse cx="2.70028" cy="4.77169" rx="2.70028" ry="4.77169" transform="matrix(0.41274 -0.910849 0.903301 0.429007 63 78.8945)" fill="#CABDAA"/>
<ellipse cx="1.19861" cy="1.70188" rx="1.19861" ry="1.70188" transform="matrix(0.646103 -0.76325 0.877017 0.48046 64.9531 77.0195)" fill="#FFB3B9"/>
<ellipse cx="76.5035" cy="73.993" rx="3.24344" ry="4.25702" transform="rotate(11.4765 76.5035 73.993)" fill="#FFB3B9"/>
<path d="M100.848 88.4332L90.0983 74.1406C90.0983 78.9957 82.5757 83.0183 79.8281 84.1355L87.695 112.837C89.1757 118.239 93.4981 122.394 98.954 123.661L109.957 126.217L115.496 89.6126L108.444 91.2162C105.585 91.8664 102.61 90.7766 100.848 88.4332Z" fill="#0E2F4E"/>
<path d="M77.9531 80.9333C85.0887 78.7439 84.5414 71.2029 83.5278 67.25C85.6225 68.8041 91.0987 74.9243 91.0987 74.9243C91.0987 74.9243 84.6427 85.6971 79.8789 86.6093L77.9531 80.9333Z" fill="#06192B"/>
<path d="M157.883 51.9375C159.367 52.5191 159.379 53.0087 159.087 53.9443C159.14 52.6053 158.697 52.3564 157.883 51.9375Z" fill="#A99A84"/>
<path d="M220.572 90.7288L178.438 88.7721L172.32 111.6L164.115 130.533L213.184 133.893L220.572 90.7288Z" fill="#D5D0BE"/>
<path d="M220.579 90.7262L177.464 88.1815L173.752 116.74L165.439 139.733L212.498 142.955L220.579 90.7262Z" fill="#F5F5E3"/>
<g filter="url(#filter2_i_3912_27625)">
<path d="M218.194 89.2157L178.495 86.0369C177.432 85.9518 176.501 86.7445 176.416 87.8075L172.147 141.129C172.062 142.192 172.854 143.122 173.917 143.207L213.616 146.386C214.679 146.471 215.61 145.679 215.695 144.616L219.965 91.2945C220.05 90.2316 219.257 89.3008 218.194 89.2157Z" fill="#FFBE73"/>
</g>
<path d="M217.798 122.743C219.19 123.519 220.215 124.633 220.75 125.803C221.286 126.974 221.329 128.194 220.772 129.194C220.214 130.195 219.154 130.8 217.877 130.96C216.6 131.121 215.113 130.835 213.721 130.06C212.33 129.285 211.305 128.171 210.769 127C210.234 125.829 210.191 124.609 210.748 123.609C211.305 122.609 212.366 122.004 213.643 121.843C214.92 121.683 216.407 121.968 217.798 122.743Z" fill="#CABDAA" stroke="#675047" stroke-width="0.193084"/>
<path d="M219.119 117.005C220.51 117.78 221.535 118.895 222.071 120.065C222.606 121.236 222.65 122.456 222.092 123.456C221.535 124.456 220.474 125.062 219.197 125.222C217.92 125.383 216.433 125.097 215.042 124.322C213.65 123.547 212.625 122.432 212.09 121.262C211.554 120.091 211.511 118.871 212.068 117.871C212.626 116.87 213.686 116.265 214.963 116.105C216.24 115.944 217.727 116.23 219.119 117.005Z" fill="#CABDAA" stroke="#675047" stroke-width="0.193084"/>
<path d="M220.751 111.556C222.143 112.331 223.168 113.445 223.703 114.616C224.239 115.787 224.282 117.007 223.725 118.007C223.168 119.007 222.107 119.612 220.83 119.773C219.553 119.933 218.066 119.648 216.675 118.873C215.283 118.097 214.258 116.983 213.723 115.813C213.187 114.642 213.144 113.422 213.701 112.422C214.258 111.421 215.319 110.816 216.596 110.656C217.873 110.495 219.36 110.781 220.751 111.556Z" fill="#CABDAA" stroke="#675047" stroke-width="0.193084"/>
<path d="M190.795 90.6371L191.922 84.9869L205.317 86.2245L205.553 91.8308C205.573 92.2945 205.182 92.6706 204.719 92.633L191.49 91.5579C191.029 91.5205 190.705 91.09 190.795 90.6371Z" fill="#8E8D8C"/>
</g>
<defs>
<filter id="filter0_i_3912_27625" x="49.0625" y="126.262" width="9.78467" height="55.2031" filterUnits="userSpaceOnUse" color-interpolation-filters="sRGB">
<feFlood flood-opacity="0" result="BackgroundImageFix"/>
<feBlend mode="normal" in="SourceGraphic" in2="BackgroundImageFix" result="shape"/>
<feColorMatrix in="SourceAlpha" type="matrix" values="0 0 0 0 0 0 0 0 0 0 0 0 0 0 0 0 0 0 127 0" result="hardAlpha"/>
<feOffset dx="-1.00231" dy="1.31072"/>
<feComposite in2="hardAlpha" operator="arithmetic" k2="-1" k3="1"/>
<feColorMatrix type="matrix" values="0 0 0 0 0 0 0 0 0 0 0 0 0 0 0 0 0 0 0.15 0"/>
<feBlend mode="normal" in2="shape" result="effect1_innerShadow_3912_27625"/>
</filter>
<filter id="filter1_i_3912_27625" x="51.75" y="121.172" width="7.09326" height="60.293" filterUnits="userSpaceOnUse" color-interpolation-filters="sRGB">
<feFlood flood-opacity="0" result="BackgroundImageFix"/>
<feBlend mode="normal" in="SourceGraphic" in2="BackgroundImageFix" result="shape"/>
<feColorMatrix in="SourceAlpha" type="matrix" values="0 0 0 0 0 0 0 0 0 0 0 0 0 0 0 0 0 0 127 0" result="hardAlpha"/>
<feOffset dx="-0.848112" dy="-1.85043"/>
<feComposite in2="hardAlpha" operator="arithmetic" k2="-1" k3="1"/>
<feColorMatrix type="matrix" values="0 0 0 0 0 0 0 0 0 0 0 0 0 0 0 0 0 0 0.15 0"/>
<feBlend mode="normal" in2="shape" result="effect1_innerShadow_3912_27625"/>
</filter>
<filter id="filter2_i_3912_27625" x="172.141" y="86.0312" width="47.8306" height="60.3594" filterUnits="userSpaceOnUse" color-interpolation-filters="sRGB">
<feFlood flood-opacity="0" result="BackgroundImageFix"/>
<feBlend mode="normal" in="SourceGraphic" in2="BackgroundImageFix" result="shape"/>
<feColorMatrix in="SourceAlpha" type="matrix" values="0 0 0 0 0 0 0 0 0 0 0 0 0 0 0 0 0 0 127 0" result="hardAlpha"/>
<feOffset dx="-21.131" dy="0.251559"/>
<feComposite in2="hardAlpha" operator="arithmetic" k2="-1" k3="1"/>
<feColorMatrix type="matrix" values="0 0 0 0 0.706667 0 0 0 0 0.0933334 0 0 0 0 0.0933336 0 0 0 0.1 0"/>
<feBlend mode="normal" in2="shape" result="effect1_innerShadow_3912_27625"/>
</filter>
<linearGradient id="paint0_linear_3912_27625" x1="137.702" y1="35.6758" x2="137.702" y2="40.3302" gradientUnits="userSpaceOnUse">
<stop offset="0.0572917" stop-color="#72573F"/>
<stop offset="0.583333" stop-color="#C8D574"/>
</linearGradient>
<linearGradient id="paint1_linear_3912_27625" x1="163.017" y1="35.0661" x2="163.098" y2="39.7198" gradientUnits="userSpaceOnUse">
<stop offset="0.0572917" stop-color="#72573F"/>
<stop offset="0.583333" stop-color="#C8D574"/>
</linearGradient>
</defs>
</svg>
