<svg width="289" height="170" viewBox="0 0 289 170" fill="none" xmlns="http://www.w3.org/2000/svg">
<g clip-path="url(#clip0_3912_27769)">
<path d="M126.397 92.5146C126.397 92.5146 153.177 91.6804 161.11 77.1131V74.4456C161.11 74.4456 156.596 72.0859 127.224 72.0859C95.1718 72.0859 91.2734 74.4456 91.2734 74.4456V77.5961C96.7014 91.8936 126.397 92.5146 126.397 92.5146Z" fill="#15161C"/>
<path d="M150.56 43.3802L149.038 16.3059L134.406 29.8707L150.56 43.3802Z" fill="#FF9E9E" stroke="#2C2A23" stroke-width="2.25487"/>
<mask id="mask0_3912_27769" style="mask-type:alpha" maskUnits="userSpaceOnUse" x="30" y="65" width="51" height="104">
<path d="M42.6529 93.8041C41.6564 100.869 45.018 110.174 39.3077 112.275C35.7491 113.585 32.4829 111.607 31.194 105.851C30.085 100.897 31.0615 90.2114 31.6211 87.632C32.831 82.0547 36.632 68.9208 50.9089 65.5462C62.3677 62.8378 69.0603 74.9126 71.9049 80.9393C77.0293 91.7963 74.945 110.954 73.2571 116.485C70.1255 126.747 70.8885 138.434 73.2571 142.958C75.7245 147.671 78.1681 150.455 80.5879 151.312L79.0221 168.643C69.5379 159.351 63.9865 149.988 62.3677 140.553C61.3872 134.838 60.3749 129.573 62.3677 120.128C63.9575 112.595 70.1936 85.2902 57.5991 80.9393C48.7737 77.8904 43.6493 86.7396 42.6529 93.8041Z" fill="white"/>
</mask>
<g mask="url(#mask0_3912_27769)">
<g filter="url(#filter0_i_3912_27769)">
<path d="M42.6529 93.8041C41.6564 100.869 45.018 110.174 39.3077 112.275C35.7491 113.585 32.4829 111.607 31.194 105.851C30.085 100.897 31.0615 90.2114 31.6211 87.632C32.831 82.0547 36.632 68.9208 50.9089 65.5462C62.3677 62.8378 69.0603 74.9126 71.9049 80.9393C77.0293 91.7963 74.945 110.954 73.2571 116.485C70.1255 126.747 70.8885 138.434 73.2571 142.958C75.7245 147.671 78.1681 150.455 80.5879 151.312L79.0221 168.643C69.5379 159.351 63.9865 149.988 62.3677 140.553C61.3872 134.838 60.3749 129.573 62.3677 120.128C63.9575 112.595 70.1936 85.2902 57.5991 80.9393C48.7737 77.8904 43.6493 86.7396 42.6529 93.8041Z" fill="#515258"/>
</g>
<path d="M58.0323 71.5575L64.1871 69.2995L60.5677 64.4863L58.0323 71.5575Z" fill="#FECBB8"/>
<path d="M66.5599 81.6807L72.5046 80.7704L69.541 75.5699L66.5599 81.6807Z" fill="#FECBB8"/>
<path d="M69.6089 75.053L65.1865 69.0041L61.5201 77.0581L69.6054 75.0531L69.6089 75.053Z" fill="#FECBB8"/>
<path d="M35.89 98.0016L29.4474 94.7767L28.3114 101.295L35.89 98.0016Z" fill="#FECBB8"/>
<path d="M37.767 82.2863L32.5632 78.2153L30.623 84.5L37.767 82.2863Z" fill="#FECBB8"/>
<path d="M30.1021 85.1699L28.5794 93.2601L37.7974 90.1324L30.1049 85.1726L30.1021 85.1699Z" fill="#FECBB8"/>
</g>
<path d="M97.3416 44.1349L98.6371 18.3427L112.895 32.3324L97.3416 44.1349Z" fill="#FF9E9E" stroke="#2C2A23" stroke-width="2.25487"/>
<mask id="mask1_3912_27769" style="mask-type:alpha" maskUnits="userSpaceOnUse" x="75" y="26" width="109" height="166">
<path fill-rule="evenodd" clip-rule="evenodd" d="M128.203 191.431C145.458 191.431 181.62 191.396 183.23 167.619C183.944 157.074 178.218 125.622 174.874 116.423C168.37 98.5285 161.721 83.6487 158.091 65.1526C156.046 54.7348 154.975 42.1974 151.546 35.9828C146.948 27.6486 137.339 26.0859 128.203 26.0859C115 26.0859 100.042 29.452 94.8156 46.9215C91.978 56.406 91.5304 61.4319 91.5304 68.9476C91.5304 69.9861 91.9891 76.5412 90.8163 81.2257C88.2452 91.4946 81.1112 108.389 78.8182 119.995C78.2573 122.833 74.1047 149.313 77.0328 167.619C80.8093 191.228 106.845 191.431 128.203 191.431Z" fill="#F7DE83"/>
</mask>
<g mask="url(#mask1_3912_27769)">
<path fill-rule="evenodd" clip-rule="evenodd" d="M128.203 187.705C147.775 187.705 181.62 191.396 183.23 167.619C183.944 157.074 178.218 125.622 174.874 116.423C168.37 98.5285 161.721 83.6487 158.091 65.1526C156.046 54.7348 154.975 42.1974 151.546 35.9828C146.948 27.6486 137.339 26.0859 128.203 26.0859C115 26.0859 100.042 29.452 94.8156 46.9215C91.978 56.406 91.5304 61.4319 91.5304 68.9476C91.5304 69.9861 91.9891 76.5412 90.8163 81.2257C88.2452 91.4946 81.1112 108.389 78.8182 119.995C78.2573 122.833 74.1047 149.313 77.0328 167.619C80.8093 191.228 110.998 187.705 128.203 187.705Z" fill="#BEBCCB"/>
</g>
<path d="M183.726 164.006C181.386 133.984 174.177 110.564 161.128 77.2109C153.195 91.7782 126.415 92.6125 126.415 92.6125C126.415 92.6125 96.7193 91.9915 91.2914 77.6939C80.0682 106.15 75.6685 126.39 75.6685 164.006C121.172 170.88 148.289 168.931 183.726 164.006Z" fill="#515258"/>
<path d="M126.399 92.6056C126.399 92.6056 153.138 91.9206 161.059 79.9597V77.7695C161.059 77.7695 155.727 89.0575 126.399 89.0575C94.396 89.0575 91.3296 77.7695 91.3296 77.7695V80.3563C96.7492 92.0957 126.399 92.6056 126.399 92.6056Z" fill="#3D3E44"/>
<path fill-rule="evenodd" clip-rule="evenodd" d="M137.591 54.5013L157.369 52.9384L157.405 53.3106L137.627 54.8735L137.591 54.5013Z" fill="black"/>
<path d="M157.63 57.1719H137.882V57.4891H157.63V57.1719Z" fill="black"/>
<path fill-rule="evenodd" clip-rule="evenodd" d="M137.806 60.1211L157.584 61.684L157.548 62.0562L137.77 60.4933L137.806 60.1211Z" fill="black"/>
<path fill-rule="evenodd" clip-rule="evenodd" d="M123.503 54.1975L121.685 51.4786L124.739 51.1441L123.503 54.1975Z" fill="#FF9E9E"/>
<path fill-rule="evenodd" clip-rule="evenodd" d="M110.329 54.9271L90.2348 53.3642L90.1981 53.7363L110.293 55.2993L110.329 54.9271Z" fill="black"/>
<path d="M90.4788 57.6875H110.556V58.0047H90.4788V57.6875Z" fill="black"/>
<path fill-rule="evenodd" clip-rule="evenodd" d="M110.481 60.5469L90.3863 62.1098L90.4229 62.482L110.518 60.9191L110.481 60.5469Z" fill="black"/>
<path d="M113.989 48.1125C117.572 47.562 119.802 45.4509 119.307 42.4227C118.813 39.3945 115.507 37.386 111.923 37.9364C108.34 38.4869 105.58 40.3207 106.075 43.3489C106.569 46.3771 110.405 48.6629 113.989 48.1125Z" fill="white"/>
<path d="M132.948 48.1068C129.363 47.5553 127.132 45.4441 127.626 42.417C128.119 39.39 131.425 37.3831 135.01 37.9346C138.594 38.4861 141.355 40.3202 140.861 43.3473C140.368 46.3744 136.532 48.6583 132.948 48.1068Z" fill="white"/>
<path d="M115.919 43.3327C115.999 43.8197 115.778 44.4653 115.328 45.0315C114.881 45.5929 114.241 46.0349 113.545 46.1419C112.838 46.2504 112.081 46.0681 111.478 45.7206C110.869 45.3698 110.459 44.8767 110.38 44.397C110.301 43.9103 110.49 43.4128 110.894 42.9996C111.297 42.5863 111.906 42.2691 112.627 42.1583C113.36 42.0457 114.163 42.0991 114.797 42.312C115.439 42.5279 115.846 42.8827 115.919 43.3327Z" fill="#48933C" stroke="#00671E" stroke-width="0.427944"/>
<path d="M136.876 43.446C136.956 43.933 136.735 44.5786 136.285 45.1448C135.839 45.7062 135.198 46.1482 134.502 46.2552C133.795 46.3637 133.038 46.1813 132.435 45.8339C131.826 45.4831 131.416 44.99 131.337 44.5103C131.258 44.0236 131.447 43.5261 131.851 43.1128C132.254 42.6996 132.863 42.3824 133.584 42.2716C134.317 42.159 135.12 42.2123 135.754 42.4253C136.396 42.6412 136.803 42.996 136.876 43.446Z" fill="#48933C" stroke="#00671E" stroke-width="0.427944"/>
<path d="M113.258 45.4028C114.24 45.252 114.932 44.4949 114.804 43.7118C114.676 42.9286 113.777 42.416 112.795 42.5668C111.813 42.7176 111.121 43.4747 111.249 44.2578C111.377 45.041 112.277 45.5536 113.258 45.4028Z" fill="black"/>
<path d="M134.216 45.5161C135.197 45.3653 135.89 44.6082 135.762 43.825C135.634 43.0419 134.734 42.5293 133.753 42.6801C132.771 42.8309 132.079 43.588 132.207 44.3711C132.335 45.1543 133.234 45.6669 134.216 45.5161Z" fill="black"/>
<path fill-rule="evenodd" clip-rule="evenodd" d="M104.404 35.555C108.026 34.9958 110.797 34.7815 112.719 34.9119C114.64 35.0423 117.454 35.6357 121.16 36.6922L120.6 44.4642C117.171 43.1365 114.409 42.4016 112.314 42.2594C110.218 42.1172 107.395 42.473 103.844 43.327C103.439 43.3436 103.283 42.7098 103.375 41.4256C103.468 40.1413 103.811 38.1845 104.404 35.555Z" fill="#BEBCCB"/>
<path fill-rule="evenodd" clip-rule="evenodd" d="M142.53 35.5511C138.908 34.9919 136.137 34.7776 134.216 34.908C132.294 35.0384 129.48 35.6318 125.774 36.6883L126.334 44.4603C129.763 43.1326 132.525 42.3977 134.62 42.2555C136.716 42.1133 139.539 42.4691 143.09 43.3231C143.495 43.3397 143.651 42.7059 143.559 41.4217C143.466 40.1374 143.123 38.1806 142.53 35.5511Z" fill="#BEBCCB"/>
<ellipse cx="114.572" cy="44.3214" rx="0.459903" ry="0.446392" fill="white"/>
<ellipse cx="135.548" cy="43.794" rx="0.459903" ry="0.446392" fill="white"/>
<path d="M127.638 43.3671C131.847 40.1045 134.692 39.9014 140.549 42.3084C135.136 40.5838 132.285 40.696 127.638 43.3671Z" fill="#CAA952"/>
<path d="M118.994 43.3671C114.728 40.1096 111.845 39.9101 105.904 42.3245C111.394 40.5931 114.284 40.7016 118.994 43.3671Z" fill="#CAA952"/>
<path fill-rule="evenodd" clip-rule="evenodd" d="M141.084 39.5994C139.848 37.9685 136.999 37.6419 135.862 37.5766C135.541 37.5582 135.219 37.5774 134.893 37.6087C133.529 37.7399 129.713 38.0768 128.852 37.8314C128.727 37.7958 128.673 37.635 128.714 37.4836L129.073 36.1774C129.123 35.9951 129.292 35.8996 129.443 35.9431C130.652 36.2932 136.967 34.6124 138.973 36.0419C140.191 36.9096 141.084 39.5994 141.084 39.5994Z" fill="#515258"/>
<path d="M126.363 57.5303C125.391 58.8919 121.66 58.8434 120.903 57.0391" stroke="black" stroke-width="0.141609"/>
<path fill-rule="evenodd" clip-rule="evenodd" d="M106.408 40.6727C107.863 39.2335 110.729 39.3143 111.864 39.4109C112.185 39.4382 112.501 39.5029 112.818 39.58C114.15 39.9033 117.879 40.778 118.767 40.6573C118.896 40.6398 118.972 40.4882 118.953 40.3324L118.783 38.9886C118.759 38.801 118.605 38.6825 118.45 38.7043C117.203 38.8793 111.191 36.3199 109.002 37.4504C107.673 38.1367 106.408 40.6727 106.408 40.6727Z" fill="#515258"/>
<g filter="url(#filter1_d_3912_27769)">
<mask id="mask2_3912_27769" style="mask-type:alpha" maskUnits="userSpaceOnUse" x="75" y="74" width="109" height="97">
<path d="M109.765 91.1712C97.9325 86.4928 92.6115 78.21 91.1735 74.5508C91.687 79.6805 85.7298 87.0674 80.1831 112.306C75.7457 132.496 75.4581 154.917 75.869 163.603C81.2103 163.603 102.062 168.049 111.82 170.272L109.765 91.1712Z" fill="#FF385C"/>
<path d="M138.698 91.1532C152.71 86.4798 159.318 78.2061 161.021 74.5508C160.61 78.552 168.936 92.1215 175.504 117.333C180.758 137.502 184.413 155.952 183.927 164.629C175.504 161.141 153.367 167.846 141.812 170.067C141.812 170.067 143.636 146.114 143.046 130.773C142.447 115.219 138.698 91.1532 138.698 91.1532Z" fill="#FF385C"/>
</mask>
<g mask="url(#mask2_3912_27769)">
<path d="M109.765 91.1712C97.9325 86.4928 92.6115 78.21 91.1735 74.5508C91.687 79.6805 85.7298 87.0674 80.1831 112.306C75.7457 132.496 75.4581 154.917 75.869 163.603C81.2103 163.603 102.062 168.049 111.82 170.272L109.765 91.1712Z" fill="#B86070"/>
<path d="M138.7 91.1532C152.712 86.4798 159.32 78.2061 161.023 74.5508C160.612 78.552 168.938 92.1215 175.506 117.333C180.76 137.502 184.415 155.952 183.929 164.629C175.506 161.141 153.369 167.846 141.815 170.067C141.815 170.067 143.638 146.114 143.048 130.773C142.449 115.219 138.7 91.1532 138.7 91.1532Z" fill="#B86070"/>
<path d="M98.4671 79.884C94.303 98.7273 86.4855 142.159 88.5281 165.14M93.0212 75.8828C85.9344 98.3511 76.3816 151.29 81.0033 165.14M110.868 85.4241C107.677 107.379 103.209 155.107 110.868 170.373M140.321 87.7838C145.275 108.953 153.488 155.107 146.703 170.373M148.071 83.7826C153.968 104.438 164.63 150.038 160.108 167.192M154.089 79.884C160.229 97.0174 172.089 138.055 170.411 165.14M105.579 82.2437C100.838 104.849 92.7773 153.486 98.4671 167.192M158.555 75.8828C164.694 93.0162 181.084 138.055 179.406 165.14" stroke="black" stroke-opacity="0.2" stroke-width="0.563717"/>
<path d="M139.054 166.157C149.206 159.874 182.627 155.023 191.271 159.773M139.054 159.734C148.824 152.651 179.021 146.051 188.338 148.611M139.054 151.31C146.999 144.317 171.564 139.839 185.578 138.984M139.054 144.518C149.206 138.236 182.628 128.885 191.272 133.635M139.054 138.095C148.825 131.013 179.021 122.388 188.338 124.948M139.055 129.671C146.999 122.678 171.565 115.951 185.578 115.096M135.606 122.993C145.421 116.197 178.315 105.14 187.193 109.439M135.275 116.579C144.667 109.003 174.379 98.8369 183.815 100.913M134.841 108.166C142.414 100.773 166.6 92.7916 180.551 91.2171M131.987 102.495C141.802 95.6985 174.696 84.6416 183.574 88.9406M131.656 96.0805C141.048 88.505 170.759 78.3385 180.196 80.4151M131.222 87.668C138.795 80.2751 162.981 72.2933 176.932 70.7188" stroke="black" stroke-opacity="0.1" stroke-width="0.375811"/>
<path d="M115.15 166.157C104.998 159.874 71.5763 155.023 62.9322 159.773M115.15 159.734C105.379 152.651 75.1829 146.051 65.8659 148.611M115.149 151.31C107.205 144.317 82.6392 139.839 68.6259 138.984M115.149 144.518C104.997 138.236 71.576 128.885 62.9319 133.635M115.149 138.095C105.379 131.013 75.1826 122.388 65.8656 124.948M115.149 129.671C107.204 122.678 82.6389 115.951 68.6255 115.096M118.598 122.993C108.783 116.197 75.8882 105.14 67.0106 109.439M118.929 116.579C109.537 109.003 79.825 98.8369 70.3884 100.913M119.363 108.166C111.789 100.773 87.6034 92.7916 73.6527 91.2171M122.217 102.495C112.402 95.6985 79.5073 84.6416 70.6298 88.9406M122.548 96.0805C113.156 88.505 83.4442 78.3385 74.0075 80.4151M122.982 87.668C115.408 80.2751 91.2225 72.2933 77.2719 70.7188" stroke="black" stroke-opacity="0.1" stroke-width="0.375811"/>
</g>
</g>
<ellipse cx="105.86" cy="109.841" rx="1.64346" ry="1.64152" fill="#3D3E44"/>
<ellipse cx="105.86" cy="127.489" rx="1.64346" ry="1.64152" fill="#3D3E44"/>
<ellipse cx="106.067" cy="146.368" rx="1.64346" ry="1.64152" fill="#3D3E44"/>
<g filter="url(#filter2_i_3912_27769)">
<rect x="68.313" y="125.617" width="60.8258" height="39.8094" rx="7.08698" fill="#AEAEAE"/>
</g>
<g filter="url(#filter3_di_3912_27769)">
<path d="M68.313 127.872C68.313 126.627 69.3226 125.617 70.5679 125.617H126.884C128.129 125.617 129.139 126.627 129.139 127.872V142.148C129.139 146.063 125.966 149.235 122.052 149.235H75.4C71.4859 149.235 68.313 146.062 68.313 142.148V127.872Z" fill="#CCCCCC"/>
</g>
<path d="M85.8652 123.605C85.8652 121.025 87.9565 118.934 90.5362 118.934H107.369C109.948 118.934 112.04 121.025 112.04 123.605V125.618H109.065C109.526 123.347 107.791 121.224 105.474 121.224H92.6266C90.296 121.224 88.5251 123.32 88.914 125.618H85.8652V123.605Z" fill="#CCCCCC"/>
<path d="M80.332 145.223H76.5287C76.1005 145.223 75.7534 145.57 75.7534 145.998V153.508C75.7534 153.937 76.1005 154.284 76.5287 154.284H80.332C80.7602 154.284 81.1073 153.937 81.1073 153.508V145.998C81.1073 145.57 80.7602 145.223 80.332 145.223Z" fill="#EFEFEF"/>
<path d="M80.3564 150.723H76.3379C75.5995 150.723 75.001 151.321 75.001 152.06C75.001 152.798 75.5995 153.396 76.3379 153.396H80.3564C81.0948 153.396 81.6933 152.798 81.6933 152.06C81.6933 151.321 81.0948 150.723 80.3564 150.723Z" fill="#122F4A"/>
<path d="M120.036 145.223H116.233C115.805 145.223 115.458 145.57 115.458 145.998V153.508C115.458 153.937 115.805 154.284 116.233 154.284H120.036C120.464 154.284 120.811 153.937 120.811 153.508V145.998C120.811 145.57 120.464 145.223 120.036 145.223Z" fill="#EFEFEF"/>
<rect x="76.3462" y="151.465" width="0.297437" height="1.33688" fill="#EFEFEF"/>
<rect x="80.0615" y="151.465" width="0.297437" height="1.33688" fill="#EFEFEF"/>
<path d="M120.07 150.723H116.051C115.313 150.723 114.714 151.321 114.714 152.06C114.714 152.798 115.313 153.396 116.051 153.396H120.07C120.808 153.396 121.407 152.798 121.407 152.06C121.407 151.321 120.808 150.723 120.07 150.723Z" fill="#122F4A"/>
<rect x="116.05" y="151.465" width="0.297437" height="1.33688" fill="#EFEFEF"/>
<rect x="119.766" y="151.465" width="0.297437" height="1.33688" fill="#EFEFEF"/>
<path d="M72.6211 125.622C72.6211 125.048 73.0866 124.582 73.6609 124.582H80.0582C80.6325 124.582 81.098 125.048 81.098 125.622H72.6211Z" fill="#AEAEAE"/>
<path d="M115.458 125.622C115.458 125.048 115.923 124.582 116.497 124.582H122.895C123.469 124.582 123.934 125.048 123.934 125.622H115.458Z" fill="#AEAEAE"/>
<path d="M97.3521 118.835C97.3521 121.414 95.7326 123.461 93.7826 123.461C91.8326 123.461 90.2131 121.414 90.2131 118.835C90.2131 116.257 91.8326 114.21 93.7826 114.21C95.7326 114.21 97.3521 116.257 97.3521 118.835Z" fill="#BEBCCB" stroke="#816C37" stroke-width="0.19383"/>
<path d="M103.147 118.835C103.147 121.414 101.527 123.461 99.577 123.461C97.6271 123.461 96.0076 121.414 96.0076 118.835C96.0076 116.257 97.6271 114.21 99.577 114.21C101.527 114.21 103.147 116.257 103.147 118.835Z" fill="#BEBCCB" stroke="#816C37" stroke-width="0.19383"/>
<path d="M109.129 118.835C109.129 121.414 107.509 123.461 105.559 123.461C103.609 123.461 101.99 121.414 101.99 118.835C101.99 116.257 103.609 114.21 105.559 114.21C107.509 114.21 109.129 116.257 109.129 118.835Z" fill="#BEBCCB" stroke="#816C37" stroke-width="0.19383"/>
<path d="M98.9608 136.642C96.9592 136.642 94.157 139.715 94.157 141.665C94.157 142.539 94.8075 143.039 95.9334 143.039C97.1594 143.039 97.96 142.414 98.9608 142.414C99.9366 142.414 100.737 143.039 101.963 143.039C103.089 143.039 103.765 142.539 103.765 141.665C103.765 139.715 100.937 136.642 98.9608 136.642ZM95.2579 136.342C95.0077 135.467 94.207 134.917 93.4815 135.092C92.7559 135.267 92.3556 136.092 92.6308 136.966C92.881 137.841 93.6816 138.391 94.4072 138.216C95.1328 138.041 95.5331 137.216 95.2579 136.342ZM97.3845 135.817C98.1602 135.617 98.5355 134.567 98.2602 133.493C97.96 132.393 97.0843 131.693 96.3087 131.893C95.5331 132.093 95.1578 133.143 95.433 134.218C95.7332 135.317 96.6089 136.017 97.3845 135.817ZM104.415 135.092C103.69 134.917 102.889 135.467 102.639 136.342C102.364 137.216 102.764 138.041 103.489 138.216C104.215 138.391 105.016 137.841 105.266 136.966C105.541 136.092 105.141 135.267 104.415 135.092ZM100.512 135.817C101.288 136.017 102.163 135.317 102.464 134.218C102.739 133.143 102.364 132.093 101.588 131.893C100.812 131.693 99.9366 132.393 99.6363 133.493C99.3611 134.567 99.7364 135.617 100.512 135.817Z" fill="#AEAEAE"/>
<g opacity="0.08" filter="url(#filter4_f_3912_27769)">
<rect x="51.7202" y="0.847656" width="33.1143" height="34.2852" rx="16.5572" fill="#122862"/>
</g>
<ellipse cx="67.7779" cy="16.1138" rx="16.1328" ry="16.1138" fill="white"/>
<ellipse cx="67.6768" cy="15.9635" rx="12.7207" ry="12.7057" fill="#F8F9FD"/>
<path d="M66.7388 9.45567C67.1231 9.41729 67.5458 9.37891 67.9686 9.37891C70.3511 9.37891 72.4647 9.87788 73.8096 10.6072C74.7703 11.1061 75.3468 11.7586 75.3468 12.4495C75.3468 12.6031 75.3083 12.7566 75.2315 12.9101C75.0778 13.4091 74.5782 13.8697 73.8865 14.2919H73.8481C72.5031 15.0596 70.3511 15.5201 67.9686 15.5201C65.6629 15.5201 63.6262 15.0979 62.2427 14.407C62.1659 14.3687 62.1275 14.3303 62.0506 14.2919C61.1283 13.7929 60.5903 13.1404 60.5903 12.4495C60.5903 11.1445 62.627 9.99303 65.5091 9.57082C65.8934 9.49405 66.3161 9.45567 66.7388 9.45567ZM75.3468 16.1343C75.3468 16.8252 74.7703 17.4777 73.8481 17.9766C73.7712 18.015 73.7328 18.0534 73.6559 18.0918C72.2725 18.7827 70.2358 19.2049 67.9686 19.2049C65.5476 19.2049 63.3956 18.7443 62.0506 17.9766C61.1283 17.4777 60.5903 16.8252 60.5903 16.1343V14.7909C61.0515 15.1747 61.6279 15.5201 62.2427 15.7888C63.7799 16.4029 65.7781 16.7484 67.9686 16.7484C70.1205 16.7484 72.1188 16.4029 73.6559 15.7888C73.9249 15.6353 74.2324 15.5201 74.5013 15.3666C74.7319 15.2131 74.9625 15.0596 75.1546 14.906C75.2315 14.8676 75.2699 14.8293 75.3468 14.7909V16.1343ZM67.9686 20.4331C70.1205 20.4331 72.1188 20.0877 73.6559 19.4736C74.2708 19.2049 74.8472 18.8594 75.3468 18.4756V19.819C75.3468 21.5462 72.0419 22.8896 67.9686 22.8896C63.8567 22.8896 60.5903 21.5462 60.5903 19.819V18.4756C61.0515 18.8594 61.6279 19.2049 62.2427 19.4736C63.7799 20.0877 65.7781 20.4331 67.9686 20.4331Z" fill="#BCE2DF"/>
<g opacity="0.08" filter="url(#filter5_f_3912_27769)">
<rect x="176.448" y="37.1602" width="22.316" height="23.4627" rx="11.158" fill="#122862"/>
</g>
<ellipse cx="187.329" cy="47.3909" rx="10.8803" ry="10.8674" fill="white"/>
<ellipse cx="187.214" cy="47.5212" rx="8.80893" ry="8.79851" fill="#F8F9FD"/>
<path fill-rule="evenodd" clip-rule="evenodd" d="M184.862 42.4408L184.861 42.441L183.413 43.4405C183.146 43.6247 183.079 43.9899 183.263 44.2565L183.74 44.9446C183.415 45.3929 183.182 45.8942 183.046 46.4193L182.181 46.4894C181.857 46.5156 181.616 46.7986 181.643 47.1214L181.785 48.8742C181.812 49.197 182.095 49.4374 182.419 49.4112L183.298 49.3399C183.405 49.5746 183.534 49.803 183.686 50.0226C183.838 50.2421 184.006 50.4436 184.188 50.6265L183.81 51.4223C183.672 51.715 183.797 52.0647 184.09 52.2035L185.681 52.9565C185.974 53.0953 186.325 52.9705 186.464 52.6779L186.464 52.6776L186.835 51.8946C187.375 51.9532 187.927 51.9127 188.462 51.7678L188.939 52.4558C189.123 52.7224 189.489 52.7891 189.756 52.605L189.756 52.6048L191.205 51.6053C191.471 51.4211 191.538 51.0559 191.354 50.7893L190.878 50.1012C191.203 49.653 191.436 49.1517 191.572 48.6267L192.437 48.5564C192.75 48.531 192.986 48.2646 192.977 47.9545L192.975 47.9243L192.832 46.1716C192.806 45.8488 192.522 45.6083 192.199 45.6346L191.32 45.7059C191.213 45.4712 191.084 45.2427 190.932 45.0232C190.78 44.8037 190.611 44.6022 190.429 44.4193L190.807 43.6235C190.946 43.3308 190.821 42.9811 190.528 42.8423L188.936 42.0893C188.643 41.9505 188.293 42.0753 188.154 42.3679C188.154 42.368 188.154 42.368 188.154 42.3682L187.782 43.1512C187.242 43.0926 186.69 43.1331 186.155 43.278L185.679 42.59C185.494 42.3234 185.129 42.2566 184.862 42.4408Z" fill="#FFE2C1"/>
<path d="M188.979 49.9346C187.645 50.8547 185.816 50.5209 184.894 49.189C183.972 47.8571 184.306 46.0315 185.64 45.1113C186.974 44.1912 188.803 44.525 189.725 45.8569C190.647 47.1888 190.313 49.0145 188.979 49.9346Z" fill="#FFE2C1"/>
<path d="M188.812 49.6956C187.611 50.5236 185.965 50.2232 185.135 49.0245C184.305 47.8258 184.606 46.1828 185.806 45.3548C187.007 44.5267 188.653 44.8272 189.483 46.0259C190.313 47.2245 190.012 48.8675 188.812 49.6956Z" stroke="white" stroke-width="0.590202"/>
<ellipse cx="215.981" cy="167.245" rx="13.9759" ry="3.14691" fill="#335B6B"/>
<ellipse cx="215.981" cy="170.252" rx="13.9759" ry="3.14691" fill="#9F846A"/>
<g filter="url(#filter6_i_3912_27769)">
<path d="M214.877 141.78C210.637 159.338 210.274 168.677 211.076 171.34C212.359 172.405 214.145 171.784 214.877 171.34C216.074 162.599 219.187 144.749 218.434 141.78C217.68 138.81 218.515 130.216 219.48 126.477L217.527 122.645C218.531 126.066 216.481 136.952 214.877 141.78Z" fill="#B98553"/>
</g>
<path d="M202.326 119.435C201.001 119.08 194.718 118.776 191.743 118.668C192.098 120.54 198.434 120.82 201.558 120.726L200.185 121.936C195.564 121.194 192.631 123.052 191.743 124.074C192.712 122.977 195.297 123.214 196.469 123.469H201.558L204.951 125.446H201.558L196.913 127.786L197.963 133.233L199.256 129.44L203.578 129.158C203.807 129.911 204.281 131.296 204.345 130.812C204.41 130.328 205.072 127.947 205.395 126.818C205.853 127.773 206.769 129.787 206.769 130.207C206.769 130.626 205.557 133.313 204.951 134.604L208.425 129.682L211.333 130.812L208.425 132.184L214.686 133.233C212.262 133.588 211.441 136.474 211.333 137.872H212.343L211.333 141.06L213.393 138.477V141.06L215.615 139.607L218.281 142.512L217.715 138.477C218.135 139.639 221.283 140.683 222.805 141.06L220.462 138.477H222.805C223.16 136.347 221.391 134.497 220.462 133.838C221.472 133.838 223.71 133.717 224.582 133.233C225.454 132.748 222.199 132.17 220.462 131.942L222.36 131.498L219.775 130.045V128.311L222.805 130.045L223.491 131.942L224.582 130.812L226.844 135.895L227.288 133.838L229.752 135.895L227.288 130.812L233.064 131.942L235.811 130.045L233.064 128.835C234.389 126.995 232.512 124.491 231.408 123.469C233.121 122.501 232.122 119.865 231.408 118.668L230.358 115.562L233.67 116.328L230.802 113.504C232.03 112.568 237.077 115.857 239.447 117.619C238.154 113.617 232.122 112.67 229.268 112.697V110.801L225.188 113.504L224.582 110.801C223.128 111.898 221.229 114.943 220.462 116.328L216.14 117.619C217.174 116.78 216.221 114.983 215.615 114.19C213.934 114.061 208.479 115.051 205.961 115.562L207.779 118.668L201.558 117.619L202.326 119.435Z" fill="#3DAC93"/>
<path d="M222.126 120.792C221.318 119.058 221.779 114.944 227.66 112.652C228.589 113.459 228.398 118.581 226.287 119.309C224.839 119.809 224.004 120.338 223.277 120.613L225.357 120.237C227.377 119.793 228.589 118.906 232.628 119.672C233.786 119.892 234.661 120.6 235.375 120.923C233.113 121.69 228.128 123.053 226.287 122.375C224.445 121.698 221.964 120.963 221.561 120.923L222.236 120.801C222.2 120.799 222.163 120.796 222.126 120.792Z" fill="#6DFFDD"/>
<path d="M216.184 114.148C218.026 114.794 220.897 118.802 222.122 120.604L221.758 121.33L219.738 120.362C218.406 119.306 216.485 117.352 216.184 116.448C215.78 115.238 212.427 112.252 213.074 111.566C213.127 111.672 213.193 111.793 213.272 111.927C213.849 112.708 215.384 113.697 216.184 114.148Z" fill="#328C77"/>
<g filter="url(#filter7_i_3912_27769)">
<path d="M216.4 143.578L216.393 143.181C216.312 138.605 217.035 134.061 217.884 129.563C218.459 126.518 218.568 124.372 218.441 122.914C218.277 121.026 216.83 119.556 215.624 118.094C218.499 122.725 215.379 133.306 213.823 139.302C212.578 144.099 213.145 162.365 214.679 171.92H219.482C219.482 171.92 219.201 168.438 218.724 166.07C218.352 164.223 217.453 161.115 217.453 161.115C216.679 159.344 216.531 150.969 216.4 143.578Z" fill="#C2976E"/>
</g>
<path d="M229.96 167.143C229.96 168.881 223.702 170.29 215.984 170.29C208.265 170.29 202.008 168.881 202.008 167.143C202.008 166.19 199.037 176.569 202.01 181.757C204.458 186.028 210.389 187.435 215.984 187.598C221.774 187.767 228.15 186.665 230.598 182.394C233.571 177.206 229.96 166.19 229.96 167.143Z" fill="#50849A"/>
<path d="M228.949 132.549C229.949 133.314 234.515 136.235 235.613 137.833C236.417 139.003 237.788 140.152 238.158 140.779C239.612 142.86 239.491 144.934 239.49 145.983C236.421 142.11 237.804 144.801 234.522 141.118C231.241 137.436 228.402 133.169 228.949 132.549Z" fill="#6DFFDD"/>
<path d="M242.071 137.271C240.679 138.053 234.222 136.337 229.347 132.43L229.148 131.393C229.266 131.41 229.395 131.434 229.534 131.465C230.047 131.546 230.915 131.575 231.973 130.897C233.141 130.148 236.795 131.529 238.785 132.55C239.45 132.891 239.958 133.456 240.32 134.11L242.071 137.271Z" fill="#6DFFDD"/>
<path d="M209.594 115.137C211.095 115.404 214.274 116.082 214.973 116.656C215.846 117.374 228.804 124.97 229.957 132.482C227.756 130.611 224.054 126.7 222.727 125.814C222.163 125.438 216.649 122.058 214.169 118.218C213.862 117.779 210.967 116.234 209.559 115.517L209.576 115.327L209.594 115.137Z" fill="#5AD8BB"/>
<path d="M209.803 115.038C211.54 113.639 215.482 110.89 217.356 111.084C219.23 111.278 222.446 111.165 223.819 111.084C222.661 111.353 220.046 112.109 218.851 112.98C217.655 113.852 214.044 114.07 212.388 114.07L209.803 115.038Z" fill="#6DFFDD"/>
<path d="M205.56 117.742C206.271 117.613 208.522 115.886 209.559 115.039C208.881 116.04 202.975 122.503 200.107 125.609C199.286 126.389 197.457 128.313 196.714 129.765C195.971 131.217 192.607 135.669 191.019 137.713C191.173 137.389 191.346 137.032 191.536 136.649C192.004 135.537 192.484 133.945 192.392 132.468C192.263 130.402 194.439 127.304 195.543 126.013C196.647 125.139 199.025 123.076 199.703 121.817C200.551 120.244 204.671 117.904 205.56 117.742Z" fill="#6DFFDD"/>
<path d="M213.553 138.57C213.795 140.036 213.94 143.517 212.583 145.711C211.226 147.906 209.594 150.069 208.948 150.876C207.576 151.964 204.944 154.323 204.43 155.761C204.397 155.904 204.368 156.038 204.343 156.161C203.629 155.058 202.63 151.424 204.343 145.711C206.056 139.999 211.196 138.57 213.553 138.57Z" fill="#5AD8BB"/>
<path d="M222.559 148.82C219.624 148.282 213.616 145.617 213.067 139.258V137.766C213.075 137.772 213.084 137.779 213.092 137.786C213.496 138.099 215.009 138.799 218.076 139.258C221.21 139.728 222.775 143.166 223.165 144.826L222.559 148.82Z" fill="#6DFFDD"/>
<path d="M208.986 136.835C206.918 135.802 207.02 133.015 207.33 131.751C208.326 131.698 210.674 131.856 212.096 132.921C213.874 134.253 214.035 136.068 213.308 137.682C212.729 137.83 211.054 137.868 208.986 136.835Z" fill="#6DFFDD"/>
<path d="M212.705 137.359L213.916 138.085C213.337 138.247 211.703 138.747 211.574 139.457C211.444 140.167 206.538 141.905 204.101 142.685C201.974 143.169 197.024 143.911 194.245 143.008C194.444 142.95 194.653 142.89 194.87 142.828C195.625 142.439 196.634 141.519 197.153 140.99C199.617 139.054 200.748 138.61 204.101 137.359C206.783 136.359 211.089 136.7 212.705 137.359Z" fill="#3DAC93"/>
<path d="M213.838 137.91C214.29 137.996 214.997 137.946 215.452 137.278C216.138 136.269 218.481 135.462 222.44 137.56C223.355 138.112 225.227 139.36 225.388 139.941C224.516 140.877 222.44 141.03 221.511 140.99C218.118 142.345 214.819 139.457 213.594 137.843C213.669 137.864 213.751 137.887 213.838 137.91Z" fill="#5AD8BB"/>
<path d="M219.001 124.506C219.308 125.749 219.783 128.733 219.23 130.726C218.677 132.718 217.958 134.704 217.668 135.448C216.982 136.489 215.696 138.721 215.554 139.997C215.551 140.123 215.549 140.24 215.548 140.348C215.004 139.453 214.009 136.402 214.377 131.355C214.746 126.307 217.613 124.686 219.001 124.506Z" fill="#6DFFDD"/>
<path d="M229.926 134.083C227.336 133.937 220.001 130.711 218.798 125.168L218.627 123.852C218.635 123.856 218.643 123.861 218.65 123.866C219.034 124.097 220.417 124.546 223.112 124.608C225.866 124.672 227.608 127.528 228.135 128.948L229.926 134.083Z" fill="#328C77"/>
<path d="M215.746 123.466C214.211 122.269 209.97 122.174 209.97 122.174C209.97 122.174 213.837 121.433 215.302 121.813C216.803 122.202 218.982 122.385 218.735 123.83C218.41 124.002 216.945 124.402 215.746 123.466Z" fill="#5AD8BB"/>
<path d="M218.206 124.185L218.896 124.095C218.573 124.278 217.928 124.8 217.931 125.421C217.934 126.042 215.239 127.912 213.891 128.77C212.692 129.349 209.86 130.366 208.122 129.8C208.234 129.734 208.352 129.665 208.473 129.594C208.873 129.2 209.363 128.335 209.609 127.842C210.843 125.986 211.46 125.518 213.294 124.186C214.762 123.119 217.18 123.741 218.206 124.185Z" fill="#5AD8BB"/>
<path d="M217.67 123.658C218.036 123.706 218.933 122.857 220.109 122.858C221.019 122.858 223.375 122.318 226.918 123.655C227.738 124.008 229.416 124.811 229.567 125.196C228.804 125.836 226.961 125.972 226.136 125.961C223.139 126.922 218.754 124.711 217.645 123.653C217.653 123.655 217.662 123.657 217.67 123.658Z" fill="#3DAC93"/>
<path d="M209.554 115.16C209.554 118.347 208.625 125.553 204.909 128.877C204.21 130.297 202.91 133.126 202.65 134.359C202.622 134.557 202.607 134.7 202.607 134.768C202.472 133.894 202.284 131.71 202.607 129.967C203.011 127.788 206.201 121.293 206.929 119.961C207.51 118.896 208.921 116.317 209.554 115.16Z" fill="#328C77"/>
<path d="M209.553 115.398L209.265 115.229C208.341 115.071 205.993 116.71 204.746 115.963C203.615 115.285 204.275 113.421 204.746 112.574C205.224 111.186 206.938 111.054 207.735 111.162C208.516 111.417 210.49 112.816 209.553 115.398Z" fill="#328C77"/>
</g>
<defs>
<filter id="filter0_i_3912_27769" x="30.6875" y="65.1562" width="50.652" height="104.24" filterUnits="userSpaceOnUse" color-interpolation-filters="sRGB">
<feFlood flood-opacity="0" result="BackgroundImageFix"/>
<feBlend mode="normal" in="SourceGraphic" in2="BackgroundImageFix" result="shape"/>
<feColorMatrix in="SourceAlpha" type="matrix" values="0 0 0 0 0 0 0 0 0 0 0 0 0 0 0 0 0 0 127 0" result="hardAlpha"/>
<feOffset dx="1.31534" dy="0.751622"/>
<feGaussianBlur stdDeviation="0.375811"/>
<feComposite in2="hardAlpha" operator="arithmetic" k2="-1" k3="1"/>
<feColorMatrix type="matrix" values="0 0 0 0 0.858333 0 0 0 0 0.858333 0 0 0 0 0.858333 0 0 0 0.11 0"/>
<feBlend mode="normal" in2="shape" result="effect1_innerShadow_3912_27769"/>
</filter>
<filter id="filter1_d_3912_27769" x="74.6065" y="74.175" width="110.491" height="97.9775" filterUnits="userSpaceOnUse" color-interpolation-filters="sRGB">
<feFlood flood-opacity="0" result="BackgroundImageFix"/>
<feColorMatrix in="SourceAlpha" type="matrix" values="0 0 0 0 0 0 0 0 0 0 0 0 0 0 0 0 0 0 127 0" result="hardAlpha"/>
<feOffset dy="0.751622"/>
<feGaussianBlur stdDeviation="0.563717"/>
<feComposite in2="hardAlpha" operator="out"/>
<feColorMatrix type="matrix" values="0 0 0 0 0 0 0 0 0 0 0 0 0 0 0 0 0 0 0.15 0"/>
<feBlend mode="normal" in2="BackgroundImageFix" result="effect1_dropShadow_3912_27769"/>
<feBlend mode="normal" in="SourceGraphic" in2="effect1_dropShadow_3912_27769" result="shape"/>
</filter>
<filter id="filter2_i_3912_27769" x="67.6687" y="125.617" width="61.47" height="40.4529" filterUnits="userSpaceOnUse" color-interpolation-filters="sRGB">
<feFlood flood-opacity="0" result="BackgroundImageFix"/>
<feBlend mode="normal" in="SourceGraphic" in2="BackgroundImageFix" result="shape"/>
<feColorMatrix in="SourceAlpha" type="matrix" values="0 0 0 0 0 0 0 0 0 0 0 0 0 0 0 0 0 0 127 0" result="hardAlpha"/>
<feOffset dx="-1.28854" dy="0.644271"/>
<feGaussianBlur stdDeviation="0.322135"/>
<feComposite in2="hardAlpha" operator="arithmetic" k2="-1" k3="1"/>
<feColorMatrix type="matrix" values="0 0 0 0 0 0 0 0 0 0 0 0 0 0 0 0 0 0 0.1 0"/>
<feBlend mode="normal" in2="shape" result="effect1_innerShadow_3912_27769"/>
</filter>
<filter id="filter3_di_3912_27769" x="67.6687" y="125.617" width="61.631" height="24.4225" filterUnits="userSpaceOnUse" color-interpolation-filters="sRGB">
<feFlood flood-opacity="0" result="BackgroundImageFix"/>
<feColorMatrix in="SourceAlpha" type="matrix" values="0 0 0 0 0 0 0 0 0 0 0 0 0 0 0 0 0 0 127 0" result="hardAlpha"/>
<feOffset dy="0.644271"/>
<feGaussianBlur stdDeviation="0.0805339"/>
<feComposite in2="hardAlpha" operator="out"/>
<feColorMatrix type="matrix" values="0 0 0 0 0 0 0 0 0 0 0 0 0 0 0 0 0 0 0.25 0"/>
<feBlend mode="normal" in2="BackgroundImageFix" result="effect1_dropShadow_3912_27769"/>
<feBlend mode="normal" in="SourceGraphic" in2="effect1_dropShadow_3912_27769" result="shape"/>
<feColorMatrix in="SourceAlpha" type="matrix" values="0 0 0 0 0 0 0 0 0 0 0 0 0 0 0 0 0 0 127 0" result="hardAlpha"/>
<feOffset dx="-1.28854"/>
<feGaussianBlur stdDeviation="0.322135"/>
<feComposite in2="hardAlpha" operator="arithmetic" k2="-1" k3="1"/>
<feColorMatrix type="matrix" values="0 0 0 0 0 0 0 0 0 0 0 0 0 0 0 0 0 0 0.1 0"/>
<feBlend mode="normal" in2="shape" result="effect2_innerShadow_3912_27769"/>
</filter>
<filter id="filter4_f_3912_27769" x="49.011" y="-1.86156" width="38.5327" height="39.7036" filterUnits="userSpaceOnUse" color-interpolation-filters="sRGB">
<feFlood flood-opacity="0" result="BackgroundImageFix"/>
<feBlend mode="normal" in="SourceGraphic" in2="BackgroundImageFix" result="shape"/>
<feGaussianBlur stdDeviation="1.35461" result="effect1_foregroundBlur_3912_27769"/>
</filter>
<filter id="filter5_f_3912_27769" x="174.621" y="35.333" width="25.9702" height="27.1152" filterUnits="userSpaceOnUse" color-interpolation-filters="sRGB">
<feFlood flood-opacity="0" result="BackgroundImageFix"/>
<feBlend mode="normal" in="SourceGraphic" in2="BackgroundImageFix" result="shape"/>
<feGaussianBlur stdDeviation="0.913577" result="effect1_foregroundBlur_3912_27769"/>
</filter>
<filter id="filter6_i_3912_27769" x="210.734" y="122.645" width="8.74561" height="49.2852" filterUnits="userSpaceOnUse" color-interpolation-filters="sRGB">
<feFlood flood-opacity="0" result="BackgroundImageFix"/>
<feBlend mode="normal" in="SourceGraphic" in2="BackgroundImageFix" result="shape"/>
<feColorMatrix in="SourceAlpha" type="matrix" values="0 0 0 0 0 0 0 0 0 0 0 0 0 0 0 0 0 0 127 0" result="hardAlpha"/>
<feOffset dx="-0.899875" dy="1.17676"/>
<feComposite in2="hardAlpha" operator="arithmetic" k2="-1" k3="1"/>
<feColorMatrix type="matrix" values="0 0 0 0 0 0 0 0 0 0 0 0 0 0 0 0 0 0 0.15 0"/>
<feBlend mode="normal" in2="shape" result="effect1_innerShadow_3912_27769"/>
</filter>
<filter id="filter7_i_3912_27769" x="213.142" y="118.094" width="6.33984" height="53.8281" filterUnits="userSpaceOnUse" color-interpolation-filters="sRGB">
<feFlood flood-opacity="0" result="BackgroundImageFix"/>
<feBlend mode="normal" in="SourceGraphic" in2="BackgroundImageFix" result="shape"/>
<feColorMatrix in="SourceAlpha" type="matrix" values="0 0 0 0 0 0 0 0 0 0 0 0 0 0 0 0 0 0 127 0" result="hardAlpha"/>
<feOffset dx="-0.761433" dy="-1.66131"/>
<feComposite in2="hardAlpha" operator="arithmetic" k2="-1" k3="1"/>
<feColorMatrix type="matrix" values="0 0 0 0 0 0 0 0 0 0 0 0 0 0 0 0 0 0 0.15 0"/>
<feBlend mode="normal" in2="shape" result="effect1_innerShadow_3912_27769"/>
</filter>
<clipPath id="clip0_3912_27769">
<rect width="289" height="170" fill="white"/>
</clipPath>
</defs>
</svg>
