<svg width="94" height="59" viewBox="0 0 94 59" fill="none" xmlns="http://www.w3.org/2000/svg">
<path d="M37.982 45.2689L15.8506 58.5429L22.4776 28.1465L37.982 45.2689Z" fill="#E46E77"/>
<path d="M24.1004 34.4187L55.1398 58.6747C55.3071 58.8054 55.5002 58.9 55.7065 58.9525C55.9129 59.0049 56.1281 59.0141 56.3383 58.9793C56.5484 58.9445 56.7489 58.8666 56.9269 58.7506C57.1049 58.6345 57.2565 58.4829 57.3718 58.3054L93.7526 2.33626C94.4622 1.24454 93.5474 -0.168081 92.2501 0.0163663L1.3134 12.9503C-0.00983632 13.1395 -0.468957 14.7984 0.571113 15.6297L24.1004 34.4187Z" fill="#F97F88"/>
<path d="M15.2666 27.3674L15.8498 58.5429L24.1 34.4209L93.2344 0.684394C93.4121 0.597767 93.2996 0.331989 93.1126 0.39672L15.2666 27.3674Z" fill="#FA99A0"/>
</svg>
