<svg width="24" height="24" viewBox="0 0 24 24" fill="none" xmlns="http://www.w3.org/2000/svg">
<path d="M22.2857 0H1.66071C0.75 0 0 0.803571 0 1.76786V22.2857C0 23.25 0.75 24 1.66071 24H22.2857C23.1964 24 24 23.25 24 22.2857V1.76786C24 0.803571 23.1964 0 22.2857 0ZM7.23214 20.5714H3.69643V9.16071H7.23214V20.5714ZM5.46429 7.55357C4.28571 7.55357 3.375 6.64286 3.375 5.51786C3.375 4.39286 4.28571 3.42857 5.46429 3.42857C6.58929 3.42857 7.5 4.39286 7.5 5.51786C7.5 6.64286 6.58929 7.55357 5.46429 7.55357ZM20.5714 20.5714H16.9821V15C16.9821 13.7143 16.9821 12 15.1607 12C13.2857 12 13.0179 13.4464 13.0179 14.9464V20.5714H9.48214V9.16071H12.8571V10.7143H12.9107C13.3929 9.80357 14.5714 8.83929 16.2857 8.83929C19.875 8.83929 20.5714 11.25 20.5714 14.3036V20.5714Z" fill="#01082D"/>
</svg>
