<svg width="24" height="24" viewBox="0 0 24 24" fill="none" xmlns="http://www.w3.org/2000/svg">
<mask id="mask0_3322_29907" style="mask-type:alpha" maskUnits="userSpaceOnUse" x="0" y="0" width="24" height="24">
<rect width="24" height="24" fill="#D9D9D9"/>
</mask>
<g mask="url(#mask0_3322_29907)">
<path d="M11.1949 12.237L3.26843 16.2718C2.32042 16.7543 2.31602 18.1072 3.26088 18.5959L11.1875 22.6958C11.5571 22.887 11.9957 22.8906 12.3684 22.7056L20.6252 18.6057C21.5956 18.1238 21.5912 16.738 20.6178 16.2623L12.3609 12.2274C11.9923 12.0473 11.5605 12.0509 11.1949 12.237Z" fill="#35C89F"/>
<path fill-rule="evenodd" clip-rule="evenodd" d="M10.7688 13.6837C13.9864 14.5331 17.2937 12.6518 18.1558 9.4818C19.018 6.31177 17.1085 3.05336 13.8909 2.20396C10.6733 1.35455 7.36604 3.23579 6.50389 6.40582C5.64174 9.57586 7.5512 12.8343 10.7688 13.6837ZM11.6786 10.4391C13.0775 10.8084 14.5154 9.99046 14.8903 8.61223C15.2651 7.234 14.4349 5.81734 13.036 5.44805C11.6371 5.07875 10.1992 5.89666 9.82438 7.27489C9.44954 8.65312 10.2797 10.0698 11.6786 10.4391Z" fill="#5C62F9"/>
<path d="M12.6469 17.1466L16.7717 11.9366C17.001 11.6469 16.7915 11.2241 16.4186 11.2241L8.16904 11.2241C7.79614 11.2241 7.58662 11.6469 7.81597 11.9366L11.9407 17.1466C12.12 17.373 12.4676 17.373 12.6469 17.1466Z" fill="#5C62F9"/>
</g>
</svg>
