<svg width="57" height="57" viewBox="0 0 57 57" fill="none" xmlns="http://www.w3.org/2000/svg">
<path d="M27.0331 15.6172L42.7716 31.2793L37.1058 36.9176L21.3672 21.2555L27.0331 15.6172Z" fill="#5C62F9"/>
<path d="M44.3681 9.60968C45.2031 8.78121 45.2121 7.4216 44.2752 6.70917C38.1104 2.02138 29.2592 2.47424 23.6126 8.07678C17.966 13.6793 17.4847 22.4862 22.1771 28.6349C22.8902 29.5693 24.2565 29.5643 25.0915 28.7359L44.3681 9.60968Z" fill="#F97F88"/>
<path d="M48.3487 12.6914C49.1825 11.8617 50.5487 11.8547 51.2633 12.7881C55.9648 18.9298 55.4966 27.7374 49.8584 33.3482C44.2201 38.9591 35.3695 39.425 29.1978 34.7463C28.2598 34.0353 28.2668 32.6756 29.1006 31.8459L48.3487 12.6914Z" fill="#F97F88"/>
<rect width="34.6456" height="12.8931" rx="2.5861" transform="matrix(0.708021 -0.706191 0.720429 0.693528 0 48.0586)" fill="#5C62F9"/>
</svg>
