<svg width="81" height="80" viewBox="0 0 81 80" fill="none" xmlns="http://www.w3.org/2000/svg">
<circle cx="40.5" cy="40" r="40" fill="#35C89F"/>
<path d="M35.44 33.623C36.8693 33.623 37.9786 34.1297 38.768 35.143C39.5573 36.1457 39.952 37.5644 39.952 39.399C39.952 41.2337 39.5573 42.6577 38.768 43.671C37.9786 44.6737 36.8693 45.175 35.44 45.175C34.0213 45.175 32.912 44.6737 32.112 43.671C31.3226 42.6684 30.928 41.2444 30.928 39.399C30.928 37.5537 31.3226 36.1297 32.112 35.127C32.912 34.1244 34.0213 33.623 35.44 33.623ZM33.104 42.823C33.6693 43.5484 34.448 43.911 35.44 43.911C36.432 43.911 37.2053 43.5484 37.76 42.823C38.3253 42.087 38.608 40.9457 38.608 39.399C38.608 37.8524 38.3253 36.7164 37.76 35.991C37.2053 35.255 36.432 34.887 35.44 34.887C34.448 34.887 33.6693 35.255 33.104 35.991C32.5493 36.7164 32.272 37.8524 32.272 39.399C32.272 40.9457 32.5493 42.087 33.104 42.823Z" fill="white"/>
<path d="M49.854 43.719V44.999H41.454V44.039L44.702 41.207C46.206 39.895 47.166 38.999 47.582 38.519C48.0086 38.039 48.222 37.527 48.222 36.983C48.222 36.3644 47.9926 35.863 47.534 35.479C47.0753 35.0844 46.462 34.887 45.694 34.887C44.926 34.887 44.3073 35.095 43.838 35.511C43.3686 35.9164 43.054 36.4924 42.894 37.239H41.55C41.71 36.1297 42.1686 35.2497 42.926 34.599C43.6833 33.9484 44.6273 33.623 45.758 33.623C46.8886 33.623 47.8006 33.9377 48.494 34.567C49.198 35.1964 49.55 35.9857 49.55 36.935C49.55 37.703 49.294 38.3964 48.782 39.015C48.2806 39.623 47.2833 40.5724 45.79 41.863L43.646 43.719H49.854Z" fill="white"/>
</svg>
