<svg width="81" height="80" viewBox="0 0 81 80" fill="none" xmlns="http://www.w3.org/2000/svg">
<rect x="40.5" width="56.5685" height="56.5685" rx="4.05937" transform="rotate(45 40.5 0)" fill="#5C62F9"/>
<path d="M36.44 33.623C37.8693 33.623 38.9786 34.1297 39.768 35.143C40.5573 36.1457 40.952 37.5644 40.952 39.399C40.952 41.2337 40.5573 42.6577 39.768 43.671C38.9786 44.6737 37.8693 45.175 36.44 45.175C35.0213 45.175 33.912 44.6737 33.112 43.671C32.3226 42.6684 31.928 41.2444 31.928 39.399C31.928 37.5537 32.3226 36.1297 33.112 35.127C33.912 34.1244 35.0213 33.623 36.44 33.623ZM34.104 42.823C34.6693 43.5484 35.448 43.911 36.44 43.911C37.432 43.911 38.2053 43.5484 38.76 42.823C39.3253 42.087 39.608 40.9457 39.608 39.399C39.608 37.8524 39.3253 36.7164 38.76 35.991C38.2053 35.255 37.432 34.887 36.44 34.887C35.448 34.887 34.6693 35.255 34.104 35.991C33.5493 36.7164 33.272 37.8524 33.272 39.399C33.272 40.9457 33.5493 42.087 34.104 42.823Z" fill="white"/>
<path d="M45.8712 33.799H46.4792V44.999H45.1512V35.351L42.5752 36.391V35.079L45.8712 33.799Z" fill="white"/>
</svg>
