<svg width="63" height="80" viewBox="0 0 63 80" fill="none" xmlns="http://www.w3.org/2000/svg">
<path d="M0.785368 68.9099C-0.840964 71.7689 0.115801 75.4689 3.1252 76.7216C22.927 84.9642 46.1757 77.2845 57.1737 57.9507C68.1717 38.6168 63.1001 14.3421 46.1661 1.05809C43.5925 -0.960753 39.9571 0.0482768 38.3307 2.90728L0.785368 68.9099Z" fill="#F97F88"/>
<path d="M37.44 37.623C38.8693 37.623 39.9786 38.1297 40.768 39.143C41.5573 40.1457 41.952 41.5644 41.952 43.399C41.952 45.2337 41.5573 46.6577 40.768 47.671C39.9786 48.6737 38.8693 49.175 37.44 49.175C36.0213 49.175 34.912 48.6737 34.112 47.671C33.3226 46.6684 32.928 45.2444 32.928 43.399C32.928 41.5537 33.3226 40.1297 34.112 39.127C34.912 38.1244 36.0213 37.623 37.44 37.623ZM35.104 46.823C35.6693 47.5484 36.448 47.911 37.44 47.911C38.432 47.911 39.2053 47.5484 39.76 46.823C40.3253 46.087 40.608 44.9457 40.608 43.399C40.608 41.8524 40.3253 40.7164 39.76 39.991C39.2053 39.255 38.432 38.887 37.44 38.887C36.448 38.887 35.6693 39.255 35.104 39.991C34.5493 40.7164 34.272 41.8524 34.272 43.399C34.272 44.9457 34.5493 46.087 35.104 46.823Z" fill="white"/>
<path d="M52.395 45.063V46.311H50.747V48.999H49.419V46.311H43.419V45.063L48.763 37.799H50.747V45.063H52.395ZM44.891 45.047L49.419 45.063V39.047H49.291L44.891 45.047Z" fill="white"/>
</svg>
