<svg width="50" height="56" viewBox="0 0 50 56" fill="none" xmlns="http://www.w3.org/2000/svg">
<path d="M12.8125 31.4984C12.8211 34.0382 13.1392 36.5676 13.7597 39.0304H23.6599V24.5469H13.6222C13.0941 26.8266 12.8225 29.1583 12.8125 31.4984Z" fill="#F97F88"/>
<path d="M26.2656 24.5469V39.0304H36.1658C36.8121 36.5707 37.1559 34.0414 37.1894 31.4984C37.1844 29.1588 36.9179 26.8272 36.395 24.5469H26.2656Z" fill="#FFCC00"/>
<path d="M24.9605 7.05469C20.1257 7.05469 15.3996 8.48835 11.3797 11.1744C7.35972 13.8604 4.22656 17.6782 2.37639 22.1449C0.526216 26.6116 0.0421272 31.5266 0.985337 36.2685C1.92855 41.0103 4.25669 45.366 7.67536 48.7846C11.094 52.2033 15.4497 54.5315 20.1915 55.4747C24.9334 56.4179 29.8484 55.9338 34.3151 54.0836C38.7818 52.2334 42.5996 49.1003 45.2856 45.0804C47.9717 41.0604 49.4053 36.3343 49.4053 31.4995C49.4053 25.0164 46.8299 18.7987 42.2456 14.2144C37.6613 9.63012 31.4437 7.05469 24.9605 7.05469ZM43.6302 41.7511H38.0996C37.0539 45.0249 35.5078 48.1171 33.5162 50.9179C32.0465 51.5584 30.5088 52.03 28.9328 52.3235C31.7553 49.2564 33.9277 45.6497 35.319 41.7205H26.2744V52.6443H23.6924V41.7511H14.602C15.9914 45.6856 18.1639 49.2978 20.9882 52.3693C19.4446 52.079 17.9381 51.6178 16.4965 50.9943C14.4978 48.17 12.9515 45.0515 11.913 41.7511H6.29073C5.80266 40.8607 5.37889 39.9366 5.02265 38.9858H11.1339C10.5612 36.531 10.264 34.0201 10.2477 31.4995C10.2486 29.1631 10.4944 26.8332 10.9811 24.548H4.73237C5.05366 23.6 5.44168 22.6759 5.8935 21.7827H11.7144C12.8066 18.1451 14.5005 14.7161 16.7256 11.6381C18.1367 11.0534 19.6068 10.6231 21.1104 10.3547C18.0711 13.6167 15.7774 17.5004 14.3881 21.7369H23.6924V10.1103H26.2744V21.7827H35.5787C34.1919 17.553 31.9036 13.6748 28.8716 10.4159C30.3728 10.6649 31.8429 11.0746 33.2564 11.6381C35.4686 14.6939 37.157 18.0964 38.2524 21.7063H44.0122C44.464 22.5995 44.852 23.5236 45.1733 24.4716H38.9704C39.4676 26.7812 39.7186 29.137 39.719 31.4995C39.7112 34.0349 39.4191 36.5613 38.8482 39.0316H44.9594C44.5814 39.9685 44.1372 40.8773 43.6302 41.7511Z" fill="#2EC499"/>
<path fill-rule="evenodd" clip-rule="evenodd" d="M36.0401 16.0175C40.386 17.182 44.8531 14.603 46.0175 10.2571C47.182 5.91115 44.603 1.44409 40.2571 0.279609C35.9112 -0.884874 31.4441 1.69418 30.2796 6.04009C29.1151 10.386 31.6942 14.8531 36.0401 16.0175ZM37.2667 11.5694C39.1561 12.0757 41.0983 10.9544 41.6046 9.06492C42.1108 7.17545 40.9895 5.23331 39.1001 4.72703C37.2106 4.22075 35.2685 5.34205 34.7622 7.23151C34.2559 9.12098 35.3772 11.0631 37.2667 11.5694Z" fill="#5C62F9"/>
<path d="M38.581 20.7672L44.1522 13.6246C44.462 13.2275 44.179 12.6478 43.6753 12.6478L32.5329 12.6478C32.0292 12.6478 31.7463 13.2275 32.056 13.6246L37.6272 20.7672C37.8694 21.0776 38.3389 21.0776 38.581 20.7672Z" fill="#5C62F9"/>
</svg>
