<svg width="47" height="56" viewBox="0 0 47 56" fill="none" xmlns="http://www.w3.org/2000/svg">
<rect y="9.08594" width="46.914" height="46.914" rx="1.76863" fill="#FFCC00"/>
<circle cx="2.78146" cy="2.78146" r="2.78146" fill="#5C62F9"/>
<circle cx="10.9377" cy="2.78146" r="2.78146" fill="#5C62F9"/>
<circle cx="19.1018" cy="2.78146" r="2.78146" fill="#5C62F9"/>
<path d="M6.72184 33.4317L19.5187 43.4133C20.2303 43.9684 21.2688 43.4613 21.2688 42.5589L21.2688 22.5957C21.2688 21.6933 20.2303 21.1863 19.5187 21.7413L6.72184 31.7229C6.16564 32.1567 6.16564 32.9979 6.72184 33.4317Z" fill="#2EC499"/>
<path d="M40.3172 33.4317L27.5203 43.4133C26.8088 43.9684 25.7703 43.4613 25.7703 42.5589L25.7703 22.5957C25.7703 21.6933 26.8088 21.1863 27.5203 21.7413L40.3172 31.7229C40.8734 32.1567 40.8734 32.9979 40.3172 33.4317Z" fill="#5C62F9"/>
</svg>
