<svg width="53" height="80" viewBox="0 0 53 80" fill="none" xmlns="http://www.w3.org/2000/svg">
<path d="M51.5225 43.0881L6.19832 79.1644C3.67815 81.1704 1.52588e-05 79.3379 1.52588e-05 76.0763L0 3.92368C0 0.662129 3.67814 -1.17038 6.19831 0.835574L51.5225 36.9119C53.4925 38.4799 53.4925 41.5201 51.5225 43.0881Z" fill="#FFCC00"/>
<path d="M21.44 34.624C22.8693 34.624 23.9787 35.1307 24.768 36.144C25.5573 37.1467 25.952 38.5653 25.952 40.4C25.952 42.2347 25.5573 43.6587 24.768 44.672C23.9787 45.6747 22.8693 46.176 21.44 46.176C20.0213 46.176 18.912 45.6747 18.112 44.672C17.3227 43.6693 16.928 42.2453 16.928 40.4C16.928 38.5547 17.3227 37.1307 18.112 36.128C18.912 35.1253 20.0213 34.624 21.44 34.624ZM19.104 43.824C19.6693 44.5493 20.448 44.912 21.44 44.912C22.432 44.912 23.2053 44.5493 23.76 43.824C24.3253 43.088 24.608 41.9467 24.608 40.4C24.608 38.8533 24.3253 37.7173 23.76 36.992C23.2053 36.256 22.432 35.888 21.44 35.888C20.448 35.888 19.6693 36.256 19.104 36.992C18.5493 37.7173 18.272 38.8533 18.272 40.4C18.272 41.9467 18.5493 43.088 19.104 43.824ZM33.979 40.096C34.6083 40.2987 35.0937 40.64 35.435 41.12C35.787 41.6 35.963 42.1813 35.963 42.864C35.963 43.8773 35.595 44.6827 34.859 45.28C34.123 45.8773 33.1577 46.176 31.963 46.176C30.811 46.176 29.8297 45.888 29.019 45.312C28.219 44.736 27.739 43.8987 27.579 42.8H28.923C29.2323 44.208 30.2403 44.912 31.947 44.912C32.779 44.912 33.4297 44.72 33.899 44.336C34.379 43.952 34.619 43.4293 34.619 42.768C34.619 42.1707 34.4163 41.696 34.011 41.344C33.6163 40.9813 32.987 40.8 32.123 40.8H30.571V39.632H31.739C33.4137 39.632 34.251 39.056 34.251 37.904C34.251 37.2853 34.0217 36.7947 33.563 36.432C33.115 36.0693 32.5177 35.888 31.771 35.888C31.067 35.888 30.491 36.0427 30.043 36.352C29.595 36.6507 29.2803 37.152 29.099 37.856H27.755C27.9577 36.7573 28.4163 35.9467 29.131 35.424C29.8563 34.8907 30.747 34.624 31.803 34.624C32.891 34.624 33.7923 34.9173 34.507 35.504C35.2323 36.08 35.595 36.8267 35.595 37.744C35.595 38.288 35.4563 38.768 35.179 39.184C34.9017 39.6 34.5017 39.904 33.979 40.096Z" fill="white"/>
</svg>
