<svg width="57" height="57" viewBox="0 0 57 57" fill="none" xmlns="http://www.w3.org/2000/svg">
<path fill-rule="evenodd" clip-rule="evenodd" d="M26.8863 0C26.8348 0.0604419 26.7855 0.124124 26.7387 0.191051L0.448937 37.8216C-0.678596 39.4355 0.4761 41.6508 2.44487 41.6508H52.9625C54.8896 41.6508 56.0529 39.5182 55.0097 37.8979L30.7819 0.267426C30.7377 0.198826 30.6909 0.13337 30.6418 0.0710634L30.6406 21.8769C32.7684 22.629 34.2928 24.6582 34.2928 27.0434C34.2928 30.069 31.8401 32.5217 28.8145 32.5217C25.7889 32.5217 23.3362 30.069 23.3362 27.0434C23.3362 24.6969 24.8115 22.695 26.8852 21.9146L26.8863 0Z" fill="#5C62F9"/>
<rect y="45.9102" width="45.0435" height="10.9565" rx="2.43478" fill="#2EC499"/>
<path d="M47.4844 47.0251C47.4844 46.5435 48.0171 46.2526 48.4222 46.5131L55.2096 50.8764C55.5824 51.116 55.5824 51.6608 55.2096 51.9004L48.4222 56.2638C48.0171 56.5242 47.4844 56.2333 47.4844 55.7518V47.0251Z" fill="#F97F88"/>
<rect x="6.08594" y="45.9102" width="2.43478" height="10.9565" fill="white"/>
</svg>
