<svg width="125" height="130" viewBox="0 0 125 130" fill="none" xmlns="http://www.w3.org/2000/svg">
<path d="M83.925 43.3318C80.3231 56.7743 66.506 64.7516 53.0635 61.1497C39.6211 57.5478 31.6438 43.7307 35.2457 30.2882C38.8476 16.8458 52.6647 8.86844 66.1071 12.4703C79.5496 16.0722 87.5269 29.8894 83.925 43.3318Z" fill="#5C62F9"/>
<path d="M109.065 127.872C113.304 127.872 116.795 124.417 116.227 120.216C112.49 92.5747 88.8004 71.2656 60.1342 71.2656C31.4679 71.2656 7.77855 92.5747 4.0411 120.216C3.47309 124.417 6.96413 127.872 11.2032 127.872L109.065 127.872Z" fill="#F97F88"/>
<rect x="104.734" width="7.56556" height="32.9642" rx="3.78278" fill="#35C89F"/>
<rect x="92.0355" y="20.2656" width="7.56556" height="32.9642" rx="3.78278" transform="rotate(-90 92.0355 20.2656)" fill="#35C89F"/>
</svg>
