<svg width="24" height="24" viewBox="0 0 24 24" fill="none" xmlns="http://www.w3.org/2000/svg">
<path d="M4.89063 9.61472C4.89063 9.21272 5.21363 8.88672 5.61263 8.88672H9.46863C9.86863 8.88672 10.1916 9.21272 10.1916 9.61472C10.192 9.71006 10.1736 9.80454 10.1375 9.89278C10.1014 9.98101 10.0483 10.0613 9.98111 10.129C9.91398 10.1967 9.83416 10.2505 9.74623 10.2873C9.6583 10.3242 9.56397 10.3433 9.46863 10.3437H5.61263C5.42026 10.3427 5.23617 10.2653 5.10079 10.1286C4.96542 9.99192 4.88983 9.80709 4.89063 9.61472Z" fill="black"/>
<path fill-rule="evenodd" clip-rule="evenodd" d="M21.188 10.004C21.126 10 21.058 10 20.988 10H18.215C15.944 10 14 11.736 14 14C14 16.264 15.944 18 18.215 18H20.988C21.058 18 21.126 18 21.188 17.996C22.111 17.94 22.927 17.239 22.996 16.259C23 16.195 23 16.126 23 16.062V11.938C23 11.874 23 11.805 22.996 11.741C22.927 10.761 22.111 10.061 21.188 10.004ZM17.971 15.067C18.555 15.067 19.029 14.589 19.029 14C19.029 13.41 18.555 12.933 17.971 12.933C17.386 12.933 16.911 13.411 16.911 14C16.911 14.59 17.386 15.067 17.971 15.067Z" fill="#5C62F9"/>
<path d="M21.14 10.002C21.14 8.821 21.096 7.554 20.342 6.647C20.2683 6.55815 20.1905 6.47272 20.109 6.391C19.36 5.643 18.411 5.311 17.239 5.153C16.099 5 14.644 5 12.806 5H10.694C8.856 5 7.4 5 6.26 5.153C5.088 5.311 4.139 5.643 3.39 6.391C2.642 7.14 2.31 8.089 2.152 9.261C2 10.401 2 11.856 2 13.694V13.806C2 15.644 2 17.1 2.153 18.239C2.311 19.411 2.643 20.36 3.391 21.109C4.14 21.857 5.089 22.189 6.261 22.347C7.401 22.5 8.856 22.5 10.694 22.5H12.806C14.644 22.5 16.1 22.5 17.239 22.347C18.411 22.189 19.36 21.857 20.109 21.109C20.3082 20.9092 20.4846 20.6878 20.635 20.449C21.085 19.729 21.139 18.847 21.139 17.999L20.989 18H18.215C15.944 18 14 16.264 14 14C14 11.736 15.944 10 18.215 10H20.988C21.04 10 21.092 10 21.14 10.002Z" fill="#35C89F"/>
<path d="M10.0996 2.57208L7.99862 3.99208L6.26562 5.15208C7.40363 5.00008 8.85762 5.00008 10.6916 5.00008H12.8046C14.6426 5.00008 16.0986 5.00008 17.2376 5.15308C17.4676 5.18308 17.6876 5.22108 17.8996 5.26708L15.9986 4.00008L13.8856 2.57208C13.3248 2.19902 12.6662 2 11.9926 2C11.319 2 10.6605 2.19902 10.0996 2.57208Z" fill="#5C62F9"/>
</svg>
