<svg width="22" height="11" viewBox="0 0 22 11" fill="none" xmlns="http://www.w3.org/2000/svg">
<path opacity="0.3" d="M3.64956 9.16667H4.56195C5.06585 9.16667 5.47434 9.57707 5.47434 10.0833C5.47434 10.5896 5.06585 11 4.56195 11H3.64956C3.14566 11 2.73717 10.5896 2.73717 10.0833C2.73717 9.57707 3.14566 9.16667 3.64956 9.16667ZM0.912389 4.58333H4.56195C5.06585 4.58333 5.47434 4.99374 5.47434 5.5C5.47434 6.00626 5.06585 6.41667 4.56195 6.41667H0.912389C0.408491 6.41667 0 6.00626 0 5.5C0 4.99374 0.408491 4.58333 0.912389 4.58333ZM2.73717 0H4.56195C5.06585 0 5.47434 0.410406 5.47434 0.916667C5.47434 1.42293 5.06585 1.83333 4.56195 1.83333H2.73717C2.23327 1.83333 1.82478 1.42293 1.82478 0.916667C1.82478 0.410406 2.23327 0 2.73717 0Z" fill="#006BFF"/>
<path d="M9.22615 0H20.1748C21.1826 0 21.9996 0.820811 21.9996 1.83333V9.16667C21.9996 10.1792 21.1826 11 20.1748 11H9.22615C8.21835 11 7.40137 10.1792 7.40137 9.16667V1.83333C7.40137 0.820811 8.21835 0 9.22615 0ZM19.3399 1.89918L14.7005 4.32537L10.061 1.89918C9.78566 1.75517 9.44222 1.85524 9.29394 2.12268C9.14567 2.39012 9.2487 2.72366 9.52407 2.86767L14.432 5.43426C14.5996 5.52191 14.8014 5.52191 14.969 5.43426L19.8769 2.86767C20.1523 2.72366 20.2553 2.39012 20.107 2.12268C19.9587 1.85524 19.6153 1.75517 19.3399 1.89918Z" fill="#006BFF"/>
</svg>
