<svg width="830" height="958" viewBox="0 0 830 958" fill="none" xmlns="http://www.w3.org/2000/svg">
<mask id="mask0_5385_76690" style="mask-type:alpha" maskUnits="userSpaceOnUse" x="0" y="0" width="830" height="958">
<rect width="830" height="958" fill="#FFCC00"/>
</mask>
<g mask="url(#mask0_5385_76690)">
<path fill-rule="evenodd" clip-rule="evenodd" d="M595.96 19.9316L484.27 124.988C463.071 121.72 441.088 120.622 419.434 120.622C371.858 120.622 321.471 126.091 276.448 144.783L153.266 43.3545L162.213 255.53C157.104 266.778 152.58 278.925 148.714 292.038C125.705 370.068 122.076 411.417 122.076 473.249C122.076 481.793 125.795 535.722 116.285 574.262C95.4384 658.746 37.5927 797.739 18.9999 893.218C14.4524 916.572 -19.2194 1134.43 4.52289 1285.03C32.1099 1460.02 206.186 1478.71 367.043 1480.7L377.628 1480.8C389.951 1480.91 402.175 1480.93 414.227 1480.93L427.664 1480.93C564.763 1480.85 830.342 1477.2 862.792 1307.27C862.904 1306.82 863.011 1306.36 863.112 1305.87C873.341 1256.8 889.132 1198.92 905.55 1056.18C913.917 983.437 970.661 1017.64 967.033 932.457C963.404 847.27 1034.66 986.929 1136.78 951.133C1208.34 926.05 1249.89 998.853 1257.97 1056.97C1260.34 1074.01 1259.67 1092.63 1258.71 1110.87L1258.37 1117.29C1258.31 1118.36 1258.25 1119.43 1258.19 1120.49L1257.86 1126.83C1255.96 1164.64 1256.36 1198.21 1285.1 1208.94C1313.95 1219.71 1340.44 1203.44 1350.89 1156.08C1359.88 1115.33 1351.96 1027.42 1347.42 1006.19C1337.61 960.31 1306.79 852.256 1191.03 824.493C1101.88 803.113 1048.31 893.696 1023.74 944.869L1021.74 949.096C1158.78 972.024 1021.1 950.463 1020.79 951.133C979.234 1040.45 1027.26 1010.67 1040.94 1056.18C1055.01 1102.96 835.519 953.523 828.962 988.367L828.957 988.345L827.809 982.697C817.804 933.814 807.429 891.55 798.845 866.631L797.862 863.833C745.124 716.614 691.215 594.196 661.779 442.027C657.152 418.108 653.139 392.832 649.155 367.706L647.162 355.164C637.516 294.668 627.46 236.526 608.709 202.044C607.758 200.295 606.78 198.583 605.777 196.905L595.96 19.9316Z" fill="#FFD940"/>
</g>
</svg>
