<svg width="129" height="130" viewBox="0 0 129 130" fill="none" xmlns="http://www.w3.org/2000/svg">
<rect width="53.2788" height="16.3978" rx="6.56791" transform="matrix(0.616623 -0.787259 0.785118 0.619346 6.01425 119.844)" fill="#FFCC00"/>
<path fill-rule="evenodd" clip-rule="evenodd" d="M64.2997 97.3947C87.0542 97.3947 105.5 78.8827 105.5 56.047C105.5 33.2112 87.0542 14.6992 64.2997 14.6992C41.5453 14.6992 23.0992 33.2112 23.0992 56.047C23.0992 78.8827 41.5453 97.3947 64.2997 97.3947ZM64.1562 85.5684C80.2541 85.5684 93.3041 72.4718 93.3041 56.3164C93.3041 40.161 80.2541 27.0645 64.1562 27.0645C48.0583 27.0645 35.0084 40.161 35.0084 56.3164C35.0084 72.4718 48.0583 85.5684 64.1562 85.5684Z" fill="#FFCC00"/>
<path d="M75.5946 15.5073C73.8403 22.0778 67.1108 25.977 60.5637 24.2165C54.0166 22.4559 50.1313 15.7023 51.8856 9.13184C53.6399 2.56138 60.3694 -1.33782 66.9165 0.422733C73.4636 2.18328 77.3489 8.93689 75.5946 15.5073Z" fill="#5C62F9"/>
<path d="M87.6185 56.6039C89.6904 56.6039 91.3957 54.9157 91.1334 52.8604C89.4095 39.3504 78.4551 28.9355 64.4938 28.9355C50.5321 28.9355 38.9943 39.351 37.174 52.8616C36.8973 54.915 38.6036 56.6039 40.6756 56.6039L87.6185 56.6039Z" fill="#5C62F9"/>
<path d="M19.2428 63.8007C18.3806 67.0297 15.0734 68.946 11.8559 68.0807C8.63836 67.2155 6.72894 63.8965 7.59107 60.6675C8.45321 57.4385 11.7604 55.5222 14.978 56.3874C18.1955 57.2527 20.1049 60.5717 19.2428 63.8007Z" fill="#5C62F9"/>
<path d="M120.56 63.8007C119.697 67.0297 116.39 68.946 113.173 68.0807C109.955 67.2155 108.046 63.8965 108.908 60.6675C109.77 57.4385 113.077 55.5222 116.295 56.3874C119.512 57.2527 121.422 60.5717 120.56 63.8007Z" fill="#5C62F9"/>
<path d="M25.2545 83.9959C26.2727 83.9959 27.1113 83.1659 26.9753 82.1568C26.0807 75.5171 20.4105 70.3984 13.5491 70.3984C6.68766 70.3984 1.01749 75.5171 0.122887 82.1568C-0.0130793 83.1659 0.825464 83.9959 1.84373 83.9959H25.2545Z" fill="#35C89F"/>
<path d="M126.571 83.9959C127.589 83.9959 128.428 83.1659 128.292 82.1568C127.397 75.5171 121.727 70.3984 114.866 70.3984C108.004 70.3984 102.334 75.5171 101.44 82.1568C101.304 83.1659 102.142 83.9959 103.16 83.9959H126.571Z" fill="#35C89F"/>
</svg>
