<svg width="116" height="116" viewBox="0 0 116 116" fill="none" xmlns="http://www.w3.org/2000/svg">
<rect x="61.8828" y="0.894531" width="53.6871" height="53.6871" rx="2.66681" fill="#5C62F9"/>
<circle cx="75.4778" cy="10.1067" r="3.73363" fill="#FFCC00"/>
<circle cx="88.5432" cy="10.1067" r="3.73363" fill="#FFCC00"/>
<circle cx="101.613" cy="10.1067" r="3.73363" fill="#FFCC00"/>
<rect x="0.890625" y="61.8867" width="53.6871" height="53.6871" rx="2.66681" fill="#5C62F9"/>
<rect x="61.8828" y="61.8867" width="53.6871" height="53.6871" rx="2.66681" fill="#35C89F"/>
<path d="M107.705 89.9064L90.5641 103.276C89.611 104.02 88.22 103.341 88.22 102.132L88.22 75.3922C88.22 74.1834 89.611 73.5043 90.5641 74.2477L107.705 87.6175C108.45 88.1986 108.45 89.3253 107.705 89.9064Z" fill="#FFCC00"/>
<path fill-rule="evenodd" clip-rule="evenodd" d="M27.4539 78.8394C36.671 78.8394 44.1431 71.3673 44.1431 62.1501C44.1431 52.933 36.671 45.4609 27.4539 45.4609C18.2367 45.4609 10.7646 52.933 10.7646 62.1501C10.7646 71.3673 18.2367 78.8394 27.4539 78.8394ZM27.4532 71.8107C32.7895 71.8107 37.1154 67.4848 37.1154 62.1485C37.1154 56.8122 32.7895 52.4863 27.4532 52.4863C22.1169 52.4863 17.791 56.8122 17.791 62.1485C17.791 67.4848 22.1169 71.8107 27.4532 71.8107Z" fill="#FFCC00"/>
<circle cx="27.4518" cy="43.4118" r="3.80631" fill="#FFCC00"/>
<circle cx="27.4518" cy="80.3024" r="3.80631" fill="#FFCC00"/>
<circle cx="8.71354" cy="62.1507" r="3.80631" transform="rotate(-90 8.71354 62.1507)" fill="#FFCC00"/>
<circle cx="46.1891" cy="62.1507" r="3.80631" transform="rotate(-90 46.1891 62.1507)" fill="#FFCC00"/>
<circle cx="14.7129" cy="74.8866" r="3.80631" transform="rotate(-135 14.7129 74.8866)" fill="#FFCC00"/>
<circle cx="40.1865" cy="48.83" r="3.80631" transform="rotate(-135 40.1865 48.83)" fill="#FFCC00"/>
<circle cx="40.7792" cy="75.4688" r="3.80631" transform="rotate(135 40.7792 75.4688)" fill="#FFCC00"/>
<circle cx="14.1288" cy="49.416" r="3.80631" transform="rotate(135 14.1288 49.416)" fill="#FFCC00"/>
<path d="M85.2634 89.5341L73.6912 98.5605C73.0477 99.0624 72.1086 98.6039 72.1086 97.7878L72.1086 79.7351C72.1086 78.9191 73.0477 78.4606 73.6912 78.9625L85.2634 87.9888C85.7664 88.3811 85.7664 89.1418 85.2634 89.5341Z" fill="#FFCC00"/>
</svg>
