<svg width="27" height="57" viewBox="0 0 27 57" fill="none" xmlns="http://www.w3.org/2000/svg">
<path d="M18.3199 56.8269C18.7766 57.1375 19.3985 57.019 19.7091 56.5623L24.7697 49.1198C25.0803 48.6631 24.9618 48.0412 24.5051 47.7306C24.0484 47.4201 23.4264 47.5386 23.1158 47.9953L18.6175 54.6108L12.002 50.1124C11.5453 49.8019 10.9233 49.9204 10.6128 50.3771C10.3022 50.8338 10.4207 51.4558 10.8774 51.7663L18.3199 56.8269ZM25.6018 27.0159L26.4658 26.5123L25.6018 27.0159ZM5.60549 25.7676L6.52588 25.3766L5.60549 25.7676ZM19.4789 6.78866L18.7804 7.50427L18.7805 7.50427L19.4789 6.78866ZM10.3074 12.4989L10.6496 11.5593H10.6496L10.3074 12.4989ZM1.99306 0.882415C1.92812 0.333961 1.43087 -0.0580033 0.882415 0.00693721C0.333961 0.0718777 -0.0580033 0.569132 0.00693721 1.11759L1.99306 0.882415ZM19.8645 55.8129C17.8841 45.4172 17.8963 38.1377 18.8015 33.3878L16.8369 33.0134C15.8682 38.0962 15.892 45.6472 17.8998 56.1871L19.8645 55.8129ZM18.8015 33.3878C19.5763 29.322 20.9636 27.3052 22.1047 26.6094C22.6425 26.2814 23.1067 26.251 23.4917 26.3749C23.8965 26.5051 24.3484 26.8511 24.7379 27.5194L26.4658 26.5123C25.8948 25.5326 25.0915 24.7887 24.1044 24.471C23.0975 24.147 22.0331 24.3105 21.0634 24.9018C19.1893 26.0447 17.6458 28.7684 16.8369 33.0134L18.8015 33.3878ZM24.7379 27.5194C25.0369 28.0325 25.0569 28.4816 24.9139 28.901C24.7587 29.3564 24.3778 29.8639 23.7223 30.3583C22.4076 31.3497 20.2327 32.0977 17.777 32.2015L17.8614 34.1997C20.6181 34.0832 23.2135 33.247 24.9265 31.9551C25.7848 31.3078 26.4822 30.499 26.8069 29.5464C27.144 28.5578 27.0457 27.5073 26.4658 26.5123L24.7379 27.5194ZM17.777 32.2015C13.5185 32.3813 8.75695 30.6283 6.52588 25.3766L4.6851 26.1586C7.32911 32.3823 13.0179 34.4042 17.8614 34.1997L17.777 32.2015ZM6.52588 25.3766C4.47387 20.5464 6.17742 15.8375 9.12451 12.334L7.594 11.0465C4.35581 14.8961 2.23697 20.3959 4.6851 26.1586L6.52588 25.3766ZM9.12451 12.334C10.9009 10.2222 13.0754 8.62286 14.993 7.78285C15.9536 7.36205 16.8036 7.15197 17.4777 7.13248C18.1522 7.11297 18.5534 7.28268 18.7804 7.50427L20.1774 6.07305C19.4357 5.349 18.429 5.10414 17.4199 5.13331C16.4103 5.1625 15.3012 5.46435 14.1905 5.95091C11.9654 6.92561 9.54878 8.72271 7.594 11.0465L9.12451 12.334ZM18.7805 7.50427C19.4606 8.16817 19.5654 8.75938 19.4557 9.24269C19.332 9.78699 18.8836 10.4167 18.0445 10.9704C16.3738 12.0729 13.5276 12.6073 10.6496 11.5593L9.96525 13.4386C13.416 14.6951 16.9274 14.1038 19.1461 12.6397C20.2517 11.9101 21.131 10.8964 21.406 9.68563C21.6948 8.41393 21.2691 7.13858 20.1774 6.07305L18.7805 7.50427ZM10.6496 11.5593C9.97393 11.3133 9.35477 11.055 8.78701 10.7864L7.93151 12.5942C8.55948 12.8913 9.23611 13.1731 9.96525 13.4386L10.6496 11.5593ZM8.787 10.7864C6.05512 9.49356 4.4993 7.95339 3.55638 6.32321C2.60138 4.67216 2.2256 2.8463 1.99306 0.882415L0.00693721 1.11759C0.249367 3.16502 0.663897 5.31699 1.82513 7.32459C2.99843 9.35307 4.88476 11.1524 7.93151 12.5942L8.787 10.7864Z" fill="#FFEDA6"/>
</svg>
