<svg width="50" height="58" viewBox="0 0 50 58" fill="none" xmlns="http://www.w3.org/2000/svg">
<path d="M46.5992 57.2542C47.141 57.3617 47.6673 57.0097 47.7748 56.468L49.5264 47.6401C49.6339 47.0984 49.2819 46.5721 48.7401 46.4646C48.1984 46.3571 47.6721 46.7091 47.5646 47.2508L46.0076 55.0979L38.1606 53.5408C37.6189 53.4334 37.0926 53.7854 36.9851 54.3271C36.8776 54.8688 37.2296 55.3951 37.7714 55.5026L46.5992 57.2542ZM40.4794 20.7335L41.0699 19.9264L40.4794 20.7335ZM18.3511 29.7773L17.6604 30.5004L18.3511 29.7773ZM17.212 12.66L17.3068 13.6555L17.212 12.66ZM2.67515 4.30611C2.40153 3.82637 1.79081 3.65927 1.31107 3.93289C0.831328 4.20651 0.664235 4.81723 0.937854 5.29697L2.67515 4.30611ZM47.6251 55.7174C38.1917 41.6137 35.3066 31.8834 35.3747 26.3141C35.409 23.5077 36.184 21.9593 36.9989 21.3109C37.7165 20.74 38.7166 20.6828 39.889 21.5405L41.0699 19.9264C39.3685 18.6817 37.3521 18.4742 35.7538 19.7458C34.2528 20.94 33.4123 23.227 33.3748 26.2896C33.2994 32.4582 36.4453 42.6002 45.9627 56.8293L47.6251 55.7174ZM39.889 21.5405C40.4444 21.9469 40.7093 22.4386 40.7811 22.9961C40.8569 23.5848 40.7239 24.3202 40.3294 25.1628C39.5372 26.8544 37.8022 28.7311 35.4775 30.1858C30.8367 33.0898 24.2962 34.0729 19.0418 29.0541L17.6604 30.5004C23.7969 36.3618 31.4154 35.087 36.5384 31.8812C39.0956 30.281 41.1438 28.1397 42.1406 26.011C42.6405 24.9435 42.9035 23.8182 42.7647 22.7407C42.622 21.632 42.0618 20.6521 41.0699 19.9264L39.889 21.5405ZM19.0418 29.0541C14.0466 24.2828 14.1077 17.2301 16.233 11.4002C17.2894 8.50258 18.8259 6.00858 20.3833 4.38011C21.1634 3.5644 21.9147 3.00159 22.5765 2.69682C23.2366 2.39285 23.7273 2.37839 24.0816 2.50719L24.7649 0.627545C23.7603 0.262342 22.7042 0.436141 21.7399 0.88019C20.7773 1.32346 19.8267 2.06843 18.9379 2.99778C17.1575 4.85942 15.488 7.60461 14.354 10.7152C12.0985 16.9019 11.8413 24.9422 17.6604 30.5004L19.0418 29.0541ZM24.0816 2.50719C25.1484 2.89503 25.5919 3.52535 25.7162 4.20775C25.853 4.9587 25.634 5.96116 24.9652 7.04907C23.6327 9.21655 20.7499 11.3187 17.1172 11.6645L17.3068 13.6555C21.5705 13.2496 25.0111 10.7934 26.669 8.09648C27.4954 6.75221 27.9383 5.24597 27.6838 3.84926C27.4168 2.384 26.4158 1.22771 24.7649 0.627545L24.0816 2.50719ZM17.1172 11.6645C12.6071 12.0939 9.65101 11.304 7.52919 9.95316C5.38635 8.58897 3.97057 6.57739 2.67515 4.30611L0.937854 5.29697C2.27709 7.64506 3.8906 10.0076 6.45512 11.6403C9.04065 13.2863 12.4699 14.116 17.3068 13.6555L17.1172 11.6645Z" fill="#FFEDA6"/>
</svg>
