<!-- <svg width="73" height="70" viewBox="0 0 73 70" fill="none" xmlns="http://www.w3.org/2000/svg">
<path d="M70.9627 69.9993C71.5146 70.0203 71.979 69.5899 72 69.038L72.3416 60.0445C72.3626 59.4926 71.9322 59.0282 71.3803 59.0072C70.8284 58.9863 70.364 59.4167 70.343 59.9685L70.0394 67.9628L62.0451 67.6591C61.4932 67.6381 61.0288 68.0685 61.0079 68.6204C60.9869 69.1723 61.4173 69.6367 61.9692 69.6577L70.9627 69.9993ZM54.4542 24.0092L54.9238 23.1263L54.4542 24.0092ZM28.3727 39.671L27.7961 40.488L28.3727 39.671ZM29.3853 1.99197L29.1743 2.96946H29.1743L29.3853 1.99197ZM22.831 17.6642L23.0645 18.6366H23.0645L22.831 17.6642ZM2.07074 9.57415C1.72359 9.1446 1.09396 9.07779 0.664415 9.42493C0.234867 9.77207 0.168062 10.4017 0.515202 10.8313L2.07074 9.57415ZM71.7341 68.3203C60.2783 55.9597 53.9702 46.0456 50.9704 38.7378L49.1202 39.4973C52.2412 47.1003 58.7138 57.2139 70.2672 69.6798L71.7341 68.3203ZM50.9704 38.7378C48.4143 32.5107 48.3321 28.3586 49.2638 26.1865C49.7133 25.1387 50.3752 24.5894 51.0998 24.3841C51.8475 24.1723 52.8325 24.2793 53.9847 24.8921L54.9238 23.1263C53.456 22.3457 51.9333 22.0693 50.5547 22.4598C49.1531 22.8569 48.0703 23.8957 47.4258 25.398C46.1698 28.326 46.503 33.1214 49.1202 39.4973L50.9704 38.7378ZM53.9847 24.8921C54.9365 25.3983 55.4762 26.1321 55.7113 27.023C55.9544 27.9448 55.8856 29.1002 55.4685 30.4085C54.6326 33.0304 52.4758 36.0097 49.4394 38.3219L50.6511 39.9131C53.9439 37.4056 56.3889 34.1059 57.374 31.016C57.8673 29.4685 58.0137 27.9099 57.6451 26.5128C57.2684 25.085 56.3694 23.8951 54.9238 23.1263L53.9847 24.8921ZM49.4394 38.3219C44.1691 42.3353 36.4943 44.1793 28.9494 38.854L27.7961 40.488C36.2261 46.438 44.8697 44.3157 50.6511 39.9131L49.4394 38.3219ZM28.9494 38.854C21.9725 33.9297 20.0107 25.7963 20.6944 18.3533L18.7028 18.1703C17.9809 26.0283 20.0267 35.0043 27.7961 40.488L28.9494 38.854ZM20.6944 18.3533C21.1064 13.8686 22.4756 9.73038 24.1988 6.85126C25.0619 5.40907 25.9855 4.33039 26.8766 3.67125C27.7657 3.01355 28.5347 2.83142 29.1743 2.96946L29.5962 1.01447C28.2103 0.715362 26.8616 1.19461 25.6872 2.06333C24.5147 2.93061 23.4288 4.24337 22.4827 5.82415C20.5873 8.99099 19.1387 13.4248 18.7028 18.1703L20.6944 18.3533ZM29.1743 2.96946C30.7287 3.30493 31.5668 4.12383 31.9417 5.13019C32.3366 6.19012 32.2721 7.61287 31.6661 9.17461C30.456 12.2935 27.2239 15.5809 22.5975 16.6919L23.0645 18.6366C28.3365 17.3706 32.086 13.6213 33.5307 9.89807C34.2521 8.03874 34.4332 6.08905 33.8158 4.43194C33.1785 2.72125 31.7463 1.4785 29.5962 1.01447L29.1743 2.96946ZM22.5975 16.6919C21.5285 16.9486 20.5183 17.1395 19.5622 17.2711L19.835 19.2525C20.8613 19.1112 21.9364 18.9075 23.0645 18.6366L22.5975 16.6919ZM19.5622 17.2711C14.9581 17.9048 11.5852 17.1665 8.89317 15.7233C6.17512 14.2661 4.07067 12.0488 2.07074 9.57415L0.515202 10.8313C2.56224 13.3642 4.87031 15.8359 7.94818 17.4859C11.0521 19.15 14.8585 19.9374 19.8349 19.2525L19.5622 17.2711Z" fill="#FFEDA6"/>
</svg> -->
<svg width="55" height="40" viewBox="0 0 55 40" fill="none" xmlns="http://www.w3.org/2000/svg">
<rect width="1158" height="397" transform="translate(-326 -195)" fill="white"/>
<g clip-path="url(#clip0_1_2)">
<path d="M53.9385 38.122C54.481 38.0187 54.837 37.4951 54.7337 36.9525L53.0494 28.1115C52.9461 27.569 52.4226 27.213 51.88 27.3163C51.3375 27.4197 50.9815 27.9433 51.0848 28.4859L52.5819 36.3445L44.7232 37.8415C44.1807 37.9449 43.8246 38.4685 43.928 39.011C44.0313 39.5536 44.5549 39.9096 45.0974 39.8062L53.9385 38.122ZM2.83492 10.1081C2.40118 9.76616 1.77241 9.84061 1.43052 10.2743C1.08862 10.7081 1.16307 11.3369 1.59681 11.6788L2.83492 10.1081ZM54.3137 36.3128C45.5624 30.3622 40.4237 25.2062 37.7051 21.2075L36.0511 22.3319C38.9602 26.611 44.3164 31.9335 53.189 37.9666L54.3137 36.3128ZM37.7051 21.2075C35.378 17.7846 34.9328 15.3776 35.2477 14.0787C35.3961 13.4665 35.7028 13.1168 36.0627 12.9321C36.441 12.738 37.0052 12.6631 37.7531 12.8602L38.2628 10.9263C37.1663 10.6373 36.0723 10.6793 35.1496 11.1526C34.2086 11.6355 33.5715 12.5038 33.304 13.6076C32.7869 15.7409 33.6214 18.7583 36.0511 22.3319L37.7051 21.2075ZM37.7531 12.8602C38.3274 13.0116 38.6591 13.315 38.8545 13.7127C39.0668 14.1445 39.1563 14.7727 39.0424 15.5858C38.8138 17.2164 37.8048 19.2832 36.1418 21.0931L37.6144 22.4463C39.4813 20.4147 40.7253 17.9882 41.023 15.8634C41.1722 14.7988 41.0934 13.7337 40.6495 12.8305C40.1888 11.8931 39.3764 11.2198 38.2628 10.9263L37.7531 12.8602ZM36.1418 21.0931C33.2577 24.2314 28.6512 26.3588 23.3601 24.2229L22.6114 26.0775C28.8819 28.6087 34.3341 26.0158 37.6144 22.4463L36.1418 21.0931ZM23.3601 24.2229C18.4937 22.2584 16.3685 17.7241 15.9751 13.1629L13.9825 13.3347C14.4148 18.3465 16.8055 23.7337 22.6114 26.0775L23.3601 24.2229ZM15.9751 13.1629C15.7379 10.4135 16.1446 7.74498 16.9066 5.79506C17.2883 4.81826 17.7408 4.06867 18.2037 3.57823C18.6668 3.08749 19.0705 2.9238 19.3877 2.91997L19.3635 0.92012C18.3271 0.932601 17.4421 1.4713 16.7492 2.20547C16.0559 2.94001 15.4851 3.9377 15.0438 5.06713C14.1596 7.32973 13.7215 10.3093 13.9825 13.3347L15.9751 13.1629ZM19.3877 2.91997C20.3381 2.90852 20.8303 3.25239 21.0945 3.67171C21.3919 4.14406 21.5201 4.9064 21.3183 5.89126C20.9165 7.85221 19.2818 10.2427 16.5057 11.5367L17.3507 13.3494C20.6792 11.7979 22.744 8.89682 23.2776 6.29268C23.5435 4.995 23.4484 3.65645 22.7868 2.60585C22.0917 1.50241 20.8889 0.901615 19.3635 0.92012L19.3877 2.91997ZM16.5057 11.5367C15.854 11.8405 15.2335 12.0956 14.6421 12.3072L15.3155 14.1904C15.9696 13.9565 16.6474 13.6773 17.3507 13.3494L16.5057 11.5367ZM14.6421 12.3072C11.7962 13.3247 9.60703 13.3358 7.78758 12.8498C5.94482 12.3577 4.38803 11.3323 2.83492 10.1081L1.59681 11.6788C3.21599 12.9551 5.03078 14.1836 7.27148 14.7821C9.53548 15.3868 12.1416 15.3253 15.3155 14.1904L14.6421 12.3072Z" fill="#FFEDA6"/>
</g>
<defs>
<clipPath id="clip0_1_2">
<rect width="27" height="57" fill="white" transform="translate(0.801514 10.8934) rotate(-45)"/>
</clipPath>
</defs>
</svg>


