<svg width="50" height="58" viewBox="0 0 47 64" fill="none" xmlns="http://www.w3.org/2000/svg">
<path d="M2.12987 63.2014C2.24112 63.7424 2.76984 64.0907 3.3108 63.9795L12.1263 62.1667C12.6673 62.0554 13.0157 61.5267 12.9044 60.9857C12.7932 60.4448 12.2644 60.0964 11.7235 60.2077L3.88745 61.8191L2.27604 53.983C2.1648 53.4421 1.63608 53.0937 1.09511 53.205C0.55415 53.3162 0.205793 53.8449 0.317037 54.3859L2.12987 63.2014ZM33.6176 43.6428L32.644 43.4148L33.6176 43.6428ZM16.534 26.0764L15.5985 25.7229L16.534 26.0764ZM45.1025 21.2153L46.1012 21.1644L45.1025 21.2153ZM31.9747 18.5558L32.8592 18.0892L31.9747 18.5558ZM34.0125 1.60918C34.349 1.17119 34.2666 0.543402 33.8287 0.206964C33.3907 -0.129474 32.7629 -0.0471567 32.4265 0.390825L34.0125 1.60918ZM3.94442 63.5502C10.911 52.9767 17.0684 46.7125 21.9186 43.359L20.7811 41.7139C15.6495 45.262 9.32537 51.7481 2.27433 62.4498L3.94442 63.5502ZM21.9186 43.359C26.0562 40.4981 29.0899 39.8561 30.8281 40.2243C31.6653 40.4017 32.1778 40.802 32.4575 41.2865C32.7444 41.7835 32.859 42.4966 32.644 43.4148L34.5913 43.8708C34.8934 42.5808 34.7876 41.3224 34.1895 40.2865C33.5842 39.238 32.547 38.5441 31.2426 38.2677C28.6975 37.7286 25.0802 38.7415 20.7811 41.7139L21.9186 43.359ZM32.644 43.4148C32.4745 44.1386 32.0872 44.5864 31.5439 44.859C30.9635 45.1503 30.1334 45.2733 29.0852 45.153C26.9876 44.9122 24.3347 43.73 21.9915 41.7695L20.7082 43.3034C23.2777 45.4533 26.2856 46.8448 28.8572 47.1399C30.1435 47.2876 31.4 47.169 32.441 46.6466C33.519 46.1056 34.2877 45.1675 34.5913 43.8708L32.644 43.4148ZM21.9915 41.7695C17.9152 38.3589 15.0437 32.8492 17.4694 26.4299L15.5985 25.7229C12.7795 33.1833 16.206 39.5365 20.7082 43.3034L21.9915 41.7695ZM17.4694 26.4299C19.7048 20.5142 25.2958 17.8352 30.9915 17.2489L30.7867 15.2594C24.6792 15.8881 18.2046 18.8264 15.5985 25.7229L17.4694 26.4299ZM30.9915 17.2489C34.4186 16.8961 37.7815 17.319 40.2726 18.1947C41.5204 18.6333 42.502 19.1689 43.162 19.7359C43.8257 20.306 44.0816 20.8309 44.1038 21.2662L46.1012 21.1644C46.0413 19.9883 45.3695 18.9956 44.4653 18.2188C43.5574 17.439 42.3309 16.7983 40.9359 16.3079C38.1415 15.3255 34.4797 14.8793 30.7867 15.2594L30.9915 17.2489ZM44.1038 21.2662C44.1634 22.4357 43.7472 23.0888 43.1726 23.457C42.5364 23.8647 41.5245 24.0361 40.2494 23.8112C37.7111 23.3635 34.6153 21.4179 32.8592 18.0892L31.0903 19.0224C33.1327 22.8938 36.751 25.2251 39.902 25.7808C41.4715 26.0576 43.0481 25.9122 44.2517 25.1409C45.5169 24.3302 46.1918 22.9422 46.1012 21.1644L44.1038 21.2662ZM32.8592 18.0892C32.451 17.3155 32.1044 16.5775 31.8134 15.8726L29.9647 16.6357C30.2816 17.4032 30.6553 18.198 31.0903 19.0224L32.8592 18.0892ZM31.8134 15.8726C30.4123 12.4783 30.2946 9.83926 30.8201 7.62922C31.3518 5.39355 32.5641 3.49472 34.0125 1.60918L32.4265 0.390825C30.9268 2.34314 29.5053 4.51351 28.8744 7.16652C28.2374 9.84516 28.4285 12.9143 29.9647 16.6357L31.8134 15.8726Z" fill="#FFEDA6"/>
</svg>
