<svg width="611" height="699" viewBox="0 0 611 699" fill="none" xmlns="http://www.w3.org/2000/svg">
<mask id="mask0_3938_21620" style="mask-type:alpha" maskUnits="userSpaceOnUse" x="0" y="0" width="611" height="699">
<rect width="610.754" height="699" fill="#E6E6EA"/>
</mask>
<g mask="url(#mask0_3938_21620)">
<path fill-rule="evenodd" clip-rule="evenodd" d="M434.839 14.543L353.345 91.197C337.877 88.8126 321.837 88.0109 306.037 88.0109C271.323 88.0109 234.559 92.0016 201.708 105.64L111.829 31.6334L118.357 186.446C114.629 194.653 111.329 203.516 108.508 213.084C91.7195 270.018 89.0715 300.188 89.0715 345.304C89.0715 351.538 91.7852 390.887 84.8463 419.008C69.6354 480.651 27.4286 582.067 13.8625 651.732C10.5443 668.772 -14.0241 827.728 3.29936 937.614C23.4281 1065.29 150.442 1078.93 267.81 1080.38L275.534 1080.46C284.525 1080.54 293.444 1080.55 302.238 1080.55L312.042 1080.55C412.076 1080.5 605.855 1077.83 629.531 953.844C629.613 953.518 629.691 953.178 629.765 952.825C637.228 917.021 648.75 874.788 660.73 770.634C666.834 717.56 708.237 742.519 705.59 680.363C702.943 618.206 754.935 720.108 829.447 693.99C881.661 675.688 911.978 728.808 917.873 771.215C919.601 783.645 919.114 797.23 918.413 810.543L918.159 815.229C918.117 816.007 918.074 816.783 918.032 817.558L917.789 822.183C916.403 849.776 916.695 874.266 937.664 882.094C958.718 889.955 978.042 878.086 985.667 843.53C992.228 813.796 986.451 749.649 983.14 734.165C975.982 700.686 953.495 621.844 869.028 601.587C803.983 585.988 764.897 652.081 746.97 689.419L745.505 692.504C845.499 709.232 745.038 693.501 744.81 693.99C714.493 759.163 749.532 737.432 759.518 770.634C769.784 804.767 609.632 695.734 604.847 721.157L604.843 721.141L604.006 717.02C596.706 681.353 589.136 650.515 582.872 632.333L582.156 630.292C543.675 522.874 504.341 433.552 482.863 322.523C479.487 305.071 476.559 286.628 473.652 268.295L472.198 259.143C465.16 215.003 457.823 172.58 444.141 147.421C443.447 146.144 442.733 144.895 442.001 143.671L434.839 14.543Z" fill="#6369FB"/>
</g>
</svg>
