<svg width="56" height="56" viewBox="0 0 56 56" fill="none" xmlns="http://www.w3.org/2000/svg">
<rect width="56" height="56" rx="3.75686" fill="#0B263F"/>
<path d="M20.8473 10.6574L23.8748 13.2781C25.1784 12.7835 28.576 12.8904 28.9355 13.2781C28.9355 13.2781 30.8182 10.9285 31.737 10.2959L32.1888 14.4981C32.219 14.7542 32.4328 15.4922 33.0474 16.3959C33.8155 17.5256 33.454 19.6041 33.68 21.0952C33.9059 22.5863 34.9528 27.1952 35.4047 28.6864C35.8565 30.1775 36.2513 34.3241 36.2513 33.0589C36.2513 31.7937 36.7978 26.2012 37.3852 24.4841C37.8973 22.9872 38.5866 22.1098 40.4844 21.2061C42.3822 20.3024 44.3889 21.6374 45.1119 22.6315C45.8348 23.6256 46.2753 26.7886 46.4108 28.6864C46.5464 30.5842 44.5245 30.539 43.7563 29.7708C42.9882 29.0027 43.6659 26.653 43.2593 25.0715C42.8526 23.49 41.5847 24.0323 40.3647 25.0715C39.1447 26.1108 39.3281 31.8042 39.5993 34.2442C39.8704 36.6842 39.6444 36.7294 38.6955 41.022C37.9364 44.4561 34.8849 45.4953 33.454 45.5857C30.9688 46.3087 19.2206 46.6702 17.9103 43.5524C17.2647 42.0162 16.6502 37.5914 16.871 33.7471C17.161 28.6992 20.6666 22.5863 20.3503 21.276C20.0341 19.9656 20.3503 17.5708 20.6666 16.7574C20.9829 15.9441 20.8473 14.0463 20.6666 13.5041C20.522 13.0703 20.7268 11.4255 20.8473 10.6574Z" stroke="#F9F9F9" stroke-width="1.59131" stroke-linecap="round" stroke-linejoin="round"/>
<mask id="mask0_5009_83708" style="mask-type:alpha" maskUnits="userSpaceOnUse" x="14" y="13" width="10" height="34">
<path d="M16.6667 14.0993L23.2424 40.5931L23.2185 46.0836L20.6301 41.2415L14.0545 14.7476C14.2249 13.2254 15.8724 12.8165 16.6667 14.0993Z" fill="white"/>
</mask>
<g mask="url(#mask0_5009_83708)">
<path d="M16.6667 14.0978L23.2424 40.5917L23.2185 46.0821L20.6301 41.24L14.0545 14.7462C14.2249 13.2239 15.8724 12.815 16.6667 14.0978Z" fill="#F9F9F9"/>
<path d="M16.6942 14.2305L16.1846 12.1772L13.2709 12.9004L13.7805 14.9537L16.6942 14.2305Z" fill="#FF3458"/>
<path fill-rule="evenodd" clip-rule="evenodd" d="M23.2389 40.5906C22.806 39.9651 22.1245 40.1342 21.9327 40.9147C21.6896 40.7049 21.4457 40.6304 21.201 40.6911C20.9563 40.7518 20.7648 40.9344 20.6266 41.2389L23.215 46.081L23.2389 40.5906Z" fill="#DBDBDB"/>
<path d="M24.172 46.2649L23.7939 44.7415L22.2869 45.1155L22.665 46.6389L24.172 46.2649Z" fill="#FF3458"/>
</g>
<path d="M18.4639 25.5862C18.4928 25.7668 18.3931 25.9759 18.1531 26.1684C17.9165 26.3583 17.5636 26.5129 17.1502 26.579C16.7367 26.6452 16.3532 26.6084 16.0691 26.5018C15.781 26.3938 15.6211 26.2262 15.5922 26.0456C15.5633 25.865 15.663 25.6559 15.903 25.4633C16.1397 25.2734 16.4925 25.1189 16.906 25.0527C17.3195 24.9866 17.7029 25.0233 17.987 25.1299C18.2751 25.238 18.435 25.4055 18.4639 25.5862Z" fill="#F9F9F9" stroke="#0B263F" stroke-width="0.254791"/>
<path d="M18.7274 26.9865C18.7621 27.1661 18.6692 27.3783 18.4356 27.5785C18.2051 27.7759 17.8575 27.9417 17.4463 28.0212C17.0352 28.1006 16.6508 28.0762 16.3634 27.9788C16.072 27.8801 15.9067 27.7178 15.872 27.5382C15.8373 27.3586 15.9302 27.1464 16.1639 26.9462C16.3943 26.7488 16.742 26.583 17.1531 26.5035C17.5642 26.4241 17.9487 26.4485 18.2361 26.5459C18.5275 26.6446 18.6927 26.8069 18.7274 26.9865Z" fill="#F9F9F9" stroke="#0B263F" stroke-width="0.254791"/>
<path d="M19.076 28.2583C19.1309 28.4327 19.0629 28.6541 18.8537 28.8797C18.6473 29.1021 18.3208 29.3066 17.9215 29.4325C17.5221 29.5584 17.1374 29.5781 16.8408 29.5142C16.54 29.4494 16.3573 29.307 16.3023 29.1326C16.2473 28.9581 16.3153 28.7367 16.5246 28.5111C16.731 28.2887 17.0574 28.0842 17.4568 27.9583C17.8562 27.8324 18.2409 27.8128 18.5375 27.8766C18.8383 27.9414 19.021 28.0838 19.076 28.2583Z" fill="#F9F9F9" stroke="#0B263F" stroke-width="0.254791"/>
</svg>
