<svg width="292" height="317" viewBox="0 0 292 317" fill="none" xmlns="http://www.w3.org/2000/svg">
<path fill-rule="evenodd" clip-rule="evenodd" d="M292 213.668L281.102 196.489L260.882 179.972L256.285 156.32L265.478 146.806C260.955 136.689 257.266 126.215 254.448 115.489C255.761 113.904 264.952 104.389 264.952 104.389L239.873 100.689L229.372 113.903L220.047 105.579L204.293 108.486L195.628 98.9721L172.126 92.3652C170.944 89.326 170.288 87.8723 169.106 84.701L176.854 74.6584L140.222 52.1947C137.334 46.5128 135.889 43.6055 132.869 37.9236L106.61 12.5533L95.0575 7.7965L58.6885 0L40.9624 12.421L36.76 16.3858L25.9962 15.1962L9.05859 22.3314L0 32.2417L14.4405 65.4085L20.8739 70.1653L34.0034 72.5445C34.0034 74.2623 34.0041 75.0551 34.7919 76.6407L27.7015 77.8295L14.572 82.0581C14.572 84.7008 13.9145 86.0221 13.5206 88.5327L19.0371 95.0073L25.339 92.1007H34.6605L32.6923 106.9L17.8543 127.514C17.8543 129.892 17.8543 131.081 17.8543 133.46L39.3885 147.599H49.3638L58.6885 155.262L52.2552 160.68L39.1257 157.112L33.4777 161.738C34.3967 166.495 34.7928 168.873 35.7119 173.63L51.598 188.958L46.6072 192.262L61.0509 206.136C61.8387 209.704 62.3628 211.421 63.2819 214.989C64.201 218.557 64.9883 218.161 66.17 220.275L83.239 219.217C88.7534 223.446 91.5106 225.56 96.3685 229.921L112.78 231.638C113.699 237.585 114.224 240.492 115.143 246.438L105.164 253.442C104.245 255.688 103.721 256.877 102.67 259.123L107.398 261.237L114.752 274.451L136.808 282.248L144.162 293.479C143.111 299.822 142.452 302.993 141.402 309.468L145.604 317L150.726 312.375C150.726 310.525 151.644 309.6 152.169 307.618L167.007 299.425L182.762 294.8L197.071 286.476L224.118 281.19H238.431L267.709 277.622L272.565 268.372C268.889 264.012 267.052 261.898 263.244 257.669C263.244 253.177 263.246 250.931 262.327 246.438L285.826 228.203C288.584 222.521 289.768 219.614 292 213.668Z" fill="#F9F6F3"/>
</svg>
