<svg width="139" height="139" viewBox="0 0 139 139" fill="none" xmlns="http://www.w3.org/2000/svg">
<rect width="97.542" height="97.542" rx="5.3577" transform="matrix(0.707241 0.706972 -0.707241 0.706972 69.0176 0.636719)" fill="#5C62F9"/>
<mask id="mask0_3264_17992" style="mask-type:alpha" maskUnits="userSpaceOnUse" x="2" y="2" width="134" height="135">
<rect width="97.542" height="97.542" rx="5.3577" transform="matrix(0.707241 0.706972 -0.707241 0.706972 69.0176 0.636719)" fill="#5C62F9"/>
</mask>
<g mask="url(#mask0_3264_17992)">
<path fill-rule="evenodd" clip-rule="evenodd" d="M84.9595 28.1283L72.7507 39.3374L86.5209 50.1762L84.9595 28.1283Z" fill="#353944"/>
<path fill-rule="evenodd" clip-rule="evenodd" d="M131.43 84.1541C132.079 89.0274 129.602 95.4047 133.656 96.9025C136.182 97.8359 138.528 96.5037 139.496 92.5514C140.33 89.1506 139.726 81.7839 139.349 80.0027C138.535 76.1517 135.938 67.0742 125.787 64.6231C117.64 62.6559 112.764 70.9104 110.684 75.0348C106.936 82.4647 108.257 95.6744 109.412 99.4979C111.557 106.592 110.912 114.632 109.184 117.726C107.384 120.949 105.617 122.845 103.884 123.413L104.851 135.361C111.694 129.047 115.733 122.65 116.969 116.168C117.717 112.242 118.485 108.625 117.145 102.104C116.077 96.9024 111.866 78.046 120.884 75.1625C127.203 73.142 130.78 79.2809 131.43 84.1541Z" fill="#353944"/>
<path fill-rule="evenodd" clip-rule="evenodd" d="M46.9205 30.0538L59.2878 41.2848L46.319 51.2107L46.9205 30.0538Z" fill="#353944"/>
<path fill-rule="evenodd" clip-rule="evenodd" d="M70.9435 150.697C83.2464 150.543 109.03 150.196 109.973 133.809C110.391 126.542 106.037 104.936 103.573 98.6324C98.7809 86.369 93.9119 76.1827 91.1636 63.4794C89.6156 56.3244 88.7435 47.7012 86.2448 43.4526C82.8939 37.7551 76.0291 36.7649 69.5152 36.8464C60.1012 36.9643 49.4648 39.4156 45.8891 51.4911C43.9477 58.0471 43.672 61.5117 43.7369 66.6868C43.7459 67.4018 44.1296 71.9113 43.3338 75.1474C41.5893 82.2411 36.6485 93.9378 35.1137 101.949C34.7384 103.909 32.0061 122.179 34.2521 134.757C37.1488 150.98 55.7148 150.887 70.9435 150.697Z" fill="#E2E2E2"/>
<path fill-rule="evenodd" clip-rule="evenodd" d="M76.4236 56.3266L88.6502 55.0971L88.6758 55.3535L76.4492 56.583L76.4236 56.3266Z" fill="black"/>
<path d="M88.8502 58.1079L76.5635 58.2617L76.5667 58.5194L88.8534 58.3655L88.8502 58.1079Z" fill="black"/>
<path fill-rule="evenodd" clip-rule="evenodd" d="M76.6104 60.1992L88.864 61.1222L88.8448 61.3791L76.5912 60.4562L76.6104 60.1992Z" fill="black"/>
<path fill-rule="evenodd" clip-rule="evenodd" d="M57.2712 57.7687C58.9679 57.7474 61.2757 55.7281 62.2582 54.8327C63.4058 53.7868 63.6651 50.8408 63.6402 48.861C63.6193 47.1967 65.5341 44.7863 64.3744 43.9483C62.9734 42.936 59.0982 42.9636 57.0858 42.9888C53.4075 43.0348 49.6717 45.7108 49.7178 49.3856C49.7639 53.0604 53.5929 57.8147 57.2712 57.7687Z" fill="#353944"/>
<path fill-rule="evenodd" clip-rule="evenodd" d="M66.1091 56.3782L64.7889 54.5223L66.9642 54.2646L66.1091 56.3782Z" fill="#FF7FB6"/>
<path fill-rule="evenodd" clip-rule="evenodd" d="M63.6133 58.332C65.8637 58.1592 68.8874 57.7498 69.3841 57.5975L69.4045 57.7498C68.8336 57.8687 65.8118 58.3206 63.6337 58.4843L63.6133 58.332Z" fill="black"/>
<path d="M58.8393 52.967C61.3897 52.5306 63.1491 50.3792 62.769 48.1616C62.3888 45.9441 60.0131 44.5001 57.4627 44.9365C54.9123 45.3728 53.1529 47.5243 53.533 49.7418C53.9132 51.9594 56.2889 53.4033 58.8393 52.967Z" fill="white"/>
<path fill-rule="evenodd" clip-rule="evenodd" d="M58.6355 50.9467C59.4535 50.8068 59.6901 50.0264 59.5825 49.3988C59.4749 48.7711 58.8928 48.3762 58.0748 48.5161C57.2568 48.6561 56.681 49.2783 56.7886 49.9059C56.8961 50.5336 57.8176 51.0866 58.6355 50.9467Z" fill="black"/>
<path d="M58.4192 50.2898C58.8628 50.2139 59.172 49.8582 59.1098 49.4954C59.0476 49.1325 58.6376 48.8999 58.1939 48.9758C57.7503 49.0517 57.441 49.4074 57.5032 49.7702C57.5654 50.1331 57.9755 50.3657 58.4192 50.2898Z" fill="white"/>
<path d="M63.2535 44.8991L53.0488 44.2656L52.7812 48.613L62.9859 49.2465L63.2535 44.8991Z" fill="#353944"/>
<path fill-rule="evenodd" clip-rule="evenodd" d="M73.8471 50.9316C76.2172 50.5261 77.8206 48.3432 77.4285 46.0559C77.0365 43.7686 74.7973 42.2431 72.4272 42.6486C70.0571 43.0541 68.4536 45.237 68.8457 47.5243C69.2378 49.8116 71.477 51.3371 73.8471 50.9316Z" fill="white"/>
<path fill-rule="evenodd" clip-rule="evenodd" d="M73.5281 48.935C74.3461 48.795 74.9868 47.8563 74.8792 47.2287C74.7716 46.6011 73.7854 46.3645 72.9674 46.5044C72.1494 46.6444 71.5735 47.2666 71.6811 47.8942C71.7887 48.5218 72.7102 49.0749 73.5281 48.935Z" fill="black"/>
<path fill-rule="evenodd" clip-rule="evenodd" d="M73.2947 48.5089C73.8216 48.4187 74.1885 47.995 74.1144 47.5624C74.0402 47.1297 73.553 46.8521 73.0262 46.9423C72.4993 47.0324 72.1324 47.4562 72.2065 47.8888C72.2807 48.3214 72.7679 48.599 73.2947 48.5089Z" fill="white"/>
<path d="M77.08 41.6837L68.0342 43.1875L68.7498 47.484L77.7956 45.9802L77.08 41.6837Z" fill="#E2E2E2"/>
<path fill-rule="evenodd" clip-rule="evenodd" d="M54.9105 57.6313L42.6569 56.7084L42.6378 56.9653L54.8914 57.8882L54.9105 57.6313Z" fill="black"/>
<path d="M42.7885 59.7124L55.0752 59.5586L55.0784 59.8162L42.7917 59.9701L42.7885 59.7124Z" fill="black"/>
<path fill-rule="evenodd" clip-rule="evenodd" d="M55.0518 61.4961L42.8252 62.7256L42.8507 62.9819L55.0773 61.7525L55.0518 61.4961Z" fill="black"/>
<path fill-rule="evenodd" clip-rule="evenodd" d="M93.3333 107.707C93.9255 109.953 98.0441 111.409 101.071 109.711C103.689 108.244 105.394 103.966 104.471 101.263C103.743 99.1293 102.507 96.0188 101.211 92.8974C99.042 87.6707 97.5915 83.8361 96.8597 81.3935C95.7504 77.6909 91.8977 83.6564 88.894 89.1988C87.3601 92.0289 87.9247 95.7768 87.9522 97.9669C88.0335 104.446 92.2289 103.517 93.3333 107.707Z" fill="#353944"/>
<path fill-rule="evenodd" clip-rule="evenodd" d="M74.1796 70.7048L74.7252 79.0926L67.5338 76.5511L60.7321 80.001L60.1865 71.6133L67.3779 74.1546L74.1796 70.7048Z" fill="#353944"/>
</g>
</svg>
