<svg width="32" height="32" viewBox="0 0 32 32" fill="none" xmlns="http://www.w3.org/2000/svg">
<rect width="32" height="32" rx="2.02508" fill="#5C62F9"/>
<path fill-rule="evenodd" clip-rule="evenodd" d="M18.3477 5.75684L16.6992 7.23439C16.3863 7.18843 16.0618 7.17298 15.7422 7.17298C15.04 7.17298 14.2963 7.2499 13.6317 7.5128L11.8135 6.08626L11.9456 9.07038C11.8702 9.22858 11.8034 9.39942 11.7464 9.58384C11.4067 10.6813 11.3532 11.2628 11.3532 12.1325C11.3532 12.2526 11.4081 13.0111 11.2677 13.5532C10.96 14.7414 10.1062 16.6962 9.83178 18.0391C9.76465 18.3675 9.26766 21.4315 9.61809 23.5496C10.0253 26.0107 12.5946 26.2737 14.9689 26.3016L15.1251 26.3031C15.307 26.3046 15.4874 26.3048 15.6653 26.3049L15.8637 26.3049C17.8873 26.3038 21.8072 26.2524 22.2862 23.8625C22.2878 23.8562 22.2894 23.8497 22.2909 23.8429C22.4419 23.1527 22.6749 22.3386 22.9173 20.331C23.0408 19.308 23.0408 19.2525 22.9872 18.0544C22.9337 16.8563 22.0506 14.0233 23.5579 13.5199C24.6141 13.1671 25.2274 14.191 25.3467 15.0084C25.3816 15.248 25.3718 15.5099 25.3576 15.7665L25.3525 15.8568C25.3516 15.8718 25.3508 15.8868 25.3499 15.9017L25.345 15.9909C25.317 16.5227 25.3229 16.9948 25.747 17.1457C26.1729 17.2972 26.5638 17.0684 26.7181 16.4024C26.8508 15.8292 26.734 14.5927 26.667 14.2943C26.5222 13.6489 26.0673 12.1292 24.3586 11.7387C23.0428 11.4381 22.2521 12.712 21.8895 13.4318L21.8599 13.4912C21.8551 13.5009 21.8504 13.5104 21.8458 13.5199C21.2325 14.7761 21.4819 16.9928 21.684 17.6328C21.8916 18.2907 21.8836 18.8872 21.7868 19.3773L21.7867 19.377L21.7698 19.2976C21.6221 18.61 21.469 18.0156 21.3423 17.6651L21.3278 17.6258C20.5494 15.5553 19.7537 13.8335 19.3192 11.6934C19.2509 11.357 19.1917 11.0014 19.1329 10.6481L19.1035 10.4717C18.9611 9.62083 18.8127 8.80311 18.5359 8.31814C18.5218 8.29354 18.5074 8.26945 18.4926 8.24586L18.3477 5.75684Z" fill="white"/>
</svg>
