<?xml version="1.0" standalone="no"?>
<!DOCTYPE svg PUBLIC "-//W3C//DTD SVG 20010904//EN" "http://www.w3.org/TR/2001/REC-SVG-20010904/DTD/svg10.dtd">
<svg version="1.0" xmlns="http://www.w3.org/2000/svg" width="700.000000pt" height="700.000000pt"
	viewBox="0 0 700.000000 700.000000" preserveAspectRatio="xMidYMid meet">
	<g transform="translate(0.000000,700.000000) scale(0.100000,-0.100000)" fill="#000000" stroke="none">
		<path d="M247 6981 c-70 -23 -133 -70 -181 -135 -72 -97 -66 196 -64 -3366 l3
-3215 27 -57 c34 -73 103 -142 176 -176 l57 -27 3215 -3 c3548 -2 3267 -7
3363 61 68 49 121 123 141 199 16 58 17 298 14 3263 l-3 3200 -28 61 c-36 77
-104 145 -182 181 l-60 28 -3210 2 c-3097 2 -3212 1 -3268 -16z m3825 -1518
c13 -237 17 -273 36 -310 37 -71 68 -197 116 -468 86 -489 132 -642 392 -1308
76 -193 119 -320 149 -440 46 -183 55 -188 55 -32 0 66 -8 123 -29 210 -44
180 -54 288 -48 502 7 269 40 385 161 567 135 203 300 286 476 242 115 -29
207 -81 291 -165 159 -160 229 -368 229 -685 0 -166 -27 -256 -92 -311 -29
-24 -38 -27 -90 -23 -65 5 -92 23 -116 78 -11 27 -14 75 -13 210 2 191 -8 252
-56 347 -32 64 -95 130 -148 154 -49 23 -136 24 -197 4 -60 -21 -123 -85 -148
-151 -46 -124 -45 -275 5 -624 37 -256 39 -516 7 -750 -48 -347 -119 -708
-162 -822 -69 -183 -283 -322 -598 -387 -192 -40 -335 -52 -692 -58 -744 -12
-1063 49 -1273 247 -113 105 -167 224 -193 423 -20 152 -14 609 10 817 40 341
62 427 227 897 141 404 149 439 149 632 0 86 5 208 11 271 11 118 60 332 99
430 22 55 22 57 11 345 -7 160 -13 305 -16 323 -2 17 -1 32 3 32 4 0 93 -68
197 -151 135 -106 196 -148 210 -145 11 2 55 13 97 25 117 31 274 44 430 37
l137 -6 173 155 c95 85 176 155 179 155 3 0 12 -120 21 -267z" />
	</g>
</svg>
