<svg width="287" height="94" viewBox="0 0 287 94" fill="none" xmlns="http://www.w3.org/2000/svg">
<path d="M0.594556 62.9376C0.302745 62.6642 0.287838 62.206 0.561261 61.9142L5.01694 57.1588C5.29036 56.867 5.74858 56.8521 6.04039 57.1256C6.3322 57.399 6.3471 57.8572 6.07368 58.149L2.11308 62.376L6.34005 66.3366C6.63186 66.61 6.64676 67.0682 6.37334 67.36C6.09992 67.6518 5.64171 67.6667 5.3499 67.3933L0.594556 62.9376ZM122.721 2.31338L122.954 1.62768L122.721 2.31338ZM143.993 92.2358L143.854 92.9465L143.993 92.2358ZM198.39 57.3107L199.019 56.9525L198.39 57.3107ZM286.441 84.1147C286.839 84.0723 287.196 84.3604 287.238 84.758C287.28 85.1557 286.992 85.5123 286.595 85.5547L286.441 84.1147ZM1.06609 61.6856C64.802 59.6121 101.377 46.7524 118.834 33.4586C127.572 26.8042 131.416 20.1266 131.647 14.7222C131.876 9.39875 128.602 5.07283 122.489 2.99907L122.954 1.62768C129.536 3.8604 133.356 8.68086 133.094 14.7843C132.836 20.8068 128.607 27.8366 119.711 34.6107C101.901 48.174 64.9638 61.0557 1.11318 63.1329L1.06609 61.6856ZM122.489 2.99907C119.261 1.90436 116.335 2.24578 113.755 3.68173C111.152 5.13019 108.853 7.72129 106.983 11.1989C103.242 18.1572 101.324 28.4795 102.058 39.4957C103.526 61.5288 115.55 85.9413 144.132 91.5252L143.854 92.9465C114.391 87.1904 102.106 62.0039 100.613 39.592C99.8662 28.3856 101.804 17.7738 105.708 10.5131C107.661 6.88119 110.131 4.04154 113.051 2.41635C115.994 0.778659 119.345 0.403524 122.954 1.62768L122.489 2.99907ZM144.132 91.5252C171.265 96.8261 193.541 79.6346 206.863 59.3412C213.515 49.2079 217.886 38.3658 219.485 29.3046C220.284 24.7726 220.384 20.7201 219.753 17.4389C219.121 14.1568 217.773 11.7118 215.733 10.2746L216.567 9.09072C219.015 10.8148 220.5 13.6571 221.175 17.1653C221.85 20.6743 221.729 24.9149 220.911 29.5561C219.273 38.8414 214.816 49.8659 208.074 60.1359C194.607 80.6493 171.829 98.4116 143.854 92.9465L144.132 91.5252ZM215.733 10.2746C211.431 7.24395 207.415 7.04181 203.998 8.71101C200.529 10.4052 197.553 14.0902 195.55 19.0796C191.548 29.049 191.581 43.8861 199.019 56.9525L197.761 57.6689C190.103 44.2159 190.041 28.9162 194.206 18.5401C196.287 13.3567 199.459 9.31668 203.362 7.40983C207.317 5.47794 211.894 5.7986 216.567 9.09072L215.733 10.2746ZM199.019 56.9525C210.603 77.3019 227.454 84.6118 243.906 86.5875C260.424 88.5711 276.445 85.1787 286.441 84.1147L286.595 85.5547C276.791 86.5982 260.469 90.035 243.733 88.0253C226.932 86.0076 209.62 78.5018 197.761 57.6689L199.019 56.9525Z" fill="#01082D"/>
</svg>
