<svg width="33" height="32" viewBox="0 0 33 32" fill="currentColor" xmlns="http://www.w3.org/2000/svg">
<path d="M28.7374 0H3.59459C1.66602 0 0.166016 1.57143 0.166016 3.42857V28.5714C0.166016 30.5 1.66602 32 3.59459 32H13.3803V21.1429H8.8803V16H13.3803V12.1429C13.3803 7.71429 16.0232 5.21429 20.0232 5.21429C22.0232 5.21429 24.0232 5.57143 24.0232 5.57143V9.92857H21.8089C19.5946 9.92857 18.8803 11.2857 18.8803 12.7143V16H23.8089L23.0232 21.1429H18.8803V32H28.7374C30.5946 32 32.166 30.5 32.166 28.5714V3.42857C32.166 1.57143 30.5946 0 28.7374 0Z"/>
</svg>
