<svg width="33" height="32" viewBox="0 0 33 32" fill="currentColor" xmlns="http://www.w3.org/2000/svg">
<path d="M30.2143 0H2.71429C1.5 0 0.5 1.07143 0.5 2.35714V29.7143C0.5 31 1.5 32 2.71429 32H30.2143C31.4286 32 32.5 31 32.5 29.7143V2.35714C32.5 1.07143 31.4286 0 30.2143 0ZM10.1429 27.4286H5.42857V12.2143H10.1429V27.4286ZM7.78571 10.0714C6.21429 10.0714 5 8.85714 5 7.35714C5 5.85714 6.21429 4.57143 7.78571 4.57143C9.28572 4.57143 10.5 5.85714 10.5 7.35714C10.5 8.85714 9.28572 10.0714 7.78571 10.0714ZM27.9286 27.4286H23.1429V20C23.1429 18.2857 23.1429 16 20.7143 16C18.2143 16 17.8571 17.9286 17.8571 19.9286V27.4286H13.1429V12.2143H17.6429V14.2857H17.7143C18.3571 13.0714 19.9286 11.7857 22.2143 11.7857C27 11.7857 27.9286 15 27.9286 19.0714V27.4286Z"/>
</svg>
