<svg width="33" height="32" viewBox="0 0 33 32" fill="currentColor" xmlns="http://www.w3.org/2000/svg">
<path d="M29.4035 0H4.2606C2.33203 0 0.832031 1.57143 0.832031 3.42857V28.5714C0.832031 30.5 2.33203 32 4.2606 32H29.4035C31.2606 32 32.832 30.5 32.832 28.5714V3.42857C32.832 1.57143 31.2606 0 29.4035 0ZM25.9035 11.3571C25.9035 11.5714 25.9035 11.7857 25.9035 12C25.9035 18.1429 21.1892 25.2857 12.5463 25.2857C9.90346 25.2857 7.47489 24.5714 5.40346 23.2143C5.7606 23.2857 6.11775 23.2857 6.47489 23.2857C8.68917 23.2857 10.6892 22.5 12.332 21.2857C10.2606 21.2143 8.54632 19.8571 7.90346 18C8.68917 18.1429 9.33203 18.1429 10.0463 17.9286C7.90346 17.5 6.33203 15.6429 6.33203 13.3571V13.2857C6.90346 13.6429 7.61775 13.8571 8.40346 13.8571C7.11775 13 6.33203 11.5714 6.33203 10C6.33203 9.07143 6.54632 8.28572 6.97489 7.57143C9.2606 10.4286 12.7606 12.2857 16.6177 12.5C15.9749 9.35714 18.332 6.71429 21.1892 6.71429C22.5463 6.71429 23.7606 7.28571 24.6177 8.21429C25.6892 8 26.6892 7.64286 27.6177 7.07143C27.2606 8.21429 26.4749 9.07143 25.5463 9.64286C26.4749 9.57143 27.4035 9.28572 28.2606 8.92857C27.6177 9.85714 26.7606 10.7143 25.9035 11.3571Z" />
</svg>
