<svg width="170" height="201" viewBox="0 0 170 201" fill="none" xmlns="http://www.w3.org/2000/svg">
<path d="M10.0071 172.558C5.85087 179.717 8.29594 188.982 15.9866 192.119C66.5913 212.759 126.005 193.528 154.111 145.114C182.217 96.7005 169.256 35.914 125.98 2.64958C119.403 -2.40583 110.112 0.12089 105.956 7.28012L10.0071 172.558Z" fill="#FFCC00"/>
<mask id="mask0_5009_76081" style="mask-type:alpha" maskUnits="userSpaceOnUse" x="18" y="4" width="152" height="197">
<path d="M21.9624 174.384C21.8305 175.92 21.3274 177.394 20.6882 178.798C18.0441 184.605 17.6781 191.626 23.4998 194.001C67.5 211.947 127.104 190.665 151.001 149.501C176 111.001 177.295 53.2831 140.5 25.0001C136.188 21.6858 119.223 7.97225 110.062 4.65734C106.554 3.38829 102.205 4.99921 98.4746 4.9993L36.5 5.00081L21.9624 174.384Z" fill="#F97F88"/>
</mask>
<g mask="url(#mask0_5009_76081)">
<mask id="mask1_5009_76081" style="mask-type:alpha" maskUnits="userSpaceOnUse" x="145" y="79" width="60" height="119">
<path d="M190.161 112.477C191.335 120.517 187.376 131.108 194.1 133.5C198.29 134.99 202.136 132.74 203.654 126.188C204.959 120.55 203.81 108.388 203.151 105.452C201.726 99.1042 197.251 84.1557 180.44 80.3149C166.948 77.2323 159.068 90.9753 155.718 97.8347C149.685 110.192 152.139 131.996 154.126 138.291C157.813 149.971 156.915 163.272 154.126 168.421C151.221 173.785 148.344 176.955 145.494 177.93L147.338 197.655C158.505 187.079 165.042 176.423 166.948 165.685C168.102 159.18 169.294 153.187 166.948 142.438C165.076 133.863 157.733 102.787 172.563 97.8347C182.954 94.3646 188.988 104.436 190.161 112.477Z" fill="white"/>
</mask>
<g mask="url(#mask1_5009_76081)">
<path d="M190.177 112.477C191.35 120.517 187.392 131.108 194.116 133.5C198.306 134.99 202.152 132.74 203.669 126.188C204.975 120.55 203.825 108.388 203.166 105.452C201.742 99.1042 197.266 84.1557 180.456 80.3149C166.964 77.2323 159.083 90.9753 155.734 97.8347C149.7 110.192 152.154 131.996 154.142 138.291C157.829 149.971 156.931 163.272 154.142 168.421C151.237 173.785 148.359 176.955 145.51 177.93L147.354 197.655C158.521 187.079 165.058 176.423 166.964 165.685C168.118 159.18 169.31 153.187 166.964 142.438C165.092 133.863 157.749 102.787 172.578 97.8347C182.97 94.3646 189.004 104.436 190.177 112.477Z" fill="#FA99A0"/>
<path fill-rule="evenodd" clip-rule="evenodd" d="M162.797 80.4397C165.549 87.7628 167.937 91.3002 169.96 91.0516C171.982 90.803 173.606 86.7728 174.83 78.9609L162.797 80.4397Z" fill="#F97F88"/>
</g>
<path fill-rule="evenodd" clip-rule="evenodd" d="M117.149 20.4805L96.7591 38.753L119.27 56.9511L117.149 20.4805Z" fill="#292A2B"/>
<path fill-rule="evenodd" clip-rule="evenodd" d="M54.1501 22.9291L75.2808 40.68L54.5236 57.9097L54.1501 22.9291Z" fill="#FA99A0"/>
<path fill-rule="evenodd" clip-rule="evenodd" d="M91.4703 222.598C111.787 222.598 154.366 222.558 156.262 195.497C157.103 183.494 150.36 147.697 146.424 137.228C138.765 116.861 130.937 99.9255 126.662 78.8741C124.255 67.017 122.993 52.7475 118.956 45.6743C113.541 36.1887 102.227 34.4102 91.4703 34.4102C75.9245 34.4102 58.3121 38.2413 52.158 58.1242C48.8169 68.9191 48.2899 74.6394 48.2899 83.1934C48.2899 84.3754 48.83 91.8361 47.449 97.1678C44.4217 108.855 36.0217 128.084 33.3218 141.293C32.6614 144.524 27.7718 174.662 31.2195 195.497C35.6662 222.368 66.3225 222.598 91.4703 222.598Z" fill="#7F84FF"/>
<path d="M64.0345 79.0924C68.2561 79.0924 71.6784 75.6702 71.6784 71.4486C71.6784 67.227 68.2561 63.8047 64.0345 63.8047C59.8129 63.8047 56.3906 67.227 56.3906 71.4486C56.3906 75.6702 59.8129 79.0924 64.0345 79.0924Z" fill="#FA99A0"/>
<path d="M109.003 77.3073C113.225 77.3073 116.647 73.885 116.647 69.6634C116.647 65.4418 113.225 62.0195 109.003 62.0195C104.782 62.0195 101.359 65.4418 101.359 69.6634C101.359 73.885 104.782 77.3073 109.003 77.3073Z" fill="#FA99A0"/>
<path fill-rule="evenodd" clip-rule="evenodd" d="M102.509 66.7487L122.721 64.9698L122.758 65.3934L102.546 67.1723L102.509 66.7487Z" fill="black"/>
<path d="M122.993 69.9453H102.703V70.3705H122.993V69.9453Z" fill="black"/>
<path fill-rule="evenodd" clip-rule="evenodd" d="M102.742 73.1445L122.955 74.9234L122.918 75.347L102.705 73.5681L102.742 73.1445Z" fill="black"/>
<path fill-rule="evenodd" clip-rule="evenodd" d="M85.8713 66.8572L83.7304 63.7626L87.3265 63.3819L85.8713 66.8572Z" fill="#FFA1A1"/>
<path fill-rule="evenodd" clip-rule="evenodd" d="M69.2801 68.1002L49.0676 66.3214L49.0308 66.745L69.2433 68.5238L69.2801 68.1002Z" fill="black"/>
<path d="M49.2259 71.2969H69.5156V71.7221H49.2259V71.2969Z" fill="black"/>
<path fill-rule="evenodd" clip-rule="evenodd" d="M69.4453 74.4961L49.2328 76.275L49.2696 76.6986L69.4822 74.9197L69.4453 74.4961Z" fill="black"/>
<path fill-rule="evenodd" clip-rule="evenodd" d="M64.6018 47.1552C68.2163 46.539 70.991 46.2647 72.9258 46.3323C74.8606 46.3999 77.7101 46.8706 81.4742 47.7444L81.2229 54.939C77.7265 53.807 74.9233 53.2041 72.8134 53.1305C70.7034 53.0568 67.8825 53.4632 64.3505 54.3498L64.6018 47.1552Z" fill="#7F84FF"/>
<path fill-rule="evenodd" clip-rule="evenodd" d="M88.625 44.8789L104.791 43.1798L105.543 50.3393C101.473 49.9203 98.5218 49.8071 96.6886 49.9998C94.8554 50.1925 92.4183 50.872 89.3775 52.0384L88.625 44.8789Z" fill="#7F84FF"/>
<path d="M74.7751 59.7111C78.8241 59.1897 81.7447 55.9585 81.2985 52.494C80.8523 49.0295 77.2083 46.6437 73.1594 47.1652C69.1104 47.6867 66.1898 50.9179 66.636 54.3823C67.0822 57.8468 70.7262 60.2326 74.7751 59.7111Z" fill="white"/>
<path d="M74.534 54.3312C74.6013 54.8537 74.3524 55.5311 73.8744 56.1144C73.3998 56.6938 72.7309 57.1405 72.0156 57.2326C71.2899 57.3261 70.521 57.1119 69.9138 56.7274C69.3017 56.3399 68.8924 55.8055 68.8261 55.2902C68.7588 54.7678 68.9711 54.2453 69.3972 53.8212C69.8234 53.3969 70.4562 53.0808 71.1964 52.9855C71.9493 52.8885 72.7686 52.9683 73.4104 53.2114C74.0594 53.4572 74.4713 53.8448 74.534 54.3312Z" fill="#57AD5D" stroke="#3D8242" stroke-width="0.423068"/>
<path d="M71.7346 56.4318C72.7424 56.302 73.473 55.5254 73.3664 54.6973C73.2597 53.8692 72.3562 53.3031 71.3484 53.4329C70.3405 53.5627 69.6099 54.3393 69.7165 55.1674C69.8232 55.9955 70.7267 56.5616 71.7346 56.4318Z" fill="#292A2B"/>
<path fill-rule="evenodd" clip-rule="evenodd" d="M66.8189 46.8415C70.0533 46.3381 72.5302 46.1414 74.2496 46.2514C75.969 46.3615 78.4901 46.878 81.8129 47.801L81.3737 54.6653C78.2968 53.5021 75.8208 52.8605 73.9458 52.7405C71.1332 52.5605 66.6656 54.5034 64.456 52.6745C62.983 51.4552 63.7706 49.5109 66.8189 46.8415Z" fill="black"/>
<path fill-rule="evenodd" clip-rule="evenodd" d="M64.7771 44.1271C68.8661 43.6216 71.9887 43.4757 74.145 43.6895C76.3013 43.9033 79.4467 44.6705 83.5812 45.9912L82.7136 54.7428C78.8993 53.1256 75.8164 52.2005 73.4648 51.9674C71.1133 51.7343 67.9282 52.038 63.9096 52.8786C63.4534 52.8834 63.297 52.1627 63.4404 50.7166C63.5837 49.2705 64.0293 47.074 64.7771 44.1271Z" fill="#7F84FF"/>
<path d="M96.8398 58.1098C92.8061 57.5561 89.9238 54.2831 90.402 50.7993C90.8801 47.3154 94.5377 44.94 98.5714 45.4936C102.605 46.0473 105.487 49.3203 105.009 52.8041C104.531 56.288 100.873 58.6634 96.8398 58.1098Z" fill="white"/>
<path d="M98.0921 53.4404C98.104 53.9655 97.7862 54.6111 97.251 55.1395C96.7195 55.6642 96.0094 56.037 95.2905 56.0533C94.5611 56.0698 93.8211 55.7768 93.2593 55.3319C92.693 54.8834 92.3432 54.3106 92.3315 53.7927C92.3195 53.2678 92.5849 52.7719 93.0518 52.3961C93.5189 52.0201 94.1795 51.7731 94.9236 51.7562C95.6804 51.739 96.4846 51.9041 97.0955 52.2124C97.7133 52.5243 98.081 52.9517 98.0921 53.4404Z" fill="#57AD5D" stroke="#3D8242" stroke-width="0.423068"/>
<path d="M95.0905 55.2348C96.1038 55.2118 96.9098 54.5183 96.8909 53.6858C96.872 52.8533 96.0353 52.1971 95.0221 52.2201C94.0089 52.2431 93.2028 52.9366 93.2217 53.7691C93.2406 54.6016 94.0773 55.2578 95.0905 55.2348Z" fill="#292A2B"/>
<path fill-rule="evenodd" clip-rule="evenodd" d="M104.889 45.2218C101.668 44.6929 99.199 44.4762 97.4833 44.5717C95.7677 44.6671 93.2491 45.1613 89.9276 46.0543L90.3087 52.9037C93.387 51.7692 95.8616 51.1498 97.7326 51.0457C100.539 50.8896 104.978 52.8643 107.197 51.0586C108.676 49.8549 107.907 47.9093 104.889 45.2218Z" fill="black"/>
<path fill-rule="evenodd" clip-rule="evenodd" d="M106.947 42.5328C102.873 41.9948 99.7603 41.8234 97.608 42.0187C95.4557 42.214 92.3125 42.953 88.1782 44.2359L88.9708 52.971C92.7882 51.3899 95.8705 50.4928 98.2176 50.2798C100.565 50.0669 103.739 50.3962 107.74 51.2679C108.194 51.2764 108.356 50.559 108.225 49.1156C108.094 47.6722 107.668 45.478 106.947 42.5328Z" fill="#7F84FF"/>
<path fill-rule="evenodd" clip-rule="evenodd" d="M81.1406 72.207C81.4748 75.3865 84.452 77.6795 87.7904 77.3286C91.1289 76.9777 93.5643 74.1158 93.2301 70.9364" fill="white"/>
<path d="M81.1406 72.207C81.4748 75.3865 84.452 77.6795 87.7904 77.3286C91.1289 76.9777 93.5643 74.1158 93.2301 70.9364" stroke="#FF6F6F" stroke-width="0.57886"/>
<circle cx="96.3137" cy="53.4192" r="0.423068" fill="white" fill-opacity="0.6"/>
<circle cx="72.5715" cy="54.466" r="0.423068" fill="white" fill-opacity="0.6"/>
</g>
<path fill-rule="evenodd" clip-rule="evenodd" d="M1.49566 104.188C1.58503 105.074 3.52735 106.684 7.19045 107.987C7.86647 107.92 8.51551 107.806 9.12573 107.654C15.6275 112.627 24.0223 125.353 33.9141 133.602C39.6174 138.358 44.5179 136.99 50.2537 133.789L48.2278 105.931L41.5 105.931L21.2506 97.6163C21.2506 97.6163 21.8983 95.1009 21.7455 93.5853C21.4174 90.3294 19.5932 87.8454 17.6711 88.037C16.0442 88.1992 14.8687 90.2263 14.7449 92.8194C14.2718 92.4087 13.5607 92.0019 12.8588 91.6132L12.7026 91.5268C12.2088 91.2542 11.7287 90.9913 11.3494 90.7429C8.03146 88.57 4.43895 88.1813 3.32533 89.8747C2.57755 91.0118 3.13759 92.7985 4.5908 94.5076C3.92841 94.5428 2.13426 95.1197 1.5631 96.444C0.877832 98.0329 0.508406 99.8043 3.24677 101.409C1.02216 102.243 1.40629 103.303 1.49566 104.188Z" fill="#7F84FF"/>
<path d="M7.62315 115.538L10.8267 82.2877C10.912 81.4019 11.4924 80.6412 12.3242 80.3249L38.832 70.2445C40.3906 69.6518 42.0513 70.8328 42.003 72.4994L41.0549 105.21C41.0272 106.165 40.4222 107.007 39.5263 107.338L10.7631 117.958C9.14446 118.555 7.45769 117.255 7.62315 115.538Z" fill="#FFEDA6"/>
<path d="M26.1458 94.2027C26.1191 94.4713 25.8701 94.7542 25.642 94.8284L22.9042 95.7178C22.6475 95.8012 22.4686 95.6572 22.4953 95.3887L22.6378 93.9566L17.1621 95.7355L16.7347 100.032C16.6576 100.807 17.2197 101.26 17.9612 101.019L29.8252 97.1649C30.5382 96.9332 31.2594 96.0638 31.3366 95.288L31.7639 90.9918L26.2882 92.7707L26.1458 94.2027ZM30.8699 86.6628L28.5883 87.404L28.7308 85.972C28.805 85.2261 28.2173 84.753 27.5043 84.9846L22.9413 86.467C22.1998 86.7079 21.5041 87.5979 21.4299 88.3438L21.2874 89.7759L19.0059 90.5171C18.2644 90.758 17.5687 91.6481 17.4945 92.3939L17.2571 94.7808L31.8589 90.037L32.0963 87.6502C32.1705 86.9043 31.5829 86.4312 30.8699 86.6628ZM26.7631 87.997L23.1126 89.1829L23.2076 88.2282L26.8581 87.0423L26.7631 87.997Z" fill="#F97F88"/>
<g filter="url(#filter0_d_5009_76081)">
<ellipse cx="5.91735" cy="3.32803" rx="5.91735" ry="3.32803" transform="matrix(0.999935 0.0114359 -0.0114392 0.999934 3 87.7656)" fill="#7F84FF"/>
</g>
<g filter="url(#filter1_d_5009_76081)">
<ellipse cx="5.91735" cy="3.32803" rx="5.91735" ry="3.32803" transform="matrix(0.999935 0.0114359 -0.0114392 0.999934 1.46094 93.6641)" fill="#7F84FF"/>
</g>
<g filter="url(#filter2_d_5009_76081)">
<ellipse cx="5.91735" cy="3.32803" rx="5.91735" ry="3.32803" transform="matrix(0.999935 0.0114359 -0.0114392 0.999934 1.39062 99.5781)" fill="#7F84FF"/>
</g>
<defs>
<filter id="filter0_d_5009_76081" x="2.96191" y="87.8325" width="12.5869" height="6.65723" filterUnits="userSpaceOnUse" color-interpolation-filters="sRGB">
<feFlood flood-opacity="0" result="BackgroundImageFix"/>
<feColorMatrix in="SourceAlpha" type="matrix" values="0 0 0 0 0 0 0 0 0 0 0 0 0 0 0 0 0 0 127 0" result="hardAlpha"/>
<feOffset dx="0.752926"/>
<feComposite in2="hardAlpha" operator="out"/>
<feColorMatrix type="matrix" values="0 0 0 0 0 0 0 0 0 0 0 0 0 0 0 0 0 0 0.1 0"/>
<feBlend mode="normal" in2="BackgroundImageFix" result="effect1_dropShadow_5009_76081"/>
<feBlend mode="normal" in="SourceGraphic" in2="effect1_dropShadow_5009_76081" result="shape"/>
</filter>
<filter id="filter1_d_5009_76081" x="1.42285" y="93.731" width="12.5869" height="6.65723" filterUnits="userSpaceOnUse" color-interpolation-filters="sRGB">
<feFlood flood-opacity="0" result="BackgroundImageFix"/>
<feColorMatrix in="SourceAlpha" type="matrix" values="0 0 0 0 0 0 0 0 0 0 0 0 0 0 0 0 0 0 127 0" result="hardAlpha"/>
<feOffset dx="0.752926"/>
<feComposite in2="hardAlpha" operator="out"/>
<feColorMatrix type="matrix" values="0 0 0 0 0 0 0 0 0 0 0 0 0 0 0 0 0 0 0.1 0"/>
<feBlend mode="normal" in2="BackgroundImageFix" result="effect1_dropShadow_5009_76081"/>
<feBlend mode="normal" in="SourceGraphic" in2="effect1_dropShadow_5009_76081" result="shape"/>
</filter>
<filter id="filter2_d_5009_76081" x="1.35254" y="99.645" width="12.5869" height="6.65723" filterUnits="userSpaceOnUse" color-interpolation-filters="sRGB">
<feFlood flood-opacity="0" result="BackgroundImageFix"/>
<feColorMatrix in="SourceAlpha" type="matrix" values="0 0 0 0 0 0 0 0 0 0 0 0 0 0 0 0 0 0 127 0" result="hardAlpha"/>
<feOffset dx="0.752926"/>
<feComposite in2="hardAlpha" operator="out"/>
<feColorMatrix type="matrix" values="0 0 0 0 0 0 0 0 0 0 0 0 0 0 0 0 0 0 0.1 0"/>
<feBlend mode="normal" in2="BackgroundImageFix" result="effect1_dropShadow_5009_76081"/>
<feBlend mode="normal" in="SourceGraphic" in2="effect1_dropShadow_5009_76081" result="shape"/>
</filter>
</defs>
</svg>
