<svg width="28" height="69" viewBox="0 0 28 69" fill="none" xmlns="http://www.w3.org/2000/svg">
<path d="M13.9223 68.7556C14.3396 69.1174 14.9712 69.0723 15.3329 68.655L21.2281 61.8545C21.5899 61.4372 21.5448 60.8056 21.1275 60.4439C20.7102 60.0821 20.0786 60.1272 19.7169 60.5445L14.4767 66.5894L8.43182 61.3492C8.01451 60.9874 7.38295 61.0325 7.02119 61.4498C6.65943 61.8671 6.70447 62.4987 7.12178 62.8604L13.9223 68.7556ZM26.6999 34L27.6126 33.5915L26.6999 34ZM2.99763 30.8928L2.03939 31.1787L2.99763 30.8928ZM10.4886 15.4596L10.0777 16.3713L10.4886 15.4596ZM2 1.00098C2 0.448692 1.55228 0.000976538 0.999997 0.000976562C0.447712 0.000976587 -2.95276e-06 0.448692 -2.92862e-06 1.00098L2 1.00098ZM15.5748 67.9289C14.3679 51.0041 16.6825 41.1225 19.5009 36.3185C20.9211 33.8978 22.3614 32.9367 23.3905 32.7773C24.2967 32.6369 25.1937 33.0827 25.7872 34.4085L27.6126 33.5915C26.7514 31.6673 25.1026 30.4881 23.0843 30.8009C21.1888 31.0945 19.3257 32.6647 17.7758 35.3065C14.6542 40.6275 12.3622 50.9959 13.5798 68.0711L15.5748 67.9289ZM25.7872 34.4085C26.0683 35.0367 26.0548 35.5951 25.841 36.1149C25.6152 36.6638 25.1353 37.2368 24.3751 37.7732C22.8489 38.8501 20.4121 39.6207 17.672 39.7326C12.202 39.956 6.03358 37.5696 3.95588 30.6068L2.03939 31.1787C4.4659 39.3104 11.7152 41.9776 17.7536 41.731C20.7677 41.6079 23.6077 40.7625 25.5282 39.4073C26.4913 38.7277 27.2772 37.8805 27.6906 36.8758C28.1158 35.842 28.1148 34.7133 27.6126 33.5915L25.7872 34.4085ZM3.95588 30.6068C1.98063 23.9874 5.52785 17.8914 10.2623 13.8803C12.6155 11.8866 15.1858 10.4814 17.3455 9.83845C18.4272 9.51638 19.3586 9.39969 20.0845 9.46284C20.8085 9.52582 21.2419 9.75638 21.4858 10.0438L23.0107 8.74958C22.319 7.93465 21.3154 7.56237 20.2578 7.47036C19.2021 7.37852 18.0073 7.55466 16.7748 7.9216C14.3059 8.65663 11.4956 10.2141 8.96949 12.3543C3.94522 16.611 -0.261606 23.4677 2.03939 31.1787L3.95588 30.6068ZM21.4858 10.0438C22.2204 10.9092 22.2933 11.6765 22.0633 12.3308C21.8101 13.0509 21.1231 13.8132 20.0032 14.4269C17.7719 15.6495 14.2264 16.0472 10.8995 14.5479L10.0777 16.3713C13.9825 18.1311 18.188 17.7021 20.9643 16.1808C22.3481 15.4225 23.4791 14.3336 23.95 12.9942C24.4441 11.5892 24.1473 10.0888 23.0107 8.74958L21.4858 10.0438ZM10.8995 14.5479C6.76908 12.6864 4.59258 10.5357 3.41871 8.31112C2.23321 6.06449 2 3.61571 2 1.00098L-2.92862e-06 1.00098C-2.92967e-06 3.70413 0.231077 6.55576 1.64987 9.2445C3.08028 11.9553 5.64808 14.3749 10.0777 16.3713L10.8995 14.5479Z" fill="#FFCC00"/>
</svg>
