<svg width="150" height="224" viewBox="0 0 150 224" fill="none" xmlns="http://www.w3.org/2000/svg">
<path d="M145.522 120.371L17.5066 220.637C10.3885 226.212 -0.000193091 221.119 -0.000194363 212.055L-0.00021776 11.5226C-0.000219032 2.4579 10.3885 -2.63514 17.5066 2.93995L145.522 103.206C151.086 107.564 151.086 116.013 145.522 120.371Z" fill="#2EC499"/>
<mask id="mask0_6_2" style="mask-type:alpha" maskUnits="userSpaceOnUse" x="0" y="10" width="143" height="214">
<path d="M138.262 125.929L16.6364 221.19C9.87362 226.487 0.00350826 221.648 0.00350705 213.036L0.00349319 22.5137C0.003492 14.0736 72.2601 6.99149 81.5136 11.6973C81.8738 11.8805 82.149 12.1625 82.4227 12.4598C121.874 55.3243 128.589 48.7809 137.8 106.68C138.096 108.538 139.187 110.197 140.286 111.723C143.429 116.084 142.754 122.41 138.262 125.929Z" fill="#2EC499"/>
</mask>
<g mask="url(#mask0_6_2)">
<path fill-rule="evenodd" clip-rule="evenodd" d="M87.0473 22.9259L65.6726 42.0863L89.271 61.1687L87.0473 22.9259Z" fill="#353944"/>
<path fill-rule="evenodd" clip-rule="evenodd" d="M21.2277 25.3344L42.8979 44.5067L20.6855 62.0128L21.2277 25.3344Z" fill="#353944"/>
<path fill-rule="evenodd" clip-rule="evenodd" d="M60.1741 234.825C81.4718 234.825 126.107 234.783 128.095 206.407C128.976 193.821 121.908 156.285 117.781 145.306C109.753 123.95 101.546 106.192 97.0654 84.1172C94.5415 71.684 93.2193 56.7211 88.9868 49.3042C83.3107 39.3577 71.4504 37.4927 60.1741 37.4927C43.8776 37.4927 25.4146 41.5099 18.9634 62.3591C15.4609 73.6785 14.9084 79.6767 14.9084 88.6464C14.9084 89.8858 15.4746 97.709 14.0269 103.3C10.8535 115.555 2.04782 135.718 -0.782485 149.569C-1.47475 152.957 -6.60047 184.56 -2.98627 206.407C1.67515 234.584 33.8118 234.825 60.1741 234.825Z" fill="#E2E2E2"/>
<path fill-rule="evenodd" clip-rule="evenodd" d="M71.7053 71.4025L92.8939 69.5372L92.9325 69.9814L71.744 71.8467L71.7053 71.4025Z" fill="black"/>
<path d="M93.1767 74.7544H71.9072V75.2003H93.1767V74.7544Z" fill="black"/>
<path fill-rule="evenodd" clip-rule="evenodd" d="M71.9541 78.1138L93.1427 79.9791L93.1041 80.4232L71.9155 78.5579L71.9541 78.1138Z" fill="black"/>
<path fill-rule="evenodd" clip-rule="evenodd" d="M38.5255 73.4929C41.4627 73.4929 45.5008 70.0436 47.2209 68.5131C49.2298 66.7255 49.7426 61.6257 49.7426 58.1943C49.7426 55.3096 53.109 51.1738 51.12 49.6965C48.7171 47.9118 42.0092 47.8755 38.5255 47.8755C32.158 47.8755 25.6338 52.4319 25.6338 58.8013C25.6338 65.1706 32.158 73.4929 38.5255 73.4929Z" fill="#353944"/>
<path fill-rule="evenodd" clip-rule="evenodd" d="M56.2461 70.6051L54.0019 67.3602L57.7716 66.961L56.2461 70.6051Z" fill="#FF7FB6"/>
<path fill-rule="evenodd" clip-rule="evenodd" d="M50.4385 75.3599L60.4789 74.5847L60.5012 74.8497L50.4607 75.6248L50.4385 75.3599Z" fill="black"/>
<path d="M41.3372 65.1863C45.761 64.4857 48.8528 60.7956 48.2428 56.9443C47.6328 53.093 43.5521 50.539 39.1282 51.2396C34.7044 51.9403 31.6127 55.6304 32.2226 59.4817C32.8326 63.3329 36.9133 65.887 41.3372 65.1863Z" fill="white"/>
<path fill-rule="evenodd" clip-rule="evenodd" d="M44.6358 61.4664C46.0543 61.2418 46.4805 59.8946 46.3079 58.8046C46.1353 57.7146 45.1364 57.0175 43.7179 57.2421C42.2993 57.4668 41.2894 58.5325 41.462 59.6225C41.6346 60.7125 43.2173 61.6911 44.6358 61.4664Z" fill="black"/>
<path d="M44.2709 60.3261C45.0402 60.2042 45.5831 59.5949 45.4833 58.9651C45.3836 58.3354 44.679 57.9236 43.9097 58.0455C43.1403 58.1673 42.5975 58.7766 42.6972 59.4064C42.797 60.0362 43.5015 60.4479 44.2709 60.3261Z" fill="white"/>
<path fill-rule="evenodd" clip-rule="evenodd" d="M31.3447 50.3208L49.032 50.9394L48.769 58.4835L31.0817 57.8649L31.3447 50.3208Z" fill="#353944"/>
<path fill-rule="evenodd" clip-rule="evenodd" d="M67.8266 63.2595C72.1908 62.5682 75.2457 58.9581 74.6499 55.196C74.054 51.4338 70.033 48.9444 65.6688 49.6356C61.3045 50.3269 58.2496 53.937 58.8455 57.6991C59.4414 61.4612 63.4623 63.9507 67.8266 63.2595Z" fill="white"/>
<path fill-rule="evenodd" clip-rule="evenodd" d="M69.7764 58.6813C71.1949 58.4566 72.3238 56.8439 72.1512 55.7539C71.9786 54.6639 70.277 54.2323 68.8585 54.457C67.44 54.6816 66.43 55.7474 66.6026 56.8374C66.7753 57.9273 68.3579 58.906 69.7764 58.6813Z" fill="black"/>
<path fill-rule="evenodd" clip-rule="evenodd" d="M69.3984 57.9342C70.312 57.7895 70.9562 57.0635 70.8373 56.3126C70.7184 55.5617 69.8813 55.0703 68.9677 55.215C68.0541 55.3597 67.4099 56.0858 67.5288 56.8366C67.6477 57.5875 68.4848 58.0789 69.3984 57.9342Z" fill="white"/>
<path d="M74.3998 46.9821L57.5869 49.645L58.7678 57.1008L75.5807 54.4379L74.3998 46.9821Z" fill="#E2E2E2"/>
<path fill-rule="evenodd" clip-rule="evenodd" d="M34.4372 73.1877L13.2487 71.3224L13.21 71.7666L34.3986 73.6319L34.4372 73.1877Z" fill="black"/>
<path d="M13.419 76.5435H34.6885V76.9893H13.419V76.5435Z" fill="black"/>
<path fill-rule="evenodd" clip-rule="evenodd" d="M34.6025 79.895L13.414 81.7603L13.4526 82.2045L34.6412 80.3392L34.6025 79.895Z" fill="black"/>
<path fill-rule="evenodd" clip-rule="evenodd" d="M99.8072 161.002C100.783 164.908 107.88 167.519 113.157 164.644C117.72 162.157 120.763 154.78 119.225 150.076C118.012 146.363 115.938 140.946 113.764 135.508C110.123 126.403 107.696 119.726 106.482 115.478C104.643 109.037 97.8447 119.292 92.5254 128.831C89.8092 133.703 90.705 140.21 90.705 144.006C90.705 155.236 97.9867 153.718 99.8072 161.002Z" fill="#353944"/>
<path fill-rule="evenodd" clip-rule="evenodd" d="M67.4824 96.4723L68.2448 111.02L55.8529 106.46L44.0056 112.29L43.2432 97.7427L55.635 102.303L67.4824 96.4723Z" fill="#353944"/>
</g>
</svg>
