<svg width="24" height="24" viewBox="0 0 24 24" fill="none" xmlns="http://www.w3.org/2000/svg">
<path d="M13.0269 0.16942C14.6366 0.0751275 15.7331 -0.385319 17.1714 0.773987C18.6097 1.93329 19.3028 2.7988 20.2224 3.25716C21.142 3.71553 23.6156 6.81846 23.8419 9.45439C24.0682 12.0903 24.0637 14.2573 23.7494 14.8532C23.435 15.4491 23.221 15.9842 23.2511 16.5747C23.2812 17.1652 22.1118 19.3602 20.87 20.2465C20.0939 20.8007 18.6173 21.7515 17.3775 22.4834C16.6346 22.9218 15.9766 23.2819 15.6035 23.4318C14.6069 23.8316 13.0029 24.2606 12.0832 23.8023C11.1635 23.344 8.9916 22.5608 8.9916 22.5608C8.9916 22.5608 7.93383 22.3213 7.09551 21.8815C6.2572 21.4417 4.7312 20.4708 4.09917 20.2444C3.46714 20.018 1.06719 17.6821 0.914416 15.8131C0.761643 13.9441 0.165356 11.5997 0.0104384 10.8142C-0.14448 10.0287 1.46628 6.34938 2.10056 5.4924C2.5601 4.87255 3.82191 3.80208 4.89337 3.11285C5.30328 2.84873 5.68461 2.64118 5.98311 2.53568C7.061 2.15434 6.86135 1.73399 7.73316 1.13915C8.60497 0.54431 11.4173 0.263614 13.0269 0.16942Z" fill="#DC8E30"/>
<path d="M13.0278 0.16942C14.6374 0.0751275 15.734 -0.385319 17.1723 0.773987C18.6105 1.93329 19.3036 2.7988 20.2232 3.25716C21.1429 3.71553 23.6164 6.81846 23.8427 9.45439C24.069 12.0903 24.0645 14.2573 23.7502 14.8532C23.4359 15.4491 23.2218 15.9842 23.252 16.5747C23.2821 17.1652 22.1127 19.3602 20.8709 20.2465C20.0948 20.8007 18.6182 21.7515 17.3784 22.4834C17.9307 21.7712 18.6523 20.8302 19.253 20.0103C19.8129 19.2461 19.9378 18.9134 20.4027 18.2643C21.4463 16.8072 21.9477 16.5941 22.4805 15.8581C23.887 13.9152 23.9596 10.474 22.4448 8.84605C21.9113 8.27265 21.3276 8.03811 20.4549 6.93737C20.1383 6.53826 19.9059 6.12516 19.4586 5.37697C18.4787 3.73766 18.618 2.97707 16.4399 2.40069C14.2617 1.82431 14.2673 2.1591 12.3634 2.22848C10.4594 2.29786 10.2421 1.41458 8.84428 2.05726C7.44644 2.69994 6.59312 3.21587 5.57874 3.15265C5.39156 3.14064 5.15453 3.12912 4.89453 3.11295C5.30445 2.84883 5.68577 2.64128 5.98427 2.53577C7.06216 2.15443 6.86251 1.73409 7.73432 1.13925C8.60613 0.544409 11.4181 0.263614 13.0278 0.16942Z" fill="#B6711F"/>
<path d="M14.2246 19.8816C14.2246 19.8816 15.6091 19.6534 15.7919 19.0691C15.9747 18.4849 15.9513 17.6875 15.9513 17.6875C15.9513 17.6875 15.1649 19.1772 14.9146 19.3289C14.6643 19.4806 14.2246 19.8816 14.2246 19.8816Z" fill="#B17022"/>
<path d="M8.236 8.79005C8.31831 8.55392 8.52193 8.09774 8.99496 7.81734C9.51527 7.50965 10.2776 7.46329 10.4076 7.65188C10.4135 7.66051 10.4292 7.68056 10.4184 7.6892C10.3869 7.71501 9.84583 7.13188 9.14304 7.37734C8.3567 7.65198 7.70312 8.83808 7.70312 8.83808L8.236 8.79005Z" fill="#B17022"/>
<path d="M2.62919 9.57564C2.62919 9.57564 2.14616 9.79152 2.05792 10.8421C1.96969 11.8928 2.2543 12.0816 1.8162 12.5303C1.8162 12.5303 1.08318 11.5307 1.38913 11.0779C1.69509 10.6251 1.30744 10.3559 1.72103 9.85514C2.13462 9.3544 2.4563 9.20998 2.93954 8.9945C3.42278 8.77901 2.62919 9.57564 2.62919 9.57564Z" fill="#B17022"/>
<path d="M9.16405 16.4684C9.16405 16.4684 7.71393 15.9873 7.64663 15.184C7.57933 14.3806 6.31364 14.2165 6.96895 14.2973C7.82228 14.4026 7.68237 15.4111 7.99231 15.481C8.30225 15.551 9.16405 16.4684 9.16405 16.4684Z" fill="#B17022"/>
<path d="M18.0934 13.5733C18.0934 13.5733 18.4646 12.7401 18.1145 12.4107C17.7644 12.0812 17.74 11.8257 17.7846 11.4605C17.8291 11.0953 17.7233 10.8213 17.7233 10.8213C17.7233 10.8213 17.2283 10.9178 17.3777 11.3685C17.5271 11.8192 17.8716 11.8137 17.8258 12.7205C17.7801 13.6273 18.0934 13.5733 18.0934 13.5733Z" fill="#B17022"/>
<path d="M15.069 4.7175C15.5982 5.33 13.718 3.91144 13.1228 4.06846C12.5276 4.22549 11.8509 4.36424 11.8509 4.36424L11.3125 4.28415C11.3125 4.28415 11.7951 4.05983 12.2276 3.86588C12.6601 3.67194 13.1294 3.86152 13.4735 3.85596C13.8175 3.8504 14.8004 4.40653 15.069 4.7175Z" fill="#B17022"/>
<path d="M8.26372 20.7522C8.43089 20.8805 9.09937 21.3939 9.45333 21.5237C9.57761 21.5692 9.72528 21.5702 9.87253 21.5602C10.1449 21.5417 10.416 21.4858 10.5363 21.6045C10.7217 21.7874 10.6881 21.315 10.5195 21.3682C10.3509 21.4214 9.51092 21.3244 8.87889 20.9202C8.24686 20.516 8.26372 20.7522 8.26372 20.7522Z" fill="#B17022"/>
<path d="M8.35742 18.5817C8.35742 18.5817 9.25813 19.119 9.64047 18.9555C10.0228 18.7919 10.3553 18.6586 10.6181 18.6348C10.8808 18.6109 10.9814 18.5503 10.9814 18.5503C10.9814 18.5503 10.2925 18.5611 9.97931 18.6153C9.6661 18.6695 9.62822 18.8276 9.3529 18.7236C9.07758 18.6196 8.35742 18.5817 8.35742 18.5817Z" fill="#FFCE6F"/>
<path d="M4.23918 11.0628C4.25961 10.7543 4.23367 10.7281 4.45987 10.3207C4.68607 9.91337 5.30043 9.67714 5.17002 9.14731C5.03961 8.61748 5.29042 8.46582 5.29042 8.46582C5.29042 8.46582 5.7273 9.1484 5.48884 9.42791C5.25039 9.70741 4.77982 10.0596 4.61601 10.5645C4.45221 11.0694 4.20712 11.5558 4.23918 11.0628Z" fill="#FFCE6F"/>
<path d="M6.5 5.57104C6.5 5.57104 6.58251 5.04777 7.03399 4.77471C7.48547 4.50166 7.98597 4.74007 8.45634 4.38762C8.92671 4.03516 9.24666 3.77441 9.24666 3.77441C9.24666 3.77441 8.69377 4.64985 8.53099 4.61303C8.36821 4.5762 7.41634 4.61084 7.27806 4.8297C7.13979 5.04856 6.5 5.57104 6.5 5.57104Z" fill="#FFCE6F"/>
<path d="M12.7461 16.5237C12.7461 16.5237 13.3573 16.3422 13.5569 15.8331C13.7566 15.324 13.8315 15.2353 13.9107 14.7788C13.9103 14.7788 12.9952 16.4996 12.7461 16.5237Z" fill="#FFCE6F"/>
<path d="M18.9829 10.9392C18.9829 10.9392 19.1902 10.611 18.8156 10.0261C18.4411 9.44117 17.7344 8.98926 17.7344 8.98926C17.7344 8.98926 18.9652 10.4766 18.9829 10.9392Z" fill="#FFCE6F"/>
<path d="M4.33451 17.2954C4.97154 16.9102 6.07057 16.8546 6.30647 17.6584C6.5052 18.3342 6.68432 19.1835 6.04637 19.3954C6.02166 19.4039 5.99646 19.411 5.9709 19.4166C5.24094 19.5862 4.64618 19.5212 4.24975 18.902C3.87864 18.3223 3.71872 17.7579 4.22217 17.372C4.258 17.3443 4.29551 17.3187 4.33451 17.2954Z" fill="#361413"/>
<path d="M4.22222 17.3718C4.86875 17.058 5.83573 17.0616 6.0557 17.8097C6.22185 18.3748 6.37452 19.0621 6.04641 19.3952C6.0217 19.4037 5.9965 19.4108 5.97094 19.4165C5.24098 19.586 4.64622 19.521 4.24979 18.9018C3.87868 18.322 3.71866 17.7577 4.22222 17.3718Z" fill="#5E201C"/>
<path d="M5.85273 18.9941C5.85273 18.9941 5.78962 19.4429 5.22529 19.2422C4.66097 19.0415 4.59766 18.6157 4.59766 18.6157C4.59766 18.6157 5.10969 19.284 5.85273 18.9941Z" fill="#C26548"/>
<path d="M11.1703 8.39441C11.5666 9.01367 11.6239 10.0818 10.7968 10.311C10.1015 10.5043 9.22764 10.6783 9.00971 10.0582C9.00075 10.0341 8.99325 10.0095 8.98724 9.98459C8.81282 9.27521 8.87971 8.69704 9.51674 8.31183C10.1131 7.95114 10.6939 7.7957 11.0909 8.28503C11.1196 8.31992 11.1461 8.35644 11.1703 8.39441Z" fill="#361413"/>
<path d="M11.0909 8.28522C11.4139 8.91361 11.4101 9.85346 10.6404 10.0672C10.059 10.2286 9.35182 10.3771 9.0091 10.0581C9.00034 10.034 8.99305 10.0094 8.98724 9.98448C8.81282 9.2751 8.87971 8.69693 9.51674 8.31172C10.1135 7.95132 10.6943 7.79549 11.0909 8.28522Z" fill="#5E201C"/>
<path d="M9.42173 9.87132C9.42173 9.87132 8.95994 9.80998 9.16643 9.26149C9.37292 8.713 9.81102 8.65137 9.81102 8.65137C9.81102 8.65137 9.12344 9.14874 9.42173 9.87132Z" fill="#C26548"/>
<path d="M14.4919 20.6115C14.8883 21.2307 14.9456 22.2988 14.1186 22.528C13.4232 22.7213 12.5494 22.8953 12.3314 22.2753C12.3226 22.2513 12.3153 22.2268 12.3096 22.202C12.135 21.4925 12.2019 20.9144 12.8391 20.5291C13.4355 20.1684 14.0162 20.013 14.4132 20.5023C14.4417 20.5371 14.468 20.5736 14.4919 20.6115Z" fill="#361413"/>
<path d="M14.4132 20.5023C14.7362 21.1307 14.7324 22.0705 13.9626 22.2842C13.3813 22.4458 12.674 22.5942 12.3314 22.2753C12.3226 22.2513 12.3153 22.2268 12.3096 22.202C12.135 21.4925 12.2019 20.9144 12.8391 20.5291C13.4355 20.1688 14.0162 20.0127 14.4132 20.5023Z" fill="#5E201C"/>
<path d="M12.744 22.0875C12.744 22.0875 12.2822 22.0262 12.4887 21.4777C12.6952 20.9292 13.1332 20.8677 13.1332 20.8677C13.1332 20.8677 12.4457 21.365 12.744 22.0875Z" fill="#C26548"/>
<path d="M17.3965 7.71141C16.6741 7.90833 15.6032 7.66356 15.6074 6.82803C15.6107 6.1251 15.6828 5.26098 16.3564 5.23061C16.3825 5.22912 16.4088 5.22912 16.4349 5.23061C17.1846 5.26594 17.737 5.48987 17.9397 6.192C18.1294 6.84937 18.121 7.43488 17.5264 7.66863C17.484 7.68543 17.4406 7.69971 17.3965 7.71141Z" fill="#361413"/>
<path d="M17.5252 7.66775C16.8142 7.7936 15.887 7.5276 15.8906 6.74944C15.8935 6.16184 15.9444 5.4603 16.3552 5.22963C16.3813 5.22814 16.4076 5.22814 16.4337 5.22963C17.1834 5.26497 17.7358 5.48889 17.9385 6.19102C18.1282 6.84869 18.1198 7.4343 17.5252 7.66775Z" fill="#5E201C"/>
<path d="M16.4258 5.66731C16.4258 5.66731 16.6153 5.25341 17.0998 5.59932C17.5842 5.94522 17.5225 6.37123 17.5225 6.37123C17.5225 6.37123 17.2229 5.59078 16.4258 5.66731Z" fill="#C26548"/>
<path d="M16.738 16.0321C16.9081 15.3219 17.6444 14.5275 18.3963 14.9335C19.0285 15.2747 19.7731 15.7522 19.4762 16.3406C19.465 16.3636 19.4523 16.386 19.4384 16.4075C19.0456 17.029 18.5777 17.3918 17.8469 17.2265C17.1627 17.0716 16.6388 16.7826 16.7143 16.1635C16.7194 16.1193 16.7273 16.0754 16.738 16.0321Z" fill="#361413"/>
<path d="M16.7143 16.1631C16.9431 15.4968 17.6295 14.835 18.3293 15.2127C18.8579 15.498 19.4659 15.8791 19.4762 16.3402C19.465 16.3632 19.4523 16.3855 19.4384 16.4071C19.0456 17.0286 18.5777 17.3914 17.8469 17.226C17.1628 17.0712 16.6388 16.7822 16.7143 16.1631Z" fill="#5E201C"/>
<path d="M19.0494 16.189C19.0494 16.189 19.3313 16.5497 18.7863 16.7957C18.2413 17.0418 17.8867 16.7841 17.8867 16.7841C17.8867 16.7841 18.7346 16.905 19.0494 16.189Z" fill="#C26548"/>
<path d="M12.6561 12.7182C12.8642 12.6079 12.9681 12.5524 13.1099 12.564C13.3217 12.5812 13.5225 12.7361 13.5919 12.9303C13.6313 13.0405 13.614 13.1361 13.5791 13.3273C13.5276 13.6084 13.5002 13.759 13.3741 13.8401C13.3636 13.8471 13.3525 13.8531 13.3409 13.8582C13.1831 13.934 12.977 13.8669 12.7779 13.8025C12.6326 13.7549 12.5316 13.7221 12.438 13.6285C12.2734 13.4635 12.198 13.176 12.3132 12.9724C12.3206 12.9591 12.329 12.9465 12.3385 12.9346C12.3977 12.8553 12.4911 12.8056 12.6561 12.7182Z" fill="#361413"/>
<path d="M12.538 12.8227C12.746 12.7121 12.8501 12.6569 12.9918 12.6685C13.2036 12.6857 13.4044 12.8406 13.4737 13.0345C13.5133 13.145 13.4957 13.2402 13.4609 13.431C13.4237 13.634 13.3996 13.7685 13.3409 13.8578C13.1831 13.9336 12.977 13.8665 12.7779 13.8021C12.6326 13.7545 12.5316 13.7217 12.438 13.6281C12.2734 13.4631 12.198 13.1756 12.3132 12.9719C12.3206 12.9587 12.329 12.9461 12.3385 12.9342C12.3899 12.901 12.4549 12.8665 12.538 12.8227Z" fill="#5E201C"/>
<path d="M12.6133 13.3867C12.6133 13.3867 12.7136 13.7114 12.9911 13.6658C13.2687 13.6203 13.3836 13.4628 13.3836 13.4628C13.3836 13.4628 12.992 13.6122 12.6133 13.3867Z" fill="#C26548"/>
<path d="M16.279 18.9579C16.4872 18.8477 16.5911 18.7922 16.7329 18.8037C16.9446 18.821 17.1455 18.9758 17.215 19.1701C17.2544 19.2803 17.237 19.3758 17.2022 19.5666C17.1506 19.8477 17.1232 19.9983 16.997 20.0795C16.9865 20.0864 16.9754 20.0925 16.9638 20.0976C16.8062 20.1735 16.6001 20.1064 16.4008 20.042C16.2556 19.9943 16.1546 19.9615 16.061 19.868C15.8965 19.7029 15.8211 19.4154 15.9363 19.2117C15.9436 19.1985 15.952 19.1859 15.9614 19.174C16.0206 19.0956 16.1142 19.0458 16.279 18.9579Z" fill="#361413"/>
<path d="M16.1611 19.0624C16.369 18.9517 16.4731 18.8966 16.6149 18.9083C16.8267 18.9254 17.0275 19.0803 17.0967 19.2741C17.1363 19.3847 17.1188 19.48 17.0839 19.6711C17.0468 19.8741 17.0227 20.0086 16.9638 20.0979C16.8062 20.1738 16.6001 20.1067 16.4008 20.0423C16.2556 19.9946 16.1546 19.9618 16.061 19.8683C15.8965 19.7032 15.8211 19.4157 15.9363 19.212C15.9436 19.1988 15.952 19.1862 15.9614 19.1743C16.0129 19.1407 16.0779 19.1067 16.1611 19.0624Z" fill="#5E201C"/>
<path d="M16.2344 19.6265C16.2344 19.6265 16.3347 19.9511 16.6122 19.9057C16.8898 19.8602 17.0047 19.7026 17.0047 19.7026C17.0047 19.7026 16.6137 19.8521 16.2344 19.6265Z" fill="#C26548"/>
<path d="M2.8358 12.1183C3.20231 11.9241 3.38511 11.8265 3.6347 11.8469C4.00754 11.8767 4.36109 12.1498 4.48343 12.4921C4.55266 12.6861 4.52223 12.8544 4.46086 13.1902C4.37007 13.6851 4.32187 13.9501 4.09976 14.0935C4.08126 14.1057 4.06171 14.1164 4.04134 14.1254C3.76368 14.2589 3.40094 14.1407 3.05026 14.0274C2.79495 13.9435 2.61675 13.8857 2.45193 13.7211C2.16221 13.4304 2.02955 12.9243 2.23237 12.5657C2.24527 12.5425 2.26009 12.5202 2.27669 12.4993C2.38136 12.3598 2.54547 12.2722 2.8358 12.1183Z" fill="#361413"/>
<path d="M2.62798 12.3014C2.99409 12.1067 3.1774 12.0096 3.42698 12.03C3.79982 12.0598 4.15337 12.333 4.2752 12.6742C4.34495 12.8688 4.31401 13.0365 4.25263 13.3724C4.18727 13.7297 4.14418 13.9666 4.04134 14.1244C3.76368 14.2579 3.40094 14.1397 3.05026 14.0264C2.79495 13.9425 2.61675 13.8847 2.45193 13.7201C2.16221 13.4294 2.02955 12.9233 2.23237 12.5647C2.24527 12.5415 2.26009 12.5192 2.27669 12.4983C2.36727 12.4393 2.48175 12.3786 2.62798 12.3014Z" fill="#5E201C"/>
<path d="M2.75781 13.2944C2.75781 13.2944 2.93438 13.8659 3.42242 13.7858C3.91046 13.7057 4.11337 13.4285 4.11337 13.4285C4.11337 13.4285 3.42497 13.6916 2.75781 13.2944Z" fill="#C26548"/>
<path d="M19.4627 11.4955C19.6708 11.3852 19.7747 11.3297 19.9165 11.3414C20.1283 11.3585 20.3291 11.5135 20.3985 11.7076C20.438 11.8179 20.4206 11.9135 20.3858 12.1046C20.3347 12.3857 20.3068 12.5363 20.1807 12.6175C20.1702 12.6244 20.1591 12.6304 20.1475 12.6356C19.9897 12.7114 19.7837 12.6443 19.5844 12.5799C19.4392 12.5322 19.3382 12.4995 19.2447 12.4059C19.0801 12.2408 19.0047 11.9534 19.1199 11.7497C19.1272 11.7365 19.1356 11.7238 19.1451 11.712C19.2042 11.6331 19.2978 11.5834 19.4627 11.4955Z" fill="#361413"/>
<path d="M19.3446 11.599C19.5526 11.4885 19.6567 11.4333 19.7985 11.4449C20.0103 11.4621 20.211 11.617 20.2804 11.8108C20.3199 11.9214 20.3023 12.0166 20.2675 12.2079C20.2303 12.4108 20.2062 12.5453 20.1475 12.6347C19.9897 12.7105 19.7837 12.6434 19.5844 12.579C19.4392 12.5313 19.3382 12.4986 19.2447 12.405C19.0801 12.2399 19.0047 11.9525 19.1199 11.7488C19.1272 11.7356 19.1356 11.723 19.1451 11.7111C19.1966 11.6773 19.2616 11.6429 19.3446 11.599Z" fill="#5E201C"/>
<path d="M19.418 12.1631C19.418 12.1631 19.5181 12.4878 19.7958 12.4422C20.0735 12.3966 20.1884 12.2392 20.1884 12.2392C20.1884 12.2392 19.7971 12.3886 19.418 12.1631Z" fill="#C26548"/>
<path d="M12.3103 5.54043C12.5185 5.43015 12.6223 5.37467 12.7642 5.38628C12.9759 5.40345 13.1768 5.55829 13.2462 5.75254C13.2856 5.86281 13.2683 5.95829 13.2334 6.14956C13.1824 6.43065 13.1545 6.58122 13.0283 6.66241C13.0178 6.66935 13.0067 6.67539 12.9951 6.68048C12.8374 6.75631 12.6313 6.68921 12.4321 6.62479C12.2869 6.57715 12.1859 6.5444 12.0922 6.4508C11.9277 6.28574 11.8523 5.99819 11.9675 5.79452C11.9749 5.78134 11.9833 5.76873 11.9927 5.7568C12.0515 5.6772 12.1454 5.62757 12.3103 5.54043Z" fill="#361413"/>
<path d="M12.1923 5.64444C12.4002 5.53386 12.5044 5.47868 12.6461 5.49029C12.8579 5.50746 13.0587 5.6624 13.1279 5.85625C13.1676 5.96682 13.15 6.062 13.1152 6.25277C13.078 6.45575 13.0539 6.59024 12.9951 6.67957C12.8374 6.7554 12.6313 6.68831 12.4321 6.62389C12.2869 6.57625 12.1859 6.54349 12.0922 6.4499C11.9277 6.28483 11.8523 5.99729 11.9675 5.79362C11.9749 5.78044 11.9833 5.76783 11.9927 5.7559C12.0441 5.72275 12.1092 5.68831 12.1923 5.64444Z" fill="#5E201C"/>
<path d="M12.2656 6.20947C12.2656 6.20947 12.3659 6.53414 12.6435 6.48868C12.921 6.44322 13.036 6.2857 13.036 6.2857C13.036 6.2857 12.6449 6.43508 12.2656 6.20947Z" fill="#C26548"/>
<path d="M4.89077 4.38749C5.3496 4.45965 5.57907 4.49489 5.78443 4.67831C6.09141 4.95206 6.2112 5.4265 6.07895 5.80853C6.00379 6.02521 5.85888 6.15305 5.56916 6.40804C5.14209 6.78352 4.91354 6.98481 4.6178 6.96387C4.59293 6.96229 4.56823 6.9587 4.54397 6.95315C4.20584 6.88655 3.96953 6.54213 3.74037 6.20982C3.57412 5.96655 3.45811 5.79781 3.4287 5.54362C3.37764 5.09578 3.61599 4.56228 4.04612 4.38114C4.07379 4.3692 4.10241 4.35948 4.1317 4.35206C4.32093 4.29856 4.52712 4.33062 4.89077 4.38749Z" fill="#361413"/>
<path d="M4.5792 4.4115C5.03813 4.48287 5.2676 4.5189 5.47296 4.70232C5.77984 4.97607 5.89973 5.45051 5.76748 5.83175C5.69222 6.04922 5.54741 6.17627 5.25769 6.43126C4.94949 6.70242 4.74515 6.88247 4.54397 6.95314C4.20584 6.88654 3.96953 6.54213 3.74037 6.20982C3.57412 5.96654 3.45811 5.79781 3.4287 5.54362C3.37764 5.09577 3.61599 4.56227 4.04613 4.38113C4.07379 4.3692 4.10241 4.35947 4.1317 4.35205C4.25292 4.36009 4.3962 4.38262 4.5792 4.4115Z" fill="#5E201C"/>
<path d="M3.99962 5.37256C3.99962 5.37256 3.75392 5.99261 4.23981 6.24601C4.7257 6.49941 5.09875 6.38943 5.09875 6.38943C5.09875 6.38943 4.30854 6.16462 3.99962 5.37256Z" fill="#C26548"/>
<path d="M7.02325 11.6801C7.23137 11.5698 7.33533 11.5143 7.47708 11.5259C7.68888 11.5431 7.88965 11.698 7.95909 11.8922C7.99851 12.0025 7.98115 12.098 7.94633 12.2892C7.89526 12.5703 7.86738 12.7209 7.74126 12.8021C7.73077 12.809 7.71966 12.8151 7.70808 12.8201C7.5503 12.8961 7.34422 12.8289 7.14508 12.7644C6.99976 12.7168 6.89876 12.684 6.80522 12.5904C6.6406 12.4254 6.56523 12.1379 6.68043 11.9343C6.68774 11.921 6.69618 11.9084 6.70565 11.8966C6.76488 11.8172 6.85832 11.7676 7.02325 11.6801Z" fill="#361413"/>
<path d="M6.9052 11.7836C7.11322 11.673 7.21728 11.6179 7.35903 11.6294C7.57082 11.6466 7.77159 11.8015 7.84094 11.9954C7.88046 12.106 7.86289 12.2011 7.82807 12.3924C7.7909 12.5953 7.76679 12.7299 7.70808 12.8192C7.5503 12.8951 7.34422 12.8279 7.14508 12.7635C6.99976 12.7159 6.89876 12.6831 6.80522 12.5895C6.6406 12.4245 6.56523 12.137 6.68043 11.9334C6.68774 11.9201 6.69618 11.9075 6.70565 11.8956C6.75712 11.8619 6.82207 11.8275 6.9052 11.7836Z" fill="#5E201C"/>
<path d="M6.97852 12.3486C6.97852 12.3486 7.0788 12.6733 7.35636 12.6277C7.63393 12.5822 7.74882 12.4248 7.74882 12.4248C7.74882 12.4248 7.35769 12.5742 6.97852 12.3486Z" fill="#C26548"/>
<path d="M9.54864 4.53945C9.75677 4.42918 9.86062 4.37369 10.0025 4.3853C10.2143 4.40248 10.415 4.55731 10.4845 4.75156C10.5239 4.86173 10.5065 4.95731 10.4717 5.14858C10.4207 5.42957 10.3928 5.58024 10.2667 5.66134C10.2561 5.66826 10.245 5.67433 10.2335 5.6795C10.0757 5.75533 9.86961 5.68823 9.67037 5.62382C9.52515 5.57617 9.42416 5.54332 9.33051 5.44982C9.16599 5.28476 9.09063 4.99721 9.20582 4.79354C9.21319 4.78034 9.22162 4.76773 9.23105 4.75583C9.29017 4.67662 9.38372 4.62689 9.54864 4.53945Z" fill="#361413"/>
<path d="M9.43059 4.64346C9.63851 4.53279 9.74267 4.4777 9.88442 4.48932C10.0962 4.50649 10.297 4.66142 10.3662 4.85527C10.4058 4.96584 10.3883 5.06103 10.3535 5.2518C10.3163 5.45478 10.2922 5.58927 10.2335 5.6786C10.0757 5.75443 9.86961 5.68733 9.67037 5.62292C9.52515 5.57527 9.42416 5.54242 9.33051 5.44892C9.16599 5.28386 9.09063 4.99632 9.20582 4.79264C9.21319 4.77944 9.22162 4.76683 9.23105 4.75493C9.28251 4.72177 9.34746 4.68733 9.43059 4.64346Z" fill="#5E201C"/>
<path d="M9.50391 5.20801C9.50391 5.20801 9.60419 5.53267 9.88176 5.48722C10.1593 5.44176 10.2743 5.28424 10.2743 5.28424C10.2743 5.28424 9.88318 5.43362 9.50391 5.20801Z" fill="#C26548"/>
<path d="M11.2478 17.7362C11.456 17.626 11.5598 17.5705 11.7016 17.5821C11.9134 17.5993 12.1143 17.7542 12.1837 17.9484C12.223 18.0586 12.2058 18.1542 12.1708 18.345C12.1198 18.6261 12.092 18.7766 11.9658 18.8578C11.9553 18.8648 11.9442 18.8709 11.9326 18.876C11.7748 18.9518 11.5688 18.8846 11.3696 18.8203C11.2244 18.7727 11.1234 18.7398 11.0297 18.6463C10.8652 18.4811 10.7898 18.1937 10.905 17.99C10.9123 17.9768 10.9207 17.9642 10.9302 17.9523C10.9894 17.8734 11.0829 17.8238 11.2478 17.7362Z" fill="#361413"/>
<path d="M11.1298 17.8402C11.3377 17.7296 11.4418 17.6746 11.5836 17.6861C11.7954 17.7033 11.9962 17.8582 12.0654 18.052C12.1051 18.1626 12.0875 18.2578 12.0527 18.449C12.0155 18.6519 11.9914 18.7865 11.9326 18.8758C11.7748 18.9517 11.5688 18.8845 11.3696 18.8202C11.2244 18.7725 11.1234 18.7397 11.0297 18.6462C10.8652 18.481 10.7898 18.1936 10.905 17.9899C10.9123 17.9767 10.9207 17.964 10.9302 17.9522C10.9816 17.9186 11.0467 17.8842 11.1298 17.8402Z" fill="#5E201C"/>
<path d="M11.2031 18.4048C11.2031 18.4048 11.3034 18.7294 11.581 18.6839C11.8585 18.6383 11.9734 18.4809 11.9734 18.4809C11.9734 18.4809 11.5823 18.6303 11.2031 18.4048Z" fill="#C26548"/>
</svg>
