<svg width="123" height="124" viewBox="0 0 123 124" fill="none" xmlns="http://www.w3.org/2000/svg">
<ellipse cx="63.0476" cy="111.694" rx="59.4499" ry="11.7098" fill="#F9F6F3"/>
<path fill-rule="evenodd" clip-rule="evenodd" d="M75.4941 47.7501L77.2509 47.9054L77.2121 47.3521L75.4941 47.7501Z" fill="#2E2E2E"/>
<path fill-rule="evenodd" clip-rule="evenodd" d="M78.9999 53.2315L77.5922 52.168L77.332 52.6577L78.9999 53.2315Z" fill="#2E2E2E"/>
<path fill-rule="evenodd" clip-rule="evenodd" d="M79.7941 54.8716L78.0836 54.4434L78.0352 54.9956L79.7941 54.8716Z" fill="#2E2E2E"/>
<path fill-rule="evenodd" clip-rule="evenodd" d="M80.0422 56.6143L78.3317 56.186L78.2832 56.7383L80.0422 56.6143Z" fill="#2E2E2E"/>
<path d="M81.8106 47.8754C81.8806 48.8796 80.6825 49.7818 79.1342 49.8896C77.5859 49.9981 76.2741 49.2721 76.2041 48.2679C76.1341 47.2637 77.3322 46.3617 78.8805 46.2534C80.4282 46.145 81.7406 46.8712 81.8106 47.8754Z" fill="#353944"/>
<path d="M78.2497 53.1625C77.6997 53.6948 76.6255 53.4748 75.8508 52.6723C75.0767 51.8692 74.8946 50.7868 75.4452 50.2551C75.9952 49.7233 77.0689 49.9428 77.8435 50.7458C78.6182 51.5483 78.7998 52.6308 78.2497 53.1625Z" fill="#353944"/>
<path d="M79.289 55.1839C78.9533 55.8721 77.8694 56.0333 76.8674 55.5442C75.8648 55.055 75.3245 54.1004 75.6601 53.4117C75.9952 52.7235 77.0797 52.5623 78.0817 53.0514C79.0837 53.5406 79.6241 54.4957 79.289 55.1839Z" fill="#353944"/>
<path d="M79.658 56.5853C79.5939 57.1947 78.8197 57.6127 77.9281 57.5188C77.0371 57.425 76.3664 56.8549 76.43 56.246C76.4941 55.6366 77.2688 55.2186 78.1598 55.3125C79.0514 55.4063 79.7221 55.9758 79.658 56.5853Z" fill="#353944"/>
<path fill-rule="evenodd" clip-rule="evenodd" d="M79.5444 0.40918L67.082 11.5896L80.8411 22.7244L79.5444 0.40918Z" fill="#353944"/>
<mask id="mask0_5724_77240" style="mask-type:alpha" maskUnits="userSpaceOnUse" x="0" y="39" width="33" height="66">
<path d="M7.83174 57.2179C7.17953 61.6925 9.37978 67.5865 5.64223 68.9173C3.31299 69.7468 1.17514 68.4945 0.331545 64.848C-0.394333 61.7106 0.244781 54.9424 0.611055 53.3085C1.403 49.776 3.89086 41.4571 13.2356 39.3198C20.7358 37.6042 25.1164 45.2523 26.9782 49.0696C30.3324 55.946 28.9681 68.0805 27.8634 71.5838C25.8136 78.0836 26.3129 85.4855 27.8634 88.3512C29.4783 91.3364 31.0777 93.0999 32.6616 93.6429L31.6367 104.62C25.429 98.7344 21.7953 92.8041 20.7358 86.8281C20.0941 83.2086 19.4315 79.873 20.7358 73.8916C21.7764 69.1194 25.8581 51.8252 17.6146 49.0696C11.8381 47.1384 8.48395 52.7434 7.83174 57.2179Z" fill="white"/>
</mask>
<g mask="url(#mask0_5724_77240)">
<path d="M7.82982 57.2175C7.17761 61.692 9.37785 67.586 5.64031 68.9168C3.31104 69.7463 1.17318 68.494 0.329592 64.8475C-0.396286 61.7101 0.242828 54.9419 0.609104 53.308C1.40105 49.7756 3.8889 41.4567 13.2337 39.3193C20.7339 37.6037 25.1144 45.2518 26.9763 49.0691C30.3304 55.9455 28.9662 68.08 27.8614 71.5833C25.8116 78.0831 26.311 85.4851 27.8614 88.3507C29.4764 91.336 31.0758 93.0994 32.6597 93.6424L31.6348 104.619C25.427 98.734 21.7934 92.8036 20.7339 86.8276C20.0921 83.2081 19.4295 79.8726 20.7339 73.8912C21.7744 69.1189 25.8562 51.8247 17.6126 49.0691C11.8361 47.1379 8.48198 52.743 7.82982 57.2175Z" fill="#353944"/>
<path fill-rule="evenodd" clip-rule="evenodd" d="M-1.56518 42.4023C-0.983023 45.871 1.06478 47.7902 4.57822 48.1599C9.84834 48.7144 -0.462679 55.6176 -5.26911 52.3861C-8.47341 50.2319 -7.23877 46.9039 -1.56518 42.4023Z" fill="#F9C78A"/>
<path fill-rule="evenodd" clip-rule="evenodd" d="M-5.89235 53.915C-3.85024 56.7772 -1.16931 57.6032 2.15042 56.3936C7.13001 54.5792 0.885392 65.3088 -4.84964 64.5137C-8.67302 63.9839 -9.02056 60.4507 -5.89235 53.915Z" fill="#F9C78A"/>
<path fill-rule="evenodd" clip-rule="evenodd" d="M6.51989 34.5449C5.76175 37.9793 6.9423 40.5267 10.0615 42.1871C14.7405 44.6776 2.59704 47.2114 -0.650201 42.4127C-2.81503 39.2135 -0.424997 36.591 6.51989 34.5449Z" fill="#F9C78A"/>
<path fill-rule="evenodd" clip-rule="evenodd" d="M20.5498 32.6088C17.8017 34.8001 17.1177 37.5236 18.4981 40.7791C20.5687 45.6624 9.53868 39.981 10.0317 34.2059C10.3604 30.3558 13.8664 29.8234 20.5498 32.6088Z" fill="#F9C78A"/>
</g>
<mask id="mask1_5724_77240" style="mask-type:alpha" maskUnits="userSpaceOnUse" x="41" y="0" width="14" height="23">
<path d="M42.3796 0.703257L54.5148 12.4311L41.1298 22.0708L42.3796 0.703257Z" fill="white"/>
</mask>
<g mask="url(#mask1_5724_77240)">
<path d="M42.3112 1.51583L54.3923 13.3001L40.9637 22.8777L42.3112 1.51583Z" fill="#353944"/>
</g>
<mask id="mask2_5724_77240" style="mask-type:alpha" maskUnits="userSpaceOnUse" x="26" y="8" width="78" height="116">
<path d="M63.5861 123.418C76.0032 123.418 102.027 123.393 103.186 106.835C103.7 99.4914 99.5794 77.588 97.1729 71.1819C92.4924 58.7204 87.7075 48.3578 85.0952 35.4771C83.6234 28.2221 82.8525 19.4911 80.3846 15.1632C77.0752 9.35924 70.1607 8.271 63.5861 8.271C54.0846 8.271 43.3198 10.6151 39.5585 22.7809C37.5164 29.386 37.1943 32.8861 37.1943 38.12C37.1943 38.8432 37.5244 43.4081 36.6803 46.6705C34.8301 53.8218 29.696 65.587 28.0459 73.6693C27.6423 75.6459 24.6537 94.0869 26.761 106.835C29.4788 123.276 48.2157 123.418 63.5861 123.418Z" fill="white"/>
</mask>
<g mask="url(#mask2_5724_77240)">
<mask id="mask3_5724_77240" style="mask-type:alpha" maskUnits="userSpaceOnUse" x="26" y="8" width="78" height="116">
<path d="M63.5822 123.416C75.9993 123.416 102.023 123.392 103.182 106.833C103.696 99.4899 99.5755 77.5865 97.169 71.1805C92.4885 58.7189 87.7036 48.3563 85.0913 35.4756C83.6195 28.2207 82.8486 19.4896 80.3807 15.1617C77.0713 9.35777 70.1568 8.26953 63.5822 8.26953C54.0807 8.26953 43.3159 10.6136 39.5546 22.7795C37.5125 29.3845 37.1904 32.8846 37.1904 38.1185C37.1904 38.8418 37.5205 43.4067 36.6764 46.669C34.8262 53.8203 29.6921 65.5856 28.042 73.6678C27.6384 75.6444 24.6498 94.0854 26.7571 106.833C29.4749 123.275 48.2118 123.416 63.5822 123.416Z" fill="white"/>
</mask>
<g mask="url(#mask3_5724_77240)">
<path d="M63.6129 116.621C76.0291 116.621 102.051 116.597 103.21 101.014C103.724 94.1034 99.6037 73.49 97.1974 67.4612C92.5173 55.7336 87.7326 45.9813 85.1205 33.8592C83.6488 27.0315 82.878 18.8146 80.4102 14.7416C77.1011 9.27952 70.187 8.25537 63.6129 8.25537C54.112 8.25537 43.3479 10.4614 39.5869 21.9107C37.5449 28.1268 37.2228 31.4207 37.2228 36.3464C37.2228 37.0271 37.5529 41.3231 36.7089 44.3933C34.8588 51.1234 29.7251 62.1958 28.075 69.802C27.6715 71.6622 24.6831 89.0171 26.7902 101.014C29.5078 116.488 48.2435 116.621 63.6129 116.621Z" fill="#F9C78A"/>
<path d="M68.6552 23.185C70.9819 22.8472 72.5428 20.6942 72.1423 18.3763C71.7424 16.0583 69.5315 14.4532 67.2054 14.791C64.8793 15.1288 63.3184 17.2818 63.7189 19.5997C64.1189 21.9177 66.3291 23.5229 68.6552 23.185Z" fill="white"/>
<path fill-rule="evenodd" clip-rule="evenodd" d="M68.2183 21.3057C69.1715 21.1532 69.9293 20.0581 69.8138 19.3181C69.6978 18.578 68.5546 18.2851 67.602 18.4376C66.6494 18.5902 65.9711 19.3138 66.0871 20.0539C66.2026 20.7939 67.2657 21.4583 68.2183 21.3057Z" fill="#24A083"/>
<path d="M68.1187 21.0323C68.8453 20.9127 69.3573 20.3128 69.2633 19.6924C69.1685 19.072 68.5029 18.6659 67.7763 18.7855C67.0504 18.9051 66.5376 19.5051 66.6324 20.1255C66.7272 20.7459 67.3928 21.1519 68.1187 21.0323Z" fill="black"/>
<path d="M68.0727 20.7625C68.5989 20.6716 68.9697 20.2157 68.9016 19.7442C68.833 19.2726 68.351 18.964 67.8248 19.0549C67.2992 19.1458 66.9278 19.6018 66.9965 20.0733C67.0651 20.5448 67.5471 20.8533 68.0727 20.7625Z" fill="#2F2F2F"/>
<path fill-rule="evenodd" clip-rule="evenodd" d="M63.468 15.6827L71.5893 14.8281C72.7443 16.8752 73.0805 18.1445 72.5978 18.6359C71.8732 19.3731 68.9679 18.7558 67.5866 18.9012C66.6659 18.9981 65.151 19.369 63.043 20.014L63.468 15.6827Z" fill="black"/>
<path fill-rule="evenodd" clip-rule="evenodd" d="M61.7969 15.1408L73.0072 13.3633L73.8061 18.4135C70.9514 18.2605 68.8881 18.2848 67.6173 18.4864C66.3459 18.688 64.672 19.2562 62.5958 20.191L61.7969 15.1408Z" fill="#F9C78A"/>
<circle cx="66.9731" cy="19.6191" r="0.305135" fill="white"/>
<circle cx="67.2182" cy="20.1679" r="0.183081" fill="white"/>
<path fill-rule="evenodd" clip-rule="evenodd" d="M33.455 77.9465C32.9493 79.97 30.8001 80.3346 28.0672 78.8449C25.7039 77.5567 25.0849 75.3916 25.8813 72.9545C26.5099 71.0311 27.5837 68.2247 28.7099 65.4078C30.5956 60.6911 31.8528 57.2322 32.4814 55.031C33.4342 51.6945 36.5979 58.8551 36.5979 61.7749C36.5979 65.3588 38.2441 69.5412 38.2441 71.5078C38.2441 77.3256 34.3978 74.1731 33.455 77.9465Z" fill="#353944"/>
<path fill-rule="evenodd" clip-rule="evenodd" d="M98.944 90.9962C99.5199 93.0009 101.681 93.2902 104.36 91.706C106.677 90.336 107.22 88.1507 106.339 85.7429C105.644 83.8425 104.473 81.0754 103.249 78.2995C101.2 73.6515 99.8226 70.2386 99.1176 68.0607C98.049 64.7595 95.137 72.0262 95.2389 74.9442C95.3639 78.5259 93.8645 82.7633 93.9331 84.7287C94.1361 90.5429 97.8701 87.2581 98.944 90.9962Z" fill="#353944"/>
</g>
</g>
<path fill-rule="evenodd" clip-rule="evenodd" d="M70.3379 28.0576L82.6919 26.9692L82.7146 27.2284L70.3605 28.3168L70.3379 28.0576Z" fill="#292A2B"/>
<path d="M82.856 30.0146H70.4551V30.2748H82.856V30.0146Z" fill="#292A2B"/>
<path fill-rule="evenodd" clip-rule="evenodd" d="M70.4777 31.9717L82.8312 33.0601L82.8086 33.3193L70.4551 32.2308L70.4777 31.9717Z" fill="#292A2B"/>
<path fill-rule="evenodd" clip-rule="evenodd" d="M60.3885 27.5063L59.2301 25.5174L61.4395 25.4549L60.3885 27.5063Z" fill="#FF7FB6"/>
<path d="M67.5136 25.3857C67.6127 25.3857 67.6931 25.3053 67.6931 25.2061C67.6931 25.1068 67.6127 25.0264 67.5136 25.0264C67.4144 25.0264 67.334 25.1068 67.334 25.2061C67.334 25.3053 67.4144 25.3857 67.5136 25.3857Z" fill="#D7831D"/>
<path d="M69.7557 25.3857C69.8549 25.3857 69.9353 25.3053 69.9353 25.2061C69.9353 25.1068 69.8549 25.0264 69.7557 25.0264C69.6566 25.0264 69.5762 25.1068 69.5762 25.2061C69.5762 25.3053 69.6566 25.3857 69.7557 25.3857Z" fill="#D7831D"/>
<path d="M68.6815 26.8237C68.7807 26.8237 68.8611 26.7433 68.8611 26.644C68.8611 26.5448 68.7807 26.4644 68.6815 26.4644C68.5823 26.4644 68.502 26.5448 68.502 26.644C68.502 26.7433 68.5823 26.8237 68.6815 26.8237Z" fill="#D7831D"/>
<path d="M53.0429 25.897C53.142 25.897 53.2224 25.8165 53.2224 25.7173C53.2224 25.618 53.142 25.5376 53.0429 25.5376C52.9437 25.5376 52.8633 25.618 52.8633 25.7173C52.8633 25.8165 52.9437 25.897 53.0429 25.897Z" fill="#D7831D"/>
<path d="M55.285 25.897C55.3842 25.897 55.4646 25.8165 55.4646 25.7173C55.4646 25.618 55.3842 25.5376 55.285 25.5376C55.1859 25.5376 55.1055 25.618 55.1055 25.7173C55.1055 25.8165 55.1859 25.897 55.285 25.897Z" fill="#D7831D"/>
<path d="M54.2089 27.3345C54.308 27.3345 54.3884 27.254 54.3884 27.1548C54.3884 27.0555 54.308 26.9751 54.2089 26.9751C54.1097 26.9751 54.0293 27.0555 54.0293 27.1548C54.0293 27.254 54.1097 27.3345 54.2089 27.3345Z" fill="#D7831D"/>
<path d="M52.6301 24.0704C55.2095 23.6615 57.0121 21.5082 56.6565 19.2609C56.301 17.0136 53.922 15.5233 51.3425 15.9323C48.7633 16.3413 46.9607 18.4946 47.3162 20.7419C47.6717 22.9891 50.0507 24.4794 52.6301 24.0704Z" fill="white"/>
<path fill-rule="evenodd" clip-rule="evenodd" d="M52.4917 22.2432C53.445 22.0907 54.2027 20.9956 54.0873 20.2556C53.9712 19.5155 52.8281 19.2226 51.8755 19.3751C50.9228 19.5277 50.2445 20.2513 50.3606 20.9914C50.476 21.7314 51.5391 22.3958 52.4917 22.2432Z" fill="#24A083"/>
<path d="M52.3921 21.9698C53.1187 21.8502 53.6308 21.2503 53.5367 20.6299C53.442 20.0095 52.7763 19.6034 52.0497 19.723C51.3239 19.8426 50.811 20.4426 50.9058 21.063C51.0006 21.6834 51.6662 22.0894 52.3921 21.9698Z" fill="black"/>
<path d="M52.3462 21.6995C52.8723 21.6086 53.2431 21.1527 53.175 20.6812C53.1064 20.2097 52.6244 19.9011 52.0982 19.992C51.5726 20.0828 51.2013 20.5388 51.2699 21.0103C51.3385 21.4818 51.8205 21.7904 52.3462 21.6995Z" fill="#2F2F2F"/>
<path fill-rule="evenodd" clip-rule="evenodd" d="M50.1888 29.0987L37.835 28.0103L37.8125 28.2694L50.1663 29.3579L50.1888 29.0987Z" fill="#292A2B"/>
<path d="M37.9297 31.0552H50.3306V31.3153H37.9297V31.0552Z" fill="#292A2B"/>
<path fill-rule="evenodd" clip-rule="evenodd" d="M50.2835 33.0127L37.9297 34.1012L37.9522 34.3603L50.306 33.2719L50.2835 33.0127Z" fill="#292A2B"/>
<path fill-rule="evenodd" clip-rule="evenodd" d="M47.2833 16.1997C49.3421 15.8174 50.9221 15.6455 52.0238 15.684C53.125 15.7225 54.7466 16.0063 56.8885 16.5355L57.299 20.8522C54.934 20.2217 53.1509 19.8854 51.9495 19.8434C50.148 19.7805 47.6155 20.9731 46.1687 19.8434C45.2042 19.0903 45.5757 17.8757 47.2833 16.1997Z" fill="black"/>
<path fill-rule="evenodd" clip-rule="evenodd" d="M45.0878 14.5004C47.8747 14.101 50.008 13.9496 51.4874 14.0464C52.9663 14.1432 55.1333 14.5759 57.9878 15.3446L57.5677 20.9627C54.9264 19.9984 52.7991 19.4634 51.186 19.3578C49.5728 19.2523 47.4002 19.5059 44.668 20.1186L45.0878 14.5004Z" fill="#F9C78A"/>
<path fill-rule="evenodd" clip-rule="evenodd" d="M56.776 30.8245C56.8492 32.7793 58.5707 34.3012 60.6207 34.2239C62.6712 34.1466 64.2738 32.4993 64.2006 30.5446" fill="white"/>
<path d="M56.776 30.8245C56.8492 32.7793 58.5707 34.3012 60.6207 34.2239C62.6712 34.1466 64.2738 32.4993 64.2006 30.5446" stroke="#FF6F6F" stroke-width="0.354011"/>
<g filter="url(#filter0_d_5724_77240)">
<path fill-rule="evenodd" clip-rule="evenodd" d="M71.7663 9.38735C72.4958 9.56913 73.3546 8.64439 73.6845 7.32187C74.0144 5.99936 73.7517 3.65582 73.2512 3.48335C72.7507 3.31088 71.3727 5.34106 71.0428 6.66357C70.7129 7.98609 71.0368 9.20556 71.7663 9.38735Z" fill="white"/>
<path fill-rule="evenodd" clip-rule="evenodd" d="M72.8733 5.28049C72.818 5.78588 72.7404 6.32141 72.6403 6.88708C72.5403 7.45275 72.3903 7.88114 72.1904 8.17224C72.3818 7.64336 72.5079 7.20677 72.5688 6.86244C72.6297 6.51812 72.7312 5.9908 72.8733 5.28049Z" fill="#E2E2E2"/>
</g>
<g filter="url(#filter1_d_5724_77240)">
<path fill-rule="evenodd" clip-rule="evenodd" d="M72.493 10.0323C73.0154 10.5731 74.2336 10.2442 75.214 9.29766C76.1943 8.35114 77.213 6.22471 76.8798 5.81317C76.5467 5.40163 74.3026 6.39266 73.3223 7.33919C72.3419 8.28572 71.9706 9.49145 72.493 10.0323Z" fill="white"/>
<path fill-rule="evenodd" clip-rule="evenodd" d="M75.6059 7.13594C75.2913 7.5352 74.9418 7.94815 74.5574 8.37481C74.1729 8.80147 73.8188 9.08527 73.4952 9.2262C73.9375 8.87912 74.2757 8.57573 74.5098 8.31602C74.7438 8.05631 75.1092 7.66295 75.6059 7.13594Z" fill="#E2E2E2"/>
</g>
<g filter="url(#filter2_d_5724_77240)">
<path fill-rule="evenodd" clip-rule="evenodd" d="M72.0659 10.4151C72.0138 11.165 73.0736 11.8505 74.4329 11.9463C75.7921 12.0421 78.0534 11.3773 78.1361 10.8546C78.2188 10.3318 75.9806 9.32653 74.6213 9.23076C73.262 9.13498 72.1179 9.66523 72.0659 10.4151Z" fill="white"/>
<path fill-rule="evenodd" clip-rule="evenodd" d="M76.3008 10.7926C75.7937 10.8257 75.2531 10.842 74.6789 10.8415C74.1048 10.8411 73.657 10.7678 73.3357 10.6218C73.8896 10.7183 74.3412 10.7667 74.6907 10.767C75.0402 10.7673 75.5769 10.7758 76.3008 10.7926Z" fill="#E2E2E2"/>
</g>
<g filter="url(#filter3_d_5724_77240)">
<path fill-rule="evenodd" clip-rule="evenodd" d="M71.7788 10.7416C71.195 11.215 71.4166 12.4578 72.2737 13.5176C73.1309 14.5774 75.1594 15.7785 75.5981 15.4825C76.0367 15.1865 75.245 12.8633 74.3879 11.8035C73.5307 10.7437 72.3626 10.2683 71.7788 10.7416Z" fill="white"/>
<path fill-rule="evenodd" clip-rule="evenodd" d="M74.3896 14.0982C74.0194 13.7498 73.6387 13.3655 73.2474 12.9451C72.8561 12.5246 72.6043 12.147 72.4921 11.8122C72.7992 12.2833 73.0718 12.6469 73.31 12.9028C73.5482 13.1587 73.9081 13.5571 74.3896 14.0982Z" fill="#E2E2E2"/>
</g>
<g filter="url(#filter4_d_5724_77240)">
<path fill-rule="evenodd" clip-rule="evenodd" d="M71.5154 9.5013C70.878 9.89951 69.7755 9.28534 69.053 8.12951C68.3306 6.97368 67.8561 4.66377 68.2787 4.34515C68.7013 4.02653 70.6391 5.53162 71.3615 6.68745C72.084 7.84328 72.1529 9.10308 71.5154 9.5013Z" fill="white"/>
<path fill-rule="evenodd" clip-rule="evenodd" d="M69.1959 5.9373C69.4046 6.40085 69.6439 6.88615 69.9138 7.3932C70.1837 7.90026 70.4586 8.26134 70.7385 8.47646C70.3932 8.03259 70.1384 7.65633 69.9742 7.34769C69.8099 7.03904 69.5504 6.56891 69.1959 5.9373Z" fill="#E2E2E2"/>
</g>
<g filter="url(#filter5_d_5724_77240)">
<path fill-rule="evenodd" clip-rule="evenodd" d="M70.7099 9.75995C70.4281 10.457 69.1754 10.6085 67.9119 10.0982C66.6484 9.588 64.9075 7.99826 65.0622 7.49195C65.2169 6.98565 67.6688 7.06373 68.9323 7.57396C70.1958 8.08419 70.9917 9.06289 70.7099 9.75995Z" fill="white"/>
<path fill-rule="evenodd" clip-rule="evenodd" d="M66.7384 8.24132C67.1796 8.4936 67.6583 8.74548 68.1745 8.99698C68.6908 9.24849 69.1253 9.37894 69.4782 9.38834C68.938 9.23231 68.5109 9.07774 68.1966 8.92466C67.8824 8.77157 67.3963 8.54379 66.7384 8.24132Z" fill="#E2E2E2"/>
</g>
<g filter="url(#filter6_d_5724_77240)">
<path fill-rule="evenodd" clip-rule="evenodd" d="M71.4546 10.5193C72.1948 10.6502 72.6034 11.8446 72.3673 13.1872C72.1312 14.5298 70.9389 16.564 70.4117 16.5178C69.8845 16.4717 69.451 14.0559 69.6871 12.7133C69.9231 11.3707 70.7145 10.3884 71.4546 10.5193Z" fill="white"/>
<path fill-rule="evenodd" clip-rule="evenodd" d="M70.7959 14.722C70.9508 14.2377 71.0976 13.7169 71.2361 13.1594C71.3746 12.6019 71.4118 12.1495 71.3476 11.8022C71.3074 12.3633 71.2451 12.8135 71.1608 13.1528C71.0765 13.4921 70.9548 14.0152 70.7959 14.722Z" fill="#E2E2E2"/>
</g>
<g filter="url(#filter7_d_5724_77240)">
<path fill-rule="evenodd" clip-rule="evenodd" d="M71.3191 10.5802C71.5759 11.2869 70.7463 12.2381 69.4661 12.7048C68.1859 13.1715 65.829 13.1555 65.6053 12.6757C65.3817 12.1958 67.2559 10.6124 68.5361 10.1457C69.8163 9.67901 71.0623 9.87355 71.3191 10.5802Z" fill="white"/>
<path fill-rule="evenodd" clip-rule="evenodd" d="M67.3516 12.1108C67.8482 12.0029 68.3724 11.8696 68.9243 11.7109C69.4761 11.5522 69.8863 11.3583 70.1548 11.129C69.6491 11.3747 69.2282 11.5458 68.8923 11.6424C68.5564 11.739 68.0429 11.8951 67.3516 12.1108Z" fill="#E2E2E2"/>
</g>
<path d="M71.2762 11.3165C71.9868 11.5613 72.762 11.1812 73.0077 10.4673C73.2533 9.75351 72.8763 8.97632 72.1657 8.73146C71.455 8.48659 70.6798 8.86676 70.4342 9.5806C70.1885 10.2944 70.5655 11.0716 71.2762 11.3165Z" fill="#FFD700"/>
<circle cx="51.3325" cy="20.4492" r="0.305135" fill="white"/>
<circle cx="51.5757" cy="20.999" r="0.183081" fill="white"/>
<path d="M80.4915 34.5993C82.4226 34.4829 83.7381 33.9145 85.4636 35.3455C87.1891 36.7764 88.0206 37.8448 89.1238 38.4105C90.2271 38.9763 93.1946 42.8063 93.4661 46.0599C93.7376 49.3135 93.7322 51.9882 93.3551 52.7238C92.978 53.4594 92.7212 54.1198 92.7573 54.8487C92.7935 55.5775 91.3906 58.2869 89.9008 59.3808C88.9697 60.0649 87.1983 61.2385 85.7108 62.1419C84.8196 62.6831 84.0302 63.1275 83.5827 63.3125C82.387 63.806 80.4627 64.3355 79.3594 63.7699C78.256 63.2042 75.6504 62.2375 75.6504 62.2375C75.6504 62.2375 74.3814 61.9418 73.3757 61.399C72.37 60.8561 70.5392 59.6577 69.781 59.3783C69.0228 59.0988 66.1436 56.2156 65.9603 53.9086C65.777 51.6017 65.0617 48.7079 64.8758 47.7384C64.69 46.7688 66.6224 42.2273 67.3833 41.1695C67.9346 40.4044 69.4484 39.0831 70.7338 38.2324C71.2256 37.9064 71.683 37.6502 72.0411 37.52C73.3343 37.0493 73.0948 36.5304 74.1407 35.7962C75.1866 35.062 78.5605 34.7155 80.4915 34.5993Z" fill="#DC8E30"/>
<path d="M80.4917 34.5993C82.4228 34.4829 83.7383 33.9145 85.4638 35.3455C87.1893 36.7764 88.0208 37.8448 89.124 38.4105C90.2273 38.9763 93.1948 42.8063 93.4663 46.0599C93.7378 49.3135 93.7324 51.9882 93.3553 52.7238C92.9782 53.4594 92.7214 54.1198 92.7576 54.8487C92.7937 55.5775 91.3908 58.2869 89.901 59.3808C88.9699 60.0649 87.1985 61.2385 85.7111 62.1419C86.3737 61.2629 87.2394 60.1013 87.96 59.0894C88.6318 58.146 88.7816 57.7353 89.3393 56.9342C90.5913 55.1357 91.1928 54.8727 91.8321 53.9641C93.5193 51.566 93.6064 47.3185 91.7892 45.309C91.1492 44.6013 90.4489 44.3118 89.4019 42.9531C89.0221 42.4605 88.7433 41.9506 88.2067 41.0271C87.0311 39.0036 87.1982 38.0648 84.5852 37.3534C81.9721 36.6419 81.9788 37.0552 79.6947 37.1408C77.4105 37.2264 77.1498 36.1362 75.4728 36.9295C73.7959 37.7227 72.7721 38.3596 71.5552 38.2815C71.3306 38.2667 71.0463 38.2525 70.7344 38.2325C71.2261 37.9065 71.6836 37.6503 72.0417 37.5201C73.3349 37.0494 73.0953 36.5306 74.1412 35.7963C75.1871 35.0621 78.5607 34.7155 80.4917 34.5993Z" fill="#B6711F"/>
<path d="M81.9277 58.9305C81.9277 58.9305 83.5887 58.6487 83.808 57.9276C84.0273 57.2064 83.9992 56.2222 83.9992 56.2222C83.9992 56.2222 83.0558 58.061 82.7556 58.2482C82.4553 58.4354 81.9277 58.9305 81.9277 58.9305Z" fill="#B17022"/>
<path d="M74.7428 45.2402C74.8415 44.9488 75.0858 44.3857 75.6533 44.0396C76.2775 43.6598 77.1921 43.6026 77.348 43.8354C77.3552 43.846 77.3739 43.8708 77.361 43.8814C77.3232 43.9133 76.6741 43.1935 75.831 43.4965C74.8876 43.8355 74.1035 45.2995 74.1035 45.2995L74.7428 45.2402Z" fill="#B17022"/>
<path d="M68.0167 46.2097C68.0167 46.2097 67.4372 46.4762 67.3314 47.773C67.2255 49.0698 67.567 49.303 67.0414 49.8567C67.0414 49.8567 66.162 48.6229 66.529 48.064C66.8961 47.5051 66.431 47.1728 66.9272 46.5547C67.4234 45.9367 67.8093 45.7584 68.389 45.4924C68.9688 45.2264 68.0167 46.2097 68.0167 46.2097Z" fill="#B17022"/>
<path d="M75.8567 54.7174C75.8567 54.7174 74.117 54.1235 74.0362 53.1319C73.9555 52.1403 72.4371 51.9378 73.2232 52.0375C74.247 52.1675 74.0791 53.4122 74.4509 53.4986C74.8228 53.585 75.8567 54.7174 75.8567 54.7174Z" fill="#B17022"/>
<path d="M86.57 51.1439C86.57 51.1439 87.0154 50.1155 86.5954 49.7089C86.1754 49.3023 86.1461 48.9868 86.1995 48.5361C86.253 48.0853 86.126 47.7471 86.126 47.7471C86.126 47.7471 85.5322 47.8662 85.7114 48.4225C85.8907 48.9788 86.3039 48.9721 86.249 50.0914C86.1942 51.2107 86.57 51.1439 86.57 51.1439Z" fill="#B17022"/>
<path d="M82.9403 40.2125C83.5751 40.9685 81.3194 39.2175 80.6054 39.4114C79.8914 39.6052 79.0795 39.7764 79.0795 39.7764L78.4336 39.6776C78.4336 39.6776 79.0126 39.4007 79.5314 39.1613C80.0503 38.9219 80.6134 39.1559 81.0261 39.1491C81.4389 39.1422 82.6179 39.8286 82.9403 40.2125Z" fill="#B17022"/>
<path d="M74.7774 60.005C74.978 60.1634 75.7799 60.7972 76.2046 60.9573C76.3537 61.0136 76.5308 61.0148 76.7075 61.0024C77.0342 60.9796 77.3595 60.9105 77.5038 61.0571C77.7262 61.2829 77.6859 60.6998 77.4836 60.7655C77.2813 60.8311 76.2737 60.7113 75.5154 60.2125C74.7572 59.7136 74.7774 60.005 74.7774 60.005Z" fill="#B17022"/>
<path d="M74.8887 57.3258C74.8887 57.3258 75.9692 57.9891 76.4279 57.7872C76.8866 57.5853 77.2855 57.4208 77.6008 57.3914C77.916 57.362 78.0367 57.2871 78.0367 57.2871C78.0367 57.2871 77.2102 57.3005 76.8344 57.3674C76.4587 57.4342 76.4132 57.6294 76.0829 57.501C75.7526 57.3726 74.8887 57.3258 74.8887 57.3258Z" fill="#FFCE6F"/>
<path d="M69.9487 48.0454C69.9732 47.6645 69.9421 47.6322 70.2135 47.1294C70.4849 46.6266 71.2219 46.335 71.0655 45.681C70.909 45.027 71.2099 44.8398 71.2099 44.8398C71.2099 44.8398 71.734 45.6824 71.4479 46.0274C71.1619 46.3724 70.5973 46.807 70.4008 47.4303C70.2043 48.0535 69.9103 48.6539 69.9487 48.0454Z" fill="#FFCE6F"/>
<path d="M72.6602 41.2664C72.6602 41.2664 72.7591 40.6206 73.3008 40.2835C73.8424 39.9465 74.4429 40.2408 75.0072 39.8057C75.5714 39.3707 75.9553 39.0488 75.9553 39.0488C75.9553 39.0488 75.292 40.1294 75.0967 40.0839C74.9014 40.0385 73.7595 40.0813 73.5936 40.3514C73.4277 40.6215 72.6602 41.2664 72.6602 41.2664Z" fill="#FFCE6F"/>
<path d="M80.1543 54.7856C80.1543 54.7856 80.8875 54.5615 81.1271 53.9332C81.3666 53.3048 81.4565 53.1953 81.5514 52.6318C81.551 52.6318 80.4531 54.7559 80.1543 54.7856Z" fill="#FFCE6F"/>
<path d="M87.6365 47.8927C87.6365 47.8927 87.8852 47.4876 87.4358 46.7656C86.9865 46.0436 86.1387 45.4858 86.1387 45.4858C86.1387 45.4858 87.6153 47.3217 87.6365 47.8927Z" fill="#FFCE6F"/>
<path d="M70.063 55.7386C70.8272 55.2631 72.1457 55.1944 72.4287 56.1866C72.6671 57.0207 72.882 58.069 72.1167 58.3306C72.087 58.3411 72.0568 58.3498 72.0262 58.3568C71.1504 58.5661 70.4369 58.4858 69.9613 57.7216C69.5161 57.0061 69.3242 56.3094 69.9282 55.833C69.9712 55.7989 70.0162 55.7673 70.063 55.7386Z" fill="#361413"/>
<path d="M69.9283 55.833C70.7039 55.4456 71.864 55.4501 72.1279 56.3735C72.3272 57.071 72.5104 57.9194 72.1167 58.3306C72.0871 58.3411 72.0569 58.3498 72.0262 58.3568C71.1505 58.566 70.437 58.4858 69.9614 57.7215C69.5161 57.0058 69.3242 56.3093 69.9283 55.833Z" fill="#5E201C"/>
<path d="M71.8846 57.8352C71.8846 57.8352 71.8089 58.3892 71.1319 58.1415C70.4549 57.8937 70.3789 57.3682 70.3789 57.3682C70.3789 57.3682 70.9932 58.193 71.8846 57.8352Z" fill="#C26548"/>
<path d="M78.2634 44.7517C78.7389 45.5161 78.8076 46.8344 77.8154 47.1175C76.9812 47.356 75.9328 47.5708 75.6714 46.8054C75.6606 46.7757 75.6516 46.7453 75.6444 46.7145C75.4352 45.8389 75.5154 45.1253 76.2797 44.6498C76.9951 44.2046 77.6919 44.0127 78.1682 44.6167C78.2026 44.6598 78.2344 44.7048 78.2634 44.7517Z" fill="#361413"/>
<path d="M78.1682 44.6169C78.5556 45.3926 78.5511 46.5527 77.6277 46.8164C76.9302 47.0158 76.0818 47.199 75.6706 46.8053C75.6601 46.7755 75.6514 46.7452 75.6444 46.7144C75.4352 45.8388 75.5154 45.1251 76.2797 44.6496C76.9956 44.2048 77.6924 44.0125 78.1682 44.6169Z" fill="#5E201C"/>
<path d="M76.1669 46.5747C76.1669 46.5747 75.6129 46.4989 75.8606 45.8219C76.1084 45.1449 76.6339 45.0688 76.6339 45.0688C76.6339 45.0688 75.8091 45.6828 76.1669 46.5747Z" fill="#C26548"/>
<path d="M82.249 59.8315C82.7246 60.5958 82.7933 61.9143 81.801 62.1972C80.9668 62.4357 79.9185 62.6505 79.6571 61.8852C79.6465 61.8556 79.6378 61.8254 79.6308 61.7947C79.4215 60.919 79.5017 60.2055 80.2661 59.7299C80.9816 59.2846 81.6783 59.0928 82.1545 59.6968C82.1887 59.7397 82.2203 59.7847 82.249 59.8315Z" fill="#361413"/>
<path d="M82.1545 59.6968C82.542 60.4724 82.5375 61.6325 81.614 61.8963C80.9166 62.0957 80.0681 62.2789 79.6571 61.8852C79.6465 61.8556 79.6378 61.8254 79.6308 61.7947C79.4215 60.919 79.5017 60.2054 80.2661 59.7298C80.9816 59.2851 81.6783 59.0924 82.1545 59.6968Z" fill="#5E201C"/>
<path d="M80.1513 61.6532C80.1513 61.6532 79.5973 61.5774 79.845 60.9004C80.0927 60.2234 80.6182 60.1475 80.6182 60.1475C80.6182 60.1475 79.7934 60.7614 80.1513 61.6532Z" fill="#C26548"/>
<path d="M85.7342 43.9082C84.8676 44.1513 83.5829 43.8492 83.5879 42.8178C83.5918 41.9502 83.6783 40.8836 84.4864 40.8461C84.5178 40.8443 84.5493 40.8443 84.5806 40.8461C85.48 40.8897 86.1427 41.1661 86.3859 42.0328C86.6135 42.8442 86.6035 43.5669 85.8901 43.8554C85.8392 43.8761 85.7872 43.8938 85.7342 43.9082Z" fill="#361413"/>
<path d="M85.8887 43.8546C85.0358 44.0099 83.9233 43.6816 83.9277 42.7211C83.9312 41.9958 83.9922 41.1298 84.4851 40.8451C84.5164 40.8433 84.5479 40.8433 84.5793 40.8451C85.4786 40.8887 86.1413 41.1651 86.3845 42.0318C86.6121 42.8436 86.6021 43.5664 85.8887 43.8546Z" fill="#5E201C"/>
<path d="M84.5684 41.3855C84.5684 41.3855 84.7957 40.8746 85.3769 41.3016C85.9582 41.7285 85.884 42.2543 85.884 42.2543C85.884 42.2543 85.5247 41.291 84.5684 41.3855Z" fill="#C26548"/>
<path d="M84.9434 54.1787C85.1475 53.302 86.0308 52.3215 86.9329 52.8226C87.6913 53.2438 88.5846 53.8332 88.2284 54.5595C88.2149 54.5878 88.1997 54.6154 88.183 54.642C87.7118 55.4092 87.1504 55.857 86.2737 55.6529C85.4529 55.4618 84.8244 55.105 84.9149 54.3409C84.9211 54.2863 84.9306 54.2321 84.9434 54.1787Z" fill="#361413"/>
<path d="M84.9149 54.3408C85.1895 53.5184 86.0129 52.7015 86.8525 53.1678C87.4866 53.5199 88.2161 53.9903 88.2284 54.5594C88.2149 54.5878 88.1997 54.6154 88.183 54.642C87.7118 55.4091 87.1504 55.8569 86.2737 55.6528C85.453 55.4617 84.8244 55.1049 84.9149 54.3408Z" fill="#5E201C"/>
<path d="M87.7171 54.3721C87.7171 54.3721 88.0553 54.8173 87.4015 55.121C86.7476 55.4247 86.3223 55.1067 86.3223 55.1067C86.3223 55.1067 87.3395 55.2559 87.7171 54.3721Z" fill="#C26548"/>
<path d="M80.0461 50.0886C80.2958 49.9525 80.4205 49.884 80.5906 49.8984C80.8447 49.9195 81.0855 50.1108 81.1688 50.3504C81.2161 50.4865 81.1953 50.6045 81.1535 50.8405C81.0917 51.1874 81.0588 51.3733 80.9075 51.4735C80.8949 51.482 80.8816 51.4895 80.8677 51.4958C80.6784 51.5894 80.4312 51.5066 80.1923 51.4271C80.018 51.3683 79.8968 51.3278 79.7846 51.2123C79.5871 51.0086 79.4967 50.6538 79.6349 50.4024C79.6436 50.386 79.6538 50.3705 79.6651 50.3558C79.7362 50.2579 79.8483 50.1966 80.0461 50.0886Z" fill="#361413"/>
<path d="M79.9045 50.2175C80.1541 50.0811 80.2789 50.0129 80.449 50.0273C80.7031 50.0485 80.9439 50.2397 81.0271 50.479C81.0745 50.6155 81.0534 50.7329 81.0117 50.9684C80.9671 51.219 80.9382 51.385 80.8677 51.4952C80.6784 51.5888 80.4312 51.506 80.1923 51.4265C80.018 51.3677 79.8968 51.3273 79.7846 51.2117C79.5871 51.008 79.4967 50.6532 79.6349 50.4018C79.6436 50.3855 79.6538 50.3699 79.6651 50.3552C79.7269 50.3142 79.8048 50.2717 79.9045 50.2175Z" fill="#5E201C"/>
<path d="M79.9941 50.9141C79.9941 50.9141 80.1144 51.3148 80.4474 51.2586C80.7804 51.2023 80.9183 51.008 80.9183 51.008C80.9183 51.008 80.4485 51.1924 79.9941 50.9141Z" fill="#C26548"/>
<path d="M84.3937 57.7903C84.6435 57.6543 84.7681 57.5858 84.9382 57.6C85.1922 57.6213 85.4332 57.8124 85.5165 58.0522C85.5638 58.1882 85.543 58.3062 85.5012 58.5416C85.4393 58.8886 85.4065 59.0744 85.2551 59.1747C85.2425 59.1833 85.2291 59.1908 85.2152 59.1971C85.0261 59.2907 84.7789 59.2079 84.5398 59.1283C84.3656 59.0695 84.2444 59.029 84.1321 58.9136C83.9347 58.7098 83.8443 58.3549 83.9825 58.1035C83.9913 58.0872 84.0014 58.0717 84.0127 58.057C84.0837 57.9602 84.1959 57.8988 84.3937 57.7903Z" fill="#361413"/>
<path d="M84.2522 57.9192C84.5016 57.7826 84.6266 57.7146 84.7966 57.7289C85.0507 57.7501 85.2916 57.9412 85.3746 58.1805C85.4222 58.317 85.4011 58.4346 85.3593 58.6706C85.3147 58.9211 85.2858 59.0871 85.2152 59.1974C85.0261 59.291 84.7789 59.2082 84.5398 59.1286C84.3656 59.0698 84.2444 59.0293 84.1321 58.9139C83.9347 58.7101 83.8443 58.3552 83.9825 58.1038C83.9913 58.0875 84.0014 58.072 84.0127 58.0573C84.0744 58.0159 84.1524 57.9738 84.2522 57.9192Z" fill="#5E201C"/>
<path d="M84.3398 58.6157C84.3398 58.6157 84.4602 59.0165 84.7931 58.9604C85.1261 58.9042 85.264 58.7097 85.264 58.7097C85.264 58.7097 84.7949 58.8942 84.3398 58.6157Z" fill="#C26548"/>
<path d="M68.2649 49.3475C68.7046 49.1079 68.9239 48.9873 69.2233 49.0126C69.6706 49.0493 70.0947 49.3865 70.2415 49.8089C70.3246 50.0484 70.288 50.2561 70.2144 50.6707C70.1055 51.2815 70.0477 51.6086 69.7812 51.7855C69.759 51.8007 69.7356 51.8139 69.7111 51.825C69.378 51.9898 68.9428 51.8439 68.5221 51.704C68.2158 51.6004 68.0021 51.5291 67.8043 51.3259C67.4568 50.9672 67.2976 50.3425 67.5409 49.8998C67.5564 49.8711 67.5742 49.8437 67.5941 49.8179C67.7197 49.6456 67.9165 49.5375 68.2649 49.3475Z" fill="#361413"/>
<path d="M68.0155 49.5736C68.4547 49.3332 68.6747 49.2134 68.9741 49.2387C69.4214 49.2754 69.8455 49.6126 69.9917 50.0338C70.0754 50.274 70.0382 50.4809 69.9646 50.8955C69.8862 51.3366 69.8345 51.629 69.7111 51.8238C69.378 51.9886 68.9428 51.8427 68.5221 51.7028C68.2158 51.5993 68.0021 51.528 67.8043 51.3247C67.4568 50.966 67.2976 50.3413 67.5409 49.8986C67.5564 49.8699 67.5742 49.8425 67.5941 49.8167C67.7028 49.7438 67.8401 49.6689 68.0155 49.5736Z" fill="#5E201C"/>
<path d="M68.1719 50.7998C68.1719 50.7998 68.3837 51.5052 68.9692 51.4064C69.5547 51.3075 69.7981 50.9653 69.7981 50.9653C69.7981 50.9653 68.9723 51.29 68.1719 50.7998Z" fill="#C26548"/>
<path d="M88.2121 48.5793C88.4618 48.4432 88.5864 48.3747 88.7566 48.3891C89.0107 48.4103 89.2516 48.6015 89.3349 48.8412C89.3822 48.9773 89.3613 49.0952 89.3195 49.3312C89.2583 49.6782 89.2248 49.864 89.0735 49.9642C89.0609 49.9727 89.0476 49.9802 89.0337 49.9865C88.8444 50.0801 88.5972 49.9973 88.3582 49.9178C88.184 49.859 88.0628 49.8186 87.9506 49.703C87.7531 49.4993 87.6627 49.1445 87.8009 48.8931C87.8096 48.8768 87.8198 48.8612 87.8311 48.8465C87.9021 48.7491 88.0143 48.6879 88.2121 48.5793Z" fill="#361413"/>
<path d="M88.0705 48.7073C88.32 48.5708 88.4449 48.5027 88.615 48.517C88.8691 48.5382 89.1099 48.7295 89.1931 48.9687C89.2405 49.1052 89.2195 49.2227 89.1777 49.4588C89.1331 49.7093 89.1042 49.8753 89.0337 49.9856C88.8444 50.0792 88.5972 49.9964 88.3582 49.9169C88.184 49.858 88.0628 49.8176 87.9506 49.7021C87.7531 49.4983 87.6627 49.1435 87.8009 48.8922C87.8096 48.8758 87.8198 48.8602 87.8311 48.8456C87.8929 48.8039 87.9709 48.7614 88.0705 48.7073Z" fill="#5E201C"/>
<path d="M88.1582 49.4033C88.1582 49.4033 88.2784 49.8041 88.6115 49.7478C88.9446 49.6916 89.0824 49.4973 89.0824 49.4973C89.0824 49.4973 88.6131 49.6817 88.1582 49.4033Z" fill="#C26548"/>
<path d="M79.632 41.2288C79.8818 41.0926 80.0064 41.0242 80.1765 41.0385C80.4305 41.0597 80.6715 41.2508 80.7548 41.4906C80.8021 41.6267 80.7813 41.7445 80.7395 41.9806C80.6782 42.3276 80.6448 42.5134 80.4933 42.6137C80.4807 42.6222 80.4674 42.6297 80.4535 42.6359C80.2644 42.7295 80.0171 42.6467 79.7781 42.5672C79.6039 42.5084 79.4827 42.468 79.3704 42.3525C79.173 42.1487 79.0826 41.7938 79.2208 41.5424C79.2296 41.5261 79.2397 41.5106 79.2509 41.4958C79.3215 41.3976 79.4342 41.3363 79.632 41.2288Z" fill="#361413"/>
<path d="M79.4904 41.3572C79.7399 41.2207 79.8649 41.1526 80.0349 41.1669C80.289 41.1881 80.5299 41.3794 80.6129 41.6186C80.6605 41.7551 80.6394 41.8726 80.5976 42.1081C80.553 42.3586 80.5241 42.5246 80.4535 42.6349C80.2644 42.7285 80.0171 42.6457 79.7781 42.5661C79.6039 42.5073 79.4827 42.4669 79.3704 42.3514C79.173 42.1476 79.0826 41.7927 79.2208 41.5413C79.2296 41.5251 79.2397 41.5095 79.2509 41.4948C79.3127 41.4538 79.3907 41.4113 79.4904 41.3572Z" fill="#5E201C"/>
<path d="M79.5781 42.0542C79.5781 42.0542 79.6984 42.4549 80.0314 42.3988C80.3644 42.3427 80.5024 42.1483 80.5024 42.1483C80.5024 42.1483 80.0331 42.3327 79.5781 42.0542Z" fill="#C26548"/>
<path d="M70.731 39.806C71.2814 39.8951 71.5567 39.9386 71.8031 40.165C72.1714 40.5029 72.3151 41.0885 72.1564 41.56C72.0662 41.8275 71.8924 41.9853 71.5448 42.3C71.0325 42.7635 70.7583 43.0119 70.4035 42.9861C70.3736 42.9841 70.344 42.9797 70.3149 42.9729C69.9093 42.8907 69.6258 42.4655 69.3508 42.0554C69.1514 41.7551 69.0122 41.5468 68.9769 41.233C68.9157 40.6803 69.2016 40.0218 69.7177 39.7982C69.7508 39.7834 69.7852 39.7714 69.8203 39.7623C70.0473 39.6962 70.2947 39.7358 70.731 39.806Z" fill="#361413"/>
<path d="M70.3572 39.8351C70.9078 39.9232 71.183 39.9677 71.4294 40.1941C71.7976 40.532 71.9414 41.1176 71.7827 41.5882C71.6925 41.8566 71.5187 42.0134 71.1712 42.3281C70.8014 42.6628 70.5563 42.8851 70.3149 42.9723C69.9093 42.8901 69.6258 42.465 69.3508 42.0548C69.1514 41.7545 69.0122 41.5463 68.9769 41.2325C68.9157 40.6797 69.2016 40.0212 69.7177 39.7976C69.7508 39.7829 69.7852 39.7709 69.8203 39.7617C69.9657 39.7716 70.1376 39.7995 70.3572 39.8351Z" fill="#5E201C"/>
<path d="M69.6605 41.0215C69.6605 41.0215 69.3657 41.7868 69.9486 42.0996C70.5315 42.4124 70.9791 42.2766 70.9791 42.2766C70.9791 42.2766 70.0311 41.9991 69.6605 41.0215Z" fill="#C26548"/>
<path d="M73.2883 48.8069C73.538 48.6708 73.6627 48.6023 73.8328 48.6166C74.0869 48.6378 74.3277 48.8291 74.411 49.0687C74.4583 49.2048 74.4375 49.3228 74.3957 49.5587C74.3345 49.9057 74.301 50.0916 74.1497 50.1918C74.1371 50.2004 74.1238 50.2078 74.1099 50.2141C73.9206 50.3078 73.6734 50.2249 73.4345 50.1453C73.2601 50.0865 73.139 50.0461 73.0268 49.9306C72.8293 49.7268 72.7388 49.372 72.877 49.1206C72.8858 49.1043 72.8959 49.0887 72.9073 49.0741C72.9784 48.9762 73.0905 48.9149 73.2883 48.8069Z" fill="#361413"/>
<path d="M73.1467 48.9353C73.3963 48.7988 73.5211 48.7308 73.6911 48.745C73.9452 48.7662 74.1861 48.9575 74.2693 49.1967C74.3167 49.3332 74.2956 49.4507 74.2539 49.6868C74.2093 49.9372 74.1803 50.1033 74.1099 50.2136C73.9206 50.3073 73.6734 50.2244 73.4345 50.1449C73.2601 50.086 73.139 50.0456 73.0268 49.9301C72.8293 49.7263 72.7388 49.3716 72.877 49.1202C72.8858 49.1038 72.8959 49.0882 72.9073 49.0736C72.969 49.0319 73.047 48.9896 73.1467 48.9353Z" fill="#5E201C"/>
<path d="M73.2344 49.6323C73.2344 49.6323 73.3547 50.0331 73.6877 49.9768C74.0207 49.9206 74.1585 49.7263 74.1585 49.7263C74.1585 49.7263 73.6893 49.9108 73.2344 49.6323Z" fill="#C26548"/>
<path d="M76.3176 39.9929C76.5673 39.8568 76.6919 39.7883 76.8621 39.8027C77.1162 39.8238 77.357 40.015 77.4403 40.2547C77.4876 40.3907 77.4668 40.5087 77.425 40.7448C77.3638 41.0916 77.3303 41.2776 77.179 41.3777C77.1664 41.3862 77.1531 41.3937 77.1392 41.4001C76.9499 41.4937 76.7027 41.4109 76.4637 41.3314C76.2894 41.2726 76.1683 41.232 76.0559 41.1166C75.8586 40.9129 75.7681 40.5579 75.9063 40.3065C75.9152 40.2903 75.9253 40.2747 75.9366 40.26C76.0075 40.1622 76.1198 40.1009 76.3176 39.9929Z" fill="#361413"/>
<path d="M76.176 40.1213C76.4254 39.9847 76.5504 39.9167 76.7204 39.9311C76.9745 39.9523 77.2154 40.1435 77.2985 40.3828C77.346 40.5193 77.3249 40.6368 77.2832 40.8722C77.2386 41.1228 77.2096 41.2888 77.1392 41.399C76.9499 41.4926 76.7027 41.4098 76.4637 41.3303C76.2894 41.2715 76.1683 41.2309 76.0559 41.1155C75.8586 40.9118 75.7681 40.5569 75.9063 40.3055C75.9152 40.2892 75.9253 40.2736 75.9366 40.2589C75.9984 40.218 76.0763 40.1755 76.176 40.1213Z" fill="#5E201C"/>
<path d="M76.2656 40.8184C76.2656 40.8184 76.3859 41.2191 76.7189 41.163C77.0519 41.1069 77.1899 40.9125 77.1899 40.9125C77.1899 40.9125 76.7206 41.0968 76.2656 40.8184Z" fill="#C26548"/>
<path d="M78.3566 56.2825C78.6064 56.1464 78.731 56.0779 78.901 56.0922C79.1551 56.1134 79.3961 56.3046 79.4794 56.5444C79.5266 56.6804 79.5059 56.7984 79.464 57.0338C79.4027 57.3808 79.3694 57.5667 79.218 57.6669C79.2053 57.6755 79.192 57.683 79.1781 57.6893C78.9889 57.7829 78.7417 57.6999 78.5027 57.6206C78.3285 57.5618 78.2073 57.5212 78.095 57.4058C77.8976 57.2019 77.8072 56.8471 77.9454 56.5957C77.9541 56.5794 77.9642 56.5638 77.9755 56.5492C78.0466 56.4518 78.1588 56.3905 78.3566 56.2825Z" fill="#361413"/>
<path d="M78.2151 56.4109C78.4645 56.2744 78.5893 56.2064 78.7595 56.2206C79.0136 56.2419 79.2545 56.433 79.3375 56.6723C79.3851 56.8088 79.364 56.9263 79.3222 57.1624C79.2776 57.4128 79.2487 57.5789 79.1781 57.6892C78.9889 57.7828 78.7417 57.6998 78.5027 57.6204C78.3285 57.5616 78.2073 57.5211 78.095 57.4057C77.8976 57.2018 77.8072 56.847 77.9454 56.5956C77.9541 56.5793 77.9642 56.5637 77.9755 56.5491C78.0373 56.5077 78.1153 56.4651 78.2151 56.4109Z" fill="#5E201C"/>
<path d="M78.3027 57.1074C78.3027 57.1074 78.423 57.5082 78.756 57.4519C79.089 57.3957 79.2269 57.2014 79.2269 57.2014C79.2269 57.2014 78.7576 57.3858 78.3027 57.1074Z" fill="#C26548"/>
<path d="M69.7133 40.6892C68.5896 40.8594 67.7696 40.3345 67.5 40.0508C67.6561 39.5684 68.164 38.4078 68.9471 37.6247C69.7303 36.8415 73.9554 35.3972 75.97 34.7729C76.268 35.5107 76.7447 37.1139 76.268 37.6247C75.7913 38.1354 74.8208 38.0361 74.3952 37.9226C74.3243 38.2064 74.0036 38.8845 73.2886 39.3272C72.5735 39.7698 71.884 39.5116 71.6286 39.3272C71.4584 39.7103 70.8369 40.5189 69.7133 40.6892Z" fill="#F9C78A"/>
<path d="M75.8433 37.2419C76.4903 36.9695 76.2973 35.6955 76.0987 35.1138C77.2475 37.9538 76.5233 38.2779 74.4387 37.9229C74.2259 39.668 72.7788 40.1788 71.7147 39.4126C71.2465 40.9449 69.4722 41.0956 68.0117 40.4341C68.2813 40.4341 69.0928 40.3575 70.1824 40.2213C71.272 40.0851 71.4593 39.3417 71.4168 38.987C71.6296 39.0437 72.2425 39.1232 72.9916 38.987C73.7407 38.8508 74.0131 37.9087 74.0557 37.4547C74.382 37.4973 75.1963 37.5143 75.8433 37.2419Z" fill="#B6711F"/>
<path d="M88.4915 57.4539C87.7903 57.7839 87.3616 58.5367 87.2432 59.4992C87.1249 60.461 87.318 61.6251 87.853 62.7622C88.388 63.8992 89.1619 64.79 89.9784 65.312C90.7954 65.8343 91.6487 65.984 92.3499 65.654C93.0511 65.3241 93.4797 64.5713 93.5981 63.6088C93.7164 62.647 93.5234 61.4828 92.9884 60.3458C92.4534 59.2087 91.6795 58.318 90.863 57.796C90.046 57.2737 89.1927 57.124 88.4915 57.4539Z" fill="#F9C78A" stroke="#A37A48" stroke-width="0.0915405"/>
<path d="M85.1887 58.6038C84.4875 58.9338 84.0589 59.6866 83.9405 60.6491C83.8222 61.6109 84.0152 62.775 84.5502 63.9121C85.0853 65.0491 85.8592 65.9399 86.6756 66.4619C87.4927 66.9842 88.346 67.1339 89.0472 66.8039C89.7484 66.474 90.177 65.7212 90.2954 64.7587C90.4137 63.7969 90.2207 62.6328 89.6857 61.4957C89.1506 60.3586 88.3768 59.4679 87.5603 58.9459C86.7432 58.4236 85.89 58.2739 85.1887 58.6038Z" fill="#F9C78A" stroke="#A37A48" stroke-width="0.0915405"/>
<path d="M81.8313 60.2845C81.1301 60.6145 80.7015 61.3673 80.5831 62.3298C80.4648 63.2916 80.6578 64.4557 81.1928 65.5928C81.7278 66.7298 82.5017 67.6206 83.3182 68.1426C84.1353 68.6649 84.9885 68.8146 85.6897 68.4846C86.391 68.1547 86.8196 67.4018 86.938 66.4393C87.0563 65.4775 86.8633 64.3134 86.3282 63.1764C85.7932 62.0393 85.0193 61.1485 84.2029 60.6266C83.3858 60.1042 82.5325 59.9546 81.8313 60.2845Z" fill="#F9C78A" stroke="#A37A48" stroke-width="0.0915405"/>
<path d="M66.8207 31.6235C66.7782 31.3255 67.6294 31.666 67.7146 31.6235V31.9214C67.7146 32.0491 67.9274 32.0065 68.0976 32.3045C68.2679 32.6024 67.7146 32.4321 67.4592 32.4321C67.2038 32.4321 67.3315 32.7726 67.1187 33.028C66.9059 33.2834 66.5228 32.5598 66.6505 32.4321C66.7782 32.3045 66.8633 31.9214 66.8207 31.6235Z" fill="#B6711F"/>
<path d="M56.0515 33.8396C55.6788 33.7562 55.3906 32.9212 55.4942 32.7047L55.6477 32.6294C55.7134 32.5971 55.5588 32.3377 55.6061 32.0462C55.6534 31.7547 55.9107 32.5002 56.0699 32.8245C56.2291 33.1487 56.3249 32.9005 56.5891 33.1061C56.8533 33.3117 56.7195 33.9811 56.5741 33.8512C56.4287 33.7214 56.2281 33.879 56.0515 33.8396Z" fill="#B6711F"/>
<path d="M65.6537 31.6499C65.7493 31.4017 66.1 31.4929 66.1594 31.6499V31.7924C66.1594 31.8534 66.2798 31.8331 66.3761 31.9755C66.4725 32.118 66.1594 32.0366 66.0149 32.0366C65.8704 32.0366 65.9427 32.1994 65.8223 32.3215C65.7019 32.4436 65.4851 32.0976 65.5574 32.0366C65.6296 31.9755 65.6084 31.7675 65.6537 31.6499Z" fill="#B6711F"/>
<path d="M73.2864 107.702C74.5707 111.017 75.472 113.186 76.6288 115.572C77.4915 117.351 79.4565 118.292 81.4001 117.934C82.8321 117.67 84.0942 116.743 84.4944 115.343C85.2397 112.733 85.3165 109.835 85.5446 105.623L77.7552 104.776L73.2864 107.702Z" fill="#EDB470"/>
<ellipse cx="1.96155" cy="2.8229" rx="1.96155" ry="2.8229" transform="matrix(0.983153 -0.181028 -0.180826 -0.98384 73.7402 110.259)" fill="#EDB470"/>
<ellipse cx="1.96155" cy="2.96404" rx="1.96155" ry="2.96404" transform="matrix(0.983153 -0.181028 -0.180826 -0.98384 76.8438 108.54)" fill="#EDB470"/>
<ellipse cx="1.96155" cy="2.8229" rx="1.96155" ry="2.8229" transform="matrix(0.983153 -0.181028 -0.180826 -0.98384 79.9219 108.258)" fill="#EDB470"/>
<ellipse cx="1.82671" cy="2.90867" rx="1.82671" ry="2.90867" transform="matrix(0.999616 -0.00743401 0.0155874 -1.00024 81.9648 108.387)" fill="#EDB470"/>
<path d="M82.9005 110.877C82.9521 112.977 81.6447 113.907 79.8967 113.95C78.1486 113.993 76.6218 113.132 76.5701 111.032C76.5185 108.932 77.8937 107.195 79.6417 107.152C81.3898 107.109 82.8488 108.777 82.9005 110.877Z" fill="#F97F88"/>
<path fill-rule="evenodd" clip-rule="evenodd" d="M73.9937 106.945C74.0973 107.234 74.4752 107.361 74.8378 107.228C75.2004 107.095 75.4104 106.753 75.3069 106.464C75.2034 106.175 74.7579 105.719 74.3953 105.852C74.0327 105.985 73.8902 106.656 73.9937 106.945Z" fill="#F97F88"/>
<path fill-rule="evenodd" clip-rule="evenodd" d="M77.0543 104.603C77.1578 104.892 77.5357 105.019 77.8983 104.886C78.2609 104.753 78.471 104.411 78.3675 104.122C78.2639 103.833 77.8185 103.377 77.4558 103.51C77.0932 103.643 76.9508 104.314 77.0543 104.603Z" fill="#F97F88"/>
<path fill-rule="evenodd" clip-rule="evenodd" d="M80.4605 104.429C80.5641 104.718 80.942 104.844 81.3046 104.712C81.6672 104.579 81.8772 104.237 81.7737 103.948C81.6702 103.659 81.2247 103.203 80.8621 103.336C80.4995 103.468 80.357 104.14 80.4605 104.429Z" fill="#F97F88"/>
<path fill-rule="evenodd" clip-rule="evenodd" d="M83.2459 104.445C83.211 104.75 83.4938 105.031 83.8777 105.072C84.2615 105.114 84.601 104.901 84.636 104.595C84.6709 104.29 84.473 103.684 84.0891 103.643C83.7053 103.601 83.2808 104.14 83.2459 104.445Z" fill="#F97F88"/>
<path d="M55.1886 107.946C54.1747 111.354 53.4505 113.588 52.489 116.059C51.7719 117.902 49.8889 118.997 47.9228 118.797C46.4742 118.649 45.1418 117.826 44.6304 116.462C43.678 113.921 43.3687 111.038 42.8031 106.858L50.4994 105.389L55.1886 107.946Z" fill="#EDB470"/>
<ellipse cx="1.96155" cy="2.8229" rx="1.96155" ry="2.8229" transform="matrix(-0.994515 -0.101494 0.101238 -0.995183 54.9434 110.532)" fill="#EDB470"/>
<ellipse cx="1.96155" cy="2.96404" rx="1.96155" ry="2.96404" transform="matrix(-0.994515 -0.101494 0.101238 -0.995183 51.7129 109.067)" fill="#EDB470"/>
<ellipse cx="1.96155" cy="2.8229" rx="1.96155" ry="2.8229" transform="matrix(-0.994515 -0.101494 0.101238 -0.995183 48.6191 109.034)" fill="#EDB470"/>
<ellipse cx="1.82671" cy="2.90867" rx="1.82671" ry="2.90867" transform="matrix(-0.996985 0.0728618 -0.0958586 -0.995753 46.5938 109.327)" fill="#EDB470"/>
<path d="M45.8604 111.882C45.9775 113.98 47.3554 114.802 49.1013 114.704C50.8472 114.607 52.2999 113.626 52.1828 111.529C52.0657 109.432 50.5554 107.811 48.8095 107.908C47.0636 108.006 45.7433 109.785 45.8604 111.882Z" fill="#F97F88"/>
<path fill-rule="evenodd" clip-rule="evenodd" d="M54.4249 107.247C54.3449 107.544 53.9784 107.701 53.6063 107.597C53.2342 107.494 52.9974 107.17 53.0774 106.874C53.1574 106.577 53.5648 106.087 53.9369 106.19C54.309 106.293 54.5049 106.951 54.4249 107.247Z" fill="#F97F88"/>
<path fill-rule="evenodd" clip-rule="evenodd" d="M51.1866 105.16C51.1066 105.456 50.7402 105.613 50.368 105.51C49.9959 105.406 49.7591 105.082 49.8391 104.786C49.9191 104.49 50.3265 103.999 50.6986 104.102C51.0707 104.206 51.2666 104.863 51.1866 105.16Z" fill="#F97F88"/>
<path fill-rule="evenodd" clip-rule="evenodd" d="M47.7784 105.259C47.6984 105.556 47.332 105.712 46.9598 105.609C46.5877 105.506 46.3509 105.182 46.4309 104.886C46.5109 104.589 46.9183 104.099 47.2904 104.202C47.6625 104.305 47.8584 104.963 47.7784 105.259Z" fill="#F97F88"/>
<path fill-rule="evenodd" clip-rule="evenodd" d="M45.0013 105.499C45.0606 105.8 44.8012 106.103 44.422 106.175C44.0427 106.247 43.6871 106.062 43.6278 105.761C43.5685 105.459 43.7171 104.839 44.0963 104.767C44.4756 104.694 44.9419 105.197 45.0013 105.499Z" fill="#F97F88"/>
<defs>
<filter id="filter0_d_5724_77240" x="70.5397" y="3.24854" width="3.66665" height="6.6857" filterUnits="userSpaceOnUse" color-interpolation-filters="sRGB">
<feFlood flood-opacity="0" result="BackgroundImageFix"/>
<feColorMatrix in="SourceAlpha" type="matrix" values="0 0 0 0 0 0 0 0 0 0 0 0 0 0 0 0 0 0 127 0" result="hardAlpha"/>
<feOffset dy="0.149737"/>
<feGaussianBlur stdDeviation="0.187171"/>
<feColorMatrix type="matrix" values="0 0 0 0 0.834975 0 0 0 0 0.834975 0 0 0 0 0.834975 0 0 0 0.5 0"/>
<feBlend mode="normal" in2="BackgroundImageFix" result="effect1_dropShadow_5724_77240"/>
<feBlend mode="normal" in="SourceGraphic" in2="effect1_dropShadow_5724_77240" result="shape"/>
</filter>
<filter id="filter1_d_5724_77240" x="71.8815" y="5.49268" width="5.43618" height="5.32388" filterUnits="userSpaceOnUse" color-interpolation-filters="sRGB">
<feFlood flood-opacity="0" result="BackgroundImageFix"/>
<feColorMatrix in="SourceAlpha" type="matrix" values="0 0 0 0 0 0 0 0 0 0 0 0 0 0 0 0 0 0 127 0" result="hardAlpha"/>
<feOffset dy="0.149737"/>
<feGaussianBlur stdDeviation="0.187171"/>
<feColorMatrix type="matrix" values="0 0 0 0 0.785892 0 0 0 0 0.785892 0 0 0 0 0.785892 0 0 0 0.5 0"/>
<feBlend mode="normal" in2="BackgroundImageFix" result="effect1_dropShadow_5724_77240"/>
<feBlend mode="normal" in="SourceGraphic" in2="effect1_dropShadow_5724_77240" result="shape"/>
</filter>
<filter id="filter2_d_5724_77240" x="71.6901" y="8.99512" width="6.8229" height="3.48452" filterUnits="userSpaceOnUse" color-interpolation-filters="sRGB">
<feFlood flood-opacity="0" result="BackgroundImageFix"/>
<feColorMatrix in="SourceAlpha" type="matrix" values="0 0 0 0 0 0 0 0 0 0 0 0 0 0 0 0 0 0 127 0" result="hardAlpha"/>
<feOffset dy="0.149737"/>
<feGaussianBlur stdDeviation="0.187171"/>
<feColorMatrix type="matrix" values="0 0 0 0 0.785892 0 0 0 0 0.785892 0 0 0 0 0.785892 0 0 0 0.5 0"/>
<feBlend mode="normal" in2="BackgroundImageFix" result="effect1_dropShadow_5724_77240"/>
<feBlend mode="normal" in="SourceGraphic" in2="effect1_dropShadow_5724_77240" result="shape"/>
</filter>
<filter id="filter3_d_5724_77240" x="71.0788" y="10.334" width="5.01822" height="5.71841" filterUnits="userSpaceOnUse" color-interpolation-filters="sRGB">
<feFlood flood-opacity="0" result="BackgroundImageFix"/>
<feColorMatrix in="SourceAlpha" type="matrix" values="0 0 0 0 0 0 0 0 0 0 0 0 0 0 0 0 0 0 127 0" result="hardAlpha"/>
<feOffset dy="0.149737"/>
<feGaussianBlur stdDeviation="0.187171"/>
<feColorMatrix type="matrix" values="0 0 0 0 0.785892 0 0 0 0 0.785892 0 0 0 0 0.785892 0 0 0 0.5 0"/>
<feBlend mode="normal" in2="BackgroundImageFix" result="effect1_dropShadow_5724_77240"/>
<feBlend mode="normal" in="SourceGraphic" in2="effect1_dropShadow_5724_77240" result="shape"/>
</filter>
<filter id="filter4_d_5724_77240" x="67.7448" y="4.07715" width="4.58072" height="6.06948" filterUnits="userSpaceOnUse" color-interpolation-filters="sRGB">
<feFlood flood-opacity="0" result="BackgroundImageFix"/>
<feColorMatrix in="SourceAlpha" type="matrix" values="0 0 0 0 0 0 0 0 0 0 0 0 0 0 0 0 0 0 127 0" result="hardAlpha"/>
<feOffset dy="0.149737"/>
<feGaussianBlur stdDeviation="0.187171"/>
<feColorMatrix type="matrix" values="0 0 0 0 0.838683 0 0 0 0 0.838683 0 0 0 0 0.838683 0 0 0 0.5 0"/>
<feBlend mode="normal" in2="BackgroundImageFix" result="effect1_dropShadow_5724_77240"/>
<feBlend mode="normal" in="SourceGraphic" in2="effect1_dropShadow_5724_77240" result="shape"/>
</filter>
<filter id="filter5_d_5724_77240" x="64.6784" y="6.92481" width="6.46353" height="3.99966" filterUnits="userSpaceOnUse" color-interpolation-filters="sRGB">
<feFlood flood-opacity="0" result="BackgroundImageFix"/>
<feColorMatrix in="SourceAlpha" type="matrix" values="0 0 0 0 0 0 0 0 0 0 0 0 0 0 0 0 0 0 127 0" result="hardAlpha"/>
<feOffset dy="0.149737"/>
<feGaussianBlur stdDeviation="0.187171"/>
<feColorMatrix type="matrix" values="0 0 0 0 0.785892 0 0 0 0 0.785892 0 0 0 0 0.785892 0 0 0 0.5 0"/>
<feBlend mode="normal" in2="BackgroundImageFix" result="effect1_dropShadow_5724_77240"/>
<feBlend mode="normal" in="SourceGraphic" in2="effect1_dropShadow_5724_77240" result="shape"/>
</filter>
<filter id="filter6_d_5724_77240" x="69.2468" y="10.2832" width="3.56118" height="6.75943" filterUnits="userSpaceOnUse" color-interpolation-filters="sRGB">
<feFlood flood-opacity="0" result="BackgroundImageFix"/>
<feColorMatrix in="SourceAlpha" type="matrix" values="0 0 0 0 0 0 0 0 0 0 0 0 0 0 0 0 0 0 127 0" result="hardAlpha"/>
<feOffset dy="0.149737"/>
<feGaussianBlur stdDeviation="0.187171"/>
<feColorMatrix type="matrix" values="0 0 0 0 0.785892 0 0 0 0 0.785892 0 0 0 0 0.785892 0 0 0 0.5 0"/>
<feBlend mode="normal" in2="BackgroundImageFix" result="effect1_dropShadow_5724_77240"/>
<feBlend mode="normal" in="SourceGraphic" in2="effect1_dropShadow_5724_77240" result="shape"/>
</filter>
<filter id="filter7_d_5724_77240" x="65.2135" y="9.667" width="6.52603" height="3.90249" filterUnits="userSpaceOnUse" color-interpolation-filters="sRGB">
<feFlood flood-opacity="0" result="BackgroundImageFix"/>
<feColorMatrix in="SourceAlpha" type="matrix" values="0 0 0 0 0 0 0 0 0 0 0 0 0 0 0 0 0 0 127 0" result="hardAlpha"/>
<feOffset dy="0.149737"/>
<feGaussianBlur stdDeviation="0.187171"/>
<feColorMatrix type="matrix" values="0 0 0 0 0.914374 0 0 0 0 0.914374 0 0 0 0 0.914374 0 0 0 0.5 0"/>
<feBlend mode="normal" in2="BackgroundImageFix" result="effect1_dropShadow_5724_77240"/>
<feBlend mode="normal" in="SourceGraphic" in2="effect1_dropShadow_5724_77240" result="shape"/>
</filter>
</defs>
</svg>
