<svg width="40" height="40" viewBox="0 0 40 40" fill="none" xmlns="http://www.w3.org/2000/svg">
<path d="M36.4883 27.5575L23.3657 17.1397C22.6361 16.5605 21.5712 17.0896 21.5712 18.0315L21.5712 38.867C21.5712 39.8088 22.6361 40.338 23.3657 39.7587L36.4883 29.341C37.0586 28.8882 37.0586 28.0103 36.4883 27.5575Z" fill="#5C62F9"/>
<path d="M2.85745 27.5575L15.98 17.1397C16.7096 16.5605 17.7745 17.0896 17.7745 18.0315L17.7745 38.867C17.7745 39.8088 16.7096 40.338 15.98 39.7587L2.85745 29.341C2.2871 28.8882 2.2871 28.0103 2.85745 27.5575Z" fill="#5C62F9"/>
<circle cx="20.1006" cy="14.2256" r="14.2256" fill="#35C89F"/>
<circle cx="20.1065" cy="14.2257" r="8.19052" fill="white"/>
</svg>
