<svg width="40" height="41" viewBox="0 0 40 41" fill="none" xmlns="http://www.w3.org/2000/svg">
<rect x="-0.000976562" y="1.94336" width="7.50783" height="31.5329" rx="1.50157" transform="rotate(-15 -0.000976562 1.94336)" fill="#5C62F9"/>
<path d="M15.4018 39.426L17.2121 32.9186C17.3418 32.3963 16.8633 31.9265 16.3434 32.0658L8.86741 34.069C8.31645 34.2166 8.15843 34.9226 8.59388 35.291L14.2596 39.7952C14.6595 40.1335 15.2756 39.9344 15.4018 39.426Z" fill="#5C62F9"/>
<rect x="16.667" y="15" width="23.3332" height="4.99997" rx="1.66666" fill="#FFCC00"/>
<path d="M22.8281 0C21.6754 0 20.5486 0.339227 19.5902 0.974784C18.6318 1.61034 17.8848 2.51368 17.4436 3.57058C17.0025 4.62747 16.8871 5.79044 17.112 6.91244C17.3369 8.03443 17.8919 9.06504 18.707 9.87395C19.5221 10.6829 20.5606 11.2337 21.6911 11.4569C22.8217 11.6801 23.9935 11.5656 25.0585 11.1278C26.1234 10.69 27.0336 9.94864 27.674 8.99746C28.3144 8.04628 28.6562 6.928 28.6562 5.78403C28.6562 4.25001 28.0422 2.77882 26.9492 1.6941C25.8562 0.609387 24.3738 0 22.8281 0Z" fill="#35C89F"/>
<rect x="16.667" y="24" width="14.9999" height="4.99997" rx="1.66666" fill="#F97F88"/>
<rect x="34.999" y="24" width="4.99997" height="4.99997" rx="2.49998" fill="#F97F88"/>
</svg>
