<svg width="42" height="41" viewBox="0 0 42 41" fill="none" xmlns="http://www.w3.org/2000/svg">
<path d="M28.3261 9.87498C27.237 14.059 23.0592 16.542 18.9947 15.4209C14.9302 14.2998 12.5181 9.99912 13.6072 5.8151C14.6963 1.63107 18.8741 -0.851913 22.9386 0.269194C27.0031 1.3903 29.4152 5.69096 28.3261 9.87498Z" fill="#5C62F9"/>
<path d="M35.9293 37.3721C37.2105 37.3721 38.2646 36.3282 38.1048 35.057C37.0106 26.3507 29.8293 19.627 21.1334 19.627C12.4374 19.627 5.25609 26.3507 4.16192 35.057C4.00217 36.3282 5.05619 37.3721 6.33739 37.3721L35.9293 37.3721Z" fill="#F97F88"/>
<path d="M35.7857 25.7336C35.2133 27.8029 33.0175 29.031 30.8812 28.4765C28.7449 27.922 27.4771 25.795 28.0496 23.7257C28.622 21.6563 30.8178 20.4283 32.9541 20.9827C35.0904 21.5372 36.3581 23.6643 35.7857 25.7336Z" fill="#5C62F9"/>
<path d="M39.7824 40.0023C40.4558 40.0023 41.0106 39.4532 40.9173 38.7864C40.3143 34.4795 36.5543 31.1621 32.0057 31.1621C27.4572 31.1621 23.6971 34.4795 23.0942 38.7864C23.0008 39.4532 23.5557 40.0023 24.229 40.0023H39.7824Z" fill="#FFCC00"/>
<path d="M13.774 25.7336C13.2016 27.8029 11.0058 29.031 8.86947 28.4765C6.73319 27.922 5.46542 25.795 6.03784 23.7257C6.61025 21.6563 8.80609 20.4283 10.9424 20.9827C13.0787 21.5372 14.3464 23.6643 13.774 25.7336Z" fill="#5C62F9"/>
<path d="M17.7707 40.0023C18.4441 40.0023 18.9989 39.4532 18.9055 38.7864C18.3026 34.4795 14.5425 31.1621 9.994 31.1621C5.44546 31.1621 1.68538 34.4795 1.08245 38.7864C0.989086 39.4532 1.54394 40.0023 2.21733 40.0023H17.7707Z" fill="#FFCC00"/>
</svg>
