<svg width="40" height="40" viewBox="0 0 40 40" fill="none" xmlns="http://www.w3.org/2000/svg">
<path d="M6.83283 35.5108L9.33336 26.2389C9.47717 25.7057 10.0264 25.3886 10.5601 25.5307L18.0982 27.5375C18.6319 27.6796 18.948 28.227 18.8042 28.7602L16.3036 38.0321C16.0872 38.8345 15.0426 39.0411 14.5399 38.3809L12.4931 35.6927C12.2174 35.3307 11.731 35.2012 11.3102 35.3778L8.18469 36.6891C7.41716 37.0111 6.61644 36.3132 6.83283 35.5108Z" fill="#FFCC00"/>
<path d="M32.2433 35.5108L29.7428 26.2389C29.599 25.7057 29.0498 25.3886 28.5161 25.5307L20.978 27.5375C20.4443 27.6796 20.1282 28.227 20.272 28.7602L22.7726 38.0321C22.9889 38.8345 24.0336 39.0411 24.5363 38.3809L26.5831 35.6927C26.8587 35.3307 27.3451 35.2012 27.766 35.3778L30.8915 36.6891C31.659 37.0111 32.4597 36.3132 32.2433 35.5108Z" fill="#FFCC00"/>
<path d="M19.9988 0C16.9029 0 13.8766 0.912111 11.3024 2.62099C8.72828 4.32987 6.72198 6.75877 5.53723 9.60053C4.35249 12.4423 4.0425 15.5693 4.64648 18.5861C5.25046 21.6029 6.74128 24.374 8.9304 26.549C11.1195 28.724 13.9087 30.2052 16.9451 30.8053C19.9815 31.4053 23.1288 31.0973 25.989 29.9202C28.8493 28.7432 31.2939 26.7498 33.0139 24.1923C34.7339 21.6348 35.652 18.6279 35.652 15.552C35.652 11.4274 34.0028 7.47166 31.0673 4.55509C28.1317 1.63851 24.1503 0 19.9988 0Z" fill="#35C89F"/>
</svg>
