<svg width="40" height="40" viewBox="0 0 40 40" fill="none" xmlns="http://www.w3.org/2000/svg">
<path d="M20.7149 24.5885C19.9649 25.1736 18.9023 25.1736 18.1522 24.5885L5.33879 17.8877C4.58873 17.3026 3.54699 17.3026 2.79693 17.8877C1.73436 18.7235 1.73436 20.3325 2.79693 21.1684L16.8813 28.8723C18.3814 30.0425 20.4857 30.0425 22.0067 28.8723L36.091 21.1684C37.1536 20.3325 37.1536 18.7235 36.091 17.8877L36.0702 17.8668C35.3202 17.2817 34.2784 17.2817 33.5284 17.8668L20.7149 24.5885ZM22.0275 19.3737L36.1119 11.6698C37.1745 10.8339 37.1745 9.20402 36.1119 8.36817L24.2511 1.88055C22.7694 1.07006 21.2827 0.0422431 19.5942 0.000749539C17.7364 -0.0449069 16.086 1.11188 14.4566 2.00554L2.81777 8.38906C1.75519 9.22492 1.75519 10.8548 2.81777 11.6907L16.9021 19.3946C18.4022 20.5648 20.5274 20.5648 22.0275 19.3737Z" fill="#F97F88"/>
<path d="M5.44816 28.1355L18.2616 34.8364C18.2616 34.8364 18.9904 35.0878 19.5916 35.0675C20.1603 35.0483 20.8243 34.8364 20.8243 34.8364L33.6377 28.1146C34.3878 27.5295 35.4295 27.5295 36.1796 28.1146L36.2004 28.1355C37.263 28.9714 37.263 30.5804 36.2004 31.4162L22.1161 39.1201C22.1161 39.1201 20.7231 39.9845 19.5916 39.9989C18.434 40.0136 16.9907 39.1201 16.9907 39.1201L2.90631 31.4162C1.84373 30.5804 1.84373 28.9714 2.90631 28.1355C3.65636 27.5504 4.69811 27.5504 5.44816 28.1355Z" fill="#5C62F9"/>
</svg>
